<?xml version="1.0" encoding="utf-8"?>
<!-- Generator: Adobe Illustrator 19.1.0, SVG Export Plug-In . SVG Version: 6.00 Build 0)  -->
<svg version="1.1" id="Layer_1" xmlns="http://www.w3.org/2000/svg" xmlns:xlink="http://www.w3.org/1999/xlink" x="0px" y="0px"
	 viewBox="0 0 100 89.7" style="enable-background:new 0 0 100 89.7;" xml:space="preserve">
<style type="text/css">
	.st0{fill:#ED3985;}
	.st1{fill:#5F7D7A;}
	.st2{fill:#3F6DB5;}
	.st3{fill:#F15B2A;stroke:#F15B2A;}
</style>
<g>
	<g>
		<g>
			<path class="st0" d="M88.6,31.3H56.3c0.1-0.6,0.2-1.2,0.2-1.8V9.7c0-5.4-4.4-9.7-9.7-9.7H9.7C4.4,0,0,4.4,0,9.7v19.8
				c0,5.4,4.4,9.7,9.7,9.7h5.7l-0.3,7.2c0,0.6,0.3,1.3,0.9,1.6c0.3,0.2,0.6,0.2,0.9,0.2c0.3,0,0.7-0.1,0.9-0.3l13.4-8.7h1.7
				c-0.4,1.1-0.5,2.3-0.5,3.5v24c0,6.3,5.1,11.4,11.4,11.4h4.9l10.8,11.1c0.3,0.3,0.8,0.5,1.2,0.5c0.2,0,0.4,0,0.6-0.1
				c0.6-0.2,1.1-0.8,1.1-1.5l1-10h25.1c6.3,0,11.4-5.1,11.4-11.4v-24C100,36.4,94.9,31.3,88.6,31.3z M34.8,35.8h-4
				c-0.3,0-0.7,0.1-0.9,0.3l-11.1,7.2l0.2-5.6c0-0.5-0.2-0.9-0.5-1.3c-0.3-0.3-0.8-0.5-1.3-0.5H9.7c-3.4,0-6.3-2.8-6.3-6.2V9.7
				c0-3.4,2.8-6.3,6.2-6.3h37.1c3.4,0,6.3,2.8,6.3,6.3v19.8c0,0.6-0.1,1.2-0.3,1.8h-9C40.1,31.3,36.8,33.1,34.8,35.8z M96.5,66.7
				c0,4.4-3.6,7.9-7.9,7.9H61.9c-0.9,0-1.6,0.7-1.7,1.6l-0.8,7.9l-8.8-8.9c-0.3-0.3-0.8-0.5-1.2-0.5h-5.6c-4.4,0-7.9-3.6-7.9-7.9
				v-24c0-4.4,3.6-7.9,7.9-7.9h44.8v0c4.4,0,7.9,3.6,7.9,7.9L96.5,66.7L96.5,66.7z"/>
		</g>
	</g>
	<g>
		<g>
			<path class="st0" d="M35.8,13.1c-0.2-3.8-3.3-6.8-7.1-7.1c-2.1-0.1-4.1,0.6-5.7,2c-1.5,1.4-2.4,3.4-2.4,5.5c0,1,0.8,1.7,1.7,1.7
				c1,0,1.7-0.8,1.7-1.7c0-1.1,0.5-2.2,1.3-3c0.8-0.8,1.9-1.2,3.1-1.1c2,0.1,3.7,1.8,3.8,3.8c0.1,1.5-0.7,3-2,3.8
				c-2.4,1.5-3.9,4-3.9,6.8c0,1,0.8,1.7,1.7,1.7S30,24.9,30,24c0-1.6,0.8-3,2.2-3.9C34.6,18.6,36,15.9,35.8,13.1z"/>
		</g>
	</g>
	<g>
		<g>
			<path class="st1" d="M66.2,41.8c-1,0-1.7,0.8-1.7,1.7v14.7c0,1,0.8,1.7,1.7,1.7c1,0,1.7-0.8,1.7-1.7V43.5
				C67.9,42.6,67.2,41.8,66.2,41.8z"/>
		</g>
	</g>
	<g>
		<g>
			<circle class="st2" cx="66.2" cy="65.9" r="1.7"/>
		</g>
	</g>
	<g>
		<g>
			<circle class="st3" cx="28.3" cy="30.4" r="1.7"/>
		</g>
	</g>
</g>
</svg>
