<?xml version="1.0" encoding="utf-8"?>
<!-- Generator: Adobe Illustrator 19.1.0, SVG Export Plug-In . SVG Version: 6.00 Build 0)  -->
<svg version="1.1" id="Capa_1" xmlns="http://www.w3.org/2000/svg" xmlns:xlink="http://www.w3.org/1999/xlink" x="0px" y="0px"
	 viewBox="-285 377 40 40" style="enable-background:new -285 377 40 40;" xml:space="preserve">
<style type="text/css">
	.st0{fill:#FFFFFF;}
</style>
<g id="Close">
	<path class="st0" d="M-261.4,397l10.7-10.7c1-1,1-2.6,0-3.6s-2.6-1-3.6,0l-10.7,10.7l-10.7-10.7c-1-1-2.6-1-3.6,0s-1,2.6,0,3.6
		l10.7,10.7l-10.7,10.7c-1,1-1,2.6,0,3.6s2.6,1,3.6,0l10.7-10.7l10.7,10.7c1,1,2.6,1,3.6,0s1-2.6,0-3.6L-261.4,397z"/>
</g>
</svg>
