<?xml version="1.0" encoding="utf-8"?>
<!-- Generator: Adobe Illustrator 26.3.1, SVG Export Plug-In . SVG Version: 6.00 Build 0)  -->
<svg version="1.1" id="Layer_1" xmlns="http://www.w3.org/2000/svg" xmlns:xlink="http://www.w3.org/1999/xlink" x="0px" y="0px"
	 viewBox="0 0 40.6 44" style="enable-background:new 0 0 40.6 44;" xml:space="preserve">
<style type="text/css">
	.st0{clip-path:url(#SVGID_00000083076228550148302040000016943210935693729706_);fill:#1BABE2;}
</style>
<g>
	<defs>
		<rect id="SVGID_1_" width="40.6" height="44"/>
	</defs>
	<clipPath id="SVGID_00000119814259048143803170000015321319637421526422_">
		<use xlink:href="#SVGID_1_"  style="overflow:visible;"/>
	</clipPath>
	<path style="clip-path:url(#SVGID_00000119814259048143803170000015321319637421526422_);fill:#1BABE2;" d="M14.6,22h-9
		C5.3,22,5,22.3,5,22.7c0,0.4,0.3,0.6,0.7,0.6h9c0.4,0,0.7-0.3,0.7-0.6C15.3,22.3,15,22,14.6,22"/>
	<path style="clip-path:url(#SVGID_00000119814259048143803170000015321319637421526422_);fill:#1BABE2;" d="M14.6,27.7h-9
		c-0.4,0-0.7,0.3-0.7,0.6c0,0.4,0.3,0.6,0.7,0.6h9c0.4,0,0.7-0.3,0.7-0.6C15.3,27.9,15,27.7,14.6,27.7"/>
	<path style="clip-path:url(#SVGID_00000119814259048143803170000015321319637421526422_);fill:#1BABE2;" d="M14.6,33.3h-9
		c-0.4,0-0.7,0.3-0.7,0.6c0,0.4,0.3,0.6,0.7,0.6h9c0.4,0,0.7-0.3,0.7-0.6C15.3,33.6,15,33.3,14.6,33.3"/>
	<path style="clip-path:url(#SVGID_00000119814259048143803170000015321319637421526422_);fill:#1BABE2;" d="M22.1,26.9h1.4
		c0.4,0,0.7-0.3,0.7-0.6c0-0.4-0.3-0.6-0.7-0.6h-1.4c-0.4,0-0.7,0.3-0.7,0.6C21.4,26.6,21.7,26.9,22.1,26.9"/>
	<path style="clip-path:url(#SVGID_00000119814259048143803170000015321319637421526422_);fill:#1BABE2;" d="M27.8,25.6h-1.4
		c-0.4,0-0.7,0.3-0.7,0.6c0,0.4,0.3,0.6,0.7,0.6h1.4c0.4,0,0.7-0.3,0.7-0.6C28.5,25.9,28.2,25.6,27.8,25.6"/>
	<path style="clip-path:url(#SVGID_00000119814259048143803170000015321319637421526422_);fill:#1BABE2;" d="M32.1,25.6h-1.4
		c-0.4,0-0.7,0.3-0.7,0.6c0,0.4,0.3,0.6,0.7,0.6h1.4c0.4,0,0.7-0.3,0.7-0.6C32.8,25.9,32.5,25.6,32.1,25.6"/>
	<path style="clip-path:url(#SVGID_00000119814259048143803170000015321319637421526422_);fill:#1BABE2;" d="M36.4,25.6H35
		c-0.4,0-0.7,0.3-0.7,0.6c0,0.4,0.3,0.6,0.7,0.6h1.4c0.4,0,0.7-0.3,0.7-0.6C37.1,25.9,36.8,25.6,36.4,25.6"/>
	<path style="clip-path:url(#SVGID_00000119814259048143803170000015321319637421526422_);fill:#1BABE2;" d="M22.1,30.2h1.4
		c0.4,0,0.7-0.3,0.7-0.6c0-0.4-0.3-0.6-0.7-0.6h-1.4c-0.4,0-0.7,0.3-0.7,0.6C21.4,29.9,21.7,30.2,22.1,30.2"/>
	<path style="clip-path:url(#SVGID_00000119814259048143803170000015321319637421526422_);fill:#1BABE2;" d="M27.8,28.9h-1.4
		c-0.4,0-0.7,0.3-0.7,0.6c0,0.4,0.3,0.6,0.7,0.6h1.4c0.4,0,0.7-0.3,0.7-0.6C28.5,29.2,28.2,28.9,27.8,28.9"/>
	<path style="clip-path:url(#SVGID_00000119814259048143803170000015321319637421526422_);fill:#1BABE2;" d="M32.1,28.9h-1.4
		c-0.4,0-0.7,0.3-0.7,0.6c0,0.4,0.3,0.6,0.7,0.6h1.4c0.4,0,0.7-0.3,0.7-0.6C32.8,29.2,32.5,28.9,32.1,28.9"/>
	<path style="clip-path:url(#SVGID_00000119814259048143803170000015321319637421526422_);fill:#1BABE2;" d="M36.4,28.9H35
		c-0.4,0-0.7,0.3-0.7,0.6c0,0.4,0.3,0.6,0.7,0.6h1.4c0.4,0,0.7-0.3,0.7-0.6C37.1,29.2,36.8,28.9,36.4,28.9"/>
	<path style="clip-path:url(#SVGID_00000119814259048143803170000015321319637421526422_);fill:#1BABE2;" d="M22.1,33.6h1.4
		c0.4,0,0.7-0.3,0.7-0.6c0-0.4-0.3-0.6-0.7-0.6h-1.4c-0.4,0-0.7,0.3-0.7,0.6C21.4,33.3,21.7,33.6,22.1,33.6"/>
	<path style="clip-path:url(#SVGID_00000119814259048143803170000015321319637421526422_);fill:#1BABE2;" d="M27.8,32.3h-1.4
		c-0.4,0-0.7,0.3-0.7,0.6c0,0.4,0.3,0.6,0.7,0.6h1.4c0.4,0,0.7-0.3,0.7-0.6C28.5,32.6,28.2,32.3,27.8,32.3"/>
	<path style="clip-path:url(#SVGID_00000119814259048143803170000015321319637421526422_);fill:#1BABE2;" d="M32.1,32.3h-1.4
		c-0.4,0-0.7,0.3-0.7,0.6c0,0.4,0.3,0.6,0.7,0.6h1.4c0.4,0,0.7-0.3,0.7-0.6C32.8,32.6,32.5,32.3,32.1,32.3"/>
	<path style="clip-path:url(#SVGID_00000119814259048143803170000015321319637421526422_);fill:#1BABE2;" d="M36.4,32.3H35
		c-0.4,0-0.7,0.3-0.7,0.6c0,0.4,0.3,0.6,0.7,0.6h1.4c0.4,0,0.7-0.3,0.7-0.6C37.1,32.6,36.8,32.3,36.4,32.3"/>
	<path style="clip-path:url(#SVGID_00000119814259048143803170000015321319637421526422_);fill:#1BABE2;" d="M8.1,9.8
		C7.8,9.6,7.7,9.1,7.8,8.6c0.1-0.5,0.4-1.1,1.1-1.3c0,0,0,0,0,0v3C8.6,10.1,8.3,10,8.1,9.8 M10.2,12.2c0.1,0,0.2,0.1,0.3,0.1
		c1.5,0.5,1.4,1.7,1.3,2.1c-0.1,0.7-0.7,1.5-1.6,1.8V12.2z M7.1,15.6c-0.3-0.2-0.7-0.1-0.9,0.2c-0.2,0.3-0.1,0.7,0.2,0.9
		c1,0.6,1.6,0.8,2.5,0.8v0.9c0,0.4,0.3,0.6,0.7,0.6c0.4,0,0.7-0.3,0.7-0.6v-0.9c1.7-0.3,2.7-1.6,2.9-2.9c0.3-1.6-0.6-2.9-2.2-3.5
		c-0.3-0.1-0.5-0.2-0.7-0.3V7.3c0.6,0.1,1,0.4,1.1,0.5c0.3,0.2,0.7,0.2,0.9,0c0.2-0.3,0.2-0.7,0-0.9c0,0-0.8-0.7-2-0.8V5.2
		c0-0.4-0.3-0.6-0.7-0.6c-0.4,0-0.7,0.3-0.7,0.6V6C8.8,6,8.6,6.1,8.5,6.1c-1,0.3-1.8,1.2-2,2.3c-0.2,1,0.1,1.9,0.9,2.5
		c0.4,0.3,0.9,0.6,1.6,0.9v4.5C8.2,16.2,7.8,16.1,7.1,15.6"/>
	<path style="clip-path:url(#SVGID_00000119814259048143803170000015321319637421526422_);fill:#1BABE2;" d="M27.7,2.2
		c0.5,0.5,5,4.8,5.7,5.5h-4.7c-0.6,0-1-0.4-1-1V2.2z M35,40.2c-0.4,0-0.7,0.3-0.7,0.6v0.5c0,0.8-0.6,1.4-1.4,1.4H2.8
		c-0.8,0-1.4-0.6-1.4-1.4V2.7c0-0.8,0.6-1.4,1.4-1.4h23.3c0.1,0,0.1,0,0.2,0v5.4c0,1.3,1.1,2.3,2.4,2.3h5.6c0,0.1,0,0.1,0,0.2v3.1
		c0,0.4,0.3,0.6,0.7,0.6c0.4,0,0.7-0.3,0.7-0.6V9.2c0-0.7-0.4-1.5-0.8-1.9c-0.3-0.3-6.7-6.5-6.7-6.5l0,0c0,0,0,0,0,0h0c0,0,0,0,0,0
		C27.6,0.3,26.9,0,26.1,0H2.8C1.2,0,0,1.2,0,2.7v38.6C0,42.8,1.2,44,2.8,44h30.1c1.5,0,2.8-1.2,2.8-2.7v-0.5
		C35.6,40.5,35.3,40.2,35,40.2"/>
	<path style="clip-path:url(#SVGID_00000119814259048143803170000015321319637421526422_);fill:#1BABE2;" d="M38.2,14.6h-18
		c-1.3,0-2.3,1-2.3,2.2V19c0,0.4,0.3,0.6,0.7,0.6c0.4,0,0.7-0.3,0.7-0.6v-2.2c0-0.5,0.4-0.9,1-0.9h18c0.5,0,1,0.4,1,0.9v19.4
		c0,0.5-0.4,0.9-1,0.9h-18c-0.5,0-1-0.4-1-0.9V22c0-0.4-0.3-0.6-0.7-0.6c-0.4,0-0.7,0.3-0.7,0.6v14.2c0,1.2,1,2.2,2.3,2.2h18
		c1.3,0,2.3-1,2.3-2.2V16.9C40.6,15.6,39.5,14.6,38.2,14.6"/>
	<path style="clip-path:url(#SVGID_00000119814259048143803170000015321319637421526422_);fill:#1BABE2;" d="M35.7,22h-13v-3h13V22z
		 M37.1,18.9c0-0.6-0.5-1.1-1.2-1.1H22.6c-0.7,0-1.2,0.5-1.2,1.1v3.3c0,0.6,0.5,1.1,1.2,1.1h13.3c0.6,0,1.2-0.5,1.2-1.1V18.9z"/>
</g>
</svg>
