<?xml version="1.0" encoding="utf-8"?>
<!-- Generator: Adobe Illustrator 19.1.0, SVG Export Plug-In . SVG Version: 6.00 Build 0)  -->
<svg version="1.1" id="Layer_1" xmlns="http://www.w3.org/2000/svg" xmlns:xlink="http://www.w3.org/1999/xlink" x="0px" y="0px"
	 viewBox="0 0 102.8 102.5" style="enable-background:new 0 0 102.8 102.5;" xml:space="preserve">
<style type="text/css">
	.st0{fill:none;stroke:#F15B2A;stroke-width:2.4;stroke-miterlimit:10;}
</style>
<g>
	<path class="st0" d="M90.3,86.5h7.3l-0.3,14.8H1.2v-6.6h4.2h16.3h60.4l0.6-8.2h7.9l0.3-19.2l-3.2-1.8l-4.1-2.3L16.3,25.5l-7.9,5.8
		l-7.3-4V17.1L10,1.7l14.8,8.8l-3,6L101.2,62l-4.8,8.4l-5.4-3.2 M70.8,84.9L36,60.4 M26.5,85.1l34.9-25.5 M56.3,47.7l18.5,47.8
		 M43.3,42L22.4,94.9 M6.6,30.1v64.7h1.3"/>
</g>
</svg>
