<?xml version="1.0" encoding="utf-8"?>
<!-- Generator: Adobe Illustrator 26.3.1, SVG Export Plug-In . SVG Version: 6.00 Build 0)  -->
<svg version="1.1" id="Layer_1" xmlns="http://www.w3.org/2000/svg" xmlns:xlink="http://www.w3.org/1999/xlink" x="0px" y="0px"
	 viewBox="0 0 147.5 147.5" style="enable-background:new 0 0 147.5 147.5;" xml:space="preserve">
<style type="text/css">
	.st0{clip-path:url(#SVGID_00000057139047807337138970000002845283671170968756_);fill:#F1613C;}
	.st1{clip-path:url(#SVGID_00000057139047807337138970000002845283671170968756_);fill:#FFFFFF;}
	.st2{fill:#FFFFFF;}
</style>
<g>
	<defs>
		<rect id="SVGID_1_" width="147.5" height="147.5"/>
	</defs>
	<clipPath id="SVGID_00000079467187297116813670000000790670081747182242_">
		<use xlink:href="#SVGID_1_"  style="overflow:visible;"/>
	</clipPath>
	<path style="clip-path:url(#SVGID_00000079467187297116813670000000790670081747182242_);fill:#F1613C;" d="M73.8,147.5
		c40.7,0,73.8-33,73.8-73.8C147.5,33,114.5,0,73.8,0S0,33,0,73.8C0,114.5,33,147.5,73.8,147.5"/>
	<path style="clip-path:url(#SVGID_00000079467187297116813670000000790670081747182242_);fill:#FFFFFF;" d="M33.8,50.5l3.2-0.8
		l0.2-0.7c0.2-0.8,0.6-1.5,1-2.3l0.4-0.7l-1.7-2.9l4.3-4.3l2.9,1.7l0.7-0.3c0.8-0.4,1.5-0.7,2.3-1l0.7-0.2l0.8-3.2h6.1l0.8,3.2
		l0.7,0.2c0.8,0.2,1.5,0.6,2.3,1l0.7,0.3l2.9-1.7l4.3,4.3l-1.7,2.9l0.3,0.7c0.4,0.8,0.7,1.5,1,2.3l0.2,0.7l3.2,0.8v6.1l-3.2,0.8
		L66,58.1c-0.2,0.8-0.6,1.5-1,2.3l-0.3,0.7l1.7,2.9l-4.3,4.3l-2.9-1.7l-0.7,0.3c-0.8,0.4-1.5,0.7-2.3,1l-0.7,0.2l-0.8,3.2h-6.1
		l-0.8-3.2L47,67.9c-0.8-0.2-1.5-0.6-2.3-1L44,66.6l-2.9,1.7L36.9,64l1.7-2.9l-0.4-0.7c-0.4-0.8-0.7-1.5-1-2.3L37,57.4l-3.2-0.8
		V50.5z M35.4,61l-2,3.4l7.3,7.3l3.4-2c0.4,0.2,0.9,0.4,1.3,0.5l1,3.8h10.4l1-3.8c0.4-0.2,0.9-0.3,1.3-0.5l3.4,2l7.3-7.3l-2-3.4
		c0.2-0.4,0.4-0.9,0.5-1.3l3.8-1V48.3l-3.8-1c-0.2-0.4-0.3-0.9-0.5-1.3l2-3.4l-7.3-7.3l-3.4,2c-0.4-0.2-0.9-0.4-1.3-0.5l-1-3.8H46.4
		l-1,3.8c-0.4,0.2-0.9,0.3-1.3,0.5l-3.4-2l-7.3,7.3l2,3.4c-0.2,0.4-0.4,0.9-0.5,1.3l-3.8,1v10.4l3.8,1C35,60.1,35.2,60.6,35.4,61"/>
	<path style="clip-path:url(#SVGID_00000079467187297116813670000000790670081747182242_);fill:#FFFFFF;" d="M51.6,43.9
		c5.3,0,9.6,4.3,9.6,9.6s-4.3,9.6-9.6,9.6S42,58.8,42,53.5S46.3,43.9,51.6,43.9 M51.6,65.9c6.8,0,12.3-5.5,12.3-12.3
		c0-6.8-5.5-12.3-12.3-12.3s-12.3,5.5-12.3,12.3C39.3,60.3,44.8,65.9,51.6,65.9"/>
	<path style="clip-path:url(#SVGID_00000079467187297116813670000000790670081747182242_);fill:#FFFFFF;" d="M109.2,115.2h-1.4V107
		h1.4c2.3,0,4.1,1.8,4.1,4.1C113.3,113.4,111.5,115.2,109.2,115.2 M63.9,111.1c0-0.3,0.2-0.6,0.5-0.8l5-2.5v6.5l-5-2.5
		C64.1,111.7,63.9,111.4,63.9,111.1 M105.1,109.7H72.2V107h32.9V109.7z M72.2,112.5h32.9v2.7H72.2V112.5z M109.2,104.2H70.5
		l-7.3,3.6c-1.2,0.6-2,1.8-2,3.2s0.8,2.6,2,3.2l7.3,3.6h38.7c3.8,0,6.9-3.1,6.9-6.9S113,104.2,109.2,104.2"/>
	<path style="clip-path:url(#SVGID_00000079467187297116813670000000790670081747182242_);fill:#FFFFFF;" d="M92.7,89.2
		c-1.5,0-2.7-1.2-2.7-2.7c0-1.5,1.2-2.7,2.7-2.7c1.5,0,2.7,1.2,2.7,2.7C95.5,87.9,94.2,89.2,92.7,89.2 M73.5,89.2
		c-1.5,0-2.7-1.2-2.7-2.7c0-1.5,1.2-2.7,2.7-2.7c1.5,0,2.7,1.2,2.7,2.7C76.3,87.9,75.1,89.2,73.5,89.2 M54.4,89.2
		c-1.5,0-2.7-1.2-2.7-2.7c0-1.5,1.2-2.7,2.7-2.7c1.5,0,2.7,1.2,2.7,2.7C57.1,87.9,55.9,89.2,54.4,89.2 M96.9,56.3
		c-1.5,0-2.7-1.2-2.7-2.7s1.2-2.7,2.7-2.7s2.7,1.2,2.7,2.7S98.4,56.3,96.9,56.3 M102.3,52.2h-0.2c-0.6-2.4-2.7-4.1-5.3-4.1
		c-2.5,0-4.7,1.8-5.3,4.1H74.9v2.7h16.6c0.6,2.4,2.7,4.1,5.3,4.1c2.5,0,4.7-1.8,5.3-4.1h0.2c6,0,11,4.9,11,11v8.2c0,6-4.9,11-11,11
		H98c-0.6-2.4-2.7-4.1-5.3-4.1c-2.5,0-4.7,1.8-5.3,4.1h-8.6c-0.6-2.4-2.7-4.1-5.3-4.1c-2.5,0-4.7,1.8-5.3,4.1h-8.6
		c-0.6-2.4-2.7-4.1-5.3-4.1s-4.7,1.8-5.3,4.1h-4.3c-7.6,0-13.7,6.2-13.7,13.7c0,7.6,6.2,13.7,13.7,13.7h13.7v-2.7H44.8
		c-6,0-11-4.9-11-11c0-6,4.9-11,11-11h4.3c0.6,2.4,2.7,4.1,5.3,4.1s4.7-1.8,5.3-4.1h8.6c0.6,2.4,2.7,4.1,5.3,4.1
		c2.5,0,4.7-1.8,5.3-4.1h8.6c0.6,2.4,2.7,4.1,5.3,4.1c2.5,0,4.7-1.8,5.3-4.1h4.3c7.6,0,13.7-6.2,13.7-13.7v-8.2
		C116,58.3,109.9,52.2,102.3,52.2"/>
</g>
<rect x="74.9" y="61.7" class="st2" width="19.2" height="2.7"/>
<rect x="74.9" y="67.2" class="st2" width="19.2" height="2.7"/>
<rect x="85.9" y="72.7" class="st2" width="2.7" height="2.7"/>
<rect x="80.4" y="72.7" class="st2" width="2.7" height="2.7"/>
<rect x="91.4" y="72.7" class="st2" width="2.7" height="2.7"/>
<rect x="74.9" y="72.7" class="st2" width="2.7" height="2.7"/>
<rect x="53" y="97.4" class="st2" width="2.7" height="2.7"/>
<rect x="47.5" y="97.4" class="st2" width="2.7" height="2.7"/>
<rect x="36.5" y="97.4" class="st2" width="2.7" height="2.7"/>
<rect x="42" y="97.4" class="st2" width="2.7" height="2.7"/>
</svg>
