<?xml version="1.0" encoding="utf-8"?>
<!-- Generator: Adobe Illustrator 26.3.1, SVG Export Plug-In . SVG Version: 6.00 Build 0)  -->
<svg version="1.1" id="Layer_1" xmlns="http://www.w3.org/2000/svg" xmlns:xlink="http://www.w3.org/1999/xlink" x="0px" y="0px"
	 viewBox="0 0 147.5 147.5" style="enable-background:new 0 0 147.5 147.5;" xml:space="preserve">
<style type="text/css">
	.st0{clip-path:url(#SVGID_00000114073524938168755900000014162169769919306129_);fill:#F1613C;}
	.st1{clip-path:url(#SVGID_00000114073524938168755900000014162169769919306129_);fill:#FFFFFF;}
</style>
<g>
	<defs>
		<rect id="SVGID_1_" width="147.5" height="147.5"/>
	</defs>
	<clipPath id="SVGID_00000147214666130352344790000007872553600841176451_">
		<use xlink:href="#SVGID_1_"  style="overflow:visible;"/>
	</clipPath>
	<path style="clip-path:url(#SVGID_00000147214666130352344790000007872553600841176451_);fill:#F1613C;" d="M73.8,147.5
		c40.7,0,73.8-33,73.8-73.8C147.5,33,114.5,0,73.8,0C33,0,0,33,0,73.8C0,114.5,33,147.5,73.8,147.5"/>
	<path style="clip-path:url(#SVGID_00000147214666130352344790000007872553600841176451_);fill:#FFFFFF;" d="M46.9,74.5
		c-3.5,0-3.5-5.7,0-5.7h53.7c3.5,0,3.5,5.7,0,5.7H46.9z M84.5,60.6c0.9,1.5,1.4,3.1,1.7,4.9H61.4c0.2-1.6,0.7-3.2,1.5-4.6
		c2.2-3.9,6.4-6.3,10.9-6.3h0C78.1,54.6,82.3,56.8,84.5,60.6 M65.4,42.8c0-4.5,3.7-8.2,8.2-8.2c4.5,0,8.2,3.7,8.2,8.2
		c0,4.5-3.7,8.2-8.2,8.2C69.1,51,65.4,47.3,65.4,42.8 M54.4,46.4c1.7,0,3.1,1.4,3.1,3.1c0,1.7-1.4,3.1-3.1,3.1
		c-1.7,0-3.1-1.4-3.1-3.1C51.4,47.8,52.7,46.4,54.4,46.4 M93.1,52.6c-1.7,0-3.1-1.4-3.1-3.1s1.4-3.1,3.1-3.1s3.1,1.4,3.1,3.1
		S94.8,52.6,93.1,52.6 M99.5,116.3c0.9,0,1.7-0.8,1.7-1.7V109c0-2.2-3.4-2.2-3.4,0v3.9h-6.6V85.4c0-0.9-0.8-1.7-1.7-1.7h-9.1
		c-2.2,0-2.2,3.4,0,3.4h7.4v25.8H59.6V87.1H67c2.2,0,2.2-3.4,0-3.4h-9.1c-0.9,0-1.7,0.8-1.7,1.7v27.5h-6.6v-35h48.2v17.5
		c0,2.2,3.4,2.2,3.4,0V77.8c3.3-0.3,5.5-3.2,5.4-6.4c0-3.1-2.4-5.7-5.4-6v-5.1c0-2.7-1-5.3-2.7-7.4c2.6-4.2-0.5-9.8-5.5-9.8
		c-3.6,0-6.4,2.9-6.4,6.4c0,4.8,5.2,7.9,9.5,5.7c1.1,1.4,1.8,3.3,1.8,5.1v5.1h-8.4c-0.6-5.9-4.3-10.8-9.5-13
		c3.1-2.1,5.1-5.6,5.1-9.6c0-6.4-5.2-11.5-11.5-11.5s-11.5,5.2-11.5,11.5c0,4,2.1,7.6,5.2,9.7c-5.1,2.3-8.8,7.2-9.3,13h-8.3v-5.1
		c0-1.8,0.6-3.7,1.8-5.1c4.2,2.2,9.5-0.9,9.5-5.7c0-3.6-2.9-6.4-6.4-6.4c-4.9,0-8.1,5.6-5.5,9.8c-1.7,2.1-2.7,4.7-2.7,7.4v5.1
		c-3.3,0.3-5.5,3.2-5.4,6.4c0,3.1,2.4,5.7,5.4,6v36.7c0,0.9,0.8,1.7,1.7,1.7H99.5z"/>
	<path style="clip-path:url(#SVGID_00000147214666130352344790000007872553600841176451_);fill:#FFFFFF;" d="M75.2,84.5
		c-0.5-0.8-1.6-1-2.3-0.5c-0.8,0.5-1,1.6-0.5,2.3c0.5,0.8,1.6,1,2.3,0.5C75.5,86.3,75.7,85.2,75.2,84.5"/>
	<path style="clip-path:url(#SVGID_00000147214666130352344790000007872553600841176451_);fill:#FFFFFF;" d="M101.1,101.5
		c-0.3-0.8-1.4-1.3-2.2-0.9c-0.8,0.4-1.3,1.4-0.9,2.2c0.4,0.8,1.4,1.3,2.2,0.9C101.1,103.3,101.5,102.3,101.1,101.5"/>
</g>
</svg>
