<?xml version="1.0" encoding="utf-8"?>
<!-- Generator: Adobe Illustrator 26.3.1, SVG Export Plug-In . SVG Version: 6.00 Build 0)  -->
<svg version="1.1" id="Layer_1" xmlns="http://www.w3.org/2000/svg" xmlns:xlink="http://www.w3.org/1999/xlink" x="0px" y="0px"
	 viewBox="0 0 147.5 147.5" style="enable-background:new 0 0 147.5 147.5;" xml:space="preserve">
<style type="text/css">
	.st0{clip-path:url(#SVGID_00000018199758462514437790000010368088984075500450_);fill:#F1613C;}
	.st1{clip-path:url(#SVGID_00000018199758462514437790000010368088984075500450_);fill:#FFFFFF;}
	.st2{fill:#FFFFFF;}
	.st3{clip-path:url(#SVGID_00000002348340017963276880000015894980936723079341_);fill:#FFFFFF;}
	.st4{clip-path:url(#SVGID_00000025423971615539736370000011121104132532845195_);fill:#FFFFFF;}
</style>
<g>
	<defs>
		<rect id="SVGID_1_" width="147.5" height="147.5"/>
	</defs>
	<clipPath id="SVGID_00000005970862365844056000000012936548521660362677_">
		<use xlink:href="#SVGID_1_"  style="overflow:visible;"/>
	</clipPath>
	<path style="clip-path:url(#SVGID_00000005970862365844056000000012936548521660362677_);fill:#F1613C;" d="M73.8,147.5
		c40.7,0,73.8-33,73.8-73.8C147.5,33,114.5,0,73.8,0S0,33,0,73.8C0,114.5,33,147.5,73.8,147.5"/>
	<path style="clip-path:url(#SVGID_00000005970862365844056000000012936548521660362677_);fill:#FFFFFF;" d="M95,64.9
		c-5.9,0-10.6-4.8-10.6-10.6c0-5.9,4.8-10.6,10.6-10.6c5.9,0,10.6,4.8,10.6,10.6C105.6,60.1,100.9,64.9,95,64.9 M95,40.1
		c-7.8,0-14.2,6.3-14.2,14.2S87.2,68.4,95,68.4c7.8,0,14.2-6.3,14.2-14.2C109.2,46.5,102.8,40.1,95,40.1"/>
	<path style="clip-path:url(#SVGID_00000005970862365844056000000012936548521660362677_);fill:#FFFFFF;" d="M99.1,49.5l-5.8,5.8
		L90.9,53l-2.5,2.5l3.5,3.5c0.3,0.3,0.8,0.5,1.3,0.5c0.5,0,0.9-0.2,1.3-0.5l7.1-7.1L99.1,49.5z"/>
</g>
<rect x="66.7" y="77.3" class="st2" width="24.8" height="3.5"/>
<g>
	<defs>
		<rect id="SVGID_00000029754507861535191000000016368317519177041065_" width="147.5" height="147.5"/>
	</defs>
	<clipPath id="SVGID_00000035499681421103238950000002060970392557129618_">
		<use xlink:href="#SVGID_00000029754507861535191000000016368317519177041065_"  style="overflow:visible;"/>
	</clipPath>
	<path style="clip-path:url(#SVGID_00000035499681421103238950000002060970392557129618_);fill:#FFFFFF;" d="M70.2,52.5H50.7
		c-6.8,0-12.4,5.6-12.4,12.4h3.5c0-4.9,4-8.8,8.9-8.9h19.5c2,0,3.5,1.6,3.5,3.5c0,2-1.6,3.5-3.5,3.5H50.7v3.5h19.5
		c3.9,0,7.1-3.2,7.1-7.1C77.3,55.7,74.1,52.5,70.2,52.5"/>
	<path style="clip-path:url(#SVGID_00000035499681421103238950000002060970392557129618_);fill:#FFFFFF;" d="M33,59.6
		c-1,0-1.8,0.8-1.8,1.8v1.8h8.9v-3.5H33z"/>
	<path style="clip-path:url(#SVGID_00000035499681421103238950000002060970392557129618_);fill:#FFFFFF;" d="M112.7,82.6v24.8
		c0,2.9-2.4,5.3-5.3,5.3H64.9c-2.9,0-5.3-2.4-5.3-5.3V64.9H56v42.5c0,4.9,4,8.8,8.9,8.9h42.5c4.9,0,8.8-4,8.9-8.9V82.6H112.7z"/>
	<path style="clip-path:url(#SVGID_00000035499681421103238950000002060970392557129618_);fill:#FFFFFF;" d="M107.4,31.3H72
		c-0.5,0-0.9,0.2-1.3,0.5L56.6,45.9l2.5,2.5l13.6-13.6h34.7c2.9,0,5.3,2.4,5.3,5.3v24.8h3.5V40.1C116.3,35.2,112.3,31.3,107.4,31.3"
		/>
	<path style="clip-path:url(#SVGID_00000035499681421103238950000002060970392557129618_);fill:#FFFFFF;" d="M73.2,31.8
		c-0.7-0.7-1.8-0.7-2.5,0L56.6,45.9c-0.3,0.3-0.5,0.8-0.5,1.3v7.1h3.5v-6.4l10.6-10.6v6.4c0,1-0.8,1.8-1.8,1.8h-3.5V49h3.5
		c2.9,0,5.3-2.4,5.3-5.3V33C73.8,32.6,73.6,32.1,73.2,31.8"/>
	<path style="clip-path:url(#SVGID_00000035499681421103238950000002060970392557129618_);fill:#FFFFFF;" d="M41.9,79.1h-3.5
		c0,6.8,5.6,12.4,12.4,12.4v-3.5C45.8,87.9,41.9,84,41.9,79.1"/>
</g>
<rect x="50.7" y="87.9" class="st2" width="7.1" height="3.5"/>
<g>
	<defs>
		<rect id="SVGID_00000042016399738891252110000016854164202874709389_" width="147.5" height="147.5"/>
	</defs>
	<clipPath id="SVGID_00000011030825372928056140000000366822832970392245_">
		<use xlink:href="#SVGID_00000042016399738891252110000016854164202874709389_"  style="overflow:visible;"/>
	</clipPath>
	<path style="clip-path:url(#SVGID_00000011030825372928056140000000366822832970392245_);fill:#FFFFFF;" d="M31.3,80.8v1.8
		c0,1,0.8,1.8,1.8,1.8h7.1v-3.5H31.3z"/>
	<path style="clip-path:url(#SVGID_00000011030825372928056140000000366822832970392245_);fill:#FFFFFF;" d="M112.2,74.9L88.9,98.2
		l-2.4-2.4l23.3-23.3c0.7-0.6,1.7-0.6,2.4,0l0,0C112.9,73.2,112.9,74.2,112.2,74.9 M114.7,70c-2.1-2-5.3-2-7.4,0L82.7,94.6
		c-0.7,0.7-0.7,1.8,0,2.5l4.9,4.9c0.3,0.3,0.8,0.5,1.3,0.5c0.5,0,0.9-0.2,1.3-0.5l24.6-24.6l0,0C116.8,75.3,116.8,72,114.7,70"/>
	<path style="clip-path:url(#SVGID_00000011030825372928056140000000366822832970392245_);fill:#FFFFFF;" d="M88.1,99.1l-5.1,2.5
		l2.5-5.1L82.4,95l-4.9,9.8c-0.1,0.2-0.2,0.5-0.2,0.8c0,1,0.8,1.8,1.8,1.8c0.3,0,0.5-0.1,0.8-0.2l9.8-4.9L88.1,99.1z"/>
</g>
<rect x="103.1" y="76.4" transform="matrix(0.7072 -0.707 0.707 0.7072 -25.742 97.5124)" class="st2" width="3.5" height="6.9"/>
<rect x="66.7" y="103.9" class="st2" width="12.4" height="3.5"/>
<rect x="66.7" y="95" class="st2" width="10.6" height="3.5"/>
<rect x="66.7" y="86.2" class="st2" width="15.9" height="3.5"/>
<rect x="89.7" y="103.9" class="st2" width="15.9" height="3.5"/>
<rect x="98.5" y="95" class="st2" width="7.1" height="3.5"/>
</svg>
