<?xml version="1.0" encoding="utf-8"?>
<!-- Generator: Adobe Illustrator 26.3.1, SVG Export Plug-In . SVG Version: 6.00 Build 0)  -->
<svg version="1.1" id="Layer_1" xmlns="http://www.w3.org/2000/svg" xmlns:xlink="http://www.w3.org/1999/xlink" x="0px" y="0px"
	 viewBox="0 0 147.5 147.5" style="enable-background:new 0 0 147.5 147.5;" xml:space="preserve">
<style type="text/css">
	.st0{clip-path:url(#SVGID_00000099623551024175417110000010550497109629806486_);fill:#F1613C;}
	.st1{clip-path:url(#SVGID_00000099623551024175417110000010550497109629806486_);fill:#FFFFFF;}
	.st2{fill:#FFFFFF;}
	.st3{clip-path:url(#SVGID_00000182520496103670488380000010357754047637339804_);fill:#FFFFFF;}
</style>
<g>
	<g>
		<defs>
			<rect id="SVGID_1_" width="147.5" height="147.5"/>
		</defs>
		<clipPath id="SVGID_00000000183476457357293390000002426602462130149271_">
			<use xlink:href="#SVGID_1_"  style="overflow:visible;"/>
		</clipPath>
		<path style="clip-path:url(#SVGID_00000000183476457357293390000002426602462130149271_);fill:#F1613C;" d="M73.8,147.5
			c40.7,0,73.8-33,73.8-73.8C147.5,33,114.5,0,73.8,0S0,33,0,73.8C0,114.5,33,147.5,73.8,147.5"/>
		<path style="clip-path:url(#SVGID_00000000183476457357293390000002426602462130149271_);fill:#FFFFFF;" d="M113.4,103.5
			c0,2.3-1.9,4.2-4.2,4.2h0c0.9-1.2,1.4-2.7,1.5-4.2V46.8c0,0,0-0.1,0-0.1c0-0.1,0-0.2-0.1-0.4c0,0,0-0.1,0-0.1
			c-0.1-0.2-0.2-0.3-0.3-0.4L98.4,34.1h10.7c2.3,0,4.2,1.9,4.2,4.2V103.5z M100.7,45.4c-2.3,0-4.2-1.9-4.2-4.2v-5.1l9.3,9.3H100.7z
			 M109.2,31.3h-51c-3.9,0-7.1,3.2-7.1,7.1v32.6h2.8V38.3c0-2.3,1.9-4.2,4.2-4.2h35.4v7.1c0,3.9,3.2,7.1,7.1,7.1h7.1v55.2
			c0,2.3-1.9,4.2-4.2,4.2H82.3v2.8h26.9c3.9,0,7.1-3.2,7.1-7.1V38.3C116.3,34.4,113.1,31.3,109.2,31.3"/>
	</g>
	<polygon class="st2" points="58.2,68.1 58.2,70.9 87.9,70.9 87.9,75.2 73.8,75.2 73.8,78 87.9,78 87.9,82.3 82.3,82.3 82.3,85.1 
		87.9,85.1 87.9,89.3 82.3,89.3 82.3,92.2 87.9,92.2 87.9,96.4 79.4,96.4 79.4,99.3 103.5,99.3 103.5,96.4 90.8,96.4 90.8,92.2 
		103.5,92.2 103.5,89.3 90.8,89.3 90.8,85.1 103.5,85.1 103.5,82.3 90.8,82.3 90.8,78 103.5,78 103.5,75.2 90.8,75.2 90.8,70.9 
		103.5,70.9 103.5,68.1 90.8,68.1 90.8,63.8 103.5,63.8 103.5,61 58.2,61 58.2,63.8 87.9,63.8 87.9,68.1 	"/>
	<rect x="79.4" y="102.1" class="st2" width="24.1" height="2.8"/>
	<rect x="73.8" y="41.2" class="st2" width="17" height="2.8"/>
	<rect x="73.8" y="46.8" class="st2" width="8.5" height="2.8"/>
	<rect x="85.1" y="46.8" class="st2" width="5.7" height="2.8"/>
	<rect x="73.8" y="52.5" class="st2" width="17" height="2.8"/>
	<g>
		<defs>
			<rect id="SVGID_00000106118881461429671240000004979452597101218444_" width="147.5" height="147.5"/>
		</defs>
		<clipPath id="SVGID_00000128443529693833146910000017522499708403110282_">
			<use xlink:href="#SVGID_00000106118881461429671240000004979452597101218444_"  style="overflow:visible;"/>
		</clipPath>
		<path style="clip-path:url(#SVGID_00000128443529693833146910000017522499708403110282_);fill:#FFFFFF;" d="M76.6,113.4H34.1v-2.8
			h42.5V113.4z M36.9,90.8h2.8v17h-2.8V90.8z M34.1,83.3l21.2-6.6l21.2,6.6v4.6H34.1V83.3z M59.6,90.8h2.8v17h-2.8V90.8z M48.3,90.8
			h2.8v17h-2.8V90.8z M42.6,90.8h2.8v17h-2.8V90.8z M53.9,90.8h2.8v17h-2.8V90.8z M65.3,90.8h2.8v17h-2.8V90.8z M73.8,107.8h-2.8
			v-17h2.8V107.8z M78,107.8h-1.4v-17H78c0.8,0,1.4-0.6,1.4-1.4v-7.1c0-0.6-0.4-1.2-1-1.4l-22.7-7.1c-0.3-0.1-0.6-0.1-0.8,0
			l-22.7,7.1c-0.6,0.2-1,0.7-1,1.4v7.1c0,0.8,0.6,1.4,1.4,1.4h1.4v17h-1.4c-0.8,0-1.4,0.6-1.4,1.4v5.7c0,0.8,0.6,1.4,1.4,1.4H78
			c0.8,0,1.4-0.6,1.4-1.4v-5.7C79.4,108.4,78.8,107.8,78,107.8"/>
		<path style="clip-path:url(#SVGID_00000128443529693833146910000017522499708403110282_);fill:#FFFFFF;" d="M58.2,82.3
			c0,1.6-1.3,2.8-2.8,2.8c-1.6,0-2.8-1.3-2.8-2.8c0-1.6,1.3-2.8,2.8-2.8C56.9,79.4,58.2,80.7,58.2,82.3"/>
		<path style="clip-path:url(#SVGID_00000128443529693833146910000017522499708403110282_);fill:#FFFFFF;" d="M62.4,38.3v2.8
			c-2.3,0-4.2,1.9-4.2,4.2s1.9,4.2,4.2,4.2h2.8c0.8,0,1.4,0.6,1.4,1.4c0,0.8-0.6,1.4-1.4,1.4h-5.7v2.8h2.8v2.8h2.8v-2.8
			c2.3,0,4.2-1.9,4.2-4.2s-1.9-4.2-4.2-4.2h-2.8c-0.8,0-1.4-0.6-1.4-1.4c0-0.8,0.6-1.4,1.4-1.4h5.7v-2.8h-2.8v-2.8H62.4z"/>
	</g>
</g>
</svg>
