<?xml version="1.0" encoding="utf-8"?>
<!-- Generator: Adobe Illustrator 26.3.1, SVG Export Plug-In . SVG Version: 6.00 Build 0)  -->
<svg version="1.1" id="Layer_1" xmlns="http://www.w3.org/2000/svg" xmlns:xlink="http://www.w3.org/1999/xlink" x="0px" y="0px"
	 viewBox="0 0 147.5 147.5" style="enable-background:new 0 0 147.5 147.5;" xml:space="preserve">
<style type="text/css">
	.st0{clip-path:url(#SVGID_00000032609511550655152620000007806511730355779459_);fill:#F1613C;}
	.st1{clip-path:url(#SVGID_00000032609511550655152620000007806511730355779459_);fill:#FFFFFF;}
	.st2{fill:#FFFFFF;}
	.st3{clip-path:url(#SVGID_00000018206791015212268660000012212795152018254476_);fill:#FFFFFF;}
</style>
<g>
	<defs>
		<rect id="SVGID_1_" width="147.5" height="147.5"/>
	</defs>
	<clipPath id="SVGID_00000068637858059910693110000002563805311688015528_">
		<use xlink:href="#SVGID_1_"  style="overflow:visible;"/>
	</clipPath>
	<path style="clip-path:url(#SVGID_00000068637858059910693110000002563805311688015528_);fill:#F1613C;" d="M73.8,147.5
		c40.7,0,73.8-33,73.8-73.8C147.5,33,114.5,0,73.8,0C33,0,0,33,0,73.8C0,114.5,33,147.5,73.8,147.5"/>
	<path style="clip-path:url(#SVGID_00000068637858059910693110000002563805311688015528_);fill:#FFFFFF;" d="M56.6,103.4
		c-6.8,0-12.3-5.5-12.3-12.3c0-6.8,5.5-12.3,12.3-12.3c6.8,0,12.3,5.5,12.3,12.3C68.9,97.9,63.4,103.4,56.6,103.4 M71.7,91.1
		c0-8.3-6.8-15.1-15.1-15.1s-15.1,6.8-15.1,15.1s6.8,15.1,15.1,15.1S71.7,99.4,71.7,91.1"/>
	<path style="clip-path:url(#SVGID_00000068637858059910693110000002563805311688015528_);fill:#FFFFFF;" d="M56.6,87
		c0.8,0,1.4,0.6,1.4,1.4h2.7c0-1.8-1.2-3.3-2.7-3.9v-3h-2.7v2.7h-2.7v4.1c0,2.3,1.8,4.1,4.1,4.1c0.8,0,1.4,0.6,1.4,1.4v1.4h-1.4
		c-0.8,0-1.4-0.6-1.4-1.4h-2.7c0,1.8,1.2,3.3,2.7,3.9v3h2.7V98h2.7v-4.1c0-2.3-1.8-4.1-4.1-4.1c-0.8,0-1.4-0.6-1.4-1.4V87H56.6z"/>
</g>
<rect x="47" y="89.7" class="st2" width="2.7" height="2.7"/>
<rect x="63.4" y="89.7" class="st2" width="2.7" height="2.7"/>
<g>
	<defs>
		<rect id="SVGID_00000067934434728992248480000005009768195363232690_" width="147.5" height="147.5"/>
	</defs>
	<clipPath id="SVGID_00000174590323289009346250000002891707276036795789_">
		<use xlink:href="#SVGID_00000067934434728992248480000005009768195363232690_"  style="overflow:visible;"/>
	</clipPath>
	<path style="clip-path:url(#SVGID_00000174590323289009346250000002891707276036795789_);fill:#FFFFFF;" d="M115.5,92.5H79.9v-2.7
		h35.6V92.5z M112.8,111.7H62.6l0.3-1c1-0.3,2-0.7,3-1.2l3.5,1.8l7.2-7.2l-1.8-3.5c0.5-0.9,0.9-1.9,1.2-3l3.8-1.3v-1h32.9V111.7z
		 M56.6,111.7h-3.1l-1.1-3.2l-0.7-0.2c-1.3-0.4-2.6-0.9-3.7-1.5l-0.6-0.4l-3.1,1.5l-4.4-4.4l1.5-3.1L41,99.8
		c-0.6-1.2-1.2-2.4-1.5-3.7l-0.2-0.7L36,94.2V88l3.2-1.1l0.2-0.7c0.4-1.3,0.9-2.6,1.5-3.7l0.4-0.6l-1.5-3.1l4.4-4.4l3,1.5l0.6-0.4
		c1.2-0.6,2.4-1.2,3.7-1.5l0.7-0.2l1.1-3.2h6.2l1.1,3.2l0.7,0.2c1.3,0.4,2.6,0.9,3.7,1.5l0.6,0.4l3.1-1.5l4.4,4.4l-1.5,3.1l0.4,0.6
		c0.6,1.2,1.2,2.4,1.5,3.7l0.2,0.7l3.2,1.1v0.4v5.9l-3.2,1.1L73.7,96c-0.4,1.3-0.9,2.6-1.5,3.7l-0.4,0.6l1.5,3.1l-4.4,4.4l-3.1-1.5
		l-0.6,0.4c-1.2,0.6-2.4,1.2-3.7,1.5l-0.7,0.2l-1.1,3.2H56.6z M40.1,67.8c0-5.4,2.6-10.1,6.6-13.1l7.5,13.1h-2.7l-1.3,3.8
		c-1,0.3-2,0.7-3,1.2L47,72.7V62.3h-2.7v9L43.7,71l-3.6,3.6V67.8z M48.3,40.4c0-4.5,3.7-8.2,8.2-8.2c4.5,0,8.2,3.7,8.2,8.2
		c0,4.5-3.7,8.2-8.2,8.2C52,48.6,48.3,44.9,48.3,40.4 M61.1,58.5l-1.2-6.8c1.5,0.3,2.9,0.8,4.2,1.5L61.1,58.5z M56.1,51.4
		c0.2,0,0.3,0,0.5,0c0.2,0,0.3,0,0.5,0L59,62.2l-2.4,4.2l-2.4-4.2L56.1,51.4z M49,53.2c1.3-0.7,2.7-1.2,4.2-1.5L52,58.5L49,53.2z
		 M73,67.8v6.8L69.4,71l-0.5,0.3v-9h-2.7v10.3l-0.3,0.1c-0.9-0.5-1.9-0.9-3-1.2l-1.3-3.8h-2.7l7.5-13.1C70.4,57.7,73,62.4,73,67.8
		 M84.7,75.4c0.6-0.6,1.1-1,1.8-1.5L94,87h-7.2v-5.5H84V87h-4.1C79.9,82.6,81.6,78.5,84.7,75.4 M88.1,59.6c0-4.5,3.7-8.2,8.2-8.2
		c4.5,0,8.2,3.7,8.2,8.2c0,4.5-3.7,8.2-8.2,8.2C91.8,67.8,88.1,64.1,88.1,59.6 M96.3,78.2l2.5,3.1l-2.5,4.3l-2.5-4.3L96.3,78.2z
		 M94.5,76.1l-2.1,2.6l-3.6-6.4c0.4-0.2,0.9-0.4,1.3-0.6L94.5,76.1z M100.3,78.7l-2.1-2.6l4.4-4.4c0.5,0.2,0.9,0.4,1.3,0.6
		L100.3,78.7z M96.3,70.5c1.1,0,2.2,0.1,3.2,0.3l-3.2,3.2l-3.2-3.2C94.2,70.6,95.2,70.5,96.3,70.5 M112.8,87h-4.1v-5.5h-2.7V87h-7.2
		l7.5-13.1C110.2,76.9,112.8,81.6,112.8,87 M115.5,87c0-8.5-5.6-15.7-13.2-18.2c3-2,5-5.3,5-9.2c0-6-4.9-11-11-11c-6,0-11,4.9-11,11
		c0,3.8,2,7.2,5,9.2c-2.8,0.9-5.4,2.5-7.6,4.7c-3.2,3.2-5.1,7.3-5.5,11.7l-1.1-0.4c-0.3-1-0.7-2-1.2-3l1.8-3.5l-0.9-0.9v-9.5
		c0-8.5-5.6-15.7-13.2-18.2c3-2,5-5.3,5-9.2c0-6-4.9-11-11-11c-6,0-11,4.9-11,11c0,3.8,2,7.2,5,9.2c-7.7,2.5-13.2,9.7-13.2,18.2v9.5
		l-0.9,0.9l1.8,3.5c-0.5,0.9-0.9,1.9-1.2,3L33.3,86v10.2l3.8,1.3c0.3,1,0.7,2,1.2,3l-1.8,3.5l7.2,7.2l3.5-1.8c0.9,0.5,1.9,0.9,3,1.2
		l1.3,3.8h5.1h5.1h53.8V95.2c1.5,0,2.7-1.2,2.7-2.7v-2.7C118.3,88.2,117,87,115.5,87"/>
</g>
<rect x="107.3" y="106.2" class="st2" width="2.7" height="2.7"/>
<rect x="101.8" y="106.2" class="st2" width="2.7" height="2.7"/>
<rect x="96.3" y="106.2" class="st2" width="2.7" height="2.7"/>
</svg>
