<?xml version="1.0" encoding="utf-8"?>
<!-- Generator: Adobe Illustrator 26.3.1, SVG Export Plug-In . SVG Version: 6.00 Build 0)  -->
<svg version="1.1" id="Layer_1" xmlns="http://www.w3.org/2000/svg" xmlns:xlink="http://www.w3.org/1999/xlink" x="0px" y="0px"
	 viewBox="0 0 147.5 147.5" style="enable-background:new 0 0 147.5 147.5;" xml:space="preserve">
<style type="text/css">
	.st0{clip-path:url(#SVGID_00000080185895778908146840000014343638644500505236_);fill:#F1613C;}
	.st1{clip-path:url(#SVGID_00000080185895778908146840000014343638644500505236_);fill:#FFFFFF;}
</style>
<g>
	<g>
		<defs>
			<rect id="SVGID_1_" width="147.5" height="147.5"/>
		</defs>
		<clipPath id="SVGID_00000012464781591859094060000008402411719915871395_">
			<use xlink:href="#SVGID_1_"  style="overflow:visible;"/>
		</clipPath>
		<path style="clip-path:url(#SVGID_00000012464781591859094060000008402411719915871395_);fill:#F1613C;" d="M73.8,147.5
			c40.7,0,73.8-33,73.8-73.8C147.5,33,114.5,0,73.8,0S0,33,0,73.8C0,114.5,33,147.5,73.8,147.5"/>
		<path style="clip-path:url(#SVGID_00000012464781591859094060000008402411719915871395_);fill:#FFFFFF;" d="M81,55.4h2.7v6.9H81
			V55.4z M45.4,62.3h-2.7v-6.9h2.7V62.3z M116.6,89.7H37.1V54.1c0-1.5,1.2-2.7,2.7-2.7h9.6v11h-1.4v-8.2c0-0.8-0.6-1.4-1.4-1.4h-5.5
			c-0.8,0-1.4,0.6-1.4,1.4v9.6c0,0.8,0.6,1.4,1.4,1.4h43.9c0.8,0,1.4-0.6,1.4-1.4v-9.6c0-0.8-0.6-1.4-1.4-1.4h-5.5
			c-0.8,0-1.4,0.6-1.4,1.4v8.2h-1.4v-11h20.4c3.5,1.8,7.7,1.8,11.3,0h5.3c1.5,0,2.7,1.2,2.7,2.7V89.7z M116.6,95.2
			c0,1.5-1.2,2.7-2.7,2.7h-74c-1.5,0-2.7-1.2-2.7-2.7v-2.7h79.5V95.2z M69.2,106.1l1.8-5.5h11.7l1.8,5.5H69.2z M90.6,110.3H63.2
			v-1.4h27.4V110.3z M52.2,40.3h2.7v21.9h-2.7V40.3z M57.7,51.3h1.4v11h-1.4V51.3z M61.8,30.7h2.7v31.5h-2.7V30.7z M67.3,51.3h1.4
			v11h-1.4V51.3z M71.4,36.2h2.7v26h-2.7V36.2z M93.3,40.3c0-4.8,3.5-8.8,8.2-9.5v8.9l-6.3,6.3C94,44.4,93.3,42.4,93.3,40.3
			 M103.5,41.7h8.9c-0.8,5.2-5.6,8.9-10.9,8.1c-1.6-0.2-3.1-0.9-4.4-1.8L103.5,41.7z M104.3,30.8c4.2,0.6,7.5,3.9,8.1,8.1h-8.1V30.8
			z M113.9,48.6h-1.8c4.5-5.1,4.1-12.9-1-17.4c-5.1-4.5-12.9-4.1-17.4,0.9c-4.2,4.7-4.2,11.8,0,16.5H76.9V34.9
			c0-0.8-0.6-1.4-1.4-1.4H70c-0.8,0-1.4,0.6-1.4,1.4v13.7h-1.4V29.4c0-0.8-0.6-1.4-1.4-1.4h-5.5c-0.8,0-1.4,0.6-1.4,1.4v19.2h-1.4
			V39c0-0.8-0.6-1.4-1.4-1.4h-5.5c-0.8,0-1.4,0.6-1.4,1.4v9.6h-9.6c-3,0-5.5,2.5-5.5,5.5v41.1c0,3,2.5,5.5,5.5,5.5h28.3l-1.8,5.5
			h-4.5c-0.8,0-1.4,0.6-1.4,1.4v2.7H46.7c-0.8,0-1.4,0.6-1.4,1.4c0,0.8,0.6,1.4,1.4,1.4H107c0.8,0,1.4-0.6,1.4-1.4
			c0-0.8-0.6-1.4-1.4-1.4H93.3v-2.7c0-0.8-0.6-1.4-1.4-1.4h-4.5l-1.8-5.5h28.3c3,0,5.5-2.5,5.5-5.5V54.1
			C119.4,51,116.9,48.6,113.9,48.6"/>
		<path style="clip-path:url(#SVGID_00000012464781591859094060000008402411719915871395_);fill:#FFFFFF;" d="M49.5,93.8h-8.2
			c-0.8,0-1.4,0.6-1.4,1.4c0,0.8,0.6,1.4,1.4,1.4h8.2c0.8,0,1.4-0.6,1.4-1.4C50.8,94.4,50.2,93.8,49.5,93.8"/>
		<path style="clip-path:url(#SVGID_00000012464781591859094060000008402411719915871395_);fill:#FFFFFF;" d="M54.9,93.8h-1.4
			c-0.8,0-1.4,0.6-1.4,1.4c0,0.8,0.6,1.4,1.4,1.4h1.4c0.8,0,1.4-0.6,1.4-1.4C56.3,94.4,55.7,93.8,54.9,93.8"/>
		<path style="clip-path:url(#SVGID_00000012464781591859094060000008402411719915871395_);fill:#FFFFFF;" d="M92,62.3
			c0.4,0,0.7-0.1,1-0.4l5.1-5.1h11.8c0.8,0,1.4-0.6,1.4-1.4c0-0.8-0.6-1.4-1.4-1.4H97.4c-0.4,0-0.7,0.1-1,0.4L91,59.9
			c-0.5,0.5-0.5,1.4,0,1.9C91.2,62.1,91.6,62.3,92,62.3"/>
		<path style="clip-path:url(#SVGID_00000012464781591859094060000008402411719915871395_);fill:#FFFFFF;" d="M109.8,82.8
			c-0.8,0-1.4-0.6-1.4-1.4c0-0.8,0.6-1.4,1.4-1.4c0.8,0,1.4,0.6,1.4,1.4C111.2,82.2,110.5,82.8,109.8,82.8 M87.8,73.2
			c-0.8,0-1.4-0.6-1.4-1.4c0-0.8,0.6-1.4,1.4-1.4c0.8,0,1.4,0.6,1.4,1.4C89.2,72.6,88.6,73.2,87.8,73.2 M65.9,85.6
			c-0.8,0-1.4-0.6-1.4-1.4v0c0-0.8,0.6-1.4,1.4-1.4c0.8,0,1.4,0.6,1.4,1.4C67.3,85,66.7,85.6,65.9,85.6 M45.4,77.4
			c0,0.8-0.6,1.4-1.4,1.4s-1.4-0.6-1.4-1.4c0-0.8,0.6-1.4,1.4-1.4C44.7,76,45.4,76.6,45.4,77.4L45.4,77.4z M109.8,77.4
			c-1.5,0-2.8,0.8-3.6,2.1L91.9,71c-0.5-2.2-2.6-3.7-4.9-3.2c-1.6,0.3-2.9,1.6-3.2,3.3L69.4,82c-1.2-1.9-3.8-2.4-5.7-1.2
			c-0.6,0.4-1.1,0.9-1.4,1.6L48,76.4c-0.5-2.2-2.8-3.6-5-3c-2.2,0.5-3.6,2.8-3,5c0.5,2.2,2.8,3.6,5,3c1.2-0.3,2.2-1.1,2.7-2.1
			l14.3,5.9c0.5,2.2,2.8,3.6,5,3c1.6-0.4,2.8-1.7,3.1-3.3l14.4-10.8c1.2,1.9,3.8,2.4,5.7,1.2c0.5-0.4,1-0.8,1.3-1.4l14.4,8.4
			c0.5,2.2,2.6,3.7,4.9,3.2c2.2-0.5,3.7-2.6,3.2-4.9C113.4,78.7,111.7,77.4,109.8,77.4"/>
		<path style="clip-path:url(#SVGID_00000012464781591859094060000008402411719915871395_);fill:#FFFFFF;" d="M98.8,85.6h-9.6
			c-0.8,0-1.4,0.6-1.4,1.4c0,0.8,0.6,1.4,1.4,1.4h9.6c0.8,0,1.4-0.6,1.4-1.4C100.2,86.2,99.6,85.6,98.8,85.6"/>
		<path style="clip-path:url(#SVGID_00000012464781591859094060000008402411719915871395_);fill:#FFFFFF;" d="M98.8,81.5h-4.1
			c-0.8,0-1.4,0.6-1.4,1.4s0.6,1.4,1.4,1.4h4.1c0.8,0,1.4-0.6,1.4-1.4S99.6,81.5,98.8,81.5"/>
		<path style="clip-path:url(#SVGID_00000012464781591859094060000008402411719915871395_);fill:#FFFFFF;" d="M41.2,69.1h15.1
			c0.8,0,1.4-0.6,1.4-1.4c0-0.8-0.6-1.4-1.4-1.4H41.2c-0.8,0-1.4,0.6-1.4,1.4C39.9,68.5,40.5,69.1,41.2,69.1"/>
		<path style="clip-path:url(#SVGID_00000012464781591859094060000008402411719915871395_);fill:#FFFFFF;" d="M60.4,69.1h1.4
			c0.8,0,1.4-0.6,1.4-1.4c0-0.8-0.6-1.4-1.4-1.4h-1.4c-0.8,0-1.4,0.6-1.4,1.4C59.1,68.5,59.7,69.1,60.4,69.1"/>
	</g>
</g>
</svg>
