<?xml version="1.0" encoding="utf-8"?>
<!-- Generator: Adobe Illustrator 26.3.1, SVG Export Plug-In . SVG Version: 6.00 Build 0)  -->
<svg version="1.1" id="Layer_1" xmlns="http://www.w3.org/2000/svg" xmlns:xlink="http://www.w3.org/1999/xlink" x="0px" y="0px"
	 viewBox="0 0 147.5 147.5" style="enable-background:new 0 0 147.5 147.5;" xml:space="preserve">
<style type="text/css">
	.st0{clip-path:url(#SVGID_00000160166071708893637960000008910525500357179028_);fill:#F1613C;}
	.st1{clip-path:url(#SVGID_00000160166071708893637960000008910525500357179028_);fill:#FFFFFF;}
</style>
<g>
	<g>
		<defs>
			<rect id="SVGID_1_" width="147.5" height="147.5"/>
		</defs>
		<clipPath id="SVGID_00000150060522056444461790000010546151277969030327_">
			<use xlink:href="#SVGID_1_"  style="overflow:visible;"/>
		</clipPath>
		<path style="clip-path:url(#SVGID_00000150060522056444461790000010546151277969030327_);fill:#F1613C;" d="M73.8,147.5
			c40.7,0,73.8-33,73.8-73.8C147.5,33,114.5,0,73.8,0C33,0,0,33,0,73.8C0,114.5,33,147.5,73.8,147.5"/>
		<path style="clip-path:url(#SVGID_00000150060522056444461790000010546151277969030327_);fill:#FFFFFF;" d="M52.9,39.9l12-12v6.8
			c0,2.9-2.3,5.2-5.2,5.2H52.9z M96.4,31.3v58H51.1V42.4h8.6c4.3,0,7.7-3.5,7.7-7.7v-8.6h23.8C94.1,26.1,96.4,28.4,96.4,31.3
			 M107,42.2c3.7,0,6.7,3,6.7,6.7v40.4H98.9V42.2H107z M107,104.3H40.5c-3.7,0-6.7-3-6.7-6.7v-5.8h80v5.8
			C113.7,101.3,110.7,104.3,107,104.3 M40.5,42.2h8.1v47.1H33.8V48.9C33.8,45.2,36.8,42.2,40.5,42.2 M31.3,48.9v48.7
			c0,5.1,4.1,9.2,9.2,9.2h32v14.6H57.3c-0.7,0-1.3,0.6-1.3,1.3s0.6,1.3,1.3,1.3h33.9c0.7,0,1.3-0.6,1.3-1.3s-0.6-1.3-1.3-1.3H75
			v-14.6h32c5.1,0,9.2-4.1,9.2-9.2V48.9c0-5.1-4.1-9.2-9.2-9.2h-8.1v-8.4c0-4.3-3.5-7.7-7.7-7.7H66.1c0,0-0.1,0-0.1,0
			c0,0-0.1,0-0.1,0c0,0,0,0,0,0c0,0-0.1,0-0.1,0l0,0c0,0-0.1,0-0.1,0c0,0,0,0,0,0c0,0-0.1,0-0.1,0l0,0c0,0-0.1,0-0.1,0.1
			c0,0,0,0,0,0c0,0-0.1,0-0.1,0.1c0,0,0,0,0,0c0,0-0.1,0.1-0.1,0.1L49.5,39.7h-9C35.4,39.7,31.3,43.8,31.3,48.9"/>
		<path style="clip-path:url(#SVGID_00000150060522056444461790000010546151277969030327_);fill:#FFFFFF;" d="M80,54.6h12.6
			c0.7,0,1.3-0.6,1.3-1.3s-0.6-1.3-1.3-1.3H80c-0.7,0-1.3,0.6-1.3,1.3S79.4,54.6,80,54.6"/>
		<path style="clip-path:url(#SVGID_00000150060522056444461790000010546151277969030327_);fill:#FFFFFF;" d="M69.6,54.6h5.5
			c0.7,0,1.3-0.6,1.3-1.3s-0.6-1.3-1.3-1.3h-5.5c-0.7,0-1.3,0.6-1.3,1.3S68.9,54.6,69.6,54.6"/>
		<path style="clip-path:url(#SVGID_00000150060522056444461790000010546151277969030327_);fill:#FFFFFF;" d="M92.7,61.2h-5.3
			c-0.7,0-1.3,0.6-1.3,1.3s0.6,1.3,1.3,1.3h5.3c0.7,0,1.3-0.6,1.3-1.3S93.4,61.2,92.7,61.2"/>
		<path style="clip-path:url(#SVGID_00000150060522056444461790000010546151277969030327_);fill:#FFFFFF;" d="M82.2,63.7
			c0.7,0,1.3-0.6,1.3-1.3s-0.6-1.3-1.3-1.3H69.6c-0.7,0-1.3,0.6-1.3,1.3s0.6,1.3,1.3,1.3H82.2z"/>
		<path style="clip-path:url(#SVGID_00000150060522056444461790000010546151277969030327_);fill:#FFFFFF;" d="M55.3,72.8h18.5
			c0.7,0,1.3-0.6,1.3-1.3s-0.6-1.3-1.3-1.3H55.3c-0.7,0-1.3,0.6-1.3,1.3S54.6,72.8,55.3,72.8"/>
		<path style="clip-path:url(#SVGID_00000150060522056444461790000010546151277969030327_);fill:#FFFFFF;" d="M84.2,70.3h-5.6
			c-0.7,0-1.3,0.6-1.3,1.3s0.6,1.3,1.3,1.3h5.6c0.7,0,1.3-0.6,1.3-1.3S84.9,70.3,84.2,70.3"/>
		<path style="clip-path:url(#SVGID_00000150060522056444461790000010546151277969030327_);fill:#FFFFFF;" d="M92.7,70.3h-3.6
			c-0.7,0-1.3,0.6-1.3,1.3s0.6,1.3,1.3,1.3h3.6c0.7,0,1.3-0.6,1.3-1.3S93.4,70.3,92.7,70.3"/>
		<path style="clip-path:url(#SVGID_00000150060522056444461790000010546151277969030327_);fill:#FFFFFF;" d="M61.2,79.4h-5.9
			c-0.7,0-1.3,0.6-1.3,1.3s0.6,1.3,1.3,1.3h5.9c0.7,0,1.3-0.6,1.3-1.3S61.9,79.4,61.2,79.4"/>
		<path style="clip-path:url(#SVGID_00000150060522056444461790000010546151277969030327_);fill:#FFFFFF;" d="M84.2,79.4H65.9
			c-0.7,0-1.3,0.6-1.3,1.3s0.6,1.3,1.3,1.3h18.3c0.7,0,1.3-0.6,1.3-1.3S84.9,79.4,84.2,79.4"/>
		<path style="clip-path:url(#SVGID_00000150060522056444461790000010546151277969030327_);fill:#FFFFFF;" d="M92.7,79.4h-3.6
			c-0.7,0-1.3,0.6-1.3,1.3s0.6,1.3,1.3,1.3h3.6c0.7,0,1.3-0.6,1.3-1.3S93.4,79.4,92.7,79.4"/>
		<path style="clip-path:url(#SVGID_00000150060522056444461790000010546151277969030327_);fill:#FFFFFF;" d="M59.5,60.9
			C59.5,60.9,59.5,60.9,59.5,60.9C59.5,60.9,59.5,60.9,59.5,60.9c-1.4,0-2.4-1.1-2.4-2.4c0-0.7-0.6-1.3-1.3-1.3
			c-0.7,0-1.3,0.6-1.3,1.3c0,2.2,1.5,4.2,3.7,4.8v1.1c0,0.7,0.6,1.3,1.3,1.3s1.3-0.6,1.3-1.3v-1.1c2.6-0.7,4.2-3.4,3.5-6
			c-0.6-2.2-2.5-3.7-4.8-3.7c-1.3,0-2.4-1.1-2.4-2.4s1.1-2.4,2.4-2.4s2.4,1.1,2.4,2.4c0,0.7,0.6,1.3,1.3,1.3s1.3-0.6,1.3-1.3
			c0-2.2-1.5-4.2-3.7-4.8v-0.9c0-0.7-0.6-1.3-1.3-1.3s-1.3,0.6-1.3,1.3v0.9c-2.6,0.7-4.2,3.4-3.5,6c0.6,2.2,2.5,3.7,4.8,3.7
			c1.3,0,2.4,1.1,2.4,2.4C61.9,59.8,60.8,60.8,59.5,60.9"/>
	</g>
</g>
</svg>
