<?xml version="1.0" encoding="utf-8"?>
<!-- Generator: Adobe Illustrator 19.1.0, SVG Export Plug-In . SVG Version: 6.00 Build 0)  -->
<svg version="1.1" id="Layer_1" xmlns="http://www.w3.org/2000/svg" xmlns:xlink="http://www.w3.org/1999/xlink" x="0px" y="0px"
	 viewBox="0 0 101 100.5" style="enable-background:new 0 0 101 100.5;" xml:space="preserve">
<style type="text/css">
	.st0{fill:#5F7D7A;}
	.st1{fill:#F15B2A;stroke:#F15B2A;}
	.st2{fill:#1DA9E1;}
</style>
<g>
	<g>
		<path class="st0" d="M8.3,59.9c-0.9,0-1.6-0.7-1.6-1.6c0-0.9,0.7-1.6,1.6-1.6l7.7,0l13-15.1c0.6-0.7,1.5-0.7,2.2-0.2
			c0.1,0.1,0.2,0.2,0.3,0.3l11.3,14.1l23.8-26.7c0.6-0.6,1.6-0.7,2.2-0.1l0.1,0.1l14.2,14.2l5.2-7.8c0.5-0.7,1.4-0.9,2.2-0.4
			c0.7,0.5,0.9,1.4,0.4,2.2l-6.2,9.3c-0.1,0.1-0.1,0.2-0.2,0.3c-0.6,0.6-1.6,0.6-2.2,0L67.8,32.5L43.9,59.3l0,0
			c-0.1,0.1-0.1,0.1-0.2,0.2c-0.7,0.5-1.7,0.4-2.2-0.2L30.1,45.1L17.9,59.3l0,0c-0.3,0.3-0.7,0.5-1.2,0.5L8.3,59.9L8.3,59.9z
			 M68.8,29.1L68.8,29.1L68.8,29.1z"/>
	</g>
	<path class="st1" d="M48.9,9.9c0.9,0,1.6,0.7,1.6,1.6c0,0.9-0.7,1.6-1.6,1.6H3.6v56.3h93.7V13H55.2c-0.9,0-1.6-0.7-1.6-1.6
		c0-0.9,0.7-1.6,1.6-1.6h43.7h0c0.9,0,1.6,0.7,1.6,1.6v59.4v0c0,0.9-0.7,1.6-1.6,1.6H2.1h0c-0.9,0-1.6-0.7-1.6-1.6V11.5v0
		c0-0.9,0.7-1.6,1.6-1.6L48.9,9.9L48.9,9.9z"/>
	<path class="st1" d="M47.4,2.1c0-0.9,0.7-1.6,1.6-1.6c0.9,0,1.6,0.7,1.6,1.6l0,9.4c0,0.9-0.7,1.6-1.6,1.6c-0.9,0-1.6-0.7-1.6-1.6
		L47.4,2.1z"/>
	<path class="st2" d="M47.4,77.1c0-0.9,0.7-1.6,1.6-1.6s1.6,0.7,1.6,1.6l0,15.6c0,0.9-0.7,1.6-1.6,1.6c-0.9,0-1.6-0.7-1.6-1.6
		L47.4,77.1z"/>
	<path class="st2" d="M25.6,76.6c0.2-0.8,1.1-1.3,1.9-1.1c0.8,0.2,1.3,1.1,1.1,1.9l-6.2,21.9c-0.2,0.8-1.1,1.3-1.9,1.1
		c-0.8-0.2-1.3-1.1-1.1-1.9L25.6,76.6z"/>
	<path class="st2" d="M69.3,77.5c-0.2-0.8,0.2-1.7,1.1-1.9c0.8-0.2,1.7,0.2,1.9,1.1l6.2,21.9c0.2,0.8-0.2,1.7-1.1,1.9
		c-0.8,0.2-1.7-0.2-1.9-1.1L69.3,77.5z"/>
	<path class="st2" d="M2.1,78.7c-0.9,0-1.6-0.7-1.6-1.6s0.7-1.6,1.6-1.6h96.9c0.9,0,1.6,0.7,1.6,1.6c0,0.9-0.7,1.6-1.6,1.6H2.1z"/>
</g>
</svg>
