<?xml version="1.0" encoding="utf-8"?>
<!-- Generator: Adobe Illustrator 19.1.0, SVG Export Plug-In . SVG Version: 6.00 Build 0)  -->
<svg version="1.1" id="Layer_1" xmlns="http://www.w3.org/2000/svg" xmlns:xlink="http://www.w3.org/1999/xlink" x="0px" y="0px"
	 viewBox="0 0 100 100" style="enable-background:new 0 0 100 100;" xml:space="preserve">
<style type="text/css">
	.st0{fill:#1DA9E1;}
	.st1{fill:#ED3985;}
	.st2{fill:#F15B2A;stroke:#F15B2A;}
</style>
<g>
	<path class="st0" d="M16.1,0v9.7h3.2v19.8c-5.6,1.4-9.7,6.5-9.7,12.5c0,3.9,1.7,7.3,4.4,9.7h-2.8C5.1,51.6,0,56.7,0,62.9v22.6
		c0,3.6,2.9,6.5,6.5,6.5c1.2,0,2.3-0.3,3.2-0.9v9h3.2V88.7h19.4V100h3.2v-9c1,0.6,2,0.9,3.2,0.9c3.6,0,6.5-2.9,6.5-6.5V62.9
		c0-0.5-0.1-1.1-0.1-1.6h11.4v13.2c-1.9,0.7-3.2,2.4-3.2,4.5c0,2.7,2.2,4.8,4.8,4.8c2.7,0,4.8-2.2,4.8-4.8c0-2.1-1.4-3.9-3.2-4.5
		V61.3h37.1V9.7h3.2V0H16.1z M12.9,41.9c0-5.3,4.3-9.7,9.7-9.7s9.7,4.3,9.7,9.7s-4.3,9.7-9.7,9.7S12.9,47.3,12.9,41.9z M25.7,54.8
		l-3.1,3.9l-3.1-3.9H25.7z M41.9,85.5c0,1.8-1.4,3.2-3.2,3.2s-3.2-1.4-3.2-3.2V61.3h-3.2v24.2H12.9V61.3H9.7v24.2
		c0,1.8-1.4,3.2-3.2,3.2s-3.2-1.4-3.2-3.2V62.9c0-4.4,3.6-8.1,8.1-8.1h4.1l7.2,9l7.2-9h4.1c4.4,0,8.1,3.6,8.1,8.1V85.5z M58.1,80.6
		c-0.9,0-1.6-0.7-1.6-1.6s0.7-1.6,1.6-1.6c0.9,0,1.6,0.7,1.6,1.6S59,80.6,58.1,80.6z M93.5,58.1H44.1c-1.8-3.8-5.7-6.5-10.2-6.5
		h-2.8c2.7-2.4,4.4-5.8,4.4-9.7c0-7.1-5.8-12.9-12.9-12.9V9.7h71V58.1z M96.8,6.5H19.4V3.2h77.4V6.5z"/>
	<rect x="21" y="95.2" class="st0" width="3.2" height="4.8"/>
	<path class="st1" d="M43.5,50c2.7,0,4.8-2.2,4.8-4.8c0-0.8-0.2-1.5-0.6-2.2l8.3-9.5c0.6,0.3,1.2,0.4,1.9,0.4c1.2,0,2.3-0.5,3.1-1.2
		l6.9,5.8c-0.2,0.6-0.4,1.2-0.4,1.9c0,2.7,2.2,4.8,4.8,4.8s4.8-2.2,4.8-4.8c0-0.9-0.3-1.8-0.7-2.5l8.1-12.1c0.2,0,0.5,0.1,0.7,0.1
		c2.7,0,4.8-2.2,4.8-4.8s-2.2-4.8-4.8-4.8s-4.8,2.2-4.8,4.8c0,1.3,0.5,2.4,1.3,3.2l-7.7,11.6c-0.5-0.2-1.1-0.3-1.6-0.3
		c-0.8,0-1.6,0.2-2.3,0.6l-7.5-6.2c0-0.3,0.1-0.5,0.1-0.8c0-2.7-2.2-4.8-4.8-4.8c-2.7,0-4.8,2.2-4.8,4.8c0,0.8,0.2,1.5,0.6,2.2
		l-8.3,9.5c-0.6-0.3-1.2-0.4-1.9-0.4c-2.7,0-4.8,2.2-4.8,4.8C38.7,47.8,40.9,50,43.5,50z M85.5,19.4c0.9,0,1.6,0.7,1.6,1.6
		c0,0.9-0.7,1.6-1.6,1.6s-1.6-0.7-1.6-1.6C83.9,20.1,84.6,19.4,85.5,19.4z M72.6,38.7c0.9,0,1.6,0.7,1.6,1.6c0,0.9-0.7,1.6-1.6,1.6
		S71,41.2,71,40.3C71,39.4,71.7,38.7,72.6,38.7z M58.1,27.4c0.9,0,1.6,0.7,1.6,1.6c0,0.9-0.7,1.6-1.6,1.6c-0.9,0-1.6-0.7-1.6-1.6
		C56.5,28.1,57.2,27.4,58.1,27.4z M43.5,43.5c0.9,0,1.6,0.7,1.6,1.6s-0.7,1.6-1.6,1.6c-0.9,0-1.6-0.7-1.6-1.6S42.7,43.5,43.5,43.5z"
		/>
	<rect x="25.8" y="12.9" class="st2" width="3.2" height="3.2"/>
	<rect x="32.3" y="12.9" class="st2" width="3.2" height="3.2"/>
	<rect x="38.7" y="12.9" class="st2" width="3.2" height="3.2"/>
</g>
</svg>
