<?xml version="1.0" encoding="utf-8"?>
<!-- Generator: Adobe Illustrator 19.1.0, SVG Export Plug-In . SVG Version: 6.00 Build 0)  -->
<svg version="1.1" id="Layer_1" xmlns="http://www.w3.org/2000/svg" xmlns:xlink="http://www.w3.org/1999/xlink" x="0px" y="0px"
	 viewBox="0 0 100 73.6" style="enable-background:new 0 0 100 73.6;" xml:space="preserve">
<style type="text/css">
	.st0{fill:#5F7D7A;}
	.st1{fill:#FED208;}
	.st2{fill:#66B9B7;}
	.st3{fill:#F15B2A;stroke:#F15B2A;}
	.st4{fill:#1DA9E1;}
	.st5{fill:#ED3985;}
</style>
<g>
	<path class="st0" d="M98.7,66L76.9,44.1c3-4.3,4.7-9.5,4.7-14.9c0-6.9-2.7-13.5-7.6-18.4C69.1,6,62.5,3.3,55.6,3.3
		c-0.5,0-1,0-1.5,0v7.5c0.5,0,1-0.1,1.5-0.1c4.9,0,9.6,1.9,13.1,5.4c3.5,3.5,5.4,8.1,5.4,13.1c0,4.9-1.9,9.6-5.4,13.1
		c-3.5,3.5-8.1,5.4-13.1,5.4c-4.9,0-9.6-1.9-13.1-5.4c-1.2-1.1-2.1-2.4-2.9-3.8c-1,0.6-2.1,0.9-3.3,0.9c-2.3,0-4.4-1.2-5.6-3
		c0,0-0.1,0.1-0.1,0.1c1.2,4.1,3.4,7.9,6.6,11.1c4.9,4.9,11.4,7.6,18.4,7.6c5.4,0,10.6-1.7,14.9-4.7l21.8,21.8
		c0.9,0.9,2,1.3,3.2,1.3c1.2,0,2.3-0.4,3.2-1.3C100.4,70.6,100.4,67.7,98.7,66z"/>
	<path class="st1" d="M25.2,20c-1.6,0-3,1.3-3,3v9.8c0,1.6,1.3,3,3,3c1.6,0,3-1.3,3-3V23C28.1,21.3,26.8,20,25.2,20z"/>
	<path class="st2" d="M3,20c-1.6,0-3,1.3-3,3v9.8c0,1.6,1.3,3,3,3c1.6,0,3-1.3,3-3V23C5.9,21.3,4.6,20,3,20z"/>
	<path class="st3" d="M14.1,7.8c-1.6,0-3,1.3-3,3v22c0,1.6,1.3,3,3,3c1.6,0,3-1.3,3-3v-22C17,9.1,15.7,7.8,14.1,7.8z"/>
	<path class="st4" d="M47.4,35.7c1.6,0,3-1.3,3-3V3c0-1.6-1.3-3-3-3c-1.6,0-3,1.3-3,3v29.8C44.4,34.4,45.8,35.7,47.4,35.7z"/>
	<path class="st5" d="M36.3,35.7c1.6,0,3-1.3,3-3v-22c0-1.6-1.3-3-3-3c-1.6,0-3,1.3-3,3v22C33.3,34.4,34.7,35.7,36.3,35.7z"/>
</g>
</svg>
