<?xml version="1.0" encoding="utf-8"?>
<!-- Generator: Adobe Illustrator 19.1.0, SVG Export Plug-In . SVG Version: 6.00 Build 0)  -->
<svg version="1.1" id="Layer_1" xmlns="http://www.w3.org/2000/svg" xmlns:xlink="http://www.w3.org/1999/xlink" x="0px" y="0px"
	 viewBox="0 0 98.3 100" style="enable-background:new 0 0 98.3 100;" xml:space="preserve">
<style type="text/css">
	.st0{fill:#ED3985;}
	.st1{fill:#1DA9E1;}
	.st2{fill:#5F7D7A;}
	.st3{fill:#F15B2A;stroke:#F15B2A;}
	.st4{fill:#66B9B7;}
</style>
<g>
	<path class="st0" d="M30,70c0,0.9,0.7,1.7,1.7,1.7H55c0.9,0,1.7-0.7,1.7-1.7c0-0.9-0.7-1.7-1.7-1.7H31.7C30.7,68.3,30,69.1,30,70z"
		/>
	<path class="st0" d="M30,63.3c0,0.9,0.7,1.7,1.7,1.7h15c0.9,0,1.7-0.7,1.7-1.7c0-0.9-0.7-1.7-1.7-1.7h-15
		C30.7,61.7,30,62.4,30,63.3z"/>
	<path class="st1" d="M31.7,80c-0.9,0-1.7,0.7-1.7,1.7c0,0.9,0.7,1.7,1.7,1.7H50c0.9,0,1.7-0.7,1.7-1.7c0-0.9-0.7-1.7-1.7-1.7H31.7z
		"/>
	<path class="st0" d="M22.7,60.4c-0.7-0.6-1.8-0.5-2.3,0.3l-5.5,6.9l-2-2c-0.7-0.7-1.7-0.7-2.4,0c-0.7,0.7-0.7,1.7,0,2.4l3.3,3.3
		c0.7,0.7,1.9,0.6,2.5-0.1l6.7-8.3C23.5,62,23.4,60.9,22.7,60.4z"/>
	<path class="st1" d="M58.3,86.7H31.7c-0.9,0-1.7,0.7-1.7,1.7c0,0.9,0.7,1.7,1.7,1.7h26.7c0.9,0,1.7-0.7,1.7-1.7
		C60,87.4,59.3,86.7,58.3,86.7z"/>
	<path class="st1" d="M22.7,78.7c-0.7-0.6-1.8-0.5-2.3,0.3l-5.5,6.9l-2-2c-0.7-0.7-1.7-0.7-2.4,0c-0.7,0.7-0.7,1.7,0,2.4l3.3,3.3
		c0.7,0.7,1.9,0.6,2.5-0.1L23,81C23.5,80.3,23.4,79.3,22.7,78.7z"/>
	<path class="st2" d="M16.7,51.7c0.9,0,1.7-0.7,1.7-1.7V31.7c0-0.9-0.7-1.7-1.7-1.7H10c-0.9,0-1.7,0.7-1.7,1.7V50
		c0,0.9,0.7,1.7,1.7,1.7H16.7z M11.7,33.3H15v15h-3.3V33.3z"/>
	<path class="st3" d="M31.7,50V20c0-0.9-0.7-1.7-1.7-1.7h-6.7c-0.9,0-1.7,0.7-1.7,1.7v30c0,0.9,0.7,1.7,1.7,1.7H30
		C30.9,51.7,31.7,50.9,31.7,50z M28.3,48.3H25V21.7h3.3V48.3z"/>
	<path class="st0" d="M36.7,51.7h6.7c0.9,0,1.7-0.7,1.7-1.7V26.7c0-0.9-0.7-1.7-1.7-1.7h-6.7c-0.9,0-1.7,0.7-1.7,1.7V50
		C35,50.9,35.7,51.7,36.7,51.7z M38.3,28.3h3.3v20h-3.3V28.3z"/>
	<path class="st4" d="M96.9,71.5l-7-7c-1.5-1.5-3.8-1.9-5.7-1l-4.6-4.6c5.4-6.5,5-16.2-1.1-22.3c0,0-0.1-0.1-0.1-0.1V25c0,0,0,0,0,0
		c0-0.4-0.1-0.8-0.4-1.1l0,0c0,0-0.1-0.1-0.1-0.1L54.5,0.5c0,0-0.1-0.1-0.1-0.1c0,0,0,0,0,0c0,0-0.1-0.1-0.1-0.1c0,0,0,0,0,0
		c0,0-0.1,0-0.1-0.1c0,0,0,0,0,0c0,0-0.1,0-0.1-0.1c0,0,0,0,0,0c0,0-0.1,0-0.1,0c0,0,0,0-0.1,0c0,0-0.1,0-0.1,0c0,0-0.1,0-0.1,0
		c0,0,0,0,0,0c-0.1,0-0.1,0-0.2,0H1.7C0.7,0,0,0.7,0,1.7v96.7c0,0.9,0.7,1.7,1.7,1.7h75c0.9,0,1.7-0.7,1.7-1.7v-36l3.5,3.5
		c-0.9,1.9-0.6,4.2,1,5.7l7,7c2,2,5.1,2,7.1,0S98.8,73.4,96.9,71.5z M76.1,57.8c-0.1,0.1-0.2,0.2-0.4,0.4c-0.1,0-0.1,0.1-0.2,0.1
		c-4.4,4-10.9,4.5-15.8,1.5c0,0,0,0,0,0c-0.2-0.1-0.3-0.2-0.5-0.3c0,0,0,0,0,0c-0.2-0.1-0.3-0.2-0.5-0.3c0,0,0,0,0,0
		c-0.5-0.4-1-0.8-1.4-1.3c-1.4-1.4-2.4-2.9-3-4.6c-1.8-4.7-0.8-10.2,2.9-14.1c0,0,0.1-0.1,0.1-0.1c0.2-0.2,0.3-0.3,0.5-0.5
		c0.1-0.1,0.2-0.1,0.2-0.2c0.1-0.1,0.2-0.2,0.3-0.2c0.1-0.1,0.2-0.2,0.3-0.2c0.1-0.1,0.1-0.1,0.2-0.2c0.1-0.1,0.2-0.2,0.4-0.3
		c0.1,0,0.1-0.1,0.2-0.1c0.1-0.1,0.3-0.2,0.4-0.3c0,0,0.1-0.1,0.1-0.1c0.2-0.1,0.3-0.2,0.5-0.3c0,0,0.1,0,0.1,0
		c0.2-0.1,0.3-0.2,0.5-0.3c0,0,0,0,0.1,0c0.2-0.1,0.4-0.2,0.5-0.2c0,0,0,0,0,0c4.6-1.9,10.1-1.2,14.1,2.4c0.1,0,0.1,0.1,0.2,0.1
		c0.1,0.1,0.3,0.2,0.4,0.4C81.3,44.1,81.3,52.6,76.1,57.8z M55,5.7l17.6,17.6H55V5.7z M3.3,96.7V3.3h48.3V25c0,0.9,0.7,1.7,1.7,1.7
		H75v7.2c-4.4-2.5-9.6-2.9-14.3-1.1c0,0-0.1,0-0.1,0c-0.2,0.1-0.3,0.1-0.5,0.2c-0.1,0-0.1,0-0.2,0.1c-0.2,0.1-0.3,0.1-0.5,0.2
		c-0.1,0-0.1,0.1-0.2,0.1c-0.2,0.1-0.3,0.2-0.5,0.2c-0.1,0-0.1,0.1-0.2,0.1c-0.3,0.1-0.5,0.3-0.8,0.4c-0.1,0.1-0.2,0.1-0.3,0.2
		c-0.1,0.1-0.2,0.1-0.3,0.2c-0.1,0.1-0.2,0.2-0.3,0.2c-0.1,0.1-0.2,0.1-0.3,0.2c-0.1,0.1-0.2,0.2-0.4,0.3c-0.1,0.1-0.2,0.1-0.3,0.2
		c-0.1,0.1-0.3,0.2-0.4,0.3c-0.1,0.1-0.1,0.1-0.2,0.2c-0.2,0.2-0.4,0.4-0.6,0.5c0,0,0,0,0,0s0,0,0,0c-0.1,0.1-0.1,0.1-0.2,0.2
		c-4.7,4.9-5.9,11.9-3.5,17.9c0.8,2,2,3.9,3.7,5.5c0.1,0.1,0.1,0.1,0.2,0.2c0.1,0.1,0.3,0.3,0.4,0.4c0.1,0.1,0.2,0.2,0.3,0.2
		c0.1,0.1,0.2,0.2,0.3,0.3c0.1,0.1,0.2,0.2,0.3,0.2c0.1,0.1,0.2,0.2,0.3,0.2c0.1,0.1,0.2,0.2,0.3,0.2c0.1,0.1,0.2,0.1,0.3,0.2
		c0.1,0.1,0.2,0.2,0.4,0.2c0.1,0,0.1,0.1,0.2,0.1c0.5,0.3,1,0.6,1.6,0.9c0,0,0.1,0,0.1,0.1c0.2,0.1,0.4,0.2,0.5,0.2c0,0,0.1,0,0.1,0
		c0.2,0.1,0.4,0.2,0.6,0.2c0,0,0,0,0,0c4.7,1.8,9.9,1.4,14.3-1.1v33.9L3.3,96.7L3.3,96.7z M94.5,76.2c-0.7,0.7-1.7,0.7-2.4,0l-7-7
		c-0.7-0.7-0.7-1.7,0-2.4c0.7-0.7,1.7-0.7,2.4,0l7,7C95.2,74.5,95.2,75.5,94.5,76.2z"/>
</g>
</svg>
