<?xml version="1.0" encoding="utf-8"?>
<!-- Generator: Adobe Illustrator 19.1.0, SVG Export Plug-In . SVG Version: 6.00 Build 0)  -->
<svg version="1.1" id="Layer_1" xmlns="http://www.w3.org/2000/svg" xmlns:xlink="http://www.w3.org/1999/xlink" x="0px" y="0px"
	 viewBox="-255 347 100 100" style="enable-background:new -255 347 100 100;" xml:space="preserve">
<style type="text/css">
	.st0{fill:none;stroke:#5F7D7A;stroke-width:2.306;}
	.st1{fill:none;stroke:#66B9B7;stroke-width:2.306;}
	.st2{fill:none;stroke:#F15B2A;stroke-width:2.306;}
	.st3{fill:none;stroke:#FED208;stroke-width:2.306;}
	.st4{fill:none;stroke:#1DA9E1;stroke-width:2.306;}
	.st5{fill:none;stroke:#F05F3A;stroke-width:2.306;}
	.st6{fill:#1DA9E1;}
</style>
<g>
	<g>
		<line class="st0" x1="-227.1" y1="389.8" x2="-227.1" y2="381"/>
		<line class="st1" x1="-220.8" y1="389.8" x2="-220.8" y2="372.2"/>
		<line class="st2" x1="-214.4" y1="389.8" x2="-214.4" y2="366.2"/>
		<line class="st3" x1="-208" y1="389.8" x2="-208" y2="372.2"/>
		<line class="st0" x1="-182.9" y1="390.3" x2="-182.9" y2="372.5"/>
		<line class="st4" x1="-201.6" y1="389.8" x2="-201.6" y2="378"/>
		<line class="st5" x1="-195.2" y1="389.8" x2="-195.2" y2="357.5"/>
		<line class="st3" x1="-188.9" y1="389.8" x2="-188.9" y2="367.8"/>
	</g>
	<path class="st6" d="M-163.8,392.5h-5.2v-9.4c0-2.3-1.8-4.1-4.1-4.1h-1.9v-27h-60v3h-4.5v3h-4.5v10.5h-1.9c-2.3,0-4.1,1.8-4.1,4.1
		v65.5l0,0c0,0.8,0.3,1.7,0.8,2.3c0.7,1,1.9,1.5,3.1,1.5h67.1c1.7,0,3.2-1.2,3.7-2.7l15.3-42V397
		C-160,394.5-161.6,392.5-163.8,392.5z M-173.1,382c0.6,0,1.1,0.5,1.1,1.1v9.5h-3V382H-173.1z M-178,355v24v13.5h-52.9
		c-0.4,0-0.7,0.1-1,0.2h-0.1V355H-178z M-235,358v38.3l-0.1,0.3l-1.4,3.9V358H-235z M-241,361h1.5v47.7l-1.5,4.1v-44.4V361z
		 M-247,372.7c0-0.6,0.4-1.1,1.1-1.1h1.9V421l-3,8.2V372.7z M-178.2,438.5c-0.1,0.4-0.5,0.6-0.8,0.6h-67.1c-0.4,0-0.5-0.2-0.6-0.4
		c-0.1-0.1-0.3-0.4-0.2-0.6l3-8.3l0,0l4.5-12.3l0,0l4.5-12.3l0,0l2.9-7.9l0.1-0.3l0,0l0.3-0.6v-0.1c0.1-0.4,0.4-0.6,0.8-0.6h52.9h3
		h6h5.2c0.5,0,0.7,0.8,0.7,1.3L-178.2,438.5z"/>
</g>
</svg>
