<?xml version="1.0" encoding="utf-8"?>
<!-- Generator: Adobe Illustrator 19.1.0, SVG Export Plug-In . SVG Version: 6.00 Build 0)  -->
<svg version="1.1" id="Layer_1" xmlns="http://www.w3.org/2000/svg" xmlns:xlink="http://www.w3.org/1999/xlink" x="0px" y="0px"
	 viewBox="0 0 100.5 101" style="enable-background:new 0 0 100.5 101;" xml:space="preserve">
<style type="text/css">
	.st0{fill:#F15B2A;stroke:#F15B2A;}
	.st1{fill:#66B9B7;}
	.st2{fill:#5F7D7A;}
	.st3{fill:#FED208;}
	.st4{fill:#ED3985;}
	.st5{fill:#1DA9E1;}
</style>
<g>
	<g>
		<g>
			<g>
				<path class="st0" d="M99.9,67.1l-5-27.5c-0.4-2.4-2.5-4.1-4.9-4.1H70c-2.4,0-4.5,1.7-4.9,4.1l-5,27.5c-0.3,1.5,0.1,3,1.1,4.1
					c1,1.1,2.4,1.8,3.8,1.8h3.2L70,95.9c0.2,2.6,2.4,4.6,5,4.6h10c2.6,0,4.8-2,5-4.6L91.8,73H95c1.5,0,2.9-0.7,3.8-1.8
					S100.2,68.6,99.9,67.1z M87.2,68L85,95.5H75L72.8,68H65l5-27.5h7.5v15.2c0,1.4,1.1,2.5,2.5,2.5c1.4,0,2.5-1.1,2.5-2.5V40.5H90
					L95,68H87.2z"/>
			</g>
		</g>
		<g>
			<g>
				<path class="st0" d="M80,0.5c-8.3,0-15,6.7-15,15s6.7,15,15,15c8.3,0,15-6.7,15-15C95,7.2,88.3,0.5,80,0.5z M80,25.5
					c-5.5,0-10-4.5-10-10s4.5-10,10-10c5.5,0,10,4.5,10,10S85.5,25.5,80,25.5z"/>
			</g>
		</g>
	</g>
	<g>
		<g>
			<rect y="95.5" class="st1" width="65" height="5"/>
		</g>
	</g>
	<g>
		<g>
			<rect x="5" y="80.5" class="st0" width="5" height="10"/>
		</g>
	</g>
	<g>
		<g>
			<rect x="15" y="75.5" class="st2" width="5" height="15"/>
		</g>
	</g>
	<g>
		<g>
			<rect x="25" y="65.5" class="st3" width="5" height="25"/>
		</g>
	</g>
	<g>
		<g>
			<rect x="35" y="55.5" class="st4" width="5" height="35"/>
		</g>
	</g>
	<g>
		<g>
			<rect x="45" y="35.5" class="st5" width="5" height="55"/>
		</g>
	</g>
</g>
</svg>
