<?xml version="1.0" encoding="utf-8"?>
<!-- Generator: Adobe Illustrator 16.0.0, SVG Export Plug-In . SVG Version: 6.00 Build 0)  -->
<!DOCTYPE svg PUBLIC "-//W3C//DTD SVG 1.1//EN" "http://www.w3.org/Graphics/SVG/1.1/DTD/svg11.dtd">
<svg version="1.1" id="Layer_1" xmlns="http://www.w3.org/2000/svg" xmlns:xlink="http://www.w3.org/1999/xlink" x="0px" y="0px"
	 width="310px" height="56px" viewBox="0 0 310 56" enable-background="new 0 0 310 56" xml:space="preserve">
<g>
	<g>
		<path fill="#FFFFFF" d="M110.694,28.238c0-10.455,7.345-18.858,17-20.084V0.58c-14.114,1.484-25.042,13.286-25.042,27.73
			c0,14.327,10.973,26.002,25.042,27.219v-7.61C117.947,46.698,110.694,38.519,110.694,28.238z"/>
	</g>
	<path fill="#FFFFFF" d="M309.5,9.029V1.457h-29.321v53.161H309.5v-7.575h-21.278V29.354h20.638V21.78h-20.638V9.029H309.5z
		 M260.208,9.029h12.191V1.457h-32.44v7.572h12.191v45.588h8.058V9.029z"/>
	<g>
		<path fill="#FFFFFF" d="M167.034,34.524h13.237c-0.724,7.496-7.901,13.545-15.87,13.545c-4.224,0-8.602-1.751-12.264-4.769
			c-4.626-3.831-7.019-8.933-7.019-15.147c0-11.397,8.607-20.162,19.854-20.162c6.451,0,11.385,2.713,15.935,8.765l5.733-5.494
			c-2.475-2.867-3.901-4.225-5.895-5.657c-4.546-3.35-10.13-5.18-15.94-5.18c-15.463,0-27.731,12.271-27.731,27.729
			c0,15.147,12.193,27.49,27.09,27.49c7.971,0,15.538-3.742,20.162-10.042c3.274-4.458,4.698-9.241,4.698-16.178v-2.467h-21.99
			V34.524z"/>
		<path fill="#FFFFFF" d="M91.122,17.079c0-5.102-2.47-9.882-6.378-12.516c-3.348-2.23-7.167-3.107-14.022-3.107h-9.407v53.162
			h8.055V32.859h1.433l15.137,21.758h9.804L79.327,31.985C86.418,30.467,91.122,24.49,91.122,17.079z M69.369,25.842V9.029h2.867
			c7.333,0,11.074,2.792,11.074,8.132c0,5.651-3.983,8.682-11.392,8.682H69.369z"/>
	</g>
	<polygon fill="#FFFFFF" points="216.906,16.12 216.908,16.121 216.91,16.12 233.683,54.617 242.407,54.617 218.105,0.406 
		216,0.406 190.772,54.617 199.376,54.617 	"/>
	<polygon fill="#FFFFFF" points="26.64,16.12 26.64,16.136 26.646,16.12 43.418,54.617 52.139,54.617 27.829,0.406 25.731,0.406 
		0.5,54.617 9.108,54.617 	"/>
</g>
</svg>
