<?xml version="1.0" encoding="utf-8"?>
<!-- Generator: Adobe Illustrator 27.3.1, SVG Export Plug-In . SVG Version: 6.00 Build 0)  -->
<svg version="1.1" id="Layer_1" xmlns="http://www.w3.org/2000/svg" xmlns:xlink="http://www.w3.org/1999/xlink" x="0px" y="0px"
	 viewBox="0 0 256 63.3" style="enable-background:new 0 0 256 63.3;" xml:space="preserve">
<style type="text/css">
	.st0{fill:#253858;}
	.st1{fill:#2684FF;}
	.st2{fill:url(#SVGID_1_);}
</style>
<path class="st0" d="M76,18.2c5.9,0,8.7,2.9,8.7,7.5c0,3.5-1.6,5.6-4.8,6.4c4.2,0.7,6.3,3,6.3,7.1c0,4.6-3.1,7.7-9.5,7.7H64.8V18.2
	H76z M68.8,22v8.6h6.7c3.7,0,5.2-1.7,5.2-4.5S79,22,75.5,22L68.8,22z M68.8,34V43h8c3.8,0,5.5-1.4,5.5-4.2c0-3.1-1.6-4.7-5.5-4.7
	L68.8,34z M92.6,16.7c1.4-0.1,2.5,0.9,2.6,2.3c0,0.1,0,0.2,0,0.3c0,1.4-1.2,2.6-2.6,2.6c-1.4,0-2.6-1.2-2.6-2.6
	c-0.1-1.4,0.9-2.5,2.3-2.6C92.4,16.7,92.5,16.7,92.6,16.7z M90.7,25.1h3.8v21.8h-3.8V25.1z M108.8,43.2c0.8,0,1.6-0.1,2.4-0.3v3.6
	c-0.8,0.2-1.7,0.4-2.5,0.3c-4.7,0-6.9-2.7-6.9-6.8V28.6h-3.5v-3.5h3.5v-4.6h3.6v4.6h5.8v3.5h-5.8V40
	C105.3,41.9,106.5,43.2,108.8,43.2L108.8,43.2z M126.6,47.3c-3.2,0-5.6-1.4-6.9-4.3v3.8h-3.8v-31h3.8v13c1.4-2.9,4-4.4,7.4-4.4
	c5.8,0,8.7,4.9,8.7,11.4C135.8,42.1,132.7,47.3,126.6,47.3L126.6,47.3z M126.1,28.1c-3.4,0-6.4,2.1-6.4,7v1.7c0,4.8,2.7,7,6,7
	c4.2,0,6.4-2.8,6.4-7.9C132,30.7,129.9,28.1,126.1,28.1z M139.7,25.1h3.8v13.2c0,3.9,1.6,5.7,5.1,5.7c3.5,0,5.9-2.3,5.9-6.7V25.1
	h3.8v21.8h-3.8v-3.6c-1.4,2.5-4,4.1-6.9,4c-5,0-7.9-3.5-7.9-9.5L139.7,25.1z M179.4,46.3c-1.3,0.7-3.3,1-5.3,1
	c-7.8,0-11.4-4.7-11.4-11.4c0-6.6,3.6-11.3,11.4-11.3c1.8-0.1,3.6,0.3,5.2,1.1v3.5c-1.6-0.7-3.3-1.1-5-1c-5.7,0-8,3.6-8,7.8
	s2.4,7.8,8.1,7.8c1.7,0,3.4-0.2,5-0.8L179.4,46.3z M183.6,46.9v-31h3.8v19.3l9.4-10.2h4.9l-10.3,10.7l10.7,11.1H197l-9.6-10.2v10.2
	L183.6,46.9z M214.6,47.3c-8.2,0-11.7-4.7-11.7-11.4c0-6.6,3.7-11.3,10.3-11.3c6.7,0,9.4,4.7,9.4,11.3v1.7h-15.9
	c0.5,3.7,2.9,6.1,8.1,6.1c2.3,0,4.5-0.4,6.6-1.2V46C219.5,47,216.8,47.3,214.6,47.3L214.6,47.3z M206.6,34.4h12.2
	c-0.2-4.1-2.1-6.4-5.8-6.4C209,28,207,30.6,206.6,34.4L206.6,34.4z M235.6,43.2c0.8,0,1.6-0.1,2.4-0.3v3.6c-0.8,0.2-1.7,0.4-2.5,0.3
	c-4.7,0-6.9-2.7-6.9-6.8V28.6H225v-3.5h3.5v-4.6h3.7v4.6h5.8v3.5h-5.8V40C232.2,41.9,233.3,43.2,235.6,43.2L235.6,43.2z"/>
<path class="st1" d="M19,19c-0.5,0-1,0.4-1,1c0,0.1,0,0.1,0,0.2l4.2,25.6c0.1,0.6,0.7,1.1,1.3,1.1h20.2c0.5,0,0.9-0.3,1-0.8L49,20.2
	c0.1-0.5-0.3-1.1-0.8-1.1c-0.1,0-0.1,0-0.2,0L19,19z M36.7,37.5h-6.4l-1.7-9.1h9.8L36.7,37.5z"/>
<linearGradient id="SVGID_1_" gradientUnits="userSpaceOnUse" x1="694.6077" y1="-335.6727" x2="667.9497" y2="-356.4783" gradientTransform="matrix(0.5773 0 0 -0.5773 -351.249 -162.8254)">
	<stop  offset="0.18" style="stop-color:#0052CC"/>
	<stop  offset="1" style="stop-color:#2684FF"/>
</linearGradient>
<path class="st2" d="M47.6,28.4h-9.3l-1.6,9.1h-6.4l-7.6,9c0.2,0.2,0.5,0.3,0.9,0.3h20.2c0.5,0,0.9-0.3,1-0.8L47.6,28.4z"/>
</svg>
