<?xml version="1.0" encoding="utf-8"?>
<!-- Generator: Adobe Illustrator 27.3.1, SVG Export Plug-In . SVG Version: 6.00 Build 0)  -->
<svg version="1.1" id="Layer_1" xmlns="http://www.w3.org/2000/svg" xmlns:xlink="http://www.w3.org/1999/xlink" x="0px" y="0px"
	 viewBox="0 0 619 202" style="enable-background:new 0 0 619 202;" xml:space="preserve">
<style type="text/css">
	.st0{opacity:0.98;fill-rule:evenodd;clip-rule:evenodd;fill:#08A81B;enable-background:new    ;}
	.st1{fill-rule:evenodd;clip-rule:evenodd;fill:#F5FBF6;}
	.st2{fill-rule:evenodd;clip-rule:evenodd;fill:#F2FAF2;}
	.st3{fill-rule:evenodd;clip-rule:evenodd;fill:#F7FCF8;}
	.st4{fill-rule:evenodd;clip-rule:evenodd;fill:#F6FCF7;}
	.st5{fill-rule:evenodd;clip-rule:evenodd;fill:#F2FAF3;}
	.st6{fill-rule:evenodd;clip-rule:evenodd;fill:#EEF9EF;}
	.st7{fill-rule:evenodd;clip-rule:evenodd;fill:#F0FAF1;}
	.st8{opacity:0.873;fill-rule:evenodd;clip-rule:evenodd;enable-background:new    ;}
	.st9{opacity:0.896;fill-rule:evenodd;clip-rule:evenodd;enable-background:new    ;}
	.st10{opacity:0.849;fill-rule:evenodd;clip-rule:evenodd;enable-background:new    ;}
	.st11{opacity:0.85;fill-rule:evenodd;clip-rule:evenodd;enable-background:new    ;}
	.st12{opacity:0.884;fill-rule:evenodd;clip-rule:evenodd;enable-background:new    ;}
	.st13{opacity:0.863;fill-rule:evenodd;clip-rule:evenodd;enable-background:new    ;}
	.st14{opacity:0.865;fill-rule:evenodd;clip-rule:evenodd;enable-background:new    ;}
</style>
<g>
	<path class="st0" d="M565,21.7c29.5-2.6,45.8,10.8,49,40.2c-3.1,28.9-19,45.5-47.8,49.6c0-3.9,0-7.8,0-11.7
		c-12.1-2.5-21.2-9.1-27.4-19.8C529.2,52,538,32.6,565,21.7z"/>
</g>
<g>
	<path class="st1" d="M563.8,36.9c2.8-0.1,4.9,1,6.4,3.5c2.1,11.5-0.6,13.1-8.2,4.7C561.1,41.9,561.7,39.2,563.8,36.9z"/>
</g>
<g>
	<path class="st2" d="M580.2,36.9c7.5,0.9,8.9,4.4,4.1,10.5c-4.2,3.7-6.7,2.9-7.6-2.3C576.9,41.9,578.1,39.1,580.2,36.9z"/>
</g>
<g>
	<path class="st3" d="M552.2,48.5c6,0,9.7,2.7,11.1,8.2c-3.2,1.3-6.5,1.5-9.9,0.6C549.4,54.6,549,51.7,552.2,48.5z"/>
</g>
<g>
	<path class="st4" d="M553.3,63.7c3.8-0.5,7.3,0.1,10.5,1.7c-2.2,5.3-6.1,7.7-11.7,7C548.9,69,549.3,66,553.3,63.7z"/>
</g>
<g>
	<path class="st5" d="M584.8,63.7c3.5-0.2,7,0,10.5,0.6c4.9,3.7,4.5,6.7-1.2,8.7C588.4,72.5,585.2,69.4,584.8,63.7z"/>
</g>
<g>
	<path class="st6" d="M567.3,70.7c1.2,0,2.3,0,3.5,0c2.1,4.6,1.3,8.7-2.3,12.2c-3.9,1.5-6.3,0.3-7-3.5
		C562.4,75.8,564.4,72.9,567.3,70.7z"/>
</g>
<g>
	<path class="st7" d="M577.8,70.7c6.9,1.6,9.6,5.7,8.2,12.2c-5.7,1.3-8.8-1-9.3-7C577,74.2,577.4,72.4,577.8,70.7z"/>
</g>
<g>
	<path class="st8" d="M367.9,94c4.7,0,9.3,0,14,0c-0.2,7.4,0,14.8,0.6,22.2c11.6-7.6,23.5-7.8,35.6-0.6c13.2,12,16.1,26.2,8.7,42.6
		c-11.9,15.8-26.5,18.9-43.7,9.3c-1.1,1.4-1.5,2.9-1.2,4.7c-4.7,0-9.3,0-14,0C367.9,146.1,367.9,120.1,367.9,94z M392.4,124.3
		c18.4-0.9,25.6,7.6,21.6,25.7c-4.7,8.8-11.9,11.7-21.6,8.7C381.1,150.9,379,141,386,129C388.3,127.6,390.5,126.1,392.4,124.3z"/>
</g>
<g>
	<path class="st9" d="M531.2,109.2c3.5,0,7,0,10.5,0c0,4.3,0,8.6,0,12.8c-7-0.5-12.2,2.3-15.7,8.2c-1.7,13.9-2.3,27.9-1.7,42
		c-4.3,0-8.6,0-12.8,0c0-20.2,0-40.4,0-60.7c4.3,0,8.6,0,12.8,0c-0.2,1.2,0,2.4,0.6,3.5C526.8,112.9,529,111,531.2,109.2z"/>
</g>
<g>
	<path class="st10" d="M30.8,110.4c14.1-2,25,2.9,32.7,14.6c-3.4,3-7,5.5-11.1,7.6c-11-12.4-21.5-12-31.5,1.2
		c-3.6,17.6,3.6,25.9,21.6,25.1c3.5-2.4,6.8-4.9,9.9-7.6c3.9,1.3,7.4,3.3,10.5,5.8c0.8,1.2,0.8,2.3,0,3.5
		c-13,13.9-27.9,16.4-44.9,7.6c-16-13.8-18.1-29.5-6.4-47.2C17.2,115.6,23.6,112.1,30.8,110.4z"/>
</g>
<g>
	<path class="st11" d="M163.8,110.4c14.1-2,25,2.9,32.7,14.6c-3.4,3.2-7.3,5.7-11.7,7.6c-10.8-12.6-21.1-12.2-30.9,1.2
		c-3.6,17.6,3.6,25.9,21.6,25.1c3.9-1.9,7.2-4.4,9.9-7.6c3.9,1.3,7.4,3.3,10.5,5.8c0.8,1.2,0.8,2.3,0,3.5
		c-13,13.9-27.9,16.4-44.9,7.6c-15.5-13.1-18-28.4-7.6-46.1C148.8,115.5,155.6,111.6,163.8,110.4z"/>
</g>
<g>
	<path class="st12" d="M292.1,110.4c8.8-1,16.2,1.7,22.2,8.2c4.2-6,10-8.7,17.5-8.2c11.8,0.9,19,7.1,21.6,18.7c0.6,14,0.8,28,0.6,42
		c-4.7,0-9.3,0-14,0c0.2-13.2,0-26.4-0.6-39.7c-3.2-7.2-8.3-8.8-15.2-4.7c-1.1,2.2-1.9,4.5-2.3,7c-0.6,12.4-0.8,24.9-0.6,37.3
		c-4.7,0-9.3,0-14,0c0.2-13.6,0-27.2-0.6-40.8c-3.1-5.8-7.6-7.1-13.4-4.1c-2.3,1.5-3.7,3.7-4.1,6.4c-0.6,12.8-0.8,25.7-0.6,38.5
		c-4.7,0-9.3,0-14,0c-0.2-14.8,0-29.6,0.6-44.3C277.6,117.8,283.3,112.3,292.1,110.4z"/>
</g>
<g>
	<path class="st13" d="M463.5,110.4c24.6-0.5,37.1,11.5,37.3,36.2c-16-0.4-31.9,0-47.8,1.2c6.3,12.5,15.6,15.4,28,8.7
		c1.8-2,3.7-3.7,5.8-5.2c4.1,1.5,7.6,3.8,10.5,7c-13.4,16.2-29.3,19.1-47.8,8.7c-14.6-13.9-16.4-29.2-5.2-46.1
		C449.9,115.6,456.3,112.1,463.5,110.4z M463.5,123.2c5.4-0.6,10.4,0.4,15.2,2.9c2.4,2.5,3.9,5.5,4.7,8.7c-10.1,0.4-20.2,0-30.3-1.2
		C455.4,129,458.9,125.5,463.5,123.2z"/>
</g>
<g>
	<path class="st14" d="M72.8,111.5c4.7,0,9.3,0,14,0c-0.2,12.4,0,24.9,0.6,37.3c4.3,9.5,11.1,12,20.4,7.6c2.5-2,4.2-4.5,5.2-7.6
		c0.6-12.4,0.8-24.9,0.6-37.3c4.7,0,9.3,0,14,0c0.2,13.6,0,27.2-0.6,40.8c-4,13.1-13,20.1-26.8,21c-11.6-0.8-20.2-6.2-25.7-16.3
		C72.9,141.9,72.3,126.8,72.8,111.5z"/>
</g>
<g>
	<path class="st13" d="M205.8,111.5c4.7,0,9.3,0,14,0c-0.2,12.4,0,24.9,0.6,37.3c4.3,9.5,11.1,12,20.4,7.6c2.8-2.3,4.5-5.2,5.2-8.7
		c0.6-12,0.8-24.1,0.6-36.2c4.7,0,9.3,0,14,0c0.5,15.2-0.1,30.4-1.7,45.5c-9.8,15.5-23.2,19.6-40.2,12.2
		c-6.5-3.9-10.6-9.5-12.2-16.9C205.8,138.7,205.6,125.1,205.8,111.5z"/>
</g>
</svg>
