<?xml version="1.0" encoding="utf-8"?>
<!-- Generator: Adobe Illustrator 19.1.0, SVG Export Plug-In . SVG Version: 6.00 Build 0)  -->
<svg version="1.1" id="Layer_1" xmlns="http://www.w3.org/2000/svg" xmlns:xlink="http://www.w3.org/1999/xlink" x="0px" y="0px"
	 viewBox="0 0 101 101" style="enable-background:new 0 0 101 101;" xml:space="preserve">
<style type="text/css">
	.st0{fill:#F15B2A;stroke:#F15B2A;}
	.st1{fill:#1DA9E1;}
	.st2{fill:#ED3985;}
	.st3{fill:#FED208;}
	.st4{fill:#66B9B7;}
</style>
<g>
	<path class="st0" d="M50.5,0.5c-27.7,0-50,22.3-50,50c0,27.7,22.3,50,50,50c27.7,0,50-22.3,50-50C100.5,22.8,78.2,0.5,50.5,0.5z
		 M50.5,97.2c-25.9,0-46.8-20.9-46.7-46.8c0-25.9,20.9-46.7,46.9-46.7c25.8,0,46.6,20.8,46.6,46.7C97.3,76.4,76.4,97.2,50.5,97.2z"
		/>
	<path class="st1" d="M36.7,65.4c1.2,0.2,1.9,0.4,2.7,0.6c-1.3,1.8-4.4,2.6-6.4,1.6c-0.3-0.1-0.4-0.3-0.4-0.6
		c-0.5-2.1,0.7-4.8,2.7-6.1c0.4,0.8,0,1.5-0.1,2.7c1.4-1.3,2.6-2.4,3.8-3.5c8.2-7.8,16.4-15.5,24.5-23.3c0.5-0.5,1.1-1,1.7-1.5
		c1.2-1,2.1-2,1.6-3.9c-0.5-1.9,0.9-3.9,2.8-4.6c2-0.8,4.1-0.3,5.4,1.4c1.2,1.6,1.3,3.9,0.1,5.5c-1.2,1.7-3.4,2.5-5.3,1.6
		c-0.9-0.4-1.3-0.1-1.9,0.4C61,42.5,54.1,49.1,47.1,55.7C43.7,58.9,40.3,62,36.7,65.4z"/>
	<path class="st2" d="M59.9,29.5c-0.8-0.9-1.2-1.3-1.7-1.8c1.8-0.6,5.7,1.3,5.9,3c0,0.2-0.1,0.4-0.2,0.5c-1.6,1.4-2.7,4-5.7,3
		c0.1-0.9,1.2-1.2,1.4-2c-0.5-0.5-1-0.3-1.5-0.3c-8.4,0-16.9,0-25.3,0c-1,0-1.8,0-2.4,1.3c-0.9,2-3.1,2.7-5.2,2.2
		c-2-0.5-3.2-2.1-3.3-4.1c-0.1-2.5,1-4.1,3.2-4.8c1.9-0.6,4,0,5.1,1.9c0.7,1.1,1.4,1.3,2.6,1.3C41.7,29.5,50.6,29.5,59.9,29.5z"/>
	<path class="st3" d="M52.5,69.3c-0.8-1-1.3-1.5-1.9-2.2c2.2-0.6,5.5,1,6.3,3c0.1,0.3,0.1,0.5-0.1,0.7c-1.7,1.5-3,4-6.1,2.9
		c0.6-0.6,1.1-1.2,2-2.2c-4,0-7.6,0-11.2,0c-3,0-5.9,0-8.9,0c-0.9,0-1.4,0.1-1.9,1c-1.2,2.2-3.1,2.9-5.5,2.2c-1.7-0.5-3-2.2-3-4.1
		c-0.1-2.3,1-4.1,3-4.7c2-0.7,4.2,0.1,5.4,2.1c0.4,0.6,0.7,1.2,1.6,1.2C38.7,69.3,45.3,69.3,52.5,69.3z"/>
	<path class="st4" d="M78.9,63.9c0.7-5.1-4-11.2-10.9-11.3c-6.1-0.1-11.2,5.1-11.2,11.2c0,6.4,4.8,10.9,11.1,11.2
		C73.8,75.4,79.8,69.2,78.9,63.9z M74.4,61.5c-2.6,2.6-5.3,5.2-7.9,7.8c-0.5,0.5-0.8,0.7-1.4,0c-1.2-1.5-2.6-2.9-3.9-4.4
		c-0.5-0.5-0.5-0.8,0-1.3c0.5-0.4,0.9-0.6,1.4-0.1c0.7,0.8,1.6,1.5,2.2,2.4c0.9,1.3,1.5,1,2.4,0c2-2,4-3.9,6.1-5.9
		c0.3-0.3,0.6-0.8,1.2-0.4c0.3,0.2,0.7,0.4,1.1,0.7C74.9,60.9,74.7,61.2,74.4,61.5z"/>
</g>
</svg>
