<?xml version="1.0" encoding="UTF-8"?>
<!DOCTYPE svg PUBLIC "-//W3C//DTD SVG 1.1//EN" "http://www.w3.org/Graphics/SVG/1.1/DTD/svg11.dtd">
<svg xmlns="http://www.w3.org/2000/svg" version="1.1" width="403px" height="135px" style="shape-rendering:geometricPrecision; text-rendering:geometricPrecision; image-rendering:optimizeQuality; fill-rule:evenodd; clip-rule:evenodd" xmlns:xlink="http://www.w3.org/1999/xlink">
<g><path style="opacity:0.977" fill="#48484b" d="M 55.5,-0.5 C 63.5,-0.5 71.5,-0.5 79.5,-0.5C 114.291,8.47006 132.958,30.9701 135.5,67C 132.958,103.03 114.291,125.53 79.5,134.5C 71.5,134.5 63.5,134.5 55.5,134.5C 25.6154,127.616 6.9487,109.282 -0.5,79.5C -0.5,71.1667 -0.5,62.8333 -0.5,54.5C 6.9487,24.7178 25.6154,6.38443 55.5,-0.5 Z"/></g>
<g><path style="opacity:0.924" fill="#47484a" d="M 170.5,35.5 C 186.764,33.2687 195.931,40.2687 198,56.5C 199.816,68.082 198.15,79.082 193,89.5C 186.45,97.9058 177.95,100.739 167.5,98C 165.336,97.0857 163.336,95.919 161.5,94.5C 160.668,102.813 160.168,111.147 160,119.5C 154.599,120.638 149.099,121.304 143.5,121.5C 143.5,93.1667 143.5,64.8333 143.5,36.5C 148.5,36.5 153.5,36.5 158.5,36.5C 158.687,38.5643 159.187,40.5643 160,42.5C 162.998,39.2623 166.498,36.9289 170.5,35.5 Z M 170.5,47.5 C 173.508,47.8774 176.008,49.2107 178,51.5C 182.573,61.5076 182.573,71.5076 178,81.5C 172.976,87.5522 167.643,87.8856 162,82.5C 160.886,77.6093 160.386,72.6093 160.5,67.5C 157.732,57.4925 161.066,50.8259 170.5,47.5 Z"/></g>
<g><path style="opacity:0.914" fill="#47484a" d="M 231.5,35.5 C 235.167,35.5 238.833,35.5 242.5,35.5C 242.093,41.1995 241.427,46.8662 240.5,52.5C 232.547,50.0958 227.047,52.7625 224,60.5C 222.561,72.7581 222.061,85.0915 222.5,97.5C 216.833,97.5 211.167,97.5 205.5,97.5C 205.5,77.1667 205.5,56.8333 205.5,36.5C 210.5,36.5 215.5,36.5 220.5,36.5C 220.108,39.7216 220.608,42.7216 222,45.5C 224.022,40.98 227.189,37.6467 231.5,35.5 Z"/></g>
<g><path style="opacity:0.919" fill="#47484a" d="M 262.5,35.5 C 288.612,33.9859 299.945,46.3192 296.5,72.5C 284.5,72.5 272.5,72.5 260.5,72.5C 260.672,81.0059 265.005,85.6726 273.5,86.5C 278.883,85.7631 283.716,83.7631 288,80.5C 290.572,83.4028 292.739,86.5694 294.5,90C 294.241,91.2613 293.574,92.2613 292.5,93C 279.649,99.9134 266.649,100.247 253.5,94C 243.112,83.0847 239.945,70.2513 244,55.5C 246.614,45.3914 252.781,38.7247 262.5,35.5 Z M 266.5,47.5 C 276.45,46.667 281.116,51.3337 280.5,61.5C 273.833,61.5 267.167,61.5 260.5,61.5C 260.007,55.6129 262.007,50.9462 266.5,47.5 Z"/></g>
<g><path style="opacity:0.914" fill="#47484a" d="M 317.5,35.5 C 325.337,34.968 333.003,35.8013 340.5,38C 343.393,38.9408 345.726,40.6074 347.5,43C 345.728,46.6016 343.395,49.7682 340.5,52.5C 334.273,47.9351 327.607,46.9351 320.5,49.5C 317.92,51.713 317.92,53.8797 320.5,56C 327.999,58.7021 335.332,61.7021 342.5,65C 350.424,72.4449 351.591,80.9449 346,90.5C 342.323,94.4231 337.823,96.9231 332.5,98C 319.798,100.656 308.464,97.9898 298.5,90C 300.979,86.3535 303.979,83.1868 307.5,80.5C 314.101,85.8188 321.434,87.3188 329.5,85C 333.684,81.2179 333.351,77.8846 328.5,75C 320.635,73.2056 313.302,70.2056 306.5,66C 297.766,51.3682 301.433,41.2015 317.5,35.5 Z"/></g>
<g><path style="opacity:0.916" fill="#47484a" d="M 402.5,72.5 C 402.5,76.8333 402.5,81.1667 402.5,85.5C 399.008,92.4752 393.342,96.6419 385.5,98C 374.867,99.8584 364.867,98.1917 355.5,93C 354.313,91.9805 353.313,90.8139 352.5,89.5C 355.195,86.4744 357.862,83.4744 360.5,80.5C 367.151,85.6689 374.484,87.1689 382.5,85C 385.978,82.2935 386.311,79.2935 383.5,76C 377.229,73.5149 370.895,71.1816 364.5,69C 355.121,62.4619 352.954,53.9619 358,43.5C 366.433,35.9641 376.266,33.4641 387.5,36C 392.714,37.2738 397.381,39.6071 401.5,43C 399.045,46.0777 396.711,49.2444 394.5,52.5C 388.241,48.4283 381.574,47.2616 374.5,49C 371.735,51.9663 372.068,54.633 375.5,57C 382.734,59.0776 389.734,61.7443 396.5,65C 399.121,67.1141 401.121,69.6141 402.5,72.5 Z"/></g>
<g><path style="opacity:1" fill="#fafafa" d="M 37.5,35.5 C 47.2839,34.2306 55.9505,36.7306 63.5,43C 61.301,46.1929 58.801,49.0262 56,51.5C 50.8267,48.6948 45.3267,47.8615 39.5,49C 36.1309,51.3649 33.9643,54.5315 33,58.5C 31.9278,66.0286 32.5945,73.362 35,80.5C 37.2756,83.8875 40.4422,85.5542 44.5,85.5C 48.8262,85.169 52.8262,83.8357 56.5,81.5C 58.7113,84.7556 61.0446,87.9223 63.5,91C 52.148,99.5167 40.148,100.517 27.5,94C 18.7389,86.5614 14.7389,77.0614 15.5,65.5C 16.0526,50.3511 23.3859,40.3511 37.5,35.5 Z"/></g>
<g><path style="opacity:1" fill="#fbfbfb" d="M 64.5,38.5 C 69.9753,37.5111 75.642,37.1778 81.5,37.5C 85.3321,53.1534 89.1655,68.82 93,84.5C 97.1576,69.2062 101.324,53.8729 105.5,38.5C 110.792,37.5052 116.125,37.1718 121.5,37.5C 114.84,59.98 107.674,82.3133 100,104.5C 93.3285,115.426 83.4952,121.092 70.5,121.5C 70.6054,117.452 70.2721,113.452 69.5,109.5C 73.6928,109.047 77.6928,107.881 81.5,106C 83.1243,104.883 84.1243,103.383 84.5,101.5C 78.1973,80.2638 71.5307,59.2638 64.5,38.5 Z"/></g>
</svg>
