<?xml version="1.0" encoding="utf-8"?>
<!-- Generator: Adobe Illustrator 21.1.0, SVG Export Plug-In . SVG Version: 6.00 Build 0)  -->
<svg version="1.1" id="Layer_1" xmlns="http://www.w3.org/2000/svg" xmlns:xlink="http://www.w3.org/1999/xlink" x="0px" y="0px"
	 viewBox="0 0 100 102.4" style="enable-background:new 0 0 100 102.4;" xml:space="preserve">
<style type="text/css">
	.st0{fill:#1AAAE2;}
	.st1{fill:#5E7C79;}
</style>
<g>
	<g>
		<path class="st0" d="M98.9,84.7H19.7V5.1c0-1.2-0.8-2.1-2.1-2.1c-1.2,0-2.1,0.8-2.1,2.1v79.6H3.1c-1.2,0-2.1,0.8-2.1,2.1
			s0.8,2.1,2.1,2.1h12.6v12.1c0,1.2,0.8,2.1,2.1,2.1s2.1-0.8,2.1-2.1V88.8h79.2c1.2,0,2.1-0.8,2.1-2.1S100,84.7,98.9,84.7z"/>
	</g>
</g>
<g>
	<g>
		<path class="st1" d="M85.4,49.1l11.1-11.7c0.8-0.8,0.8-2.1,0-2.9c-0.8-0.8-2.1-0.8-2.9,0L82.7,46L57.4,18.8
			c-0.4-0.4-1-0.6-1.4-0.6c-0.6,0-1,0.2-1.4,0.6L26.9,48.3c-0.8,0.8-0.8,2.1,0.2,2.9C28,52,29.2,52,30,50.9l25.7-27.8l23.9,25.9
			L68.9,60.4l-12.8-16c-0.4-0.4-0.8-0.8-1.4-0.8c-0.6,0-1.2,0.2-1.6,0.6L27.1,69.7c-0.8,0.8-0.8,2.1,0,2.9c0.4,0.4,1,0.6,1.4,0.6
			c0.6,0,1-0.2,1.4-0.6l24.5-24.1l12.8,16.3c0.4,0.4,1,0.8,1.4,0.8c0.6,0,1.2-0.2,1.6-0.6l12.1-12.8l10.9,11.9
			c0.4,0.4,1,0.6,1.4,0.6c0.4,0,1-0.2,1.4-0.6c0.8-0.8,0.8-2.1,0.2-2.9L85.4,49.1z"/>
	</g>
</g>
</svg>
