<?xml version="1.0" encoding="utf-8"?>
<!-- Generator: Adobe Illustrator 19.1.0, SVG Export Plug-In . SVG Version: 6.00 Build 0)  -->
<svg version="1.1" id="Layer_1" xmlns="http://www.w3.org/2000/svg" xmlns:xlink="http://www.w3.org/1999/xlink" x="0px" y="0px"
	 viewBox="0 0 100 100" style="enable-background:new 0 0 100 100;" xml:space="preserve">
<style type="text/css">
	.st0{fill:#ED3985;}
	.st1{fill:#1DA9E1;}
	.st2{fill:#66B9B7;}
	.st3{fill:#5F7D7A;}
</style>
<g>
	<g>
		<g>
			<path class="st0" d="M64.7,21.2c-12-12-31.5-12-43.6,0c-5.8,5.8-9,13.6-9,21.8s3.2,16,9,21.8c6,6,13.9,9,21.8,9
				c7.9,0,15.8-3,21.8-9C76.7,52.7,76.7,33.2,64.7,21.2z M62.5,62.5c-10.8,10.8-28.3,10.8-39.1,0c-5.2-5.2-8.1-12.2-8.1-19.5
				s2.9-14.3,8.1-19.5c5.4-5.4,12.5-8.1,19.5-8.1s14.2,2.7,19.5,8.1C73.2,34.2,73.2,51.7,62.5,62.5z"/>
		</g>
	</g>
	<g>
		<g>
			<path class="st1" d="M76.7,28.8c-0.3-0.8-1.3-1.2-2.1-0.9c-0.8,0.3-1.2,1.3-0.9,2.1c1.7,4.1,2.6,8.4,2.6,12.9
				c0,0.9,0.7,1.6,1.6,1.6s1.6-0.7,1.6-1.6C79.5,38,78.6,33.3,76.7,28.8z"/>
		</g>
	</g>
	<g>
		<g>
			<path class="st1" d="M72.8,21.8c-1.2-1.7-2.5-3.3-4-4.7C61.9,10.1,52.7,6.3,42.9,6.3c-0.9,0-1.6,0.7-1.6,1.6s0.7,1.6,1.6,1.6
				c8.9,0,17.3,3.5,23.6,9.8c1.3,1.3,2.6,2.8,3.6,4.3c0.3,0.4,0.8,0.7,1.3,0.7c0.3,0,0.6-0.1,0.9-0.3C73.1,23.5,73.3,22.5,72.8,21.8
				z"/>
		</g>
	</g>
	<g>
		<g>
			<path class="st2" d="M99.5,90.2L87.6,78.2c-0.6-0.6-1.6-0.6-2.2,0l-2.5,2.5l-8.5-8.5c7.4-8,11.5-18.3,11.5-29.2
				c0-11.5-4.5-22.3-12.6-30.4C65.2,4.5,54.4,0,42.9,0C31.4,0,20.7,4.5,12.6,12.6c-16.7,16.7-16.7,44,0,60.7
				c8.1,8.1,18.9,12.6,30.4,12.6c10.9,0,21.3-4.1,29.2-11.5l8.5,8.5l-2.5,2.5c-0.6,0.6-0.6,1.6,0,2.2l11.9,11.9
				c0.3,0.3,0.7,0.5,1.1,0.5c0.4,0,0.8-0.2,1.1-0.5l7.2-7.2C100.2,91.8,100.2,90.8,99.5,90.2z M71,71.1
				c-7.5,7.5-17.5,11.6-28.1,11.6s-20.6-4.1-28.1-11.6c-15.5-15.5-15.5-40.7,0-56.2C22.3,7.3,32.3,3.2,42.9,3.2S63.5,7.3,71,14.8
				c7.5,7.5,11.6,17.5,11.6,28.1S78.6,63.5,71,71.1z M91.3,96.2l-9.7-9.7L84,84c0,0,0,0,0,0c0,0,0,0,0,0l2.5-2.5l9.7,9.7L91.3,96.2z
				"/>
		</g>
	</g>
	<g>
		<g>
			<path class="st3" d="M64.7,51.5h-1.8V26.9c0-0.9-0.7-1.6-1.6-1.6h-7.6c-0.9,0-1.6,0.7-1.6,1.6v24.6h-4.4v-17
				c0-0.9-0.7-1.6-1.6-1.6h-7.6c-0.9,0-1.6,0.7-1.6,1.6v17h-4.4V32c0-0.9-0.7-1.6-1.6-1.6h-7.6c-0.9,0-1.6,0.7-1.6,1.6v19.5h-1.8
				c-0.9,0-1.6,0.7-1.6,1.6c0,0.9,0.7,1.6,1.6,1.6h3.4h7.6h7.6h7.6h7.6h7.6h3.4c0.9,0,1.6-0.7,1.6-1.6
				C66.2,52.2,65.5,51.5,64.7,51.5z M29.3,51.5h-4.4V33.5h4.4V51.5z M44.5,51.5h-4.4V36.1h4.4V51.5z M59.7,51.5h-4.4v-23h4.4V51.5z"
				/>
		</g>
	</g>
</g>
</svg>
