<?xml version="1.0" encoding="utf-8"?>
<!-- Generator: Adobe Illustrator 19.1.0, SVG Export Plug-In . SVG Version: 6.00 Build 0)  -->
<svg version="1.1" id="Layer_1" xmlns="http://www.w3.org/2000/svg" xmlns:xlink="http://www.w3.org/1999/xlink" x="0px" y="0px"
	 viewBox="0 0 95.4 101.2" style="enable-background:new 0 0 95.4 101.2;" xml:space="preserve">
<style type="text/css">
	.st0{fill:#F15B2A;stroke:#F15B2A;}
	.st1{fill:#66B9B7;}
	.st2{fill:#ED3985;}
	.st3{fill:#1DA9E1;}
	.st4{fill:#FED208;}
</style>
<g>
	<polygon class="st0" points="47.5,100 56,82.2 39.4,82.2 	"/>
	<path class="st1" d="M0,0v78h95.4V0H0z M89.2,71.8h-83V6.2h83V71.8z"/>
	<path class="st2" d="M27.1,36.7L16,48.2v19.6c0,0.6,0.4,1,1,1h13.5c0.6,0,1-0.4,1-1v-30l-3.1-1.1H27.1z"/>
	<path class="st3" d="M54.7,45.7H41.1c-0.6,0-1,0.4-1,1v21.1c0,0.6,0.4,1,1,1h13.5c0.6,0,1-0.4,1-1V46.7
		C55.7,46.2,55.2,45.7,54.7,45.7z"/>
	<path class="st3" d="M74.3,24.3l-2.5-2.1L63,31.9v35.9c0,0.6,0.4,1,1,1h13.5c0.6,0,1-0.4,1-1V24.6c-0.1,0-0.1,0.1-0.2,0.1
		c-0.5,0.3-1.1,0.4-1.7,0.4C75.8,25.1,75,24.8,74.3,24.3z"/>
	<path class="st4" d="M12.7,46.8c0.5,0,1-0.2,1.4-0.6l12.7-13.2l22.3,8.2c0.8,0.3,1.6,0.1,2.2-0.5l20.5-22.4l4.8,4
		c0.2,0.2,0.6,0.2,0.8,0.1c0.3-0.1,0.4-0.4,0.4-0.7l-1-11.6c0-0.4-0.4-0.7-0.8-0.7l-11.6,1c-0.3,0-0.6,0.2-0.7,0.5
		c0,0.1,0,0.2,0,0.3c0,0.2,0.1,0.4,0.3,0.5l4.8,4L49.2,36.9L27,28.7c-0.7-0.3-1.6-0.1-2.1,0.5L11.2,43.4c-0.8,0.8-0.7,2.1,0.1,2.8
		C11.7,46.6,12.2,46.8,12.7,46.8z"/>
</g>
</svg>
