<?xml version="1.0" encoding="utf-8"?>
<!-- Generator: Adobe Illustrator 19.1.0, SVG Export Plug-In . SVG Version: 6.00 Build 0)  -->
<svg version="1.1" id="Layer_1" xmlns="http://www.w3.org/2000/svg" xmlns:xlink="http://www.w3.org/1999/xlink" x="0px" y="0px"
	 viewBox="0 0 101 101" style="enable-background:new 0 0 101 101;" xml:space="preserve">
<style type="text/css">
	.st0{fill:#5F7D7A;}
	.st1{fill:#F15B2A;stroke:#F15B2A;}
	.st2{fill:#FED208;}
</style>
<g>
	<g>
		<path class="st0" d="M70,64.3c-0.3,0-0.7-0.1-1-0.2c-1.1-0.5-1.6-1.9-1.1-3l23-47.9c0.5-1.1,1.9-1.6,3-1.1c1.1,0.5,1.6,1.9,1.1,3
			L72.1,63C71.7,63.8,70.9,64.3,70,64.3z"/>
		<path class="st0" d="M70.4,63.5c-0.4,0-0.8-0.1-1.2-0.3L47,49.6c-1.1-0.7-1.4-2-0.8-3.1c0.7-1.1,2-1.4,3.1-0.8l22.3,13.6
			c1.1,0.7,1.4,2,0.8,3.1C71.9,63.1,71.2,63.5,70.4,63.5z"/>
		<path class="st0" d="M25.6,77.2c-0.5,0-1-0.2-1.4-0.5c-1-0.8-1.1-2.2-0.3-3.2l22.5-27.3c0.8-1,2.2-1.1,3.2-0.3
			c1,0.8,1.1,2.2,0.3,3.2L27.4,76.4C26.9,76.9,26.3,77.2,25.6,77.2z"/>
	</g>
	<g>
		<path class="st1" d="M11.4,100.5c-1.2,0-2.3-1-2.3-2.3V2.8c0-1.2,1-2.3,2.3-2.3s2.3,1,2.3,2.3v95.5
			C13.6,99.5,12.6,100.5,11.4,100.5z"/>
		<path class="st1" d="M98.2,91.9H2.8c-1.2,0-2.3-1-2.3-2.3c0-1.2,1-2.3,2.3-2.3h95.5c1.2,0,2.3,1,2.3,2.3
			C100.5,90.9,99.5,91.9,98.2,91.9z"/>
	</g>
	<circle class="st2" cx="48.1" cy="47.6" r="5.7"/>
	<circle class="st2" cx="25.8" cy="75.2" r="5.7"/>
	<circle class="st2" cx="70.4" cy="61.2" r="5.7"/>
	<circle class="st2" cx="92.7" cy="15" r="5.7"/>
</g>
</svg>
