<?xml version="1.0" encoding="utf-8"?>
<!-- Generator: Adobe Illustrator 19.1.0, SVG Export Plug-In . SVG Version: 6.00 Build 0)  -->
<svg version="1.1" id="Layer_1" xmlns="http://www.w3.org/2000/svg" xmlns:xlink="http://www.w3.org/1999/xlink" x="0px" y="0px"
	 viewBox="0 0 115.9 100.5" style="enable-background:new 0 0 115.9 100.5;" xml:space="preserve">
<style type="text/css">
	.st0{fill:#F15B2A;stroke:#F15B2A;}
	.st1{fill:#66B9B7;}
	.st2{fill:#5F7D7A;}
	.st3{fill:#FED208;}
	.st4{fill:#ED3985;}
	.st5{fill:#1DA9E1;}
</style>
<g>
	<path class="st0" d="M0.5,9.2C1.3,6.9,3,5.5,5.1,4.4c4.5-2.2,9.3-3,14.1-3.5c6-0.6,11.9-0.6,17.9,0.2c4.3,0.5,8.5,1.4,12.4,3.3
		c0.9,0.5,1.8,1.1,2.6,1.7c1.5,1.2,2.1,2.7,2.1,4.6c0,9.7,0,19.5,0,29.2c0,1.8-0.5,2.5-1.6,2.7c-1.1,0.1-1.7-0.5-2.1-2.3
		c-0.3,0.1-0.6,0.3-0.9,0.4c-1.1,0.5-2.1,0.3-2.6-0.6c-0.5-0.9-0.2-1.9,0.8-2.6c0.6-0.4,1.2-0.7,1.7-1.1c0.7-0.5,1.1-1.2,1-2.1
		c-0.1-1.9,0-3.7,0-5.7c-0.6,0.3-0.9,0.5-1.4,0.6c-0.9,0.3-1.7,0.1-2.2-0.8c-0.5-0.8-0.2-1.8,0.6-2.4c3.6-2.2,2.9-1.7,2.9-5.9
		c0-1.6,0-3.2,0-4.7c0-0.1,0-0.1-0.1-0.3c-7.3,3.6-15.2,4.3-23.1,4.3c-7.9,0-15.8-0.7-23.2-4.4c0,2.8-0.1,5.6,0.1,8.3
		c0,0.7,0.9,1.4,1.6,1.9c2.9,1.9,6.2,2.5,9.4,3.1c4.4,0.8,8.9,1,13.5,1c0.7,0,1.6,0.3,2,0.8c0.9,1.1,0,2.7-1.6,2.7
		c-2.3,0-4.7,0.1-7-0.1c-4.1-0.5-8.2-1.2-12.3-2c-1.9-0.4-3.8-1.3-5.8-2.1c0,2.1-0.1,4.2,0.1,6.2c0.1,0.7,0.9,1.4,1.6,1.9
		c2.8,1.8,5.9,2.4,9.1,3.1c4.6,0.9,9.3,1.1,14,1.1c1.3,0,2.2,0.7,2.2,1.8c0,1-0.8,1.8-2,1.8c-7.5,0-14.9-0.5-22.1-3.1
		c-0.9-0.3-1.8-0.8-2.9-1.3c0,2.2-0.1,4.3,0.1,6.4c0.1,0.7,0.9,1.4,1.6,1.8c3,1.9,6.5,2.8,10,3.2c4.2,0.5,8.5,0.7,12.8,1
		c0.2,0,0.4,0,0.6,0c1.1,0.1,1.9,0.8,1.9,1.8c0,1-0.8,1.8-1.9,1.8c-2.7,0-5.3-0.1-8-0.2c-4.7-0.3-9.4-1.1-13.9-2.7
		c-1-0.4-2-0.9-3.2-1.4c0,1.4,0.2,2.6,0,3.8c-0.5,3.1,1.1,4.6,3.7,5.4c3.4,1,6.8,2,10.2,2.5c6.7,0.9,13.4,0.8,20.1-0.1
		c0.7-0.1,1.5-0.3,2.2-0.4c1.2-0.2,2.1,0.4,2.3,1.4c0.2,1-0.5,2-1.7,2.1c-4.5,0.5-9,1-13.4,1.2c-5.9,0.2-11.9-0.4-17.6-2.1
		c-1.7-0.5-3.4-1.1-5-1.9c-2-1-3.6-2.4-4.4-4.6C0.5,42.4,0.5,25.8,0.5,9.2z M27.3,4.1c-5.5,0.1-11,0.5-16.5,2C8.7,6.7,6.6,7.4,4.8,9
		c-0.9,0.8-0.9,1.2,0,2.1c1.8,1.6,4,2.3,6.3,2.9C16,15.3,21,15.8,26,15.9c6.3,0.1,12.4-0.4,18.5-2.1c2-0.6,4-1.3,5.6-2.8
		c0.7-0.6,0.7-1.3,0-1.8c-1.3-0.9-2.7-1.8-4.2-2.3C39.9,4.7,33.7,4.2,27.3,4.1z"/>
	<path class="st1" d="M46.7,89.1c0-0.5,0-0.9,0-1.4c0-11.6,0-23.1,0-34.7c0-3.1,1.5-5.3,4.1-6c0.7-0.2,1.6-0.3,2.3-0.3
		c17.4,0,34.8,0,52.3,0c4.4,0,6.6,2.2,6.6,6.7c0,11.4,0,22.8,0,34.2c0,0.4,0,0.9,0,1.4c0.3,0.1,0.5,0.1,0.7,0.2
		c1.9,0.4,3.1,1.7,3.2,3.7c0,1.2,0,2.4,0,3.6c0,2.4-1.5,3.9-4,4c-1.9,0-3.8,0-5.7,0c-19.4,0-38.7,0-58.1,0c-0.5,0-0.9,0-1.4,0
		c-2.3-0.1-3.8-1.6-3.8-3.9c0-1,0-2,0-3C42.9,90.9,44,89.6,46.7,89.1z M108.4,89.1c0-0.5,0-0.9,0-1.3c0-11.5,0-23,0-34.5
		c0-2.4-0.6-3-3-3c-17.3,0-34.7,0-52,0c-2.4,0-3,0.6-3,3c0,11.5,0,23,0,34.5c0,0.4,0,0.8,0,1.3C69.8,89.1,89,89.1,108.4,89.1z
		 M112.2,92.9c-22,0-43.8,0-65.7,0c0,1.4,0,2.6,0,3.9c21.9,0,43.8,0,65.7,0C112.2,95.4,112.2,94.2,112.2,92.9z"/>
	<path class="st2" d="M35.9,92.7c-9.9-0.6-17.8-8.7-18-18.5c0-1,0.2-1.8,1.2-2.2c1.2-0.5,2.4,0.4,2.4,1.9c0.1,2.8,0.8,5.5,2.3,7.9
		c2.9,4.4,6.9,6.9,12.2,7.3c0.4,0,0.7,0.1,1.1,0.1c1.1,0.2,1.8,0.9,1.7,1.9c-0.1,1-0.8,1.7-1.9,1.7C36.5,92.8,36.2,92.7,35.9,92.7z"
		/>
	<path class="st2" d="M61.3,21.8c9.4,0.7,16.4,7.2,17.8,16.5c0.1,0.8,0.1,1.6,0.2,2.4c0,1.1-0.6,1.9-1.6,2c-1,0.1-1.9-0.5-2-1.7
		c-0.2-2.4-0.5-4.7-1.6-6.8c-2.6-5.1-6.8-8-12.5-8.6c-0.5-0.1-1-0.1-1.5-0.1c-1.2-0.1-1.8-0.8-1.8-1.9c0.1-1,0.8-1.6,1.9-1.7
		C60.6,21.7,60.9,21.7,61.3,21.8z"/>
	<path class="st3" d="M40.5,28.2c1.2,0,2,0.6,2.1,1.6c0.1,1-0.4,1.7-1.3,1.9c-1.3,0.3-2.7,0.5-4.1,0.7c-1,0.1-1.8-0.6-1.9-1.5
		c-0.1-1,0.3-1.8,1.3-2C37.9,28.6,39.3,28.4,40.5,28.2z"/>
	<path class="st3" d="M40.4,39.8c1.3,0,2,0.5,2.2,1.5c0.2,1-0.3,1.7-1.3,2c-1.4,0.3-2.8,0.5-4.2,0.7c-1,0.1-1.8-0.6-1.9-1.5
		c-0.1-1,0.4-1.7,1.3-1.9C38,40.2,39.4,40,40.4,39.8z"/>
	<path class="st3" d="M40.3,51.4c1.4,0,2.2,0.6,2.3,1.5c0.1,0.9-0.4,1.8-1.4,2c-1.4,0.3-2.7,0.5-4.1,0.6c-1,0.1-1.6-0.5-1.9-1.4
		c-0.2-0.9,0.3-1.8,1.3-2C37.9,51.7,39.3,51.6,40.3,51.4z"/>
	<path class="st4" d="M58.1,58.1c0,7.8,0,15.5,0,23.3c1.1,0,2.1,0,3.1,0c0.5,0,1,0,1.4,0.2c0.8,0.3,1.3,0.9,1.2,1.8
		c-0.1,0.8-0.6,1.5-1.4,1.5c-2.2,0.1-4.4,0.1-6.5,0c-0.5,0-1-0.8-1.3-1.3c-0.2-0.4-0.1-0.9-0.1-1.4c0-8.3,0-16.7,0-25
		c0-2.2,0.5-2.7,2.6-2.7c10.3,0,20.6,0,31,0c0.1,0,0.2,0,0.2,0c1.7,0,2.6,0.6,2.6,1.8c0,1.2-0.9,1.8-2.6,1.8c-9.5,0-19.1,0-28.6,0
		C59.1,58.1,58.7,58.1,58.1,58.1z"/>
	<path class="st5" d="M100.7,81.4c0-7.8,0-15.5,0-23.3c-1.3,0-2.5,0-3.7,0c-1.3-0.1-2.2-1-1.9-2.1c0.2-1,0.9-1.5,2-1.5
		c1.7,0,3.4,0,5.1,0c1.7,0,2.3,0.6,2.3,2.4c0,2.4,0,4.7,0,7.1c0,6.1,0,12.2,0,18.4c0,2.2-0.5,2.7-2.6,2.7c-10.4,0-20.7,0-31.1,0
		c-0.1,0-0.2,0-0.2,0c-1.6,0-2.5-0.7-2.4-1.8c0-1.2,0.9-1.8,2.5-1.8c9.6,0,19.1,0,28.7,0C99.7,81.4,100.1,81.4,100.7,81.4z"/>
</g>
</svg>
