<?xml version="1.0" encoding="utf-8"?>
<!-- Generator: Adobe Illustrator 19.1.0, SVG Export Plug-In . SVG Version: 6.00 Build 0)  -->
<svg version="1.1" id="Layer_1" xmlns="http://www.w3.org/2000/svg" xmlns:xlink="http://www.w3.org/1999/xlink" x="0px" y="0px"
	 viewBox="0 0 101 100" style="enable-background:new 0 0 101 100;" xml:space="preserve">
<style type="text/css">
	.st0{fill:#F15B2A;stroke:#F15B2A;}
	.st1{fill:#ED3985;}
	.st2{fill:#66B9B7;}
	.st3{fill:#1DA9E1;}
</style>
<g>
	<path class="st0" d="M70.1,56.9L88,39c1.3,0.8,2.8,1.3,4.4,1.3c4.4,0,8.1-3.6,8.1-8.1s-3.6-8.1-8.1-8.1c-4.4,0-8.1,3.6-8.1,8.1
		c0,1.6,0.5,3.2,1.3,4.4L67.8,54.6c-1.3-0.8-2.8-1.3-4.4-1.3c-1.1,0-2.2,0.2-3.1,0.6L48,37.5c0.6-1.1,0.9-2.3,0.9-3.6
		c0-4.4-3.6-8.1-8.1-8.1s-8.1,3.6-8.1,8.1c0,1.6,0.5,3.1,1.3,4.4L12,58.9c-1.1-0.5-2.2-0.8-3.5-0.8c-4.4,0-8.1,3.6-8.1,8.1
		c0,4.4,3.6,8.1,8.1,8.1s8.1-3.6,8.1-8.1c0-2-0.8-3.9-2-5.3l21.7-20.3c1.3,0.9,2.8,1.4,4.5,1.4c1.9,0,3.7-0.7,5.1-1.8l11.7,15.6
		c-1.4,1.4-2.3,3.4-2.3,5.6c0,4.4,3.6,8.1,8.1,8.1s8.1-3.6,8.1-8.1C71.5,59.7,71,58.1,70.1,56.9z M92.4,27.4c2.7,0,4.8,2.2,4.8,4.8
		s-2.2,4.8-4.8,4.8s-4.8-2.2-4.8-4.8S89.8,27.4,92.4,27.4z M8.6,71c-2.7,0-4.8-2.2-4.8-4.8c0-2.7,2.2-4.8,4.8-4.8s4.8,2.2,4.8,4.8
		C13.4,68.8,11.2,71,8.6,71z M40.8,38.7c-2.7,0-4.8-2.2-4.8-4.8s2.2-4.8,4.8-4.8c2.7,0,4.8,2.2,4.8,4.8S43.5,38.7,40.8,38.7z
		 M63.4,66.1c-2.7,0-4.8-2.2-4.8-4.8c0-2.7,2.2-4.8,4.8-4.8c2.7,0,4.8,2.2,4.8,4.8C68.2,64,66.1,66.1,63.4,66.1z"/>
	<path class="st1" d="M65,22.6h9.1l8.6,6.5V11.3C82.8,5.1,77.7,0,71.5,0H65c-6.2,0-11.3,5.1-11.3,11.3S58.8,22.6,65,22.6z M65,3.2
		h6.5c4.4,0,8.1,3.6,8.1,8.1v11.3l-4.3-3.2H65c-4.4,0-8.1-3.6-8.1-8.1S60.6,3.2,65,3.2z"/>
	<rect x="61.8" y="6.5" class="st1" width="12.9" height="3.2"/>
	<rect x="61.8" y="12.9" class="st1" width="6.5" height="3.2"/>
	<rect x="71.5" y="12.9" class="st1" width="3.2" height="3.2"/>
	<g>
		<path class="st2" d="M11.8,29h9.1l8.6,6.5V17.7c0-6.2-5.1-11.3-11.3-11.3h-6.5c-6.2,0-11.3,5.1-11.3,11.3S5.6,29,11.8,29z
			 M11.8,9.7h6.5c4.4,0,8.1,3.6,8.1,8.1V29L22,25.8H11.8c-4.4,0-8.1-3.6-8.1-8.1S7.3,9.7,11.8,9.7z"/>
		<rect x="8.6" y="12.9" class="st2" width="12.9" height="3.2"/>
		<rect x="8.6" y="19.4" class="st2" width="6.5" height="3.2"/>
		<rect x="18.2" y="19.4" class="st2" width="3.2" height="3.2"/>
	</g>
	<path class="st3" d="M34.4,77.4h-9.1L16.6,71v17.7c0,6.2,5.1,11.3,11.3,11.3h6.5c6.2,0,11.3-5.1,11.3-11.3S40.6,77.4,34.4,77.4z
		 M34.4,96.8h-6.5c-4.4,0-8.1-3.6-8.1-8.1V77.4l4.3,3.2h10.2c4.4,0,8.1,3.6,8.1,8.1C42.4,93.2,38.8,96.8,34.4,96.8z"/>
	<rect x="24.7" y="90.3" class="st3" width="12.9" height="3.2"/>
	<rect x="31.1" y="83.9" class="st3" width="6.5" height="3.2"/>
	<rect x="24.7" y="83.9" class="st3" width="3.2" height="3.2"/>
	<g>
		<path class="st3" d="M89.2,74.2h-9.1l-8.6-6.5v17.7c0,6.2,5.1,11.3,11.3,11.3h6.5c6.2,0,11.3-5.1,11.3-11.3S95.4,74.2,89.2,74.2z
			 M89.2,93.5h-6.5c-4.4,0-8.1-3.6-8.1-8.1V74.2l4.3,3.2h10.2c4.4,0,8.1,3.6,8.1,8.1S93.7,93.5,89.2,93.5z"/>
		<rect x="79.5" y="87.1" class="st3" width="12.9" height="3.2"/>
		<rect x="86" y="80.6" class="st3" width="6.5" height="3.2"/>
		<rect x="79.5" y="80.6" class="st3" width="3.2" height="3.2"/>
	</g>
</g>
</svg>
