<?xml version="1.0" encoding="utf-8"?>
<!-- Generator: Adobe Illustrator 19.1.0, SVG Export Plug-In . SVG Version: 6.00 Build 0)  -->
<svg version="1.1" id="Layer_1" xmlns="http://www.w3.org/2000/svg" xmlns:xlink="http://www.w3.org/1999/xlink" x="0px" y="0px"
	 viewBox="-247.1 346.8 100 100" style="enable-background:new -247.1 346.8 100 100;" xml:space="preserve">
<style type="text/css">
	.st0{fill:#E8EDEB;}
	.st1{fill:none;stroke:#F15B2A;stroke-width:2.5374;}
	.st2{fill:none;stroke:#1DA9E1;stroke-width:2.5374;}
	.st3{fill:none;stroke:#66B9B7;stroke-width:2.5374;}
	.st4{fill:none;stroke:#ED3985;stroke-width:2.5374;}
</style>
<g>
	<path class="st0" d="M-242.1,373.5"/>
	<path class="st1" d="M-202,365.8c0,0,5.2-13.6,20.8-10.7c0,0,14.2,1.9,16.3,18.8c0,0,17.7,5.2,11.6,20.3c0,0-3.6,8.7-14.4,8.7
		l-54.8,0.3c0,0-21.8-5.3-12.9-25.8c0,0,5-11.2,20-7.7C-215.2,369.6-210.8,361.5-202,365.8z"/>
	<line class="st2" x1="-205.5" y1="371.2" x2="-180.1" y2="371.2"/>
	<polyline class="st2" points="-204.7,376.3 -204.5,380.1 -181.3,380.1 -181.3,376 	"/>
	<polyline class="st2" points="-204.7,384.6 -204.5,388.4 -181.3,388.3 -181.4,384.6 	"/>
	<polyline class="st2" points="-204.7,393.7 -204.5,397.6 -181.3,397.4 -181.3,393.6 	"/>
	<line class="st2" x1="-194.6" y1="404.3" x2="-194.3" y2="419.8"/>
	<path class="st2" d="M-227,419.8v-5.2c0,0-0.6-2,3.5-2h58.7c0,0,2.8-0.2,2.8,3.1l0.1,3.8"/>
	<g>
		<line class="st3" x1="-227.1" y1="435" x2="-227.1" y2="438.4"/>
		<line class="st3" x1="-232.6" y1="438.8" x2="-221.6" y2="438.8"/>
		<path class="st3" d="M-217.8,435.1h-18.6c-0.4,0-0.8-0.3-0.8-0.8v-12.7c0-0.5,0.4-0.8,0.8-0.8h18.6c0.5,0,0.8,0.3,0.8,0.8v12.7
			C-216.9,434.8-217.3,435.1-217.8,435.1z"/>
	</g>
	<g>
		<line class="st1" x1="-194.9" y1="435" x2="-194.9" y2="438.4"/>
		<line class="st1" x1="-200.4" y1="438.8" x2="-189.4" y2="438.8"/>
		<path class="st1" d="M-185.5,435.1h-18.6c-0.4,0-0.8-0.3-0.8-0.8v-12.7c0-0.5,0.4-0.8,0.8-0.8h18.6c0.4,0,0.8,0.3,0.8,0.8v12.7
			C-184.6,434.8-185,435.1-185.5,435.1z"/>
	</g>
	<g>
		<line class="st4" x1="-162.8" y1="435" x2="-162.8" y2="438.4"/>
		<line class="st4" x1="-168.3" y1="438.8" x2="-157.3" y2="438.8"/>
		<path class="st4" d="M-153.2,435.1h-18.6c-0.5,0-0.8-0.3-0.8-0.8v-12.7c0-0.5,0.3-0.8,0.8-0.8h18.6c0.5,0,0.8,0.3,0.8,0.8v12.7
			C-152.3,434.8-152.7,435.1-153.2,435.1z"/>
	</g>
</g>
</svg>
