<?xml version="1.0" encoding="utf-8"?>
<!-- Generator: Adobe Illustrator 19.1.0, SVG Export Plug-In . SVG Version: 6.00 Build 0)  -->
<svg version="1.1" id="Layer_1" xmlns="http://www.w3.org/2000/svg" xmlns:xlink="http://www.w3.org/1999/xlink" x="0px" y="0px"
	 viewBox="0 0 101 101" style="enable-background:new 0 0 101 101;" xml:space="preserve">
<style type="text/css">
	.st0{fill:#F15B2A;stroke:#F15B2A;}
	.st1{fill:#66B9B7;}
	.st2{fill:#ED3985;}
	.st3{fill:#1DA9E1;}
	.st4{fill:#FED208;}
	.st5{fill:#5F7D7A;}
</style>
<g>
	<g>
		<g>
			<path class="st0" d="M98.5,0.5H2.5c-1.1,0-2,0.9-2,2v96.1c0,1.1,0.9,2,2,2h96.1c1.1,0,2-0.9,2-2V2.5C100.5,1.4,99.6,0.5,98.5,0.5
				z M96.6,96.6H4.4V4.4h92.2L96.6,96.6L96.6,96.6z"/>
		</g>
	</g>
	<g>
		<g>
			<rect x="24" y="26" class="st1" width="51" height="3.9"/>
		</g>
	</g>
	<g>
		<g>
			<rect x="24" y="37.8" class="st2" width="51" height="3.9"/>
		</g>
	</g>
	<g>
		<g>
			<rect x="24" y="49.5" class="st3" width="51" height="3.9"/>
		</g>
	</g>
	<g>
		<g>
			<rect x="24" y="61.3" class="st4" width="51" height="3.9"/>
		</g>
	</g>
	<g>
		<g>
			<rect x="24" y="73" class="st5" width="51" height="3.9"/>
		</g>
	</g>
</g>
</svg>
