<?xml version="1.0" encoding="utf-8"?>
<!-- Generator: Adobe Illustrator 19.1.0, SVG Export Plug-In . SVG Version: 6.00 Build 0)  -->
<svg version="1.1" id="Layer_1" xmlns="http://www.w3.org/2000/svg" xmlns:xlink="http://www.w3.org/1999/xlink" x="0px" y="0px"
	 viewBox="0 0 101 92.3" style="enable-background:new 0 0 101 92.3;" xml:space="preserve">
<style type="text/css">
	.st0{fill:#ED3985;}
	.st1{fill:#FED208;}
	.st2{fill:#66B9B7;}
	.st3{fill:#F15B2A;stroke:#F15B2A;}
</style>
<g>
	<path class="st0" d="M90.6,48.6c-2-2-5.3-2-7.3,0L56.8,75.1l-3.7,13.4l-0.9,0.9c-0.7,0.7-0.7,1.7,0,2.4l0,0l0,0
		c0.3,0.3,0.8,0.5,1.2,0.5c0.4,0,0.9-0.2,1.2-0.5l0.9-0.9L69,87.3l26.5-26.5c2-2,2-5.3,0-7.3L90.6,48.6z M60.8,76l17.7-17.7l7.3,7.3
		L68.1,83.3L60.8,76z M59.2,79.3l5.6,5.6l-7.6,2.1L59.2,79.3z M93.1,58.3l-4.9,4.9l-7.3-7.3l4.9-4.9c0.7-0.7,1.7-0.7,2.4,0l4.9,4.9
		C93.8,56.6,93.8,57.7,93.1,58.3z"/>
	<path class="st1" d="M37.7,23.9c0-5.3-4.3-9.6-9.6-9.6s-9.6,4.3-9.6,9.6c0,5.3,4.3,9.6,9.6,9.6S37.7,29.2,37.7,23.9z M21.9,23.9
		c0-3.4,2.8-6.2,6.2-6.2s6.2,2.8,6.2,6.2S31.5,30,28.1,30S21.9,27.3,21.9,23.9z"/>
	<path class="st2" d="M11.3,63.7c0.3,0.4,0.8,0.6,1.3,0.6c0.4,0,0.8-0.1,1.1-0.4l28.1-24.8l14.3,14.3c0.7,0.7,1.8,0.7,2.4,0
		c0.7-0.7,0.7-1.8,0-2.4l-4.9-4.9l15.8-17.4l14.2,12.7c0.7,0.6,1.8,0.6,2.4-0.1c0.6-0.7,0.6-1.8-0.1-2.4L70.6,25.1
		c-0.7-0.6-1.8-0.6-2.4,0.1L51.3,43.7l-8.2-8.2c-0.6-0.6-1.7-0.7-2.4-0.1L11.4,61.3C10.7,61.9,10.6,63,11.3,63.7z"/>
	<path class="st3" d="M98.8,0.5H2.2c-1,0-1.7,0.8-1.7,1.7v75.9c0,1,0.8,1.7,1.7,1.7h44.8c1,0,1.7-0.8,1.7-1.7c0-1-0.8-1.7-1.7-1.7
		H3.9V3.9h93.1v41.4c0,1,0.8,1.7,1.7,1.7s1.7-0.8,1.7-1.7V2.2C100.5,1.3,99.7,0.5,98.8,0.5z"/>
</g>
</svg>
