<?xml version="1.0" encoding="utf-8"?>
<!-- Generator: Adobe Illustrator 19.1.0, SVG Export Plug-In . SVG Version: 6.00 Build 0)  -->
<svg version="1.1" id="Layer_1" xmlns="http://www.w3.org/2000/svg" xmlns:xlink="http://www.w3.org/1999/xlink" x="0px" y="0px"
	 viewBox="0 0 100 99.8" style="enable-background:new 0 0 100 99.8;" xml:space="preserve">
<style type="text/css">
	.st0{fill:#F15B2A;stroke:#F15B2A;}
	.st1{fill:#66B9B7;}
</style>
<g>
	<path class="st0" d="M12.9,58l15.3-15.3l3,3L15.9,61L12.9,58L12.9,58z M19.4,64.5l15.3-15.3l3,3L22.4,67.5L19.4,64.5z M25.9,71
		l15.3-15.3l3,3L28.9,74L25.9,71z M32.5,77.6l15.3-15.3l3,3L35.4,80.5L32.5,77.6L32.5,77.6z M42,87.1l-3-3l15.3-15.3l3,3L42,87.1z"
		/>
	<path class="st1" d="M95.7,4.1C92.5,1,83.3-5.1,69.8,8.4c-2.7,2.7-5.3,6.6-7.3,11.3l-23.6-0.6L0,57.8l42.1,42.1l38.7-38.7
		l-0.6-23.8c4.2-1.9,8.3-4.2,11.3-7.3C105.2,16.6,99.1,7.5,95.7,4.1L95.7,4.1z M42.1,93.9L5.9,57.8l34.5-34.5l35.1,1.1l0.3,10.4
		c-2.4,0.9-4.9,1.7-7.1,2.3c-0.4-1.4-1.2-2.7-2.2-3.7c-1.9-1.7-4.2-2.7-6.7-2.7c-2.5,0-5,1.1-6.7,2.7c-1.7,1.9-2.7,4.2-2.7,6.7
		c0,2.5,1.1,5,2.7,6.7c1.9,1.7,4.2,2.7,6.7,2.7c2.3,0,4.8-0.8,6.7-2.9c1.5-1.5,2.4-3.5,2.6-5.6c2.1-0.6,4.5-1.2,6.9-2.1l0.6,20.4
		L42.1,93.9L42.1,93.9z M56.4,41.6c0.3,1.5,1.7,1.7,2.5,1.5c0.3,0,2.5-0.3,5.7-0.9c-0.3,0.6-0.6,1.1-1.1,1.6c-1.9,1.9-5.5,1.9-7.4,0
		c-0.8-0.8-1.5-2.1-1.5-3.6c0-1.3,0.6-2.7,1.5-3.6s2.1-1.5,3.6-1.5c1.3,0,2.5,0.4,3.8,1.3c0.5,0.5,0.9,1.1,1.2,1.8
		c-3.8,0.8-6.4,1.2-6.4,1.2C57,39.5,56.1,40.5,56.4,41.6z M80,32.9l-0.3-12.8L67,19.8c1.7-3.4,3.5-6.3,5.6-8.3
		c7.8-7.8,14.9-9.2,20-4.2c5,5,3.6,12.2-4.2,20C86.1,29.5,83.2,31.4,80,32.9L80,32.9z"/>
</g>
</svg>
