<?xml version="1.0" encoding="utf-8"?>
<!-- Generator: Adobe Illustrator 19.1.0, SVG Export Plug-In . SVG Version: 6.00 Build 0)  -->
<svg version="1.1" id="Layer_1" xmlns="http://www.w3.org/2000/svg" xmlns:xlink="http://www.w3.org/1999/xlink" x="0px" y="0px"
	 viewBox="0 0 101 100" style="enable-background:new 0 0 101 100;" xml:space="preserve">
<style type="text/css">
	.st0{fill:#F15B2A;stroke:#F15B2A;}
	.st1{fill:#5F7D7A;}
	.st2{fill:#ED3985;}
	.st3{fill:#66B9B7;}
</style>
<g>
	<g>
		<g>
			<path class="st0" d="M100.1,48.8c-0.9-1-22.4-25.6-49.6-25.6S1.8,47.8,0.9,48.8c-0.6,0.7-0.6,1.7,0,2.3
				c0.9,1,22.4,25.6,49.6,25.6s48.7-24.6,49.6-25.6C100.6,50.5,100.6,49.5,100.1,48.8z M4.7,50C8,46.6,18.3,36.5,31.8,30.8
				c-5,4.9-8.1,11.7-8.1,19.2s3.1,14.3,8.1,19.2C18.3,63.5,8,53.4,4.7,50z M50.5,73.2c-12.8,0-23.2-10.4-23.2-23.2
				s10.4-23.2,23.2-23.2S73.7,37.2,73.7,50S63.3,73.2,50.5,73.2z M69.2,69.2c5-4.9,8.1-11.7,8.1-19.2s-3.1-14.3-8.1-19.2
				C82.7,36.5,93,46.6,96.3,50C93,53.4,82.7,63.5,69.2,69.2z"/>
		</g>
	</g>
	<g>
		<g>
			<path class="st1" d="M36.2,50h3.6c0-5.9,4.8-10.7,10.7-10.7v-3.6C42.6,35.7,36.2,42.1,36.2,50z"/>
		</g>
	</g>
	<g>
		<g>
			<path class="st1" d="M61.2,50c0,5.9-4.8,10.7-10.7,10.7v3.6c7.9,0,14.3-6.4,14.3-14.3H61.2z"/>
		</g>
	</g>
	<g>
		<g>
			<g>
				<path class="st2" d="M21,16.5c-0.9,0.8-1.9,1.7-2.7,2.6l2.6,2.5c0.8-0.8,1.6-1.6,2.5-2.4L21,16.5z"/>
			</g>
		</g>
		<g>
			<g>
				<path class="st2" d="M11.5,28.3c-0.6,1.1-1.2,2.2-1.7,3.4l3.3,1.5c0.5-1.1,1-2.1,1.6-3.1L11.5,28.3z"/>
			</g>
		</g>
		<g>
			<g>
				<path class="st2" d="M80,16.5l-2.4,2.7c0.9,0.8,1.7,1.6,2.5,2.4l2.6-2.5C81.9,18.2,81,17.4,80,16.5z"/>
			</g>
		</g>
		<g>
			<g>
				<path class="st2" d="M48.6,5.4c-1.3,0.1-2.5,0.2-3.8,0.3l0.5,3.5C46.4,9.1,47.6,9,48.8,9L48.6,5.4z"/>
			</g>
		</g>
		<g>
			<g>
				<path class="st2" d="M67.2,8.6l-1.3,3.3c1.1,0.4,2.1,0.9,3.2,1.4l1.6-3.2C69.5,9.6,68.4,9.1,67.2,8.6z"/>
			</g>
		</g>
		<g>
			<g>
				<path class="st2" d="M41.1,6.3c-1.2,0.3-2.5,0.6-3.7,1l1,3.4c1.1-0.3,2.3-0.6,3.4-0.9L41.1,6.3z"/>
			</g>
		</g>
		<g>
			<g>
				<path class="st2" d="M15.7,22c-0.8,1-1.6,2-2.3,3.1l3,2c0.6-1,1.3-1.9,2.1-2.8L15.7,22z"/>
			</g>
		</g>
		<g>
			<g>
				<path class="st2" d="M59.9,6.4l-0.8,3.5c1.1,0.2,2.3,0.5,3.4,0.9l1-3.4C62.4,6.9,61.2,6.6,59.9,6.4z"/>
			</g>
		</g>
		<g>
			<g>
				<path class="st2" d="M52.4,5.4L52.3,9c1.2,0,2.3,0.1,3.5,0.3l0.5-3.5C55,5.6,53.7,5.5,52.4,5.4z"/>
			</g>
		</g>
		<g>
			<g>
				<path class="st2" d="M89.5,28.3L86.4,30c0.6,1,1.1,2.1,1.6,3.1l3.3-1.5C90.7,30.5,90.1,29.4,89.5,28.3z"/>
			</g>
		</g>
		<g>
			<g>
				<path class="st2" d="M27.1,12c-1.1,0.7-2.1,1.4-3.1,2.1l2.1,2.9c0.9-0.7,1.9-1.3,2.9-2L27.1,12z"/>
			</g>
		</g>
		<g>
			<g>
				<path class="st2" d="M85.3,22l-2.8,2.2c0.7,0.9,1.4,1.8,2.1,2.8l3-2C86.8,24,86.1,23,85.3,22z"/>
			</g>
		</g>
		<g>
			<g>
				<path class="st2" d="M74,12l-1.9,3c1,0.6,2,1.3,2.9,2l2.1-2.9C76.1,13.4,75,12.7,74,12z"/>
			</g>
		</g>
		<g>
			<g>
				<path class="st2" d="M33.9,8.6c-1.2,0.5-2.3,1-3.5,1.6l1.6,3.2c1-0.5,2.1-1,3.2-1.4L33.9,8.6z"/>
			</g>
		</g>
	</g>
	<g>
		<g>
			<g>
				<path class="st2" d="M55.7,90.7c-1.1,0.1-2.3,0.2-3.5,0.3l0.1,3.6c1.3-0.1,2.5-0.2,3.8-0.3L55.7,90.7z"/>
			</g>
		</g>
		<g>
			<g>
				<path class="st2" d="M45.3,90.7l-0.5,3.5c1.2,0.2,2.5,0.3,3.8,0.3l0.2-3.6C47.6,91,46.4,90.9,45.3,90.7z"/>
			</g>
		</g>
		<g>
			<g>
				<path class="st2" d="M38.4,89.3l-1,3.4c1.2,0.4,2.4,0.7,3.7,1l0.8-3.5C40.7,89.9,39.5,89.6,38.4,89.3z"/>
			</g>
		</g>
		<g>
			<g>
				<path class="st2" d="M62.5,89.3c-1.1,0.3-2.2,0.6-3.4,0.9l0.7,3.5c1.2-0.3,2.5-0.6,3.7-1L62.5,89.3z"/>
			</g>
		</g>
		<g>
			<g>
				<path class="st2" d="M20.8,78.4l-2.6,2.5c0.9,0.9,1.8,1.8,2.7,2.6l2.4-2.7C22.5,80,21.6,79.2,20.8,78.4z"/>
			</g>
		</g>
		<g>
			<g>
				<path class="st2" d="M13,66.8l-3.3,1.5c0.5,1.1,1.1,2.3,1.7,3.4l3.1-1.7C14,68.9,13.5,67.9,13,66.8z"/>
			</g>
		</g>
		<g>
			<g>
				<path class="st2" d="M16.4,72.9l-3,2c0.7,1,1.5,2.1,2.3,3.1l2.8-2.2C17.8,74.8,17.1,73.9,16.4,72.9z"/>
			</g>
		</g>
		<g>
			<g>
				<path class="st2" d="M26,83l-2.1,2.9c1,0.8,2.1,1.5,3.1,2.1l1.9-3C27.9,84.3,27,83.7,26,83z"/>
			</g>
		</g>
		<g>
			<g>
				<path class="st2" d="M32,86.7l-1.6,3.2c1.1,0.6,2.3,1.1,3.5,1.6l1.3-3.3C34.1,87.7,33,87.2,32,86.7z"/>
			</g>
		</g>
		<g>
			<g>
				<path class="st2" d="M74.9,83C74,83.7,73,84.4,72,85l1.9,3c1.1-0.7,2.1-1.4,3.1-2.1L74.9,83z"/>
			</g>
		</g>
		<g>
			<g>
				<path class="st2" d="M69,86.7c-1,0.5-2.1,1-3.2,1.4l1.3,3.3c1.2-0.5,2.3-1,3.5-1.6L69,86.7z"/>
			</g>
		</g>
		<g>
			<g>
				<path class="st2" d="M80.2,78.4c-0.8,0.8-1.6,1.6-2.5,2.4l2.4,2.7c0.9-0.8,1.9-1.7,2.7-2.6L80.2,78.4z"/>
			</g>
		</g>
		<g>
			<g>
				<path class="st2" d="M87.9,66.9c-0.5,1.1-1,2.1-1.6,3.1l3.1,1.7c0.6-1.1,1.2-2.2,1.7-3.4L87.9,66.9z"/>
			</g>
		</g>
		<g>
			<g>
				<path class="st2" d="M84.5,73c-0.6,1-1.3,1.9-2.1,2.8l2.8,2.2c0.8-1,1.6-2,2.3-3.1L84.5,73z"/>
			</g>
		</g>
	</g>
	<g>
		<g>
			<path class="st3" d="M2.3,0c-1,0-1.8,0.8-1.8,1.8v8.9h3.6V3.6h7.1V0H2.3z"/>
		</g>
	</g>
	<g>
		<g>
			<path class="st3" d="M98.7,0h-8.9v3.6h7.1v7.1h3.6V1.8C100.5,0.8,99.7,0,98.7,0z"/>
		</g>
	</g>
	<g>
		<g>
			<path class="st3" d="M4.1,96.4v-7.1H0.5v8.9c0,1,0.8,1.8,1.8,1.8h8.9v-3.6H4.1z"/>
		</g>
	</g>
	<g>
		<g>
			<path class="st3" d="M96.9,89.3v7.1h-7.1v3.6h8.9c1,0,1.8-0.8,1.8-1.8v-8.9H96.9z"/>
		</g>
	</g>
</g>
</svg>
