<?xml version="1.0" encoding="utf-8"?>
<!-- Generator: Adobe Illustrator 19.1.0, SVG Export Plug-In . SVG Version: 6.00 Build 0)  -->
<svg version="1.1" id="Layer_1" xmlns="http://www.w3.org/2000/svg" xmlns:xlink="http://www.w3.org/1999/xlink" x="0px" y="0px"
	 viewBox="0 0 100 90.4" style="enable-background:new 0 0 100 90.4;" xml:space="preserve">
<style type="text/css">
	.st0{fill:#5F7D7A;}
	.st1{fill:#ED3985;}
	.st2{fill:#F15B2A;stroke:#F15B2A;}
	.st3{fill:#FED208;}
</style>
<g>
	<path class="st0" d="M98.4,0H1.6C0.7,0,0,0.7,0,1.6v87.2c0,0.9,0.7,1.6,1.6,1.6h96.8c0.9,0,1.6-0.7,1.6-1.6v-17
		c0-0.9-0.7-1.6-1.6-1.6c-0.9,0-1.6,0.7-1.6,1.6v15.4H3.2V16h93.6v49.5c0,0.9,0.7,1.6,1.6,1.6c0.9,0,1.6-0.7,1.6-1.6V1.6
		C100,0.7,99.3,0,98.4,0z M3.2,3.2h59v9.6h-59V3.2z M65.4,12.8V3.2h31.4v9.6H65.4z"/>
	<path class="st1" d="M81.2,6.3c-0.9,0-1.7,0.8-1.7,1.7s0.8,1.7,1.7,1.7s1.7-0.8,1.7-1.7S82.1,6.3,81.2,6.3z"/>
	<path class="st1" d="M72.4,6.3c-0.9,0-1.7,0.8-1.7,1.7s0.8,1.7,1.7,1.7s1.7-0.8,1.7-1.7S73.4,6.3,72.4,6.3z"/>
	<path class="st1" d="M89.9,6.3C89,6.3,88.2,7,88.2,8s0.8,1.7,1.7,1.7s1.7-0.8,1.7-1.7S90.8,6.3,89.9,6.3z"/>
	<path class="st2" d="M57.4,65.1c0,0.4,0.2,0.8,0.5,1.1l12.5,12.5c0.3,0.3,0.7,0.5,1.1,0.5s0.8-0.2,1.1-0.5l4.5-4.5
		c0.6-0.6,0.6-1.6,0-2.3L64.6,59.5c-0.6-0.6-1.6-0.6-2.3,0l-1.1,1.1l-2.3-2.3c7-8.1,6.6-20.5-1.1-28.2c-3.9-3.9-9.1-6.1-14.7-6.1
		s-10.8,2.2-14.7,6.1c-8.1,8.1-8.1,21.2,0,29.3c3.9,3.9,9.1,6.1,14.7,6.1c5,0,9.7-1.8,13.5-5l2.3,2.3L57.9,64
		C57.6,64.3,57.4,64.7,57.4,65.1L57.4,65.1z M30.8,57.2c-6.8-6.8-6.8-18,0-24.8c3.3-3.3,7.7-5.1,12.4-5.1s9.1,1.8,12.4,5.1
		c6.8,6.8,6.8,18,0,24.8c-3.3,3.3-7.7,5.1-12.4,5.1S34.1,60.5,30.8,57.2z M73.7,73l-2.3,2.3L61.2,65.1l1.1-1.1c0,0,1.1-1.1,1.1-1.1
		L73.7,73z"/>
	<path class="st3" d="M53.3,34.6c-2.7-2.7-6.3-4.2-10.2-4.2s-7.4,1.5-10.2,4.2c-5.6,5.6-5.6,14.7,0,20.3c2.7,2.7,6.3,4.2,10.2,4.2
		s7.4-1.5,10.2-4.2C58.9,49.3,58.9,40.2,53.3,34.6z M51.1,52.7C49,54.8,46.2,56,43.2,56s-5.8-1.2-7.9-3.3c-4.4-4.4-4.4-11.4,0-15.8
		c2.1-2.1,4.9-3.3,7.9-3.3s5.8,1.2,7.9,3.3C55.4,41.2,55.4,48.3,51.1,52.7z"/>
</g>
</svg>
