<?xml version="1.0" encoding="utf-8"?>
<!-- Generator: Adobe Illustrator 19.1.0, SVG Export Plug-In . SVG Version: 6.00 Build 0)  -->
<svg version="1.1" id="Layer_1" xmlns="http://www.w3.org/2000/svg" xmlns:xlink="http://www.w3.org/1999/xlink" x="0px" y="0px"
	 viewBox="-261 347 100 100" style="enable-background:new -261 347 100 100;" xml:space="preserve">
<style type="text/css">
	.st0{fill:#1DA9E1;}
	.st1{fill:#ED3985;}
	.st2{fill:#5F7D7A;}
	.st3{fill:#FED208;}
	.st4{fill:#F15B2A;stroke:#F15B2A;stroke-width:0.903;}
	.st5{fill:#66B9B7;}
</style>
<g>
	<path class="st0" d="M-184,390.6c0.1,1,0.2,1.7,0.2,2.4c0,8.2,0,16.4,0,24.7c0,4.6-2,6.5-6.6,6.5c-13.3,0-26.6,0-39.9,0
		c-4.5,0-6.4-1.9-6.4-6.3c0-19.9,0-39.8,0-59.7c0-4.3,1.8-6.1,6.2-6.1c9.8-0.2,19.7-0.3,29.4-0.1c1.5,0,3.3,0.7,4.4,1.8
		c3.9,3.5,7.6,7.4,11.3,11.1c2.7,2.8,2.2,6.2-1.4,8.5c-0.1-1.5-0.2-3-0.3-4.7c-2.4,0-4.8,0-7.1,0c-5.2,0-6.4-1.2-6.4-6.5
		c0-2.3,0-4.5,0-6.9c-1-0.1-1.7-0.3-2.4-0.3c-9,0-18.1,0.1-27.2-0.1c-2.6,0-3.5,1-3.5,3.5c0.1,19.7,0,39.5,0,59.1
		c0,2.3,1,3.4,3.3,3.4c13.4,0,26.8,0,40.2,0c2.4,0,3.3-1.3,3.3-3.5c-0.1-7.1,0.1-14.4-0.1-21.5C-187,393.7-186.5,392-184,390.6z
		 M-190,365.6c0.2-0.2,0.4-0.5,0.5-0.6c-2.1-2-4.2-4-6.2-5.9c-0.5-0.5-0.9-0.8-1.4-1.3c-1.4,7.6-1.1,7.9,6,7.9
		C-190.7,365.6-190.3,365.6-190,365.6z"/>
	<path class="st1" d="M-213.5,410.3c1.4-4.3,2.3-8.7,5.8-12.1c10.3-9.9,20.3-20.1,30.4-30.3c0.6-0.6,1.2-1.3,1.9-1.7
		c2-1.4,4-1.3,5.6,0.5c1.7,1.7,1.8,3.7,0.4,5.6c-0.5,0.7-1.3,1.4-1.9,2.1c-9.9,9.9-20,19.8-29.7,29.8
		C-204.5,407.8-208.9,408.8-213.5,410.3z"/>
	<path class="st2" d="M-253.4,406.5c0-9.7,0-19.2,0-28.9c0-0.8-0.1-1.7,0.2-2.5c0.2-0.5,0.9-0.9,1.4-0.9c0.5,0,1.3,0.5,1.4,0.9
		c0.3,0.9,0.2,1.9,0.2,2.8c0,18.8,0,37.6,0,56.3c0,4.8,0,4.8,4.9,4.8c12.2,0,24.4,0,36.5,0c0.6,0,1.4-0.2,2,0.1
		c0.7,0.3,1.4,0.8,2,1.3c-0.6,0.5-1.3,1.6-1.9,1.6c-3.1,0.2-6.2,0.1-9.3,0.1c-10.3,0-20.6,0-30.9,0c-4.9,0.1-6.5-1.5-6.5-6.4
		C-253.4,426-253.4,416.3-253.4,406.5z"/>
	<path class="st3" d="M-197.1,430c0.7,2.3,0.2,3.2-2,3.1c-13.5-0.1-27.2,0-40.7,0c-3.5,0-5.2-1.8-5.2-5.2c0-20,0-40.2,0-60.2
		c0-1.2,0-2.6,1.6-2.2c0.6,0.2,1.4,1.5,1.4,2.4c0.1,19.3,0.1,38.6,0.1,58c0,4.1,0.1,4.2,4.1,4.2c12.5,0,24.9,0,37.4,0
		C-199.4,430-198.4,430-197.1,430z"/>
	<path class="st4" d="M-193.7,378.4c-0.7,0.1-1.4,0.2-2.2,0.2c-9.3,0-18.6,0-27.9,0c-1.2,0-2.9,0.4-2.4-1.6c0.1-0.6,1.6-1.5,2.5-1.5
		c9.3-0.1,18.6,0,27.9-0.1C-193.7,375.5-192.8,376.2-193.7,378.4z"/>
	<path class="st5" d="M-198.1,386c-1.6,0.6-3.2,1.6-4.8,1.7c-7,0.2-13.9,0.1-20.9,0.1c-1.1,0-2.6,0.5-2.6-1.5c0-2.1,1.6-1.4,2.6-1.4
		c7.8,0,15.6,0,23.4,0c0.6,0,1.3,0.1,1.9,0.2C-198.4,385.3-198.2,385.7-198.1,386z"/>
	<path class="st2" d="M-226.3,396.9c0-1.2,0-1.9,0-2.9c6.3,0,12.6,0,19,0c-1.1,2.1-2.4,3-4.7,3
		C-216.7,396.9-221.3,396.9-226.3,396.9z"/>
	<path class="st5" d="M-214.1,403c0,2.5-1.1,3.3-3.1,3.1c-2.3,0-4.7,0.2-7,0c-0.7-0.1-1.4-0.9-2.2-1.4c0.6-0.5,1.4-1.5,2-1.5
		C-221,402.9-217.6,403-214.1,403z"/>
</g>
</svg>
