<?xml version="1.0" encoding="utf-8"?>
<!-- Generator: Adobe Illustrator 27.3.1, SVG Export Plug-In . SVG Version: 6.00 Build 0)  -->
<svg version="1.1" id="Layer_1" xmlns="http://www.w3.org/2000/svg" xmlns:xlink="http://www.w3.org/1999/xlink" x="0px" y="0px"
	 viewBox="0 0 120 120" style="enable-background:new 0 0 120 120;" xml:space="preserve">
<style type="text/css">
	.st0{fill:#5F7D7A;}
	.st1{fill:#F96332;}
	.st2{fill:#ED3985;}
	.st3{fill:none;stroke:#1DA9E1;stroke-width:10;stroke-miterlimit:10;}
</style>
<g transform="translate(0.000000,510.000000) scale(0.100000,-0.100000)">
	<path class="st0" d="M603.8,4986.7c-91.5-5.2-183.4-40.6-256.5-99c-73.5-58.8-128.4-141.3-154.9-233c-7.8-27-13-58.2-16.7-98.2
		l-1.1-14.2l-21.6,21.2c-18.2,18.2-22.4,21.2-27.6,21.2c-8.6,0-15.5-7.3-15.5-16.5c0-6.7,2.1-9.4,35-42.5
		c34.8-35.2,41.9-40.8,50.2-39.2c2.5,0.6,20.3,16.8,41,37.7c31,31.2,36.6,37.7,36.6,42.5c0,11.5-10.5,19.7-20.5,15.9
		c-3.1-1-14.2-10.7-24.9-21.2l-19.5-19.5l1,14.4c4.2,60.7,17.8,112.9,42.7,163.7c21.4,43.8,44.6,76.2,79.2,111.6
		c64.7,65.7,146.2,107.6,237.7,121.7c27.4,4.4,76.2,5.7,102.4,3.1c111.8-11.5,211.3-63.2,282.5-146.2c23.4-27.2,40.8-53.6,57.4-86.7
		c54.4-108.5,59.3-236.6,13.2-349.7c-76.4-186.8-276-294.4-473.7-254.8c-86.3,17.2-161,57.6-222.2,120.6
		c-39.6,40.8-73.7,94-92.1,143.9c-4.4,12.3-8.2,17.2-14.5,19.7c-6.5,2.5-16.5-2.3-19.3-9.6c-2.3-5.2-1.9-7.5,2.9-20.7
		c20.5-56.3,62.6-120.2,108.1-164.2c38.3-36.9,70.1-59.3,118.5-83.6l29.7-14.9H290.3H119.3l-4.6-4.8c-6.7-6.5-6.3-14.9,0.8-22.2
		l5.6-5.6h456.1h456.1l-20.5-20.9c-18.6-18.8-20.5-21.2-20.5-27.8c0-9.2,6.9-16.5,15.7-16.5c5.6,0,10.3,4,44,37.9
		c34.5,34.3,37.9,38.5,37.9,44.4c0,5.7-3.4,10-36.9,43.5c-34.8,35-37.1,36.9-44,36.9c-9.4,0-16.7-6.9-16.7-15.5
		c0-5.2,3.1-9.2,20.1-26.6c11.1-11.1,20.1-20.9,20.1-21.6c0-0.8-51.5-1.3-114.3-1.3H803.8l29.7,14.9c50.9,25.3,89.4,53.4,127.3,92.5
		c66,68.3,107.4,150.8,123.7,246.9c6.3,37.3,6.3,100.7,0,137.4c-16.8,98.8-58.8,180.9-127.5,250.2c-34.1,34.3-64.1,57-105.3,79.8
		C777.6,4972.9,692.1,4991.7,603.8,4986.7z"/>
	<path class="st1" d="M613.4,4846c-25.5-3.1-30.8-7.8-43.1-38.9l-9-22.6l-10.9-3.4c-5.9-1.7-18.2-6.7-27.6-11.1l-16.7-7.7l-21.6,9.2
		c-35.8,15.3-43.1,13.4-74.3-18.6c-26.6-27.2-28.1-34.5-13.8-69.3l8.8-21.8l-8.8-19.9c-4.8-11.1-9.6-23.4-10.7-27.6
		c-2.1-7.7-2.3-7.8-24.7-16.7c-23.7-9.6-32.5-15.9-36.8-27.2c-1.3-3.4-2.3-17.8-2.3-35.4c0-43.6,2.5-47.7,39-62.2
		c22.6-9,22.6-9,24.7-16.8c1.1-4.4,5.9-16.5,10.5-27c4.6-10.5,8.4-19.9,8.4-20.9c0-0.8-3.8-10.7-8.6-21.8
		c-9.6-22.2-10.9-34.3-5.6-45.6c3.8-8.4,39.2-43.8,47.7-47.7c11.5-5.6,23.4-4,46.9,6.1l21.2,9l12.8-6.1c7.1-3.4,19.5-8.4,27.6-11.1
		l14.5-5l9-22.4c14.5-36.4,18.4-38.9,62-38.9c17.2,0,32.5,1,35.8,2.1c10.9,4.2,17.4,13,26.8,36.4l8.8,22.2l12.6,4.4
		c7.1,2.5,19.1,7.3,27,10.9c7.8,3.6,15.1,6.5,16.3,6.5s11.1-3.8,22.2-8.6c22.4-9.6,33.9-10.9,45.6-5.4c8.4,4,42.7,37.7,47.5,46.7
		c5.9,11.3,4.4,23-5.9,47.1l-9.2,21.4l8.8,19.7c4.8,10.9,9.8,23.4,11.1,27.8l2.3,8.2l22.6,8.8c18,7.1,24.1,10.3,29.3,16.3
		c8.4,9.2,9.8,15.7,9.6,48.6c0,41.5-2.9,45.6-43.1,61.3l-18.4,7.1l-3.4,10.9c-1.7,5.9-6.7,18-10.7,26.8c-4,8.8-7.5,16.8-7.5,17.8
		s4,10.9,8.8,22.2c10,23,11.3,35,5.6,46.1c-4,8-38.5,42.7-46.1,46.7c-14.2,7.1-20.7,6.1-54.7-8.4l-14.7-6.1l-16.8,7.7
		c-9.2,4.4-21.6,9.4-27.6,11.1l-10.9,3.4l-7.1,18.4c-14.9,38.3-19.1,41.5-54.6,43.1C630,4846.4,617,4846.4,613.4,4846z
		 M647.6,4811.2l8.6-1.3l9.6-24.1c5.4-13.2,10.9-25.5,12.3-27.2c1.3-1.5,10.9-5.7,21.1-9c10.1-3.4,27-10.5,37.3-15.7
		c21.6-11.1,18.8-11.1,51.7,2.5l22.8,9.6l8.8-7.5c4.8-4,12.3-11.3,16.3-16.3l7.7-8.8l-9.8-22.6c-13.8-32.3-13.8-30.1-3.1-50.7
		c5-9.8,11.9-26.2,15.3-36.6c3.3-10.5,7.5-20.3,9-22c1.7-1.7,14.2-7.5,27.6-13l24.5-10l1.5-10.9c0.8-5.9,0.8-16.5,0-23.4l-1.5-12.4
		l-23.9-9.6c-13.2-5.2-25.8-11.3-27.9-13.6c-2.3-2.3-6.3-11.7-9.2-20.7c-2.7-9-9.2-25.1-14.5-35.8c-5.2-10.5-9.6-20.3-9.6-21.6
		c0-1.1,4.8-13.8,10.7-27.8l10.7-25.6l-6.1-7.7c-3.3-4.2-10.7-11.5-16.3-16.3l-10.3-8.8l-24.9,10.5c-13.6,5.9-26.2,10.7-27.9,10.7
		s-11.9-4.4-22.4-9.6c-10.7-5.4-26.8-11.9-35.8-14.5c-9-2.9-18.4-6.9-20.7-9.2c-2.3-2.1-8.4-14.7-13.6-27.9l-9.6-23.9l-10.3-1.3
		c-5.6-0.8-16.1-0.8-23.4,0l-13,1.3l-9.6,23.9c-5.2,13.2-11.3,25.8-13.6,27.9c-2.3,2.3-11.5,6.3-20.5,9c-9,2.7-24.9,9.4-35.2,14.7
		c-10.5,5.2-20.5,9.6-22.4,9.6c-1.9,0-14.5-4.8-28.5-10.5l-25.1-10.5l-8,6.7c-4.4,3.6-11.7,10.9-16.3,16.3l-8,9.4l10.5,25.1
		c5.7,14,10.5,26.6,10.5,28.5s-4.4,11.9-9.6,22.4c-5.4,10.3-12.1,26.2-14.7,35.2c-2.7,9-6.5,18-8.6,20.3
		c-1.9,2.3-14.7,8.6-28.5,14.2l-24.9,10.1l0.6,22.8l0.6,23l23.9,9.6c13.2,5.2,25.8,11.3,27.9,13.6c2.3,2.3,6.3,11.7,9.2,20.9
		c2.7,9.2,9.4,25.1,14.5,35.4c5.2,10.3,9.6,20.3,9.6,22.2c0,1.7-4.8,14.5-10.5,28.3l-10.5,25.1l6.9,8.4c3.8,4.6,11.3,12.1,16.5,16.3
		l9.4,7.8l25.5-10.7c14.2-5.9,26.8-10.7,28.1-10.7c1.3,0,10,3.8,19.1,8.6c9.4,4.8,25.6,11.7,36.4,15.1c10.7,3.6,21.1,8.2,23,10.1
		c1.7,1.9,7.8,14.4,13.2,27.8c8.8,21.6,10.5,24.3,15.1,25.1C623.3,4812.7,638.6,4812.5,647.6,4811.2z"/>
	<path class="st2" d="M604.5,4648.1c-39.4-10-73.3-43.6-83.5-82.7c-3.8-14.9-4-44.2-0.2-58.2c10.7-40.2,42.5-72.2,82.3-82.3
		c53.2-13.6,108,10.7,132.1,58.8c15.9,31.8,16.3,71,1.1,102.4c-12.4,26-38.3,49.4-65.5,59C655.6,4650.4,620.2,4652.1,604.5,4648.1z
		 M656.2,4612.5c23-7.1,43.1-25.8,51.7-48.2c23.2-61.3-35.8-124.4-98.2-104.9c-23,7.1-40.4,22.4-50.9,45.2
		c-4.8,10.1-5.4,13.4-5.4,31.4c0,18.6,0.4,21.1,6.1,32.9C577.3,4606.6,617.1,4624.6,656.2,4612.5z"/>
	<circle class="st3" cx="632.7" cy="4535.8" r="168.2"/>
</g>
</svg>
