<?xml version="1.0" encoding="utf-8"?>
<!-- Generator: Adobe Illustrator 19.1.0, SVG Export Plug-In . SVG Version: 6.00 Build 0)  -->
<svg version="1.1" id="Layer_1" xmlns="http://www.w3.org/2000/svg" xmlns:xlink="http://www.w3.org/1999/xlink" x="0px" y="0px"
	 viewBox="0 0 170 170" style="enable-background:new 0 0 170 170;" xml:space="preserve">
<style type="text/css">
	.st0{clip-path:url(#SVGID_2_);fill:#F2613C;}
	.st1{clip-path:url(#SVGID_2_);fill:none;stroke:#FFFFFF;stroke-width:2.928;stroke-miterlimit:10;}
</style>
<g>
	<defs>
		<rect id="SVGID_1_" x="2.2" y="7.2" width="165.5" height="155.5"/>
	</defs>
	<clipPath id="SVGID_2_">
		<use xlink:href="#SVGID_1_"  style="overflow:visible;"/>
	</clipPath>
	<path class="st0" d="M85,161.8c40.7,0,73.8-33,73.8-73.8c0-40.7-33-73.8-73.8-73.8S11.2,47.3,11.2,88
		C11.2,128.7,44.3,161.8,85,161.8"/>
	<circle class="st1" cx="84.1" cy="88" r="32"/>
	<path class="st1" d="M130.4,123.4V89.7V56.2c0,0-3-3.2-5.1,7.6c-1,5.1-2.3,29.5,5.1,25.9 M34.8,56.2c0,0-2.7,17,6.8,17
		c7.8,0,7.5-11.5,7.5-17 M41.6,56.2v67.3 M108.6,88.2c0,13.5-10.9,24.4-24.4,24.4c-13.5,0-24.4-10.9-24.4-24.4
		c0-13.5,10.9-24.4,24.4-24.4C97.7,63.8,108.6,74.7,108.6,88.2z"/>
</g>
</svg>
