<?xml version="1.0" encoding="utf-8"?>
<!-- Generator: Adobe Illustrator 21.1.0, SVG Export Plug-In . SVG Version: 6.00 Build 0)  -->
<svg version="1.1" id="Layer_1" xmlns="http://www.w3.org/2000/svg" xmlns:xlink="http://www.w3.org/1999/xlink" x="0px" y="0px"
	 viewBox="0 0 170 170" style="enable-background:new 0 0 170 170;" xml:space="preserve">
<style type="text/css">
	.st0{display:none;}
	.st1{display:inline;}
	.st2{clip-path:url(#SVGID_2_);fill:#F2613C;}
	.st3{clip-path:url(#SVGID_4_);fill:none;stroke:#FFFFFF;stroke-width:2.928;stroke-miterlimit:10;}
	.st4{clip-path:url(#SVGID_6_);fill:none;stroke:#FFFFFF;stroke-width:2.928;stroke-miterlimit:10;}
	.st5{clip-path:url(#SVGID_8_);fill:#F2613C;}
	.st6{fill:#FFFFFF;}
</style>
<g class="st0">
	<g class="st1">
		<defs>
			<rect id="SVGID_1_" x="2.2" y="7.2" width="165.5" height="155.5"/>
		</defs>
		<clipPath id="SVGID_2_">
			<use xlink:href="#SVGID_1_"  style="overflow:visible;"/>
		</clipPath>
		<path class="st2" d="M85,161.8c40.7,0,73.8-33,73.8-73.8c0-40.7-33-73.8-73.8-73.8S11.2,47.3,11.2,88S44.3,161.8,85,161.8"/>
	</g>
	<g class="st1">
		<defs>
			<rect id="SVGID_3_" x="2.2" y="7.2" width="165.5" height="155.5"/>
		</defs>
		<clipPath id="SVGID_4_">
			<use xlink:href="#SVGID_3_"  style="overflow:visible;"/>
		</clipPath>
		<circle class="st3" cx="84.1" cy="88" r="32"/>
	</g>
	<g class="st1">
		<defs>
			<rect id="SVGID_5_" x="2.2" y="7.2" width="165.5" height="155.5"/>
		</defs>
		<clipPath id="SVGID_6_">
			<use xlink:href="#SVGID_5_"  style="overflow:visible;"/>
		</clipPath>
		<path class="st4" d="M130.4,123.4V89.7V56.2c0,0-3-3.2-5.1,7.6c-1,5.1-2.3,29.5,5.1,25.9 M34.8,56.2c0,0-2.7,17,6.8,17
			c7.8,0,7.5-11.5,7.5-17 M41.6,56.2v67.3 M108.6,88.2c0,13.5-10.9,24.4-24.4,24.4s-24.4-10.9-24.4-24.4s10.9-24.4,24.4-24.4
			C97.7,63.8,108.6,74.7,108.6,88.2z"/>
	</g>
</g>
<g>
	<defs>
		<rect id="SVGID_7_" x="11.3" y="11.3" width="147.5" height="147.5"/>
	</defs>
	<clipPath id="SVGID_8_">
		<use xlink:href="#SVGID_7_"  style="overflow:visible;"/>
	</clipPath>
	<path class="st5" d="M85.1,158.9c40.7,0,73.8-33,73.8-73.8c0-40.7-33-73.8-73.8-73.8c-40.7,0-73.8,33-73.8,73.8
		C11.3,125.8,44.4,158.9,85.1,158.9"/>
</g>
<g>
	<g id="XMLID_679_">
		<path id="XMLID_867_" class="st6" d="M116.8,125.9H47.2c-1.2,0-2.2-1-2.2-2.2V54.1c0-1.2,1-2.2,2.2-2.2h19.1c1.2,0,2.2,1,2.2,2.2
			s-1,2.2-2.2,2.2H49.4v65.4h65.3v-15.8c0-1.2,1-2.2,2.2-2.2s2.2,1,2.2,2.2v18C119,125,118,125.9,116.8,125.9z"/>
	</g>
	<g id="XMLID_680_">
		<g id="XMLID_677_">
			<path id="XMLID_864_" class="st6" d="M79,105.3c-0.6,0-1.1-0.2-1.5-0.6L64.3,91.6c-0.9-0.9-0.9-2.2,0-3.1L108,44.7
				c0.9-0.9,2.2-0.9,3.1,0l13.2,13.2c0.9,0.9,0.9,2.2,0,3.1l-43.8,43.7C80.1,105.1,79.5,105.3,79,105.3z M68.9,90L79,100.1
				l40.7-40.7l-10.1-10.1L68.9,90z"/>
		</g>
		<g id="XMLID_678_">
			<path id="XMLID_863_" class="st6" d="M60.2,111c-0.6,0-1.1-0.2-1.5-0.6c-0.6-0.6-0.8-1.4-0.6-2.2l5.6-18.8
				c0.3-1.1,1.5-1.8,2.7-1.4c1.1,0.3,1.8,1.5,1.4,2.7l-4.5,14.9l14.9-4.5c1.1-0.3,2.4,0.3,2.7,1.4c0.3,1.1-0.3,2.4-1.4,2.7
				l-18.8,5.6C60.6,110.9,60.4,111,60.2,111z"/>
		</g>
	</g>
</g>
</svg>
