<?xml version="1.0" encoding="utf-8"?>
<!-- Generator: Adobe Illustrator 21.1.0, SVG Export Plug-In . SVG Version: 6.00 Build 0)  -->
<svg version="1.1" id="Layer_1" xmlns="http://www.w3.org/2000/svg" xmlns:xlink="http://www.w3.org/1999/xlink" x="0px" y="0px"
	 viewBox="0 0 170 170" style="enable-background:new 0 0 170 170;" xml:space="preserve">
<style type="text/css">
	.st0{display:none;}
	.st1{display:inline;}
	.st2{clip-path:url(#SVGID_2_);fill:#F2613C;}
	.st3{clip-path:url(#SVGID_4_);fill:none;stroke:#FFFFFF;stroke-width:2.928;stroke-miterlimit:10;}
	.st4{clip-path:url(#SVGID_6_);fill:none;stroke:#FFFFFF;stroke-width:2.928;stroke-miterlimit:10;}
	.st5{clip-path:url(#SVGID_8_);fill:#F2613C;}
	.st6{fill:#FFFFFF;stroke:#F05A28;}
	.st7{fill:#FFFFFF;}
</style>
<g class="st0">
	<g class="st1">
		<defs>
			<rect id="SVGID_1_" x="2.2" y="7.2" width="165.5" height="155.5"/>
		</defs>
		<clipPath id="SVGID_2_">
			<use xlink:href="#SVGID_1_"  style="overflow:visible;"/>
		</clipPath>
		<path class="st2" d="M85,161.8c40.7,0,73.8-33,73.8-73.8c0-40.7-33-73.8-73.8-73.8S11.2,47.3,11.2,88S44.3,161.8,85,161.8"/>
	</g>
	<g class="st1">
		<defs>
			<rect id="SVGID_3_" x="2.2" y="7.2" width="165.5" height="155.5"/>
		</defs>
		<clipPath id="SVGID_4_">
			<use xlink:href="#SVGID_3_"  style="overflow:visible;"/>
		</clipPath>
		<circle class="st3" cx="84.1" cy="88" r="32"/>
	</g>
	<g class="st1">
		<defs>
			<rect id="SVGID_5_" x="2.2" y="7.2" width="165.5" height="155.5"/>
		</defs>
		<clipPath id="SVGID_6_">
			<use xlink:href="#SVGID_5_"  style="overflow:visible;"/>
		</clipPath>
		<path class="st4" d="M130.4,123.4V89.7V56.2c0,0-3-3.2-5.1,7.6c-1,5.1-2.3,29.5,5.1,25.9 M34.8,56.2c0,0-2.7,17,6.8,17
			c7.8,0,7.5-11.5,7.5-17 M41.6,56.2v67.3 M108.6,88.2c0,13.5-10.9,24.4-24.4,24.4s-24.4-10.9-24.4-24.4s10.9-24.4,24.4-24.4
			C97.7,63.8,108.6,74.7,108.6,88.2z"/>
	</g>
</g>
<g>
	<defs>
		<rect id="SVGID_7_" x="11.3" y="11.3" width="147.5" height="147.5"/>
	</defs>
	<clipPath id="SVGID_8_">
		<use xlink:href="#SVGID_7_"  style="overflow:visible;"/>
	</clipPath>
	<path class="st5" d="M85.1,158.9c40.7,0,73.8-33,73.8-73.8c0-40.7-33-73.8-73.8-73.8c-40.7,0-73.8,33-73.8,73.8
		C11.3,125.8,44.4,158.9,85.1,158.9"/>
</g>
<g>
	<path class="st6" d="M85,103.8c12.5,0,22.7-10.2,22.7-22.7V57.7C107.7,45.2,97.5,35,85,35S62.3,45.2,62.3,57.7v23.5
		C62.3,93.7,72.5,103.8,85,103.8z M65.7,57.7c0-10.7,8.7-19.3,19.3-19.3s19.3,8.7,19.3,19.3v23.5c0,10.7-8.7,19.3-19.3,19.3
		s-19.3-8.7-19.3-19.3V57.7z"/>
	<path class="st7" d="M90.9,111.3c13.8-2.8,24.3-15,24.3-29.6c0-1-0.8-1.6-1.6-1.6c-1,0-1.6,0.8-1.6,1.6c0,14.8-12,26.9-26.9,26.9
		s-26.9-12-26.9-26.9c0-1-0.8-1.6-1.6-1.6c-1,0-1.6,0.8-1.6,1.6c0,14.6,10.5,26.9,24.3,29.6v11.1c0,0.3,0.1,0.6,0.2,0.8l-9,9
		c-0.7,0.7-0.7,1.7,0,2.4c0.3,0.3,0.8,0.5,1.2,0.5c0.4,0,0.9-0.2,1.2-0.5L83.1,124h3.7l10.5,10.5c0.3,0.3,0.8,0.5,1.2,0.5
		c0.4,0,0.9-0.2,1.2-0.5c0.7-0.7,0.7-1.7,0-2.4l-9-9c0.1-0.2,0.2-0.5,0.2-0.8v-11.1H90.9z M87.5,120.7h-5v-8.4h5V120.7z"/>
	<path class="st7" d="M75.8,56.8h18.6c1,0,1.6-0.8,1.6-1.6c0-1-0.8-1.6-1.6-1.6H75.8c-1,0-1.6,0.8-1.6,1.6
		C74,56.1,74.8,56.8,75.8,56.8z"/>
	<path class="st7" d="M75.8,66.9h18.6c1,0,1.6-0.8,1.6-1.6c0-1-0.8-1.6-1.6-1.6H75.8c-1,0-1.6,0.8-1.6,1.6
		C74,66.2,74.8,66.9,75.8,66.9z"/>
	<path class="st7" d="M75.8,77h18.6c1,0,1.6-0.8,1.6-1.6c0-1-0.8-1.6-1.6-1.6H75.8c-1,0-1.6,0.8-1.6,1.6C74,76.3,74.8,77,75.8,77z"
		/>
	<path class="st7" d="M75.8,87.1h18.6c1,0,1.6-0.8,1.6-1.6c0-1-0.8-1.6-1.6-1.6H75.8c-1,0-1.6,0.8-1.6,1.6
		C74,86.3,74.8,87.1,75.8,87.1z"/>
</g>
</svg>
