<?xml version="1.0" encoding="utf-8"?>
<!-- Generator: Adobe Illustrator 27.3.1, SVG Export Plug-In . SVG Version: 6.00 Build 0)  -->
<svg version="1.1" id="Layer_1" xmlns="http://www.w3.org/2000/svg" xmlns:xlink="http://www.w3.org/1999/xlink" x="0px" y="0px"
	 viewBox="0 0 500 250" style="enable-background:new 0 0 500 250;" xml:space="preserve">
<style type="text/css">
	.st0{opacity:0.986;fill-rule:evenodd;clip-rule:evenodd;fill:#98414E;enable-background:new    ;}
	.st1{opacity:0.977;fill-rule:evenodd;clip-rule:evenodd;fill:#98414E;enable-background:new    ;}
	.st2{opacity:0.911;fill-rule:evenodd;clip-rule:evenodd;fill:#98414E;enable-background:new    ;}
	.st3{opacity:0.971;fill-rule:evenodd;clip-rule:evenodd;fill:#98414E;enable-background:new    ;}
	.st4{opacity:0.984;fill-rule:evenodd;clip-rule:evenodd;fill:#98414E;enable-background:new    ;}
</style>
<g>
	<path class="st0" d="M68.9,16.3c44.4-0.5,88.9,0,133.3,1.5c-9.3,25.3-18,50.8-26,76.6c4.1,3.7,8.4,7.3,13,10.7
		c7.9,10.6,8.6,21.5,2.3,32.9c9.8,24.8,3.1,43.7-19.9,56.7c-16.9,3.9-33.7,8-50.5,12.3c-18.3,9.4-37.2,17.6-56.7,24.5
		c-35.4,6.2-55.3-8.4-59.7-43.7c1.1-15.7,5.7-30.2,13.8-43.7C5.9,128.1,7.5,113.3,23,99.7c24.3-9,39.1-0.9,44.4,24.5
		c-1.6,13.2-8.5,22.1-20.7,26.8c-1.8,8.7,0.8,15.8,7.7,21.4c12.1-5.9,22.3-14.1,30.6-24.5c-3.4-5.1-6.5-10.7-9.2-16.8
		c-2.4-16.6,3.9-28.3,19.1-35.2C84.9,69.4,76.2,42.8,68.9,16.3z M85.8,31.6c32.4-1.8,65.1-2,98-0.8C176.4,52,169,73.2,161.6,94.4
		c-1.4,1.8-2.7,1.8-3.8,0c-7.8-15.1-15.2-30.4-22.2-46c-8.3,15.1-16.2,30.4-23.7,46c-0.8,1.6-1.8,1.8-3.1,0.8
		C101.5,73.7,93.9,52.5,85.8,31.6z M134.8,79.1c4.8,7.6,8.9,15.8,12.3,24.5c-3.3,4.1-5.4,8.7-6.1,13.8c-3.6,0-7.2,0-10.7,0
		c-0.9-5.7-3.4-10.6-7.7-14.5C126.9,95,130.9,87.1,134.8,79.1z M35.2,108.2c14.5,1.5,19.9,9.1,16.1,23c-9.9,10.6-19.1,10.1-27.6-1.5
		C21.4,119,25.2,111.9,35.2,108.2z M99.6,108.2c14.5,0,20.4,7.2,17.6,21.4c-8.4,11.7-17.6,12.2-27.6,1.5
		C85.7,120.2,89,112.6,99.6,108.2z M163.9,108.2c14.1,0.5,19.9,7.7,17.6,21.4c-5.2,9.1-12.6,11.4-22.2,6.9c-7.5-6.6-8.8-14-3.8-22.2
		C157.8,111.3,160.6,109.3,163.9,108.2z M130.2,131.2c3.6,0,7.2,0,10.7,0c7.8,19.3,21.3,24.9,40.6,16.8c4,18.3-2.9,30.3-20.7,36
		c-14,2.2-27.8,5.3-41.4,9.2c-15.3,7.2-30.6,14.3-46,21.4c-14.4,6.9-28.7,6.9-42.9,0c-10.6-9.7-14.4-21.7-11.5-36
		c1.8-10.2,5.6-19.4,11.5-27.6c0.4,16.7,8.1,28.4,23,35.2c18-6.6,32.9-17.5,44.4-32.9C114.2,153.5,124.9,146.1,130.2,131.2z"/>
</g>
<g>
	<path class="st1" d="M272.7,79.1c4.1,0,8.2,0,12.3,0c0.3,24.5,0,49-0.8,73.5c-1.8,10-7.7,15.8-17.6,17.6
		c-24,3.3-35.7-7.1-35.2-31.4c4.6,0,9.2,0,13.8,0c-2.7,16.4,3.9,23.3,19.9,20.7c2.8-0.8,4.6-2.6,5.4-5.4
		C272.6,129.2,273.3,104.2,272.7,79.1z"/>
</g>
<g>
	<path class="st2" d="M433.5,85.2c4.1,0,8.2,0,12.3,0c0,6.1,0,12.3,0,18.4c4.1,0,8.2,0,12.3,0c0,3.6,0,7.2,0,10.7
		c-4.1,0-8.2,0-12.3,0c0,14.8,0,29.6,0,44.4c4.1,0,8.2,0,12.3,0c0,3.6,0,7.2,0,10.7c-5.1,0.2-10.2,0-15.3-0.8
		c-2.8-0.4-5.1-1.7-6.9-3.8c-2.2-16.7-3-33.6-2.3-50.5c-3.6,0-7.2,0-10.7,0c0-3.6,0-7.2,0-10.7c3.6,0,7.2,0,10.7,0
		C433.5,97.5,433.5,91.3,433.5,85.2z"/>
</g>
<g>
	<path class="st3" d="M324.7,102.1c23,2.1,34.2,14.9,33.7,38.3c-16.3-0.3-32.7,0-49,0.8c4.5,17.8,15.2,22.9,32.2,15.3
		c2.1-2.4,3.1-5.2,3.1-8.4c11.8-2.2,14.6,1.4,8.4,10.7c-12.2,13.1-26.3,15.4-42.1,6.9c-8.9-8.2-13.5-18.4-13.8-30.6
		C298.7,117.3,307.9,106.3,324.7,102.1z M323.2,112.8c12.1-0.9,19.7,4.4,23,16.1c-11.7,0.8-23.5,1-35.2,0.8
		C311.6,121.4,315.6,115.8,323.2,112.8z"/>
</g>
<g>
	<path class="st4" d="M384.5,102.1c9.9-0.6,18.9,1.9,26.8,7.7c2.7,3.6,4.5,7.7,5.4,12.3c-4,1.5-8,2-12.3,1.5c-0.5-4.8-3-8.1-7.7-10
		c-4.6-1-9.2-1-13.8,0c-6.6,2.8-7.6,6.9-3.1,12.3c8.5,2.9,17.2,5.5,26,7.7c11,4.3,14.8,12.3,11.5,23.7c-6.3,9.4-15.2,14-26.8,13.8
		c-15.8,0-25-7.7-27.6-23c4.1,0,8.2,0,12.3,0c1.8,8.9,7.4,12.9,16.8,12.3c7.5,0.8,12.6-2.2,15.3-9.2c-0.8-1.9-1.8-3.7-3.1-5.4
		c-9.5-3.8-19.1-6.8-29.1-9.2c-12.8-8.5-13.8-18.2-3.1-29.1C376.3,105.2,380.4,103.4,384.5,102.1z"/>
</g>
</svg>
