<?xml version="1.0" encoding="utf-8"?>
<!-- Generator: Adobe Illustrator 27.3.1, SVG Export Plug-In . SVG Version: 6.00 Build 0)  -->
<svg version="1.1" id="Layer_1" xmlns="http://www.w3.org/2000/svg" xmlns:xlink="http://www.w3.org/1999/xlink" x="0px" y="0px"
	 viewBox="0 0 373 135" style="enable-background:new 0 0 373 135;" xml:space="preserve">
<style type="text/css">
	.st0{display:none;}
	.st1{display:inline;fill-rule:evenodd;clip-rule:evenodd;fill:#FEFEFD;}
	.st2{fill-rule:evenodd;clip-rule:evenodd;fill:#539B11;}
	.st3{display:inline;fill-rule:evenodd;clip-rule:evenodd;fill:#FEFDFD;}
	.st4{fill-rule:evenodd;clip-rule:evenodd;fill:#DD8182;}
	.st5{fill-rule:evenodd;clip-rule:evenodd;fill:#C61816;}
	.st6{fill-rule:evenodd;clip-rule:evenodd;fill:#C71F19;}
	.st7{fill-rule:evenodd;clip-rule:evenodd;fill:#E08E8E;}
	.st8{fill-rule:evenodd;clip-rule:evenodd;fill:#C51312;}
	.st9{fill-rule:evenodd;clip-rule:evenodd;fill:#C71916;}
	.st10{fill-rule:evenodd;clip-rule:evenodd;fill:#C71A18;}
	.st11{fill-rule:evenodd;clip-rule:evenodd;fill:#FAFBF8;}
</style>
<g class="st0">
	<path class="st1" d="M-0.5-0.5c13.33,0,26.67,0,40,0c0,2.67,0,5.33,0,8c5.34-0.17,10.68,0,16,0.5c1.83,0.5,3,1.67,3.5,3.5
		c0.98,33.73,0.65,67.39-1,101c-7.1,12.37-17.6,16.54-31.5,12.5c-6.83-1.66-11.16-5.83-13-12.5c0.33-3,2-4.67,5-5
		c13.97,3.21,20.47-2.46,19.5-17c-1.44-6.37-5.27-10.54-11.5-12.5c-14.82-2.26-23.82,3.91-27,18.5C-0.5,64.17-0.5,31.83-0.5-0.5z"/>
</g>
<g>
	<path class="st2" d="M39.5-0.5c21.67,0,43.33,0,65,0c0,2.67,0,5.33,0,8c-4.01-0.17-8.01,0-12,0.5c-1.55,1.21-2.72,2.71-3.5,4.5
		c-0.33,29.67-0.67,59.33-1,89c-3.02,14.69-11.52,24.86-25.5,30.5c-3.54,0.54-6.87,1.37-10,2.5c-5.33,0-10.67,0-16,0
		c-19.78-2.12-32.12-12.79-37-32c0-2,0-4,0-6c3.18-14.59,12.18-20.76,27-18.5c6.23,1.96,10.06,6.13,11.5,12.5
		c0.97,14.54-5.53,20.21-19.5,17c-3,0.33-4.67,2-5,5c1.84,6.67,6.17,10.84,13,12.5c13.9,4.04,24.4-0.13,31.5-12.5
		c1.65-33.61,1.98-67.27,1-101c-0.5-1.83-1.67-3-3.5-3.5c-5.32-0.5-10.66-0.67-16-0.5C39.5,4.83,39.5,2.17,39.5-0.5z"/>
</g>
<g class="st0">
	<path class="st3" d="M104.5-0.5c89.33,0,178.67,0,268,0c0,45,0,90,0,135c-67.67,0-135.33,0-203,0c12.07-2.12,22.24-7.79,30.5-17
		c2.59-4.76,4.59-9.76,6-15c0.33-23,0.67-46,1-69c2.04-8.88,7.54-12.88,16.5-12c0.97-2.11,1.3-4.44,1-7c-15.18-0.33-30.18,0-45,1
		c0,2,0,4,0,6c7.95-0.61,13.45,2.72,16.5,10c0.67,22.67,0.67,45.33,0,68c-3.25,16.08-13.09,23.75-29.5,23
		c-15.11,0.71-24.28-6.29-27.5-21c-0.67-25.67-0.67-51.33,0-77c0.83-0.83,1.67-1.67,2.5-2.5c4.65-0.5,9.32-0.67,14-0.5
		c0-2.33,0-4.67,0-7c-19.67,0-39.33,0-59,0c0,2.33,0,4.67,0,7c5.07-0.16,10.07,0.34,15,1.5c0.63,0.75,1.13,1.58,1.5,2.5
		c0.33,27,0.67,54,1,81c2.97,11.64,10.14,19.47,21.5,23.5c6.32,2.09,12.65,3.59,19,4.5c-34,0-68,0-102,0c3.13-1.13,6.46-1.96,10-2.5
		c13.98-5.64,22.48-15.81,25.5-30.5c0.33-29.67,0.67-59.33,1-89c0.78-1.79,1.95-3.29,3.5-4.5c3.99-0.5,7.99-0.67,12-0.5
		C104.5,4.83,104.5,2.17,104.5-0.5z"/>
</g>
<g>
	<path class="st4" d="M179.5,15.5c14.82-1,29.82-1.33,45-1c0.3,2.56-0.03,4.89-1,7c0-2,0-4,0-6C208.83,15.5,194.17,15.5,179.5,15.5z
		"/>
</g>
<g>
	<path class="st5" d="M179.5,15.5c14.67,0,29.33,0,44,0c0,2,0,4,0,6c-8.96-0.88-14.46,3.12-16.5,12c-0.33,23-0.67,46-1,69
		c-1.41,5.24-3.41,10.24-6,15c-8.26,9.21-18.43,14.88-30.5,17c-5,0-10,0-15,0c-6.35-0.91-12.68-2.41-19-4.5
		c-11.36-4.03-18.53-11.86-21.5-23.5c-0.33-27-0.67-54-1-81c-0.37-0.92-0.87-1.75-1.5-2.5c-4.93-1.16-9.93-1.66-15-1.5
		c0-2.33,0-4.67,0-7c19.67,0,39.33,0,59,0c0,2.33,0,4.67,0,7c-4.68-0.17-9.35,0-14,0.5c-0.83,0.83-1.67,1.67-2.5,2.5
		c-0.67,25.67-0.67,51.33,0,77c3.22,14.71,12.39,21.71,27.5,21c16.41,0.75,26.25-6.92,29.5-23c0.67-22.67,0.67-45.33,0-68
		c-3.05-7.28-8.55-10.61-16.5-10C179.5,19.5,179.5,17.5,179.5,15.5z"/>
</g>
<g>
	<path class="st6" d="M302.5,42.5c5.05-0.28,8.05,2.05,9,7c-2.64,7.72-6.81,8.72-12.5,3c-0.67-2-0.67-4,0-6
		C300.38,45.29,301.54,43.96,302.5,42.5z"/>
</g>
<g>
	<path class="st7" d="M344.5,54.5c1.07-0.93,2.4-1.27,4-1c0,7.67,0,15.33,0,23c-0.99-7.15-1.33-14.48-1-22
		C346.5,54.5,345.5,54.5,344.5,54.5z"/>
</g>
<g>
	<path class="st8" d="M344.5,54.5c1,0,2,0,3,0c-0.33,7.52,0.01,14.85,1,22c5.67,0,11.33,0,17,0c0,1.67,0,3.33,0,5c-6,0-12,0-18,0
		c-0.17,13.34,0,26.67,0.5,40c5.24,7.87,10.57,7.87,16,0c1.35-3.22,2.19-6.55,2.5-10c1,0,2,0,3,0c-0.82,18.72-9.82,24.88-27,18.5
		c-2.39-1.95-3.89-4.45-4.5-7.5c-0.5-13.66-0.67-27.33-0.5-41c-3,0-6,0-9,0c-0.21-1.64,0.12-3.14,1-4.5c3.99-0.41,7.16-2.25,9.5-5.5
		C341.3,65.97,343.13,60.3,344.5,54.5z"/>
</g>
<g>
	<path class="st9" d="M223.5,75.5c3.07-0.32,6.07,0.02,9,1c1.02,3.61,1.86,7.28,2.5,11c8.37-11.94,19.21-14.78,32.5-8.5
		c2.77,3.37,4.6,7.2,5.5,11.5c0.33,11.67,0.67,23.33,1,35c2.83,1.84,5.99,2.51,9.5,2c0.21,1.64-0.12,3.14-1,4.5
		c-9.66,0.5-19.33,0.67-29,0.5c0-1.67,0-3.33,0-5c3.51,0.51,6.67-0.16,9.5-2c0.67-11.67,0.67-23.33,0-35
		c-4.54-9.18-11.37-11.34-20.5-6.5c-3.37,2.36-5.54,5.53-6.5,9.5c-0.83,11.01-0.67,22.01,0.5,33c2.58,0.89,5.25,1.23,8,1
		c0,1.67,0,3.33,0,5c-9.67,0-19.33,0-29,0c0-1.67,0-3.33,0-5c2.36,0.16,4.69,0,7-0.5c1.17-0.5,2-1.33,2.5-2.5
		c0.67-13.33,0.67-26.67,0-40c-0.46-1.43-1.3-2.6-2.5-3.5c-2.33-0.33-4.67-0.67-7-1c-0.84-1.01-1.17-2.18-1-3.5
		C217.71,76.81,220.71,76.48,223.5,75.5z"/>
</g>
<g>
	<path class="st10" d="M289.5,76.5c7.33,0,14.67,0,22,0c-0.17,16.67,0,33.34,0.5,50c3.06,0.95,6.22,1.28,9.5,1c0,1.67,0,3.33,0,5
		c-10.33,0-20.67,0-31,0c0-1.67,0-3.33,0-5c3.02,0.17,6.02,0,9-0.5c0.5-0.5,1-1,1.5-1.5c0.67-13.67,0.67-27.33,0-41
		c-0.5-1.83-1.67-3-3.5-3.5c-2.65-0.5-5.31-0.66-8-0.5C289.5,79.17,289.5,77.83,289.5,76.5z"/>
</g>
<g>
	<path class="st11" d="M-0.5,102.5c4.88,19.21,17.22,29.88,37,32c-12.33,0-24.67,0-37,0C-0.5,123.83-0.5,113.17-0.5,102.5z"/>
</g>
</svg>
