<?xml version="1.0" encoding="UTF-8"?>
<!DOCTYPE svg PUBLIC "-//W3C//DTD SVG 1.1//EN" "http://www.w3.org/Graphics/SVG/1.1/DTD/svg11.dtd">
<svg xmlns="http://www.w3.org/2000/svg" version="1.1" width="360px" height="413px" style="shape-rendering:geometricPrecision; text-rendering:geometricPrecision; image-rendering:optimizeQuality; fill-rule:evenodd; clip-rule:evenodd" xmlns:xlink="http://www.w3.org/1999/xlink">
<g><path style="opacity:1" fill="#f6f6f6" d="M -0.5,-0.5 C 119.5,-0.5 239.5,-0.5 359.5,-0.5C 359.5,137.167 359.5,274.833 359.5,412.5C 239.5,412.5 119.5,412.5 -0.5,412.5C -0.5,274.833 -0.5,137.167 -0.5,-0.5 Z"/></g>
<g><path style="opacity:1" fill="#020302" d="M 163.5,27.5 C 167.5,27.5 171.5,27.5 175.5,27.5C 175.5,43.1667 175.5,58.8333 175.5,74.5C 164.5,74.5 153.5,74.5 142.5,74.5C 142.5,70.5 142.5,66.5 142.5,62.5C 149.5,62.5 156.5,62.5 163.5,62.5C 163.5,50.8333 163.5,39.1667 163.5,27.5 Z"/></g>
<g><path style="opacity:1" fill="#020302" d="M 227.5,74.5 C 212.5,74.5 197.5,74.5 182.5,74.5C 182.5,70.5 182.5,66.5 182.5,62.5C 193.5,62.5 204.5,62.5 215.5,62.5C 215.739,60.5328 215.406,58.6995 214.5,57C 203.839,56.5002 193.172,56.3335 182.5,56.5C 182.5,46.8333 182.5,37.1667 182.5,27.5C 197.5,27.5 212.5,27.5 227.5,27.5C 227.5,31.5 227.5,35.5 227.5,39.5C 216.833,39.5 206.167,39.5 195.5,39.5C 195.5,41.5 195.5,43.5 195.5,45.5C 206.167,45.5 216.833,45.5 227.5,45.5C 227.5,55.1667 227.5,64.8333 227.5,74.5 Z"/></g>
<g><path style="opacity:1" fill="#f0f0ef" d="M 182.5,56.5 C 193.172,56.3335 203.839,56.5002 214.5,57C 215.406,58.6995 215.739,60.5328 215.5,62.5C 204.5,62.5 193.5,62.5 182.5,62.5C 182.5,66.5 182.5,70.5 182.5,74.5C 197.5,74.5 212.5,74.5 227.5,74.5C 212.672,75.3313 197.672,75.8313 182.5,76C 186.486,76.4988 190.486,76.6655 194.5,76.5C 194.5,80.8333 194.5,85.1667 194.5,89.5C 199.5,89.5 204.5,89.5 209.5,89.5C 209.5,85.1667 209.5,80.8333 209.5,76.5C 214.5,76.5 219.5,76.5 224.5,76.5C 224.5,80.8333 224.5,85.1667 224.5,89.5C 229.5,89.5 234.5,89.5 239.5,89.5C 239.5,84.5 239.5,79.5 239.5,74.5C 244.5,74.5 249.5,74.5 254.5,74.5C 254.5,79.5 254.5,84.5 254.5,89.5C 259.5,89.5 264.5,89.5 269.5,89.5C 269.5,84.5 269.5,79.5 269.5,74.5C 274.5,74.5 279.5,74.5 284.5,74.5C 284.5,79.5 284.5,84.5 284.5,89.5C 289.5,89.5 294.5,89.5 299.5,89.5C 299.279,92.2788 299.612,94.9455 300.5,97.5C 219.5,97.5 138.5,97.5 57.5,97.5C 57.5,99.8333 57.5,102.167 57.5,104.5C 53.1667,104.5 48.8333,104.5 44.5,104.5C 44.5,99.5 44.5,94.5 44.5,89.5C 49.5,89.5 54.5,89.5 59.5,89.5C 59.5,84.5 59.5,79.5 59.5,74.5C 64.5,74.5 69.5,74.5 74.5,74.5C 74.5,79.5 74.5,84.5 74.5,89.5C 79.5,89.5 84.5,89.5 89.5,89.5C 89.5,84.5 89.5,79.5 89.5,74.5C 94.5,74.5 99.5,74.5 104.5,74.5C 104.5,79.5 104.5,84.5 104.5,89.5C 109.5,89.5 114.5,89.5 119.5,89.5C 119.5,84.5 119.5,79.5 119.5,74.5C 124.5,74.5 129.5,74.5 134.5,74.5C 134.5,79.5 134.5,84.5 134.5,89.5C 139.5,89.5 144.5,89.5 149.5,89.5C 149.5,85.1667 149.5,80.8333 149.5,76.5C 154.5,76.5 159.5,76.5 164.5,76.5C 164.5,80.8333 164.5,85.1667 164.5,89.5C 169.5,89.5 174.5,89.5 179.5,89.5C 179.493,81.9488 178.827,74.4488 177.5,67C 178.5,59.5 179.5,52 180.5,44.5C 181.107,49.2306 181.774,53.2306 182.5,56.5 Z"/></g>
<g><path style="opacity:1" fill="#e8c830" d="M 300.5,97.5 C 304.226,97.1774 307.893,97.5108 311.5,98.5C 304.167,184.158 296.667,269.825 289,355.5C 256.768,364.268 224.602,373.435 192.5,383C 188.23,384.075 183.897,384.575 179.5,384.5C 146.436,374.565 113.103,365.231 79.5,356.5C 77.9505,337.492 76.2838,318.492 74.5,299.5C 68.9754,234.49 63.3088,169.49 57.5,104.5C 57.5,102.167 57.5,99.8333 57.5,97.5C 138.5,97.5 219.5,97.5 300.5,97.5 Z"/></g>
<g><path style="opacity:1" fill="#f6f6f5" d="M 146.5,150.5 C 155.833,150.5 165.167,150.5 174.5,150.5C 174.5,209.833 174.5,269.167 174.5,328.5C 148.764,322.134 123.097,315.467 97.5,308.5C 97.5,298.833 97.5,289.167 97.5,279.5C 113.6,283.421 129.6,287.755 145.5,292.5C 146.5,245.171 146.833,197.838 146.5,150.5 Z"/></g>
<g><path style="opacity:1" fill="#fedd26" d="M 185.5,119.5 C 218.942,119.827 251.609,119.827 283.5,119.5C 284.737,119.556 285.737,120.056 286.5,121C 279.36,194.667 272.693,267.834 266.5,340.5C 239.441,347.579 212.441,354.912 185.5,362.5C 184.816,355.945 184.149,349.445 183.5,343C 184.787,270.999 184.787,198.999 183.5,127C 184.22,124.509 184.887,122.009 185.5,119.5 Z"/></g>
<g><path style="opacity:1" fill="#f4e591" d="M 222.5,178.5 C 221.849,194.868 222.515,210.868 224.5,226.5C 223.791,227.404 222.791,227.737 221.5,227.5C 221.17,210.991 221.504,194.658 222.5,178.5 Z"/></g>
<g><path style="opacity:1" fill="#f5f6f5" d="M 222.5,178.5 C 221.504,194.658 221.17,210.991 221.5,227.5C 222.791,227.737 223.791,227.404 224.5,226.5C 238.8,224.314 253.134,222.314 267.5,220.5C 267.5,221.833 267.5,223.167 267.5,224.5C 263.167,224.5 258.833,224.5 254.5,224.5C 254.5,229.5 254.5,234.5 254.5,239.5C 249.5,239.5 244.5,239.5 239.5,239.5C 239.5,243.833 239.5,248.167 239.5,252.5C 224.575,254.46 209.741,256.793 195,259.5C 194.827,223.458 194.327,187.458 193.5,151.5C 220.158,150.5 246.825,150.167 273.5,150.5C 272.533,159.81 271.866,169.143 271.5,178.5C 255.167,178.5 238.833,178.5 222.5,178.5 Z"/></g>
<g><path style="opacity:1" fill="#f1f1ee" d="M 239.5,254.5 C 244.5,254.5 249.5,254.5 254.5,254.5C 254.5,259.5 254.5,264.5 254.5,269.5C 249.5,269.5 244.5,269.5 239.5,269.5C 239.5,274.5 239.5,279.5 239.5,284.5C 244.5,284.5 249.5,284.5 254.5,284.5C 254.5,289.5 254.5,294.5 254.5,299.5C 249.5,299.5 244.5,299.5 239.5,299.5C 239.5,304.5 239.5,309.5 239.5,314.5C 234.5,314.5 229.5,314.5 224.5,314.5C 224.5,309.5 224.5,304.5 224.5,299.5C 219.5,299.5 214.5,299.5 209.5,299.5C 209.5,304.5 209.5,309.5 209.5,314.5C 204.5,314.5 199.5,314.5 194.5,314.5C 194.818,319.032 194.485,323.366 193.5,327.5C 193.5,318.167 193.5,308.833 193.5,299.5C 207.495,295.838 221.495,292.171 235.5,288.5C 236.449,276.981 237.783,265.648 239.5,254.5 Z"/></g>
<g><path style="opacity:1" fill="#fbfbfb" d="M 74.5,299.5 C 76.2838,318.492 77.9505,337.492 79.5,356.5C 113.103,365.231 146.436,374.565 179.5,384.5C 179.5,386.167 179.5,387.833 179.5,389.5C 174.5,389.5 169.5,389.5 164.5,389.5C 164.5,394.5 164.5,399.5 164.5,404.5C 159.5,404.5 154.5,404.5 149.5,404.5C 149.5,399.5 149.5,394.5 149.5,389.5C 144.5,389.5 139.5,389.5 134.5,389.5C 134.5,394.5 134.5,399.5 134.5,404.5C 129.5,404.5 124.5,404.5 119.5,404.5C 119.5,399.5 119.5,394.5 119.5,389.5C 114.5,389.5 109.5,389.5 104.5,389.5C 104.5,384.5 104.5,379.5 104.5,374.5C 99.5,374.5 94.5,374.5 89.5,374.5C 89.5,369.5 89.5,364.5 89.5,359.5C 84.5,359.5 79.5,359.5 74.5,359.5C 74.5,354.5 74.5,349.5 74.5,344.5C 69.5,344.5 64.5,344.5 59.5,344.5C 59.5,339.5 59.5,334.5 59.5,329.5C 64.5,329.5 69.5,329.5 74.5,329.5C 74.5,324.5 74.5,319.5 74.5,314.5C 69.5,314.5 64.5,314.5 59.5,314.5C 59.5,309.5 59.5,304.5 59.5,299.5C 64.5,299.5 69.5,299.5 74.5,299.5 Z"/></g>
<g><path style="opacity:1" fill="#fbfbfb" d="M 267.5,224.5 C 264.996,253.203 262.163,281.87 259,310.5C 238.585,316.526 218.085,322.359 197.5,328C 195.934,328.765 194.601,328.598 193.5,327.5C 194.485,323.366 194.818,319.032 194.5,314.5C 199.5,314.5 204.5,314.5 209.5,314.5C 209.5,309.5 209.5,304.5 209.5,299.5C 214.5,299.5 219.5,299.5 224.5,299.5C 224.5,304.5 224.5,309.5 224.5,314.5C 229.5,314.5 234.5,314.5 239.5,314.5C 239.5,309.5 239.5,304.5 239.5,299.5C 244.5,299.5 249.5,299.5 254.5,299.5C 254.5,294.5 254.5,289.5 254.5,284.5C 249.5,284.5 244.5,284.5 239.5,284.5C 239.5,279.5 239.5,274.5 239.5,269.5C 244.5,269.5 249.5,269.5 254.5,269.5C 254.5,264.5 254.5,259.5 254.5,254.5C 249.5,254.5 244.5,254.5 239.5,254.5C 239.5,253.833 239.5,253.167 239.5,252.5C 239.5,248.167 239.5,243.833 239.5,239.5C 244.5,239.5 249.5,239.5 254.5,239.5C 254.5,234.5 254.5,229.5 254.5,224.5C 258.833,224.5 263.167,224.5 267.5,224.5 Z"/></g>
</svg>
