<?xml version="1.0" encoding="utf-8"?>
<!-- Generator: Adobe Illustrator 27.3.1, SVG Export Plug-In . SVG Version: 6.00 Build 0)  -->
<svg version="1.1" id="Layer_1" xmlns="http://www.w3.org/2000/svg" xmlns:xlink="http://www.w3.org/1999/xlink" x="0px" y="0px"
	 viewBox="0 0 1000 304" style="enable-background:new 0 0 1000 304;" xml:space="preserve">
<style type="text/css">
	.st0{opacity:0.988;fill-rule:evenodd;clip-rule:evenodd;enable-background:new    ;}
	.st1{opacity:0.99;fill-rule:evenodd;clip-rule:evenodd;fill:#F4971D;enable-background:new    ;}
	.st2{opacity:0.986;fill-rule:evenodd;clip-rule:evenodd;fill:#F4971D;enable-background:new    ;}
	.st3{opacity:0.989;fill-rule:evenodd;clip-rule:evenodd;enable-background:new    ;}
	.st4{opacity:0.987;fill-rule:evenodd;clip-rule:evenodd;enable-background:new    ;}
	.st5{opacity:0.929;fill-rule:evenodd;clip-rule:evenodd;enable-background:new    ;}
	.st6{opacity:0.933;fill-rule:evenodd;clip-rule:evenodd;enable-background:new    ;}
	.st7{fill-rule:evenodd;clip-rule:evenodd;fill:#E87420;}
	.st8{opacity:0.985;fill-rule:evenodd;clip-rule:evenodd;fill:#E26622;enable-background:new    ;}
	.st9{fill-rule:evenodd;clip-rule:evenodd;fill:#E66D21;}
	.st10{opacity:0.994;fill-rule:evenodd;clip-rule:evenodd;fill:#E97720;enable-background:new    ;}
	.st11{opacity:0.994;fill-rule:evenodd;clip-rule:evenodd;fill:#DE5427;enable-background:new    ;}
	.st12{fill-rule:evenodd;clip-rule:evenodd;fill:#E36522;}
	.st13{opacity:0.994;fill-rule:evenodd;clip-rule:evenodd;fill:#DD5027;enable-background:new    ;}
	.st14{opacity:0.992;fill-rule:evenodd;clip-rule:evenodd;fill:#DC5027;enable-background:new    ;}
	.st15{opacity:0.995;fill-rule:evenodd;clip-rule:evenodd;fill:#DD5327;enable-background:new    ;}
	.st16{fill-rule:evenodd;clip-rule:evenodd;fill:#D73F2A;}
	.st17{opacity:0.986;fill-rule:evenodd;clip-rule:evenodd;fill:#D53D2B;enable-background:new    ;}
	.st18{opacity:0.986;fill-rule:evenodd;clip-rule:evenodd;fill:#CA1B33;enable-background:new    ;}
	.st19{opacity:0.99;fill-rule:evenodd;clip-rule:evenodd;fill:#D73E2A;enable-background:new    ;}
	.st20{fill-rule:evenodd;clip-rule:evenodd;fill:#D63C2B;}
	.st21{opacity:0.994;fill-rule:evenodd;clip-rule:evenodd;fill:#CA1A32;enable-background:new    ;}
	.st22{opacity:0.989;fill-rule:evenodd;clip-rule:evenodd;fill:#CA1B32;enable-background:new    ;}
	.st23{opacity:0.987;fill-rule:evenodd;clip-rule:evenodd;fill:#C81A34;enable-background:new    ;}
	.st24{fill-rule:evenodd;clip-rule:evenodd;fill:#C1193B;}
	.st25{fill-rule:evenodd;clip-rule:evenodd;fill:#C0193C;}
	.st26{opacity:0.994;fill-rule:evenodd;clip-rule:evenodd;fill:#C31939;enable-background:new    ;}
	.st27{fill-rule:evenodd;clip-rule:evenodd;fill:#BB1940;}
	.st28{opacity:0.998;fill-rule:evenodd;clip-rule:evenodd;fill:#B71946;enable-background:new    ;}
	.st29{opacity:0.998;fill-rule:evenodd;clip-rule:evenodd;fill:#B51948;enable-background:new    ;}
	.st30{opacity:0.988;fill-rule:evenodd;clip-rule:evenodd;fill:#B91944;enable-background:new    ;}
	.st31{opacity:0.995;fill-rule:evenodd;clip-rule:evenodd;fill:#B1194C;enable-background:new    ;}
	.st32{fill-rule:evenodd;clip-rule:evenodd;fill:#BA1943;}
	.st33{opacity:0.992;fill-rule:evenodd;clip-rule:evenodd;fill:#B1194D;enable-background:new    ;}
	.st34{fill-rule:evenodd;clip-rule:evenodd;fill:#AE1950;}
	.st35{opacity:0.999;fill-rule:evenodd;clip-rule:evenodd;fill:#AA1955;enable-background:new    ;}
	.st36{opacity:0.999;fill-rule:evenodd;clip-rule:evenodd;fill:#A91955;enable-background:new    ;}
	.st37{opacity:0.996;fill-rule:evenodd;clip-rule:evenodd;fill:#A71958;enable-background:new    ;}
	.st38{fill-rule:evenodd;clip-rule:evenodd;fill:#AB1953;}
	.st39{opacity:0.997;fill-rule:evenodd;clip-rule:evenodd;fill:#871F75;enable-background:new    ;}
	.st40{opacity:4.700000e-02;fill-rule:evenodd;clip-rule:evenodd;fill:#CB4B31;enable-background:new    ;}
	.st41{opacity:0.985;fill-rule:evenodd;clip-rule:evenodd;fill:#822177;enable-background:new    ;}
	.st42{opacity:0.973;fill-rule:evenodd;clip-rule:evenodd;fill:#79227C;enable-background:new    ;}
	.st43{opacity:0.956;fill-rule:evenodd;clip-rule:evenodd;fill:#832076;enable-background:new    ;}
	.st44{fill-rule:evenodd;clip-rule:evenodd;fill:#672684;}
	.st45{opacity:0.945;fill-rule:evenodd;clip-rule:evenodd;fill:#291F5D;enable-background:new    ;}
	.st46{opacity:0.953;fill-rule:evenodd;clip-rule:evenodd;fill:#2B1F5B;enable-background:new    ;}
</style>
<g>
	<path class="st0" d="M67.4,32.6c17.3-0.1,34.6,0,51.9,0.4c2.1,0.4,3.9,1.4,5.4,2.9c6.6,41.5,12.7,83,18.4,124.7
		c0.6,2.8,1.1,5.6,1.7,8.4c2.6,1.8,4.8,1.3,6.7-1.7C174,122.9,197.3,79,221.4,35.5c1.5-1.2,3.2-2,5-2.5c18.1-0.6,36.3-0.6,54.4,0
		c1.3,0.6,2.6,1.3,3.8,2.1c0.5,4.5,0.2,9-0.8,13.4c-12.6,63.6-25.4,127.2-38.5,190.8c-1.7,2.6-4.1,4.1-7.1,4.6
		c-10.9,0.8-21.8,0.5-32.6-0.8c-2.4-2.4-3.1-5.4-2.1-8.8c7.5-37.7,15.1-75.3,22.6-113c0.4-4.2,0.6-8.4,0.4-12.6
		c-0.9-0.1-1.7,0-2.5,0.4c-1.5,2.1-3.1,4.2-4.6,6.3c-22.6,41.6-45.5,83.2-68.6,124.7c-1.3,1.3-2.9,2.3-4.6,2.9
		c-10.1,1.6-20.1,1.6-30.1,0c-1.3-1-2.3-2.3-2.9-3.8c-6.4-43-13.3-86-20.5-128.9c-1.4-0.2-2.6,0.1-3.8,0.8c-1.1,3.3-2.2,6.7-3.3,10
		c-7.8,39.7-15.9,79.3-24.3,118.8c-1.8,2.2-4.2,3.5-7.1,3.8c-10,0.6-20.1,0.6-30.1,0c-2.3-0.3-3.8-1.6-4.6-3.8
		c1.7-13.2,3.9-26.3,6.7-39.3C36.5,149.2,46.8,97.6,56.9,46c0.8-3.5,1.9-6.8,3.3-10C62.4,34.1,64.8,33,67.4,32.6z"/>
</g>
<g>
	<path class="st1" d="M494.2,92.8c-4.8,3.5-9.3,7.6-13.4,12.1c-0.8,0.3-1.5,0.7-2.1,1.3c-0.3-0.2-0.5-0.5-0.4-0.8
		c-0.3-5.6-0.6-5.6-0.8,0c0.1,0.6,0,1.2-0.4,1.7c-2.9-2.2-6.1-3.9-9.6-5c-0.1-5.2,0.5-10.4,1.7-15.5c0.6-6.2,4.3-8.7,10.9-7.5
		C486.7,81.5,491.5,86.1,494.2,92.8z"/>
</g>
<g>
	<path class="st2" d="M616.3,112.1c-7.7-0.8-15.6-1.1-23.4-0.8c0-0.6-0.3-0.8-0.8-0.8c-1.9-4-3.3-8.1-4.2-12.6
		c5.5-6,12.1-10.4,19.7-13.4c3.8,0.5,6.6,2.5,8.4,5.9C619.5,97.5,619.6,104.7,616.3,112.1z"/>
</g>
<g>
	<path class="st0" d="M377,87c14.3-0.4,28.2,1.4,41.8,5.4c16.9,6.4,24,18.5,21.3,36.4c-5.9,29.8-11.7,59.7-17.6,89.5
		c-0.3,7.6-1.2,15.1-2.5,22.6c-1.3,1.3-2.9,2.3-4.6,2.9c-10.3,0.6-20.6,0.6-31,0c-2.8-3.3-5.8-6.5-8.8-9.6
		c-21.9,12.7-45.2,16.5-69.9,11.3c-20.4-7.2-28.4-21.6-23.8-43.1c3.4-15.3,11.6-27.2,24.7-35.6c6.2-3.2,12.6-5.7,19.2-7.5
		c14.7-3,29.4-5.2,44.4-6.7c9.4-0.4,17.3-3.9,23.8-10.5c7.1-18.1,0.9-27.1-18.8-26.8c-15.2-0.6-26.2,5.9-33.1,19.2
		c-1.1,1.7-2.6,2.6-4.6,2.9c-8.4,0.2-16.8,0.6-25.1,1.3c-3.4-0.3-6.6-1.2-9.6-2.5c-0.3-1.1-0.8-2.3-1.3-3.3
		c6.5-18.2,18.8-30.9,36.8-38.1C351,90.2,363.9,87.5,377,87z M382,173.1c2.9-0.5,5.2,0.5,6.7,2.9c-1.2,10.3-4.4,19.9-9.6,28.9
		c-8.3,10.4-19.2,15.4-32.6,15.1c-17,1.4-24-6.1-20.9-22.6c3.9-8.7,10.4-14.4,19.7-17.2C357.6,178,369.9,175.6,382,173.1z"/>
</g>
<g>
	<path class="st3" d="M695.8,87c46-2.1,69.4,19.8,70.3,65.7c-1.1,6-2,12-2.9,18c-2.4,5-6.4,7.4-12.1,7.1
		c-17.4-0.1-34.9-0.2-52.3-0.4c-14.4-0.1-28.8,0.3-43.1,1.3c-3.7,2.3-5.3,5.7-5,10c-0.1,14.6,6.8,23.6,20.9,26.8
		c17.9,2.9,33-2.4,45.2-15.9c1.7-0.8,3.3-1.7,5-2.5c8.6-0.6,17.3-0.6,25.9,0c2.7,0.2,3.8,1.5,3.3,4.2c-0.1,2.3-0.8,4.4-2.1,6.3
		c-20.9,30.1-49.8,43.4-86.6,39.7c-34.7-5.3-52.3-25.5-52.7-60.7c2.2-43.8,23.1-74.9,62.8-93.3C680.2,90.7,688,88.6,695.8,87z
		 M691.6,118.8c9.5-1.2,18.2,0.8,25.9,6.3c5.9,6.7,7.7,14.4,5.4,23c-1.3,1.9-3.1,2.9-5.4,2.9c-18.7,0.8-37.4,0.5-56.1-0.8
		c-1.7-2.1-2.1-4.5-1.3-7.1C666.7,129.7,677.2,121.6,691.6,118.8z"/>
</g>
<g>
	<path class="st4" d="M890.8,87c37.7,0.2,52.9,18.9,45.6,56.1c-6.2,32.5-12.9,64.8-20.1,97.1c-1.4,1.9-3.2,3.2-5.4,3.8
		c-10.3,0.6-20.6,0.6-31,0c-3.6-1.9-4.9-4.8-3.8-8.8c6.8-31.2,12.5-62.6,17.2-94.1c-0.3-14.1-7.6-21-21.8-20.5
		c-15.8,0.3-27.1,7.6-33.9,21.8c-2.2,6.6-4.2,13.3-5.9,20.1c-4.8,23.4-9.6,46.8-14.2,70.3c-0.3,6.4-3.5,10.1-9.6,11.3
		c-10.4,0.8-20.7,0.5-31-0.8c-1.5-1.6-2.3-3.6-2.5-5.9c8.6-42.2,17.1-84.5,25.5-126.8c1-5.4,2.4-10.7,4.2-15.9
		c1.5-1.5,3.3-2.5,5.4-2.9c9.2-0.6,18.4-0.6,27.6,0c3.5,1,5.2,3.3,5,7.1c-1.5,3.2-0.6,5.4,2.5,6.7c8.1-5.7,16.7-10.6,25.9-14.6
		C877.4,88.6,884.1,87.4,890.8,87z"/>
</g>
<g>
	<path class="st5" d="M945.2,87c6.8-0.4,13.5,0,20.1,1.3c-0.6,1.1-1.1,2.2-1.7,3.3c-2.2,0.2-4.3,0.6-6.3,1.3
		c-1.6,6.1-2.9,12.2-3.8,18.4c-2.4,0.3-4.7-0.1-6.7-1.3c1.7-5.9,2.8-11.9,3.3-18c-1.9,0-3.9,0-5.9,0C944.2,90.2,944.5,88.5,945.2,87
		z"/>
</g>
<g>
	<path class="st6" d="M967.8,87c2.8-0.3,5.6,0,8.4,0.8c0.9,4.5,2.1,9,3.3,13.4c2.9-4.5,5.7-9.1,8.4-13.8c2.8-0.4,5.6-0.6,8.4-0.4
		c-1.3,7.9-2.8,15.7-4.6,23.4c-1.7,0.8-3.5,1.1-5.4,0.8c0.6-4.8,1-9.5,1.3-14.2c-2.3,4.8-5,9.4-7.9,13.8c-1.5,0.7-2.9,0.5-4.2-0.4
		c-1.1-4.4-2-8.9-2.9-13.4c-1.3,4.4-2.4,8.9-3.3,13.4c-1.7,0.8-3.5,1.1-5.4,0.8C964.7,103.1,966.1,95,967.8,87z"/>
</g>
<g>
	<path class="st7" d="M494.2,92.8c1.7,4.3,3.1,8.8,4.2,13.4c-1.1,1.1-2.5,1.8-4.2,2.1c0.6,0.3,1.1,0.6,1.7,0.8
		c-1.4,0.3-2.8,0.2-4.2-0.4c-2.1,0.2-2.1,0.6,0,1.3c-1.4,0.3-2.8,0.2-4.2-0.4c-2.1,0.2-2.1,0.6,0,1.3c-1.4,0.3-2.8,0.2-4.2-0.4
		c-2.1,0.2-2.1,0.6,0,1.3c-0.4,0.1-0.8,0.3-1.3,0.4c-6-1-10.9-1-14.6,0c0-1.7,0-3.3,0-5c0-1.7,0-3.3,0-5c3.5,1.1,6.7,2.8,9.6,5
		c0.4-0.5,0.5-1.1,0.4-1.7c0.3,0,0.6,0,0.8,0c-0.1,0.4,0.1,0.6,0.4,0.8c0.6-0.5,1.3-0.9,2.1-1.3C484.9,100.4,489.3,96.4,494.2,92.8z
		"/>
</g>
<g>
	<path class="st8" d="M498.3,106.2c0.7,4.2,1.3,8.3,1.7,12.6c-1.4-0.5-2.8-0.8-4.2-0.8c-3.9,1.1-7.8,2.2-11.7,3.3
		c-1.4-0.6-2.8-0.3-4.2,0.8c-0.3-1.1-0.6-1.1-0.8,0c-1.8,0.1-2.1-0.5-0.8-1.7c-3.3,0.7-6.7,1.4-10,2.1c-0.5,0.3-0.7,0.7-0.8,1.3
		c-0.6-1.2-1.2-2.4-1.7-3.8c0.8-3.6,0.8-6.9,0-10c0.5-1.1,1-2.1,1.7-2.9c0,1.7,0,3.3,0,5c3.7-1,8.6-1,14.6,0
		c0.4-0.1,0.8-0.3,1.3-0.4c-2.1-0.6-2.1-1.1,0-1.3c1.4,0.6,2.8,0.7,4.2,0.4c-2.1-0.6-2.1-1.1,0-1.3c1.4,0.6,2.8,0.7,4.2,0.4
		c-2.1-0.6-2.1-1.1,0-1.3c1.4,0.6,2.8,0.7,4.2,0.4c-0.6-0.3-1.1-0.6-1.7-0.8C495.8,108,497.2,107.3,498.3,106.2z"/>
</g>
<g>
	<path class="st9" d="M587.9,97.8c0.9,4.4,2.3,8.6,4.2,12.6c0,0.3,0,0.6,0,0.8c-0.6,0-0.8,0.3-0.8,0.8c-0.6,0-0.8,0.3-0.8,0.8
		c-0.6,0-0.8,0.3-0.8,0.8c-0.6,0-0.8,0.3-0.8,0.8c-1.5,0.6-2.3,1.8-2.5,3.3c-0.6,0-0.8,0.3-0.8,0.8c-0.6,0-0.8,0.3-0.8,0.8
		c-0.3,0-0.6,0-0.8,0c0.1-2-0.6-2.6-2.1-1.7c-0.1-2-0.8-2.6-2.1-1.7c-1.2-1.3-2.5-2.7-3.8-4.2c-0.8,0.7-1.8,1-2.9,0.8
		C577.6,107.6,582.6,102.6,587.9,97.8z"/>
</g>
<g>
	<path class="st10" d="M592.1,111.2c0.3,0,0.6,0,0.8,0c7.9-0.3,15.7,0,23.4,0.8c-1.7,5-4.2,9.5-7.5,13.4c-1.3,0.4-2.3,1.2-2.9,2.5
		c-1.7-1.4-3.6-2.6-5.4-3.8c-2.8-3.7-6.7-6.6-11.7-8.8c0-0.3,0-0.6,0-0.8c0.6,0,0.8-0.3,0.8-0.8c0.6,0,0.8-0.3,0.8-0.8
		c0.6,0,0.8-0.3,0.8-0.8C591.8,112.1,592.1,111.8,592.1,111.2z"/>
</g>
<g>
	<path class="st11" d="M583.7,119.6c-0.9,0.9-1.5,2-1.7,3.3c-0.6,0-0.8,0.3-0.8,0.8c-1.7,0.9-2.9,2.3-3.3,4.2
		c-1.1,0.6-2,1.4-2.5,2.5c-3.6-1.7-7.3-3.3-10.9-5c0-1.1,0-2.2,0-3.3c2.6-3.3,5.4-6.3,8.4-9.2c1.1,0.1,2.1-0.1,2.9-0.8
		c1.3,1.5,2.5,2.8,3.8,4.2c1.3-0.9,2-0.3,2.1,1.7C583.1,117,583.8,117.6,583.7,119.6z"/>
</g>
<g>
	<path class="st12" d="M588.7,115.4c5,2.1,8.9,5.1,11.7,8.8c1.9,1.2,3.7,2.4,5.4,3.8c0.6-1.3,1.6-2.1,2.9-2.5
		c-1.9,4.1-4.4,7.7-7.5,10.9c-6.1-3.4-11.9-7.2-17.6-11.3c-0.8-0.4-1.6-0.5-2.5-0.4c0-0.3,0-0.6,0-0.8c0.6,0,0.8-0.3,0.8-0.8
		c1.5-0.6,2.3-1.8,2.5-3.3c0.6,0,0.8-0.3,0.8-0.8c0.6,0,0.8-0.3,0.8-0.8C587.3,117.4,588.2,116.5,588.7,115.4z"/>
</g>
<g>
	<path class="st13" d="M500,118.8c0,3.1,0,6.1,0,9.2c-5.6,0.7-11.2,1.7-16.7,2.9c-1.1,0.6-1.1,1.1,0,1.7c-0.9,0.4-1.7,0.8-2.5,1.3
		c0.2-1.9,0-3.5-0.8-5c0-2.2,0-4.5,0-6.7c1.4-1.1,2.8-1.4,4.2-0.8c3.9-1.1,7.8-2.2,11.7-3.3C497.2,118,498.6,118.3,500,118.8z"/>
</g>
<g>
	<path class="st14" d="M478.3,120.4c-1.3,1.2-1,1.7,0.8,1.7c-0.3,2.4,0,4.6,0.8,6.7c0,1.4,0,2.8,0,4.2c-3.8-0.3-7.5,0.3-11.3,1.7
		c-0.3-0.5-0.7-0.7-1.3-0.8c0-3.3,0-6.7,0-10c0.1-0.5,0.4-0.9,0.8-1.3C471.6,121.9,474.9,121.2,478.3,120.4z"/>
</g>
<g>
	<path class="st15" d="M581.2,124.6c0.9-0.1,1.7,0,2.5,0.4c5.7,4.1,11.5,7.9,17.6,11.3c-2,3.5-4.8,6.3-8.4,8.4
		c-1.4,0.1-2.8,0-4.2-0.4c-4.9-3.4-9.9-6.6-15.1-9.6c0.9-0.9,1.5-2,1.7-3.3c1.5-0.6,2.3-1.8,2.5-3.3
		C579.2,127.1,580.3,126,581.2,124.6z"/>
</g>
<g>
	<path class="st16" d="M564.4,122.1c0,1.1,0,2.2,0,3.3c3.6,1.7,7.3,3.3,10.9,5c0,0.3,0,0.6,0,0.8c-1.5,0.6-2.3,1.8-2.5,3.3
		c-3.5,3.6-6.5,7.5-9.2,11.7c-1.9-5.5-3.9-11.1-5.9-16.7C560,127.1,562.2,124.6,564.4,122.1z"/>
</g>
<g>
	<path class="st17" d="M479.9,133c-0.1,0.8,0.1,1.4,0.8,1.7c0.3,3.9,0.6,7.8,0.8,11.7c-4.5-2-8.9-3.9-13.4-5.9
		c-0.4-1.9-0.9-3.7-1.7-5.4c0.5-0.3,0.7-0.7,0.8-1.3c0.5,0.1,0.9,0.4,1.3,0.8C472.4,133.3,476.2,132.7,479.9,133z"/>
</g>
<g>
	<path class="st18" d="M512.6,169c-2.6,0.1-2.9-0.3-0.8-1.3c-1.6-1.1-3.2-1.4-5-0.8c0.8,0.3,1.7,0.6,2.5,0.8c-1.7,0.4-3.4,0.3-5-0.4
		c-0.6,0.1-1.1,0.3-1.7,0.4c0.8,0.3,1.7,0.6,2.5,0.8c-1.7,0.4-3.4,0.3-5-0.4c-0.6,0.1-1.1,0.3-1.7,0.4c0.8,0.3,1.7,0.6,2.5,0.8
		c-1.7,0.4-3.4,0.3-5-0.4c-0.6,0.1-1.1,0.3-1.7,0.4c0.8,0.3,1.7,0.6,2.5,0.8c-0.6,0.1-1.1,0.3-1.7,0.4c-1.7-0.7-3.3-0.8-5-0.4
		c0.8,0.3,1.7,0.6,2.5,0.8c-2.1,0.5-3.4,1.2-4.2,2.1c-1.8-8.6-3.5-17.3-5-25.9c5.3-3.9,10-8.4,14.2-13.4c0.6,0,0.8-0.3,0.8-0.8
		c0-0.3,0-0.6,0-0.8c0.6,0,0.8-0.3,0.8-0.8c1-1.3,1.9-2.7,2.9-4.2c3.3,6.9,4.4,14.2,3.3,21.8c0.6-1.1,1.1-2.2,1.7-3.3
		c1.6,4.6,1.5,9.2-0.4,13.8c0.1,0.4,0.3,0.8,0.4,1.3c0.6-1.1,1.1-2.2,1.7-3.3C510.6,161,511.8,164.9,512.6,169z"/>
</g>
<g>
	<path class="st19" d="M572.8,134.7c0.3,0,0.6,0,0.8,0c5.1,3,10.1,6.2,15.1,9.6c1.4,0.4,2.8,0.6,4.2,0.4c-1.8,1.3-3.8,2.5-5.9,3.3
		c-1.5,0.4-3,0.7-4.6,0.8c-6.1-0.2-11.8-1-17.2-2.5C567.8,142.5,570.3,138.5,572.8,134.7z"/>
</g>
<g>
	<path class="st20" d="M500,128c-0.6,1-0.9,2.1-0.8,3.3c-0.6,0-0.8,0.3-0.8,0.8c0,0.3,0,0.6,0,0.8c-0.6,0-0.8,0.3-0.8,0.8
		c-4.2,5-9,9.5-14.2,13.4c-0.6-4.3-1.4-8.5-2.5-12.6c0-0.3,0-0.6,0-0.8c0.8-0.4,1.7-0.8,2.5-1.3c-1.1-0.6-1.1-1.1,0-1.7
		C488.8,129.6,494.4,128.7,500,128z"/>
</g>
<g>
	<path class="st21" d="M557.7,129.6c2,5.7,3.9,11.2,5.9,16.7c-4.1,5.7-8,11.6-11.7,17.6c-1.9-0.2-3.7,0.1-5.4,0.8
		c-3.2-2.1-6.4-4.2-9.6-6.3c2.2-0.7,2.2-1.1,0-1.3C543.5,147.8,550.5,138.6,557.7,129.6z"/>
</g>
<g>
	<path class="st22" d="M565.3,146.4c5.4,1.5,11.1,2.3,17.2,2.5c1.6-0.2,3.1-0.4,4.6-0.8c2.6-0.2,5.1-0.7,7.5-1.7
		c-1.8,8.4-6.6,15-14.2,19.7c1.7,0.4,3.3,0,4.6-1.3c-2.5,4.8-6.3,8.5-11.3,11.3c1.2,0.2,2.3,0.6,3.3,1.3c-1.1,1.7-2.3,3.4-3.3,5
		c-5.5-3.5-11.3-7.3-17.6-11.3c0.6-0.3,1.1-0.6,1.7-0.8c-2-1-3.9-2-5.9-2.9C555.7,159.9,560.2,152.9,565.3,146.4z"/>
</g>
<g>
	<path class="st23" d="M468.2,140.5c4.5,2,8.9,3.9,13.4,5.9c2.2,10.2,4.4,20.5,6.7,31c-1.4-1.5-3.1-1.9-5-1.3
		c0.8,0.3,1.7,0.6,2.5,0.8c1,0.5,1,1,0,1.3c-2.1-1.2-4.3-1.6-6.7-1.3c1.7,0.6,3.3,1.1,5,1.7c-2.6,0.2-5.1-0.2-7.5-1.3
		c-0.6,0.1-1.1,0.3-1.7,0.4c1.7,0.6,3.3,1.1,5,1.7c-2,0.3-3.9,0.1-5.9-0.4c-0.9-3-2-5.9-3.3-8.8c0.5-0.6,0.7-1.3,0.8-2.1
		C469.8,159,468.7,149.8,468.2,140.5z"/>
</g>
<g>
	<path class="st24" d="M512.6,169c0.5,1.6,0.8,3.3,0.8,5c-1.4-0.1-2.8,0-4.2,0.4c1.8,0.5,1.9,0.9,0.4,1.3c-1.8-0.8-3.6-0.9-5.4-0.4
		c0.8,0.3,1.7,0.6,2.5,0.8c-0.6,0.1-1.1,0.3-1.7,0.4c-1.7-0.7-3.3-0.8-5-0.4c0.8,0.3,1.7,0.6,2.5,0.8c-1.7,0.4-3.4,0.3-5-0.4
		c-0.6,0.1-1.1,0.3-1.7,0.4c0.8,0.3,1.7,0.6,2.5,0.8c-1.7,0.4-3.4,0.3-5-0.4c-0.6,0.1-1.1,0.3-1.7,0.4c0.8,0.3,1.7,0.6,2.5,0.8
		c-1.4,0.4-2.8,0.6-4.2,0.4c-0.4-2-1-4-1.7-5.9c0.7-0.9,2.1-1.6,4.2-2.1c-0.8-0.3-1.7-0.6-2.5-0.8c1.7-0.4,3.4-0.3,5,0.4
		c0.6-0.1,1.1-0.3,1.7-0.4c-0.8-0.3-1.7-0.6-2.5-0.8c0.6-0.1,1.1-0.3,1.7-0.4c1.7,0.7,3.3,0.8,5,0.4c-0.8-0.3-1.7-0.6-2.5-0.8
		c0.6-0.1,1.1-0.3,1.7-0.4c1.7,0.7,3.3,0.8,5,0.4c-0.8-0.3-1.7-0.6-2.5-0.8c0.6-0.1,1.1-0.3,1.7-0.4c1.7,0.7,3.3,0.8,5,0.4
		c-0.8-0.3-1.7-0.6-2.5-0.8c1.8-0.5,3.5-0.3,5,0.8C509.7,168.6,510,169,512.6,169z"/>
</g>
<g>
	<path class="st25" d="M536.8,157.3c2.2,0.2,2.2,0.6,0,1.3c3.2,2.1,6.4,4.2,9.6,6.3c1.7-0.8,3.5-1.1,5.4-0.8
		c-4,6.6-8.2,13-12.6,19.2c0.2-1.2-0.1-2.4-0.8-3.3c-3.1-2.1-6.1-4.2-9.2-6.3c-1.1,0.1-2.3,0.5-3.3,1.3
		C529.3,168.7,532.9,162.9,536.8,157.3z"/>
</g>
<g>
	<path class="st26" d="M551.9,167.3c1.9,1,3.9,1.9,5.9,2.9c-0.6,0.3-1.1,0.6-1.7,0.8c6.3,4,12.1,7.8,17.6,11.3
		c-1.3,3.8-3.2,7.1-5.9,10c-7.4-5-14.9-9.7-22.6-14.2C546.8,174.1,549,170.5,551.9,167.3z"/>
</g>
<g>
	<path class="st27" d="M513.4,174c0.9,3.5,1.4,7.1,1.7,10.9c-1.1-2-2.8-3.4-5-4.2c-0.6,0.1-1.1,0.3-1.7,0.4c1,0.5,1,1,0,1.3
		c-1.3-0.8-2.7-1-4.2-0.4c1,0.5,1,1,0,1.3c-1.9-1.4-3.4-1.1-4.6,0.8c-1.7-1.2-3.1-1-4.2,0.8c-1.4-1.1-2.6-1.1-3.8,0
		c-0.9-1.8-1.5-3.7-1.7-5.9c1.4,0.1,2.8,0,4.2-0.4c-0.8-0.3-1.7-0.6-2.5-0.8c0.6-0.1,1.1-0.3,1.7-0.4c1.7,0.7,3.3,0.8,5,0.4
		c-0.8-0.3-1.7-0.6-2.5-0.8c0.6-0.1,1.1-0.3,1.7-0.4c1.7,0.7,3.3,0.8,5,0.4c-0.8-0.3-1.7-0.6-2.5-0.8c1.7-0.4,3.4-0.3,5,0.4
		c0.6-0.1,1.1-0.3,1.7-0.4c-0.8-0.3-1.7-0.6-2.5-0.8c1.9-0.5,3.7-0.4,5.4,0.4c1.5-0.4,1.3-0.8-0.4-1.3
		C510.6,174,512,173.9,513.4,174z"/>
</g>
<g>
	<path class="st28" d="M539.3,183.2c-1,2.5-2.4,4.8-4.2,6.7c-0.8-0.1-1.5,0.2-2.1,0.8c-3.7-2.6-7.5-5.1-11.3-7.5
		c1.4-2.8,2.8-5.6,4.2-8.4c1.1-0.7,2.2-1.1,3.3-1.3c3.1,2.1,6.1,4.2,9.2,6.3C539.3,180.8,539.6,182,539.3,183.2z"/>
</g>
<g>
	<path class="st29" d="M515.1,184.9c0.1,3.8-0.5,7.5-1.7,10.9c-0.5-0.3-1.1-0.5-1.7-0.8c-1,0.3-1,0.7,0,1.3
		c-1.5,0.5-2.8,0.4-4.2-0.4c-1,0.3-1,0.7,0,1.3c-1.5,0.5-2.8,0.4-4.2-0.4c-1,0.3-1,0.7,0,1.3c-1.5,0.5-2.8,0.4-4.2-0.4
		c-1,0.3-1,0.7,0,1.3c-1.4,0.4-2.8,0.6-4.2,0.4c-1.5-4.7-2.6-9.4-3.3-14.2c1.2-1.1,2.4-1.1,3.8,0c1.1-1.8,2.5-2.1,4.2-0.8
		c1.2-1.9,2.7-2.2,4.6-0.8c1-0.3,1-0.7,0-1.3c1.5-0.5,2.8-0.4,4.2,0.4c1-0.3,1-0.7,0-1.3c0.6-0.1,1.1-0.3,1.7-0.4
		C512.3,181.5,513.9,182.9,515.1,184.9z"/>
</g>
<g>
	<path class="st30" d="M488.3,177.3c1.1,5.7,2.5,11.2,4.2,16.7c-2.5-0.3-5-0.5-7.5-0.4c0.8,0.3,1.7,0.6,2.5,0.8
		c-0.6,0.1-1.1,0.3-1.7,0.4c-2.5,0-5,0-7.5,0c-2-5.1-3.4-10.4-4.2-15.9c1.9,0.6,3.9,0.7,5.9,0.4c-1.7-0.6-3.3-1.1-5-1.7
		c0.6-0.1,1.1-0.3,1.7-0.4c2.4,1.1,5,1.5,7.5,1.3c-1.7-0.6-3.3-1.1-5-1.7c2.3-0.4,4.6,0,6.7,1.3c1-0.3,1-0.7,0-1.3
		c-0.8-0.3-1.7-0.6-2.5-0.8C485.2,175.5,486.9,175.9,488.3,177.3z"/>
</g>
<g>
	<path class="st31" d="M536.8,191.6c2.2,1.4,4.4,2.8,6.7,4.2c0.5-0.2,0.9-0.5,1.3-0.8c4.4,2.8,8.7,5.8,13,8.8
		c-2.3,0.3-2.8,1.3-1.7,2.9c-2.1,1.4-3.9,3.1-5.4,5c-0.3-0.5-0.7-0.7-1.3-0.8c1.2-1,1-1.8-0.4-2.5c-1.5,1.1-2,1-1.3-0.4
		c-0.9-1.1-2-1.4-3.3-0.8c1-0.8,0.8-1.5-0.4-2.1c-1.5,1.1-2,1-1.3-0.4c-0.7-1.4-1.5-1.6-2.5-0.4c-0.2-0.6-0.5-1.3-0.8-2.1
		c-2.2-1.8-4.4-2.8-6.7-2.9C533.8,196.5,535.2,194,536.8,191.6z"/>
</g>
<g>
	<path class="st32" d="M545.2,178.2c7.7,4.5,15.2,9.3,22.6,14.2c-3.3,5.3-7.2,10-11.7,14.2c-1.1-1.7-0.6-2.6,1.7-2.9
		c-4.3-3-8.6-6-13-8.8c-0.3,0.4-0.8,0.7-1.3,0.8c-2.3-1.4-4.5-2.8-6.7-4.2C539.2,186.8,542,182.3,545.2,178.2z"/>
</g>
<g>
	<path class="st33" d="M492.5,194.1c0.4,1.9,0.7,3.9,0.8,5.9c-1.8,0.4-4,0.4-6.7,0c-1,0.3-1,0.7,0,1.3c-1.5,0.5-2.8,0.4-4.2-0.4
		c-1,0.3-1,0.7,0,1.3c-0.5,0.4-1.1,0.5-1.7,0.4c-1-2.4-1.8-5-2.5-7.5c2.5,0,5,0,7.5,0c0.6-0.1,1.1-0.3,1.7-0.4
		c-0.8-0.3-1.7-0.6-2.5-0.8C487.4,193.6,489.9,193.8,492.5,194.1z"/>
</g>
<g>
	<path class="st34" d="M521.8,183.2c3.8,2.4,7.6,4.9,11.3,7.5c0.6-0.6,1.3-0.9,2.1-0.8c-2.4,5.3-5.2,10.3-8.4,15.1
		c-2.5-1.7-5-3.3-7.5-5c-1.1,0.9-2,2.1-2.5,3.3c-0.2-1.6-0.8-3-1.7-4.2C517,193.6,519.2,188.3,521.8,183.2z"/>
</g>
<g>
	<path class="st35" d="M513.4,195.7c-0.8,5.2-2.8,10-5.9,14.2c-0.6-1-1.5-1.8-2.5-2.5c-0.8,1.8-0.5,3.4,0.8,5
		c-0.6,0-0.8,0.3-0.8,0.8c-1.7,1.4-3.3,2.8-5,4.2c-1.7-6.1-3.3-12.3-5-18.4c1.4,0.1,2.8,0,4.2-0.4c-1-0.5-1-1,0-1.3
		c1.3,0.8,2.7,1,4.2,0.4c-1-0.5-1-1,0-1.3c1.3,0.8,2.7,1,4.2,0.4c-1-0.5-1-1,0-1.3c1.3,0.8,2.7,1,4.2,0.4c-1-0.5-1-1,0-1.3
		C512.3,195.2,512.9,195.5,513.4,195.7z"/>
</g>
<g>
	<path class="st36" d="M493.3,199.9c1.8,5.4,3.5,11,5,16.7c-4.5-2-8.9-3.9-13.4-5.9c-1.8-2.5-3.2-5.3-4.2-8.4c0.6,0.1,1.2,0,1.7-0.4
		c-1-0.5-1-1,0-1.3c1.3,0.8,2.7,1,4.2,0.4c-1-0.5-1-1,0-1.3C489.3,200.3,491.5,200.3,493.3,199.9z"/>
</g>
<g>
	<path class="st37" d="M526.8,204.9c-1.5,3.7-3.5,7-5.9,10c-1.4-3.9-2.8-7.8-4.2-11.7c0.5-1.3,1.4-2.4,2.5-3.3
		C521.8,201.6,524.3,203.3,526.8,204.9z"/>
</g>
<g>
	<path class="st38" d="M532.6,199.1c2.3,0.1,4.5,1.1,6.7,2.9c0.4,0.8,0.6,1.5,0.8,2.1c1-1.1,1.8-1,2.5,0.4c-0.7,1.4-0.3,1.5,1.3,0.4
		c1.2,0.6,1.4,1.3,0.4,2.1c1.3-0.5,2.5-0.2,3.3,0.8c-0.7,1.4-0.3,1.5,1.3,0.4c1.4,0.7,1.6,1.5,0.4,2.5c-1.6,1.7-3.6,2.9-5.9,3.8
		c-4.5,1.7-8.9,3-13.4,3.8c-2.4-0.8-4.9-1-7.5-0.8C525.5,211.1,528.9,205,532.6,199.1z"/>
</g>
<g>
	<path class="st39" d="M515.1,199.1c0.9,1.2,1.4,2.6,1.7,4.2c1.4,3.9,2.8,7.8,4.2,11.7c-1,3.5-2.7,6.5-5,9.2c-2.2-2.2-4.7-4-7.5-5.4
		c2-0.7,1.9-1.4-0.4-2.1c-1.2,0.6-1.4,1.3-0.4,2.1c-2.2,0.9-4.4,1.6-6.7,2.1c0.1-1.2-0.2-2.3-0.8-3.3c1.7-1.4,3.3-2.8,5-4.2
		c0.6,0,0.8-0.3,0.8-0.8c-1.4-1.6-1.6-3.2-0.8-5c1,0.7,1.9,1.5,2.5,2.5c0.5,0.1,0.9,0.4,1.3,0.8
		C512.1,207.6,514.2,203.7,515.1,199.1z"/>
</g>
<g>
	<path class="st40" d="M552.7,213.3C553.8,213.9,553.8,213.9,552.7,213.3z"/>
</g>
<g>
	<path class="st41" d="M552.7,214.2c-4.1,7.2-10.3,11.8-18.4,13.8c3.6,0.4,7-0.1,10-1.7c-4.3,5.5-9.8,8.7-16.7,9.6
		c0.1-1.8-0.5-2.1-1.7-0.8c-3.4-2-6.7-3.9-10-5.9c1.9-4.1,4.2-8,6.7-11.7c2.6-0.2,5.1,0.1,7.5,0.8
		C538.3,220.3,545.9,218.9,552.7,214.2z"/>
</g>
<g>
	<path class="st42" d="M515.9,224.2c-1.3,3.6-3,7.1-5,10.5c0.9,0.6,1.8,0.5,2.5-0.4c0.8-1.7,1.7-3.4,2.5-5c3.3,1.9,6.7,3.9,10,5.9
		c1.2-1.2,1.8-1,1.7,0.8c-4.2,0-8.4-0.1-12.6-0.4c2.2,2.6,2.9,5.5,2.1,8.8c-1.1-3.8-3.3-6.6-6.7-8.4c-2.4,2.9-3.7,6.3-3.8,10
		c-1.6,0.2-2.7-0.3-3.3-1.7c-0.1-2.7-0.8-5.2-2.1-7.5c-3.4,2.5-6.1,5.6-8.4,9.2c0.6-3.4,1.8-6.6,3.8-9.6c-2.5-0.3-5-0.6-7.5-0.8
		c2.7-0.5,5.2-1.5,7.5-2.9c2.1-0.5,4.1-1.3,5.9-2.5c1.7-0.7,1.4-1.5-0.8-2.5c0-0.6-0.3-0.8-0.8-0.8c-0.4-0.8-0.9-1.5-1.7-2.1
		c0.2-0.3,0.5-0.5,0.8-0.4c0.8,0.7,1.6,0.8,2.5,0.4c-0.6-1.2-1.2-2.5-1.7-3.8c2.3-0.5,4.5-1.2,6.7-2.1c-1-0.8-0.8-1.5,0.4-2.1
		c2.3,0.7,2.4,1.4,0.4,2.1C511.2,220.2,513.8,222,515.9,224.2z M503.4,233.4c1.3,0.7,2.7,1.4,4.2,2.1c-0.8,1.2-1.5,2.4-2.1,3.8
		C504.4,237.5,503.7,235.5,503.4,233.4z"/>
</g>
<g>
	<path class="st43" d="M484.9,210.8c4.5,2,8.9,3.9,13.4,5.9c0.9,2.4,1.5,4.9,1.7,7.5c-0.4-0.1-0.6,0.1-0.8,0.4
		c0.7,0.6,1.3,1.3,1.7,2.1c0.6,0,0.8,0.3,0.8,0.8c-0.2,1.1,0.1,1.9,0.8,2.5c-1.8,1.2-3.7,2-5.9,2.5c-0.9-2.5-2.6-4.3-5-5.4
		c-3.5-1.9-7.2-3.6-10.9-5c3.1-0.3,6.1-0.6,9.2-0.8C487.9,217.9,486.3,214.4,484.9,210.8z"/>
</g>
<g>
	<path class="st44" d="M503.4,244.3c0.7,1.3,1.8,1.9,3.3,1.7c2.3,6,4.2,12.1,5.9,18.4c0.1,1.8-0.5,2.1-1.7,0.8
		c-2.3-6.4-4.4-12.5-6.3-18.4c-2.7,5.8-5.7,11.3-8.8,16.7c-0.5-0.7-0.8-1.6-0.8-2.5C497.4,255.2,500.1,249.6,503.4,244.3z"/>
</g>
<g>
	<path class="st45" d="M495,261c0,0.9,0.3,1.8,0.8,2.5c-2.5,5.2-4.7,10.5-6.7,15.9c-1.1,0-2.2,0-3.3,0
		C488.1,273.6,491.2,267.5,495,261z"/>
</g>
<g>
	<path class="st46" d="M512.6,264.4c2.2,4.8,3.8,9.8,5,15.1c-0.6,0-1.1,0-1.7,0c-1.2-3.4-2.8-6.9-5-10.5c0.4-1.5,0.4-2.7,0-3.8
		C512.1,266.5,512.6,266.2,512.6,264.4z"/>
</g>
</svg>
