<?xml version="1.0" encoding="UTF-8"?>
<!DOCTYPE svg PUBLIC "-//W3C//DTD SVG 1.1//EN" "http://www.w3.org/Graphics/SVG/1.1/DTD/svg11.dtd">
<svg xmlns="http://www.w3.org/2000/svg" version="1.1" width="860px" height="287px" style="shape-rendering:geometricPrecision; text-rendering:geometricPrecision; image-rendering:optimizeQuality; fill-rule:evenodd; clip-rule:evenodd" xmlns:xlink="http://www.w3.org/1999/xlink">
<g><path style="opacity:1" fill="#446784" d="M 197.5,137.5 C 195.957,139.928 194.957,142.594 194.5,145.5C 193.5,145.5 192.5,145.5 191.5,145.5C 192.806,144.533 193.473,143.199 193.5,141.5C 191.833,142.5 190.5,143.833 189.5,145.5C 185.112,148.024 180.446,150.024 175.5,151.5C 175.957,152.298 176.624,152.631 177.5,152.5C 175.052,153.473 172.385,153.806 169.5,153.5C 161.733,152.199 153.733,151.532 145.5,151.5C 137.267,151.532 129.267,152.199 121.5,153.5C 119.833,153.5 118.167,153.5 116.5,153.5C 114.5,153.833 112.5,154.167 110.5,154.5C 110.167,154.5 109.833,154.5 109.5,154.5C 111.562,153.224 113.896,152.39 116.5,152C 112.852,151.163 109.519,151.663 106.5,153.5C 101.324,154.502 96.9911,157.002 93.5,161C 94.0944,161.464 94.7611,161.631 95.5,161.5C 94.2993,163.909 92.6326,165.909 90.5,167.5C 89.6743,170.485 88.341,173.151 86.5,175.5C 85.8826,175.389 85.3826,175.056 85,174.5C 84.7266,176.101 84.2266,177.601 83.5,179C 84.5768,179.47 85.5768,179.303 86.5,178.5C 85.7814,180.764 85.448,183.097 85.5,185.5C 84.6981,184.048 84.1981,182.382 84,180.5C 83.1687,187.856 83.3354,195.189 84.5,202.5C 85.7199,202.887 86.3865,203.72 86.5,205C 85.5795,206.064 84.5795,206.564 83.5,206.5C 82.6701,197.342 82.1701,188.009 82,178.5C 81.1934,188.577 81.36,198.577 82.5,208.5C 74.5,208.5 66.5,208.5 58.5,208.5C 47.4298,208.009 39.5964,202.343 35,191.5C 33.8618,178.9 33.3618,166.233 33.5,153.5C 33.6667,141.833 33.8333,130.167 34,118.5C 36.8012,106.567 44.6345,99.9008 57.5,98.5C 78.7605,99.6544 100.094,99.8211 121.5,99C 110.326,98.8305 99.3257,98.3305 88.5,97.5C 88.8333,97.5 89.1667,97.5 89.5,97.5C 93.5,97.5 97.5,97.5 101.5,97.5C 102.167,97.5 102.833,97.5 103.5,97.5C 110.167,97.5 116.833,97.5 123.5,97.5C 126.187,97.6641 128.854,97.4974 131.5,97C 129.059,96.964 127.059,96.1307 125.5,94.5C 120.208,93.5052 114.875,93.1718 109.5,93.5C 106.482,91.537 103.149,91.037 99.5,92C 100.566,93.159 100.233,93.9924 98.5,94.5C 98.1583,93.6618 97.4916,93.3284 96.5,93.5C 96.631,92.7611 96.4643,92.0944 96,91.5C 95.2747,93.158 94.108,93.658 92.5,93C 94.5951,92.4444 94.7618,91.9444 93,91.5C 92.0546,91.9054 91.3879,92.572 91,93.5C 90.6582,91.3808 89.8249,91.0474 88.5,92.5C 88.5,84.5 88.5,76.5 88.5,68.5C 90.328,56.4634 97.328,48.2968 109.5,44C 132.167,43.3333 154.833,43.3333 177.5,44C 189.11,47.2763 196.277,54.7763 199,66.5C 199.667,87.5 199.667,108.5 199,129.5C 198.305,131.722 197.472,133.889 196.5,136C 196.57,136.765 196.903,137.265 197.5,137.5 Z M 193.5,141.5 C 193.473,143.199 192.806,144.533 191.5,145.5C 190.833,145.5 190.167,145.5 189.5,145.5C 190.5,143.833 191.833,142.5 193.5,141.5 Z M 109.5,154.5 C 108.833,154.5 108.167,154.5 107.5,154.5C 107.5,153.833 107.167,153.5 106.5,153.5C 109.519,151.663 112.852,151.163 116.5,152C 113.896,152.39 111.562,153.224 109.5,154.5 Z M 90.5,167.5 C 89.8333,167.833 89.1667,168.167 88.5,168.5C 88.886,166.063 90.0527,164.063 92,162.5C 91.8657,164.189 91.3657,165.856 90.5,167.5 Z M 88.5,168.5 C 88.5386,169.756 88.0386,170.756 87,171.5C 86.4153,170.002 86.9153,169.002 88.5,168.5 Z"/></g>
<g><path style="opacity:1" fill="#f4f5f5" d="M 110.5,57.5 C 120.983,58.1489 124.817,63.4822 122,73.5C 114.818,80.6911 108.484,80.0244 103,71.5C 102.11,64.9429 104.61,60.2762 110.5,57.5 Z"/></g>
<g><path style="opacity:0.041" fill="#fdfdfd" d="M 88.5,68.5 C 88.5,76.5 88.5,84.5 88.5,92.5C 86.5803,84.3545 86.5803,76.3545 88.5,68.5 Z"/></g>
<g><path style="opacity:1" fill="#686869" d="M 543.5,106.5 C 543.5,110.167 543.5,113.833 543.5,117.5C 538.737,117.226 534.07,117.559 529.5,118.5C 527.883,119.589 527.05,121.256 527,123.5C 526.101,143.864 526.435,164.197 528,184.5C 528.785,186.286 529.951,187.786 531.5,189C 535.493,190.851 539.66,192.017 544,192.5C 544.667,195.5 544.667,198.5 544,201.5C 532.899,203.222 523.065,201.055 514.5,195C 514.4,192.645 513.233,190.478 511,188.5C 510.505,186.527 510.338,184.527 510.5,182.5C 510.831,161.327 510.497,140.327 509.5,119.5C 508.791,118.596 507.791,118.263 506.5,118.5C 504.393,117.532 502.059,117.198 499.5,117.5C 498.518,113.861 498.185,110.361 498.5,107C 502.152,106.501 505.818,106.335 509.5,106.5C 509.334,98.16 509.5,89.8267 510,81.5C 515.608,78.7975 521.441,76.7975 527.5,75.5C 526.62,85.8525 526.287,96.0192 526.5,106C 532.157,106.499 537.824,106.666 543.5,106.5 Z"/></g>
<g><path style="opacity:0.183" fill="#777777" d="M 562.5,56.5 C 562.395,92.36 562.395,128.193 562.5,164C 562.7,166.866 562.033,169.366 560.5,171.5C 560.365,133.94 560.032,96.4395 559.5,59C 560.078,57.583 561.078,56.7496 562.5,56.5 Z"/></g>
<g><path style="opacity:0.173" fill="#7b8f9f" d="M 96.5,93.5 C 96.8417,94.3382 97.5084,94.6716 98.5,94.5C 100.233,93.9924 100.566,93.159 99.5,92C 103.149,91.037 106.482,91.537 109.5,93.5C 109.5,93.8333 109.5,94.1667 109.5,94.5C 113.452,95.3116 118.118,95.9783 123.5,96.5C 123.5,96.8333 123.5,97.1667 123.5,97.5C 116.833,97.5 110.167,97.5 103.5,97.5C 102.833,96.1667 102.167,96.1667 101.5,97.5C 97.5,97.5 93.5,97.5 89.5,97.5C 89.3903,95.9018 89.057,94.2352 88.5,92.5C 89.8249,91.0474 90.6582,91.3808 91,93.5C 91.3879,92.572 92.0546,91.9054 93,91.5C 94.7618,91.9444 94.5951,92.4444 92.5,93C 94.108,93.658 95.2747,93.158 96,91.5C 96.4643,92.0944 96.631,92.7611 96.5,93.5 Z"/></g>
<g><path style="opacity:0.075" fill="#406076" d="M 109.5,94.5 C 113.846,94.3343 118.179,94.501 122.5,95C 123.056,95.3826 123.389,95.8826 123.5,96.5C 118.118,95.9783 113.452,95.3116 109.5,94.5 Z"/></g>
<g><path style="opacity:0.816" fill="#b4c2cd" d="M 57.5,98.5 C 67.6532,97.5058 77.9865,97.1724 88.5,97.5C 99.3257,98.3305 110.326,98.8305 121.5,99C 100.094,99.8211 78.7605,99.6544 57.5,98.5 Z"/></g>
<g><path style="opacity:1" fill="#d5ad44" d="M 253.5,121.5 C 252.187,142.791 252.187,164.125 253.5,185.5C 251.601,197.575 244.768,205.575 233,209.5C 231.989,208.663 230.822,208.33 229.5,208.5C 219.519,207.221 209.519,207.221 199.5,208.5C 193.914,208.808 188.414,209.474 183,210.5C 182.5,210 182,209.5 181.5,209C 178.518,208.502 175.518,208.335 172.5,208.5C 172.5,209.5 172.5,210.5 172.5,211.5C 170.751,209.469 168.751,209.135 166.5,210.5C 165.833,209.167 165.167,209.167 164.5,210.5C 160.708,210.597 156.708,210.263 152.5,209.5C 150.143,209.663 147.81,209.497 145.5,209C 146.5,208.667 147.5,208.333 148.5,208C 146.087,207.516 143.754,207.85 141.5,209C 142.928,210.916 143.928,213.083 144.5,215.5C 151.17,214.832 158.004,214.832 165,215.5C 166.167,215.333 167.333,215.167 168.5,215C 166.618,214.802 164.952,214.302 163.5,213.5C 165.969,212.933 168.302,212.933 170.5,213.5C 172.833,213.5 175.167,213.5 177.5,213.5C 177.611,214.117 177.944,214.617 178.5,215C 179.833,215.167 181.167,215.333 182.5,215.5C 186.366,215.148 190.366,214.981 194.5,215C 193.833,213.667 193.167,212.333 192.5,211C 193.094,210.536 193.761,210.369 194.5,210.5C 194.833,210.5 195.167,210.5 195.5,210.5C 196.304,212.009 197.471,213.343 199,214.5C 199.667,223.167 199.667,231.833 199,240.5C 198.321,244.039 197.154,247.372 195.5,250.5C 194.732,249.737 194.232,248.737 194,247.5C 193.29,248.973 192.124,249.64 190.5,249.5C 190.5,250.5 190.5,251.5 190.5,252.5C 185.234,250.871 183.734,247.538 186,242.5C 186.499,238.848 186.665,235.182 186.5,231.5C 184.784,231.371 183.117,231.038 181.5,230.5C 179.002,229.373 176.336,228.706 173.5,228.5C 171.9,228.551 170.4,228.884 169,229.5C 167.915,231.373 166.582,233.04 165,234.5C 163.773,239.062 164.607,243.062 167.5,246.5C 167.532,248.567 168.532,249.9 170.5,250.5C 174.838,249.287 179.171,249.287 183.5,250.5C 180.209,252.721 176.543,253.887 172.5,254C 177.075,255.012 181.408,254.512 185.5,252.5C 185.833,252.833 186.167,253.167 186.5,253.5C 185.846,255.115 185.346,256.782 185,258.5C 178.582,257.357 172.082,257.19 165.5,258C 167.833,258.333 170.167,258.667 172.5,259C 99.1667,260 99.1667,261 172.5,262C 153.167,262.667 133.833,262.667 114.5,262C 108.013,260.854 102.513,258.021 98,253.5C 97.187,251.564 96.687,249.564 96.5,247.5C 94.4352,247.483 92.4352,247.15 90.5,246.5C 89.2511,243.268 88.2511,239.935 87.5,236.5C 87.8603,220.355 87.8603,204.022 87.5,187.5C 88.4816,184.038 88.815,180.371 88.5,176.5C 89.3382,176.158 89.6716,175.492 89.5,174.5C 90.7117,172.093 92.2117,169.76 94,167.5C 95.1475,168.458 96.1475,168.125 97,166.5C 97.3076,167.308 97.8076,167.975 98.5,168.5C 99.5896,167.609 99.5896,166.609 98.5,165.5C 99.7277,163.679 101.394,162.679 103.5,162.5C 103.167,158.677 104.834,157.177 108.5,158C 107.167,158.667 105.833,159.333 104.5,160C 107.847,159.783 111.18,159.116 114.5,158C 113.5,157.667 112.5,157.333 111.5,157C 111.833,156.667 112.167,156.333 112.5,156C 111.584,155.722 110.918,155.222 110.5,154.5C 112.5,154.167 114.5,153.833 116.5,153.5C 116.491,156.136 117.825,157.469 120.5,157.5C 123.525,157.537 126.191,157.203 128.5,156.5C 129.167,156.5 129.833,156.5 130.5,156.5C 134.167,157.833 137.833,157.833 141.5,156.5C 142.167,156.5 142.833,156.5 143.5,156.5C 148.5,157.833 153.5,157.833 158.5,156.5C 159.5,156.5 160.5,156.5 161.5,156.5C 164.649,157.165 167.982,157.498 171.5,157.5C 180.567,159.021 187.9,156.354 193.5,149.5C 198.357,145.919 202.024,140.752 204.5,134C 205.71,131.244 205.71,128.411 204.5,125.5C 203.756,116.873 203.756,107.539 204.5,97.5C 213.506,97.3336 222.506,97.5002 231.5,98C 244.566,100.563 251.899,108.396 253.5,121.5 Z M 175.5,209.5 C 176.167,210.167 176.833,210.833 177.5,211.5C 177.5,212.167 177.5,212.833 177.5,213.5C 175.167,213.5 172.833,213.5 170.5,213.5C 171.167,212.833 171.833,212.167 172.5,211.5C 173.222,210.449 174.222,209.782 175.5,209.5 Z"/></g>
<g><path style="opacity:0.064" fill="#fbfbfb" d="M 483.5,107.5 C 484.833,137.833 484.833,168.167 483.5,198.5C 483.453,168.444 483.453,138.111 483.5,107.5 Z"/></g>
<g><path style="opacity:1" fill="#656666" d="M 611.5,120.5 C 611.631,119.761 611.464,119.094 611,118.5C 610.329,119.252 609.496,119.586 608.5,119.5C 596.863,118.092 586.53,121.759 577.5,130.5C 577.345,153.462 577.512,176.462 578,199.5C 573,200.167 568,200.833 563,201.5C 561.745,200.789 560.579,199.956 559.5,199C 560.485,189.917 560.818,180.751 560.5,171.5C 562.033,169.366 562.7,166.866 562.5,164C 562.395,128.193 562.395,92.36 562.5,56.5C 567.664,54.5423 572.997,53.209 578.5,52.5C 577.031,73.1793 577.197,93.846 579,114.5C 579.576,111.876 580.91,111.209 583,112.5C 596.808,104.762 610.975,103.929 625.5,110C 631.222,114.617 635.056,120.45 637,127.5C 637.172,151.406 637.672,175.239 638.5,199C 637.471,200.698 635.971,201.532 634,201.5C 629.539,200.655 625.039,200.322 620.5,200.5C 620.478,178.792 620.478,157.292 620.5,136C 619.221,129.194 616.221,124.027 611.5,120.5 Z"/></g>
<g><path style="opacity:0.998" fill="#686868" d="M 483.5,107.5 C 483.453,138.111 483.453,168.444 483.5,198.5C 484.126,209.291 482.292,219.624 478,229.5C 475.932,231.396 474.099,233.396 472.5,235.5C 460.211,244.487 446.545,248.82 431.5,248.5C 430.995,245.479 430.328,242.479 429.5,239.5C 429.608,238.558 429.941,237.725 430.5,237C 439.562,236.056 448.229,233.722 456.5,230C 460.619,227.218 463.619,223.551 465.5,219C 465.355,218.228 465.022,217.561 464.5,217C 465.416,216.722 466.082,216.222 466.5,215.5C 467.451,214.081 467.784,212.415 467.5,210.5C 467.427,205.588 467.094,200.922 466.5,196.5C 454.307,201.551 441.64,203.385 428.5,202C 416.432,199.337 408.765,192.17 405.5,180.5C 406.489,157.242 406.823,133.908 406.5,110.5C 408.973,110.912 410.306,109.912 410.5,107.5C 413.655,106.584 416.822,105.584 420,104.5C 421.734,105.466 422.568,106.966 422.5,109C 421.861,119.812 421.528,130.646 421.5,141.5C 421.4,153.54 421.9,165.54 423,177.5C 427.417,186.294 434.583,190.294 444.5,189.5C 452.319,189.283 459.486,186.95 466,182.5C 466.5,157.169 466.667,131.836 466.5,106.5C 472.358,106.178 478.025,106.511 483.5,107.5 Z"/></g>
<g><path style="opacity:1" fill="#686868" d="M 650.5,154.5 C 651.38,152.389 651.38,150.389 650.5,148.5C 650.731,131.935 658.064,118.768 672.5,109C 700.746,97.9671 721.246,106.134 734,133.5C 739.466,152.818 736.799,170.818 726,187.5C 715.986,199.062 703.319,204.396 688,203.5C 662.875,196.498 650.375,180.165 650.5,154.5 Z M 715.5,134.5 C 715.062,134.435 714.728,134.601 714.5,135C 715.066,135.995 715.733,136.828 716.5,137.5C 716.448,139.903 716.781,142.236 717.5,144.5C 717.433,150.267 717.433,155.934 717.5,161.5C 717.141,172.047 713.141,180.88 705.5,188C 687.472,194.963 675.972,189.13 671,170.5C 667.494,157.393 667.827,144.393 672,131.5C 678.526,118.545 688.692,114.378 702.5,119C 709.183,122.184 713.516,127.35 715.5,134.5 Z"/></g>
<g><path style="opacity:1" fill="#666666" d="M 808.5,200.5 C 808.227,178.929 808.561,157.596 809.5,136.5C 809.145,135.478 808.478,134.811 807.5,134.5C 806.648,125.125 801.481,119.125 792,116.5C 782.977,115.434 774.477,117.434 766.5,122.5C 765.732,123.263 765.232,124.263 765,125.5C 764.177,150.572 764.344,175.572 765.5,200.5C 760.167,200.5 754.833,200.5 749.5,200.5C 749.5,200.167 749.5,199.833 749.5,199.5C 750.171,173.098 750.838,146.598 751.5,120C 751.272,119.601 750.938,119.435 750.5,119.5C 767.955,105.441 787.622,101.274 809.5,107C 817.529,110.359 822.696,116.192 825,124.5C 825.667,149.833 825.667,175.167 825,200.5C 819.511,200.589 814.011,200.589 808.5,200.5 Z"/></g>
<g><path style="opacity:1" fill="#666666" d="M 313.5,245.5 C 312.895,243.519 311.895,243.185 310.5,244.5C 309.504,244.586 308.671,244.252 308,243.5C 307.83,202.596 307.33,161.762 306.5,121C 322.893,106.484 341.893,101.484 363.5,106C 373.974,109.807 381.141,116.974 385,127.5C 390.158,143.3 390.825,159.3 387,175.5C 379.302,195.29 365.302,204.624 345,203.5C 338.011,201.615 331.344,198.949 325,195.5C 324.667,213.167 324.333,230.833 324,248.5C 323.586,248.957 323.086,249.291 322.5,249.5C 319.483,248.136 316.483,246.803 313.5,245.5 Z M 369.5,148.5 C 369.371,152.477 369.371,156.143 369.5,159.5C 369.798,169.782 366.464,178.615 359.5,186C 356.852,188.05 353.852,189.216 350.5,189.5C 348.167,189.5 345.833,189.5 343.5,189.5C 336.89,188.741 330.89,186.408 325.5,182.5C 324.334,162.842 324.167,143.175 325,123.5C 336.115,115.882 347.615,114.715 359.5,120C 364.876,125.597 368.043,132.431 369,140.5C 369.2,143.361 369.367,146.028 369.5,148.5 Z"/></g>
<g><path style="opacity:0.816" fill="#818181" d="M 410.5,107.5 C 410.306,109.912 408.973,110.912 406.5,110.5C 406.823,133.908 406.489,157.242 405.5,180.5C 404.171,156.997 404.171,133.33 405.5,109.5C 407.195,108.826 408.862,108.159 410.5,107.5 Z"/></g>
<g><path style="opacity:0.108" fill="#fafafa" d="M 499.5,117.5 C 502.059,117.198 504.393,117.532 506.5,118.5C 504.533,118.261 502.699,118.594 501,119.5C 500.283,118.956 499.783,118.289 499.5,117.5 Z"/></g>
<g><path style="opacity:0.112" fill="#fafafb" d="M 543.5,106.5 C 544.483,110.298 544.817,114.298 544.5,118.5C 539.251,118.641 534.251,118.641 529.5,118.5C 534.07,117.559 538.737,117.226 543.5,117.5C 543.5,113.833 543.5,110.167 543.5,106.5 Z"/></g>
<g><path style="opacity:0.171" fill="#fefefe" d="M 509.5,119.5 C 510.497,140.327 510.831,161.327 510.5,182.5C 509.711,182.217 509.044,181.717 508.5,181C 509.493,160.576 509.827,140.076 509.5,119.5 Z"/></g>
<g><path style="opacity:0.114" fill="#e2e2e5" d="M 611.5,120.5 C 610.209,120.737 609.209,120.404 608.5,119.5C 609.496,119.586 610.329,119.252 611,118.5C 611.464,119.094 611.631,119.761 611.5,120.5 Z"/></g>
<g><path style="opacity:0.172" fill="#fefdfe" d="M 749.5,119.5 C 749.5,146.167 749.5,172.833 749.5,199.5C 749.5,199.833 749.5,200.167 749.5,200.5C 748.711,200.217 748.044,199.717 747.5,199C 748.162,172.402 748.829,145.902 749.5,119.5 Z"/></g>
<g><path style="opacity:0.811" fill="#989899" d="M 749.5,119.5 C 749.833,119.5 750.167,119.5 750.5,119.5C 750.938,119.435 751.272,119.601 751.5,120C 750.838,146.598 750.171,173.098 749.5,199.5C 749.5,172.833 749.5,146.167 749.5,119.5 Z"/></g>
<g><path style="opacity:0.82" fill="#ebd09d" d="M 253.5,121.5 C 254.833,142.833 254.833,164.167 253.5,185.5C 252.187,164.125 252.187,142.791 253.5,121.5 Z"/></g>
<g><path style="opacity:0.816" fill="#bcbcbc" d="M 766.5,122.5 C 766.831,148.672 766.498,174.672 765.5,200.5C 764.344,175.572 764.177,150.572 765,125.5C 765.232,124.263 765.732,123.263 766.5,122.5 Z"/></g>
<g><path style="opacity:0.074" fill="#fefefc" d="M 715.5,134.5 C 716.404,135.209 716.737,136.209 716.5,137.5C 715.733,136.828 715.066,135.995 714.5,135C 714.728,134.601 715.062,134.435 715.5,134.5 Z"/></g>
<g><path style="opacity:0.066" fill="#f9f9f9" d="M 807.5,134.5 C 808.478,134.811 809.145,135.478 809.5,136.5C 808.561,157.596 808.227,178.929 808.5,200.5C 807.503,178.673 807.169,156.673 807.5,134.5 Z"/></g>
<g><path style="opacity:0.112" fill="#f7f7f8" d="M 717.5,144.5 C 718.833,150.167 718.833,155.833 717.5,161.5C 717.433,155.934 717.433,150.267 717.5,144.5 Z"/></g>
<g><path style="opacity:0.067" fill="#6e7a7a" d="M 189.5,145.5 C 190.167,145.5 190.833,145.5 191.5,145.5C 191.027,146.906 190.027,147.573 188.5,147.5C 188.833,146.833 189.167,146.167 189.5,145.5 Z"/></g>
<g><path style="opacity:0.11" fill="#ad9a68" d="M 188.5,147.5 C 188.414,148.496 188.748,149.329 189.5,150C 188.069,150.465 186.903,151.299 186,152.5C 184.644,151.62 183.144,151.286 181.5,151.5C 183.635,149.929 185.968,148.596 188.5,147.5 Z"/></g>
<g><path style="opacity:0.098" fill="#eaebec" d="M 369.5,148.5 C 372.065,152.199 372.065,155.865 369.5,159.5C 369.371,156.143 369.371,152.477 369.5,148.5 Z"/></g>
<g><path style="opacity:0.416" fill="#cbac57" d="M 204.5,125.5 C 205.71,128.411 205.71,131.244 204.5,134C 202.024,140.752 198.357,145.919 193.5,149.5C 187.9,156.354 180.567,159.021 171.5,157.5C 167.982,157.498 164.649,157.165 161.5,156.5C 164.641,155.679 167.975,155.179 171.5,155C 170.584,154.722 169.918,154.222 169.5,153.5C 172.385,153.806 175.052,153.473 177.5,152.5C 178.833,152.167 180.167,151.833 181.5,151.5C 183.144,151.286 184.644,151.62 186,152.5C 186.903,151.299 188.069,150.465 189.5,150C 188.748,149.329 188.414,148.496 188.5,147.5C 190.027,147.573 191.027,146.906 191.5,145.5C 192.5,145.5 193.5,145.5 194.5,145.5C 194.957,142.594 195.957,139.928 197.5,137.5C 199.594,133.454 200.594,129.121 200.5,124.5C 201.959,124.433 203.292,124.766 204.5,125.5 Z"/></g>
<g><path style="opacity:0.036" fill="#f3f2f2" d="M 650.5,148.5 C 651.38,150.389 651.38,152.389 650.5,154.5C 649.167,152.5 649.167,150.5 650.5,148.5 Z"/></g>
<g><path style="opacity:0.043" fill="#6a7a83" d="M 106.5,153.5 C 107.167,153.5 107.5,153.833 107.5,154.5C 106.486,155.674 105.153,156.34 103.5,156.5C 104.306,155.272 105.306,154.272 106.5,153.5 Z"/></g>
<g><path style="opacity:0.225" fill="#d1b66c" d="M 116.5,153.5 C 118.167,153.5 119.833,153.5 121.5,153.5C 123.508,155.083 125.841,156.083 128.5,156.5C 126.191,157.203 123.525,157.537 120.5,157.5C 117.825,157.469 116.491,156.136 116.5,153.5 Z"/></g>
<g><path style="opacity:0.824" fill="#dbc78e" d="M 141.5,156.5 C 137.833,157.833 134.167,157.833 130.5,156.5C 134.167,155.167 137.833,155.167 141.5,156.5 Z"/></g>
<g><path style="opacity:0.824" fill="#dac78e" d="M 158.5,156.5 C 153.5,157.833 148.5,157.833 143.5,156.5C 148.5,155.167 153.5,155.167 158.5,156.5 Z"/></g>
<g><path style="opacity:0.047" fill="#c2a550" d="M 107.5,154.5 C 108.167,154.5 108.833,154.5 109.5,154.5C 109.833,154.5 110.167,154.5 110.5,154.5C 110.918,155.222 111.584,155.722 112.5,156C 112.167,156.333 111.833,156.667 111.5,157C 112.5,157.333 113.5,157.667 114.5,158C 111.18,159.116 107.847,159.783 104.5,160C 105.833,159.333 107.167,158.667 108.5,158C 104.834,157.177 103.167,158.677 103.5,162.5C 101.394,162.679 99.7277,163.679 98.5,165.5C 99.5896,166.609 99.5896,167.609 98.5,168.5C 97.8076,167.975 97.3076,167.308 97,166.5C 96.1475,168.125 95.1475,168.458 94,167.5C 92.2117,169.76 90.7117,172.093 89.5,174.5C 88.6618,174.842 88.3284,175.508 88.5,176.5C 88.815,180.371 88.4816,184.038 87.5,187.5C 87.6621,185.473 87.4955,183.473 87,181.5C 86.79,183.058 86.29,184.391 85.5,185.5C 85.448,183.097 85.7814,180.764 86.5,178.5C 86.5,177.5 86.5,176.5 86.5,175.5C 88.341,173.151 89.6743,170.485 90.5,167.5C 92.6326,165.909 94.2993,163.909 95.5,161.5C 97.4844,158.836 100.151,157.169 103.5,156.5C 105.153,156.34 106.486,155.674 107.5,154.5 Z"/></g>
<g><path style="opacity:0.82" fill="#91a4b2" d="M 83.5,206.5 C 83.6716,207.492 83.3382,208.158 82.5,208.5C 81.36,198.577 81.1934,188.577 82,178.5C 82.1701,188.009 82.6701,197.342 83.5,206.5 Z"/></g>
<g><path style="opacity:0.69" fill="#d1d4d7" d="M 343.5,189.5 C 345.833,189.5 348.167,189.5 350.5,189.5C 350.38,190.586 349.713,191.253 348.5,191.5C 346.578,191.199 344.912,190.533 343.5,189.5 Z"/></g>
<g><path style="opacity:0.069" fill="#fcfcfc" d="M 58.5,208.5 C 66.5,208.5 74.5,208.5 82.5,208.5C 78.6347,209.224 74.6347,209.891 70.5,210.5C 66.3653,209.891 62.3653,209.224 58.5,208.5 Z"/></g>
<g><path style="opacity:0.134" fill="#f7f1e1" d="M 229.5,208.5 C 219.681,209.494 209.681,209.827 199.5,209.5C 199.5,209.167 199.5,208.833 199.5,208.5C 209.519,207.221 219.519,207.221 229.5,208.5 Z"/></g>
<g><path style="opacity:0.209" fill="#dac182" d="M 152.5,209.5 C 156.708,210.263 160.708,210.597 164.5,210.5C 165.167,210.5 165.833,210.5 166.5,210.5C 168.751,209.135 170.751,209.469 172.5,211.5C 171.833,212.167 171.167,212.833 170.5,213.5C 168.302,212.933 165.969,212.933 163.5,213.5C 163.389,212.883 163.056,212.383 162.5,212C 161.167,211.833 159.833,211.667 158.5,211.5C 155.165,212.353 151.832,212.853 148.5,213C 147.167,212.333 147.167,211.667 148.5,211C 150.058,210.79 151.391,210.29 152.5,209.5 Z"/></g>
<g><path style="opacity:0.125" fill="#f9f9fa" d="M 467.5,210.5 C 467.784,212.415 467.451,214.081 466.5,215.5C 465.128,213.523 465.462,211.856 467.5,210.5 Z"/></g>
<g><path style="opacity:0.361" fill="#d3b35d" d="M 152.5,209.5 C 151.391,210.29 150.058,210.79 148.5,211C 147.167,211.667 147.167,212.333 148.5,213C 151.832,212.853 155.165,212.353 158.5,211.5C 159.833,211.667 161.167,211.833 162.5,212C 163.056,212.383 163.389,212.883 163.5,213.5C 164.952,214.302 166.618,214.802 168.5,215C 167.333,215.167 166.167,215.333 165,215.5C 158.004,214.832 151.17,214.832 144.5,215.5C 143.928,213.083 142.928,210.916 141.5,209C 143.754,207.85 146.087,207.516 148.5,208C 147.5,208.333 146.5,208.667 145.5,209C 147.81,209.497 150.143,209.663 152.5,209.5 Z"/></g>
<g><path style="opacity:0.325" fill="#d5b766" d="M 199.5,208.5 C 199.5,208.833 199.5,209.167 199.5,209.5C 198.041,209.433 196.708,209.766 195.5,210.5C 195.167,209.167 194.833,209.167 194.5,210.5C 193.761,210.369 193.094,210.536 192.5,211C 193.167,212.333 193.833,213.667 194.5,215C 190.366,214.981 186.366,215.148 182.5,215.5C 181.167,215.333 179.833,215.167 178.5,215C 177.944,214.617 177.611,214.117 177.5,213.5C 177.5,212.833 177.5,212.167 177.5,211.5C 178.167,211.167 178.833,210.833 179.5,210.5C 180.833,210.167 180.833,209.833 179.5,209.5C 178.167,209.5 176.833,209.5 175.5,209.5C 174.222,209.782 173.222,210.449 172.5,211.5C 172.5,210.5 172.5,209.5 172.5,208.5C 175.518,208.335 178.518,208.502 181.5,209C 182,209.5 182.5,210 183,210.5C 188.414,209.474 193.914,208.808 199.5,208.5 Z"/></g>
<g><path style="opacity:0.004" fill="#c5c4c7" d="M 175.5,209.5 C 176.833,209.5 178.167,209.5 179.5,209.5C 179.5,209.833 179.5,210.167 179.5,210.5C 178.833,210.833 178.167,211.167 177.5,211.5C 176.833,210.833 176.167,210.167 175.5,209.5 Z"/></g>
<g><path style="opacity:1" fill="#f8f7f4" d="M 181.5,230.5 C 187.702,243.147 183.702,248.98 169.5,248C 168.956,247.283 168.289,246.783 167.5,246.5C 164.607,243.062 163.773,239.062 165,234.5C 166.582,233.04 167.915,231.373 169,229.5C 170.4,228.884 171.9,228.551 173.5,228.5C 176.336,228.706 179.002,229.373 181.5,230.5 Z"/></g>
<g><path style="opacity:0.004" fill="#d7d6dc" d="M 472.5,235.5 C 473.833,236.167 473.833,236.167 472.5,235.5 Z"/></g>
<g><path style="opacity:0.081" fill="#f4f3f1" d="M 313.5,245.5 C 312.209,245.737 311.209,245.404 310.5,244.5C 311.895,243.185 312.895,243.519 313.5,245.5 Z"/></g>
<g><path style="opacity:1" fill="#d1af48" d="M 181.5,230.5 C 183.117,231.038 184.784,231.371 186.5,231.5C 186.665,235.182 186.499,238.848 186,242.5C 183.734,247.538 185.234,250.871 190.5,252.5C 190.5,251.5 190.5,250.5 190.5,249.5C 192.124,249.64 193.29,248.973 194,247.5C 194.232,248.737 194.732,249.737 195.5,250.5C 191.057,256.89 185.057,261.056 177.5,263C 156.169,263.5 134.836,263.667 113.5,263.5C 111.784,263.371 110.117,263.038 108.5,262.5C 104.433,260.969 100.433,259.136 96.5,257C 96.8333,256.667 97.1667,256.333 97.5,256C 93.7656,253.212 91.4323,250.045 90.5,246.5C 92.4352,247.15 94.4352,247.483 96.5,247.5C 96.687,249.564 97.187,251.564 98,253.5C 102.513,258.021 108.013,260.854 114.5,262C 133.833,262.667 153.167,262.667 172.5,262C 99.1667,261 99.1667,260 172.5,259C 170.167,258.667 167.833,258.333 165.5,258C 172.082,257.19 178.582,257.357 185,258.5C 185.346,256.782 185.846,255.115 186.5,253.5C 186.167,253.167 185.833,252.833 185.5,252.5C 181.408,254.512 177.075,255.012 172.5,254C 176.543,253.887 180.209,252.721 183.5,250.5C 179.171,249.287 174.838,249.287 170.5,250.5C 168.532,249.9 167.532,248.567 167.5,246.5C 168.289,246.783 168.956,247.283 169.5,248C 183.702,248.98 187.702,243.147 181.5,230.5 Z"/></g>
<g><path style="opacity:0.004" fill="#d5d4d7" d="M 108.5,262.5 C 110.117,263.038 111.784,263.371 113.5,263.5C 111.545,264.93 109.879,264.597 108.5,262.5 Z"/></g>
</svg>
