<?xml version="1.0" encoding="utf-8"?>
<!-- Generator: Adobe Illustrator 27.3.1, SVG Export Plug-In . SVG Version: 6.00 Build 0)  -->
<svg version="1.1" id="Layer_1" xmlns="http://www.w3.org/2000/svg" xmlns:xlink="http://www.w3.org/1999/xlink" x="0px" y="0px"
	 viewBox="0 0 220 100" style="enable-background:new 0 0 220 100;" xml:space="preserve">
<style type="text/css">
	.st0{opacity:8.000000e-03;fill-rule:evenodd;clip-rule:evenodd;fill:#D2FDFE;enable-background:new    ;}
	.st1{opacity:0.997;fill-rule:evenodd;clip-rule:evenodd;fill:#F28016;enable-background:new    ;}
	.st2{opacity:0.953;fill-rule:evenodd;clip-rule:evenodd;fill:#EE8932;enable-background:new    ;}
	.st3{opacity:7.500000e-02;fill-rule:evenodd;clip-rule:evenodd;fill:#D4FDFE;enable-background:new    ;}
	.st4{fill-rule:evenodd;clip-rule:evenodd;fill:#597D99;}
	.st5{opacity:4.100000e-02;fill-rule:evenodd;clip-rule:evenodd;fill:#FAFEFE;enable-background:new    ;}
	.st6{opacity:6.500000e-02;fill-rule:evenodd;clip-rule:evenodd;fill:#F7FEFE;enable-background:new    ;}
	.st7{opacity:0.259;fill-rule:evenodd;clip-rule:evenodd;fill:#EF8C39;enable-background:new    ;}
	.st8{opacity:0.998;fill-rule:evenodd;clip-rule:evenodd;fill:#F28018;enable-background:new    ;}
	.st9{opacity:3.700000e-02;fill-rule:evenodd;clip-rule:evenodd;fill:#F9FEFE;enable-background:new    ;}
	.st10{opacity:4.600000e-02;fill-rule:evenodd;clip-rule:evenodd;fill:#EDFEFE;enable-background:new    ;}
	.st11{opacity:5.100000e-02;fill-rule:evenodd;clip-rule:evenodd;fill:#E5FDFD;enable-background:new    ;}
	.st12{opacity:5.100000e-02;fill-rule:evenodd;clip-rule:evenodd;fill:#FCFFFE;enable-background:new    ;}
	.st13{opacity:4.600000e-02;fill-rule:evenodd;clip-rule:evenodd;fill:#FCFEFE;enable-background:new    ;}
	.st14{opacity:0.459;fill-rule:evenodd;clip-rule:evenodd;fill:#91A8BA;enable-background:new    ;}
	.st15{fill-rule:evenodd;clip-rule:evenodd;fill:#577C98;}
	.st16{fill-rule:evenodd;clip-rule:evenodd;fill:#597E99;}
	.st17{opacity:6.900000e-02;fill-rule:evenodd;clip-rule:evenodd;fill:#EDFEFE;enable-background:new    ;}
	.st18{fill-rule:evenodd;clip-rule:evenodd;fill:#567C98;}
	.st19{opacity:5.800000e-02;fill-rule:evenodd;clip-rule:evenodd;fill:#FCFEFE;enable-background:new    ;}
	.st20{opacity:4.000000e-03;fill-rule:evenodd;clip-rule:evenodd;fill:#F6FDFD;enable-background:new    ;}
	.st21{opacity:6.900000e-02;fill-rule:evenodd;clip-rule:evenodd;fill:#FBFEFE;enable-background:new    ;}
	.st22{opacity:6.700000e-02;fill-rule:evenodd;clip-rule:evenodd;fill:#FDFFFE;enable-background:new    ;}
	.st23{opacity:4.900000e-02;fill-rule:evenodd;clip-rule:evenodd;fill:#FAFEFE;enable-background:new    ;}
	.st24{opacity:0.953;fill-rule:evenodd;clip-rule:evenodd;fill:#EF8B35;enable-background:new    ;}
	.st25{opacity:0.646;fill-rule:evenodd;clip-rule:evenodd;fill:#EE8A33;enable-background:new    ;}
	.st26{opacity:7.400000e-02;fill-rule:evenodd;clip-rule:evenodd;fill:#F4FEFE;enable-background:new    ;}
	.st27{opacity:5.200000e-02;fill-rule:evenodd;clip-rule:evenodd;fill:#EDFEFE;enable-background:new    ;}
	.st28{opacity:2.300000e-02;fill-rule:evenodd;clip-rule:evenodd;fill:#FBFEFE;enable-background:new    ;}
	.st29{opacity:0.647;fill-rule:evenodd;clip-rule:evenodd;fill:#EF8B34;enable-background:new    ;}
	.st30{opacity:5.100000e-02;fill-rule:evenodd;clip-rule:evenodd;fill:#FCFEFE;enable-background:new    ;}
	.st31{opacity:0.647;fill-rule:evenodd;clip-rule:evenodd;fill:#6E8CA3;enable-background:new    ;}
	.st32{opacity:4.600000e-02;fill-rule:evenodd;clip-rule:evenodd;fill:#FBFEFE;enable-background:new    ;}
	.st33{opacity:0.345;fill-rule:evenodd;clip-rule:evenodd;fill:#7B96AC;enable-background:new    ;}
	.st34{opacity:0.62;fill-rule:evenodd;clip-rule:evenodd;fill:#EE8A33;enable-background:new    ;}
	.st35{opacity:8.000000e-03;fill-rule:evenodd;clip-rule:evenodd;fill:#F8FEFE;enable-background:new    ;}
	.st36{opacity:5.900000e-02;fill-rule:evenodd;clip-rule:evenodd;fill:#F4FEFE;enable-background:new    ;}
	.st37{opacity:0.953;fill-rule:evenodd;clip-rule:evenodd;fill:#718EA5;enable-background:new    ;}
	.st38{opacity:4.700000e-02;fill-rule:evenodd;clip-rule:evenodd;fill:#FBFEFE;enable-background:new    ;}
	.st39{opacity:6.900000e-02;fill-rule:evenodd;clip-rule:evenodd;fill:#FCFEFE;enable-background:new    ;}
	.st40{opacity:0.906;fill-rule:evenodd;clip-rule:evenodd;fill:#6D8CA3;enable-background:new    ;}
	.st41{fill-rule:evenodd;clip-rule:evenodd;fill:#60839C;}
	.st42{opacity:7.800000e-02;fill-rule:evenodd;clip-rule:evenodd;fill:#F9FEFE;enable-background:new    ;}
	.st43{opacity:7.500000e-02;fill-rule:evenodd;clip-rule:evenodd;fill:#F9FEFE;enable-background:new    ;}
	.st44{opacity:0.529;fill-rule:evenodd;clip-rule:evenodd;fill:#7C97AD;enable-background:new    ;}
	.st45{fill-rule:evenodd;clip-rule:evenodd;fill:#5E819C;}
	.st46{opacity:0.365;fill-rule:evenodd;clip-rule:evenodd;fill:#829DB1;enable-background:new    ;}
	.st47{opacity:0.455;fill-rule:evenodd;clip-rule:evenodd;fill:#7491A7;enable-background:new    ;}
	.st48{opacity:0.994;fill-rule:evenodd;clip-rule:evenodd;fill:#7390A7;enable-background:new    ;}
	.st49{fill-rule:evenodd;clip-rule:evenodd;fill:#5C809B;}
	.st50{opacity:4.000000e-02;fill-rule:evenodd;clip-rule:evenodd;fill:#FCFEFE;enable-background:new    ;}
	.st51{opacity:6.400000e-02;fill-rule:evenodd;clip-rule:evenodd;fill:#FBFEFE;enable-background:new    ;}
	.st52{opacity:4.200000e-02;fill-rule:evenodd;clip-rule:evenodd;fill:#FBFEFE;enable-background:new    ;}
	.st53{opacity:5.700000e-02;fill-rule:evenodd;clip-rule:evenodd;fill:#FAFEFE;enable-background:new    ;}
	.st54{opacity:9.900000e-02;fill-rule:evenodd;clip-rule:evenodd;fill:#FDFFFE;enable-background:new    ;}
	.st55{opacity:0.98;fill-rule:evenodd;clip-rule:evenodd;fill:#6989A0;enable-background:new    ;}
	.st56{opacity:0.995;fill-rule:evenodd;clip-rule:evenodd;fill:#61839D;enable-background:new    ;}
	.st57{opacity:0.986;fill-rule:evenodd;clip-rule:evenodd;fill:#65869E;enable-background:new    ;}
	.st58{opacity:8.000000e-03;fill-rule:evenodd;clip-rule:evenodd;fill:#FCFFFE;enable-background:new    ;}
	.st59{opacity:0.51;fill-rule:evenodd;clip-rule:evenodd;fill:#67879F;enable-background:new    ;}
	.st60{opacity:7.800000e-02;fill-rule:evenodd;clip-rule:evenodd;fill:#FDFEFE;enable-background:new    ;}
</style>
<g>
	<path class="st0" d="M51.3,2.8c0.3,0.3,0.3,0.4,0,0.6C51,3.1,51,2.9,51.3,2.8z"/>
</g>
<g>
	<path class="st1" d="M49.1,21.5c-0.2,0.6-0.6,0.9-1.1,1.1c-0.2-0.2-0.4-0.4-0.7-0.6C46,23,44.9,24,44,25.2c-1,0.8-2,1.6-3.1,2.3
		c-0.5,0.7-0.7,1.4-0.6,2.3c-0.4,0.2-0.7,0.5-0.9,0.9c-0.3,0-0.5-0.1-0.6-0.4c0.3-0.6,0.6-1,1.1-1.4c-0.1,0-0.2-0.1-0.3-0.1
		c-2.5,2.2-4.3,4.8-5.5,8c-0.3,2.4-0.1,4.7,0.7,7c1.1,2.4,2.4,4.6,4,6.7c0,0.1-0.1,0.2-0.1,0.3c-0.6-0.9-1.2-1-1.8-0.3
		c-0.2,0-0.3-0.1-0.3-0.3c-0.1-0.4-0.1-0.9,0-1.4c-2.3-2.3-4.3-5.1-5.8-8.2c-0.9-3.1-0.5-6,1.4-8.5c2-1.9,3.8-3.8,5.3-5.5
		c-0.3,0.4-0.2,0.5,0.3,0.3c1.3-1,2.6-2.2,3.7-3.4c-0.2-0.3-0.3-0.6-0.3-1c0.4,0,0.6-0.2,0.6-0.6c0.2-0.1,0.4-0.2,0.6-0.3
		c0.4,0.3,0.9,0.5,1.4,0.4c3.7-2.8,6.5-6.3,8.2-10.5c0.2-0.9,0.5-1.8,0.9-2.7c-0.1-0.2-0.2-0.3-0.3-0.4c0.2-0.8,0.4-1.6,0.4-2.4
		c0.8,2,0.9,4.1,0.3,6.3c-0.7,2.9-2,5.5-4,7.7c-0.2,0.4-0.1,0.8,0.1,1.1c-0.2,0.2-0.4,0.4-0.6,0.6C48.8,21.4,48.9,21.5,49.1,21.5z"
		/>
</g>
<g>
	<path class="st2" d="M49.1,21.5c-0.2,0-0.2-0.1-0.3-0.3c0.2-0.2,0.4-0.4,0.6-0.6c-0.3-0.4-0.3-0.7-0.1-1.1c2-2.2,3.3-4.8,4-7.7
		c0.6-2.1,0.5-4.2-0.3-6.3c-0.1,0.8-0.2,1.6-0.4,2.4c0.1,0.1,0.2,0.3,0.3,0.4c-0.3,0.9-0.6,1.8-0.9,2.7c-1.8,4.2-4.5,7.7-8.2,10.5
		c-0.5,0.1-1-0.1-1.4-0.4c0-0.2,0.1-0.3,0.3-0.3c0.4,0,0.6-0.2,0.6-0.6c4.3-3.2,7.1-7.3,8.5-12.5c0.1-1.5,0-3-0.3-4.5
		c0.3-0.1,0.3-0.3,0-0.6c0.2-0.5,0.6-0.7,1.1-0.4c2.2,2.7,2.9,5.8,2.1,9.2C53.7,15.4,51.8,18.7,49.1,21.5z"/>
</g>
<g>
	<path class="st3" d="M43.1,20.4c0,0.4-0.2,0.6-0.6,0.6C42.6,20.7,42.8,20.5,43.1,20.4z"/>
</g>
<g>
	<path class="st4" d="M117.3,66.7c-0.3,0.4-0.6,0.4-0.9,0c-0.1,0.2-0.2,0.4-0.3,0.6c-0.7,1.7-1.1,3.6-1.4,5.7
		c-0.5-0.3-0.8-0.1-1.1,0.4c0.1,0.1,0.2,0.2,0.3,0.3c-0.5,0.1-1,0.3-1.4,0.6c-0.8,0.9-1.6,1.6-2.6,2.3c0.1,0.1,0.2,0.2,0.3,0.3
		c-1.3,0.8-2.7,1.3-4.3,1.6c-0.4-0.3-0.7-0.8-0.9-1.3c-0.5-0.2-0.9-0.4-1.4-0.6c0.2-0.5,0-1-0.6-1.4c0.6-0.5,1.2-0.8,2-0.7
		c0.1-0.9,0.7-1.6,1.6-2c0.4-1,1-1.9,1.6-2.8c0.3-0.5,0.4-1.1,0.3-1.7c0.2-1.3,0.3-2.6,0.4-4c0.1-14.4,0.2-28.8,0.3-43.2
		c0.1-0.1,0.3-0.3,0.4-0.4c2.6-0.2,5.1-0.2,7.7,0c0.1,0.1,0.3,0.3,0.4,0.4c0.2,13.9,0.2,27.9,0,41.8
		C117.6,63.9,117.5,65.3,117.3,66.7z"/>
</g>
<g>
	<path class="st5" d="M41.7,21.5c0,0.4-0.2,0.6-0.6,0.6C41.2,21.8,41.4,21.6,41.7,21.5z"/>
</g>
<g>
	<path class="st6" d="M62.2,21.8c-0.5,0.2-1.1,0.3-1.7,0.3c0.4-0.2,0.9-0.4,1.4-0.6C62,21.5,62.1,21.6,62.2,21.8z"/>
</g>
<g>
	<path class="st7" d="M47.9,22.7c-2.3,2.6-4.8,5-7.7,7.1c-0.1-0.8,0.1-1.6,0.6-2.3c1.1-0.7,2.1-1.4,3.1-2.3c1-1.2,2-2.2,3.3-3.1
		C47.5,22.2,47.8,22.4,47.9,22.7z"/>
</g>
<g>
	<path class="st8" d="M48.5,35.2c0,1.2,0.1,2.3,0.3,3.4c-0.3,0.7-0.6,0.7-1,0c0.1,0.9,0.3,1.8,0.9,2.6c1.1,1.7,2.3,3.4,3.4,5.1
		c0.2,1.1,0.4,2.3,0.6,3.4c0.1-0.9,0.2-1.7,0.3-2.6c0.1,0.1,0.2,0.2,0.3,0.3c0.1-0.3,0.2-0.4,0.4-0.6c0.4,1.7,0.1,3.4-0.9,4.8
		c-0.5,0.2-0.6,0.6-0.6,1.1c-1.1-0.3-1.9,0.1-2.3,1.1c-0.5,0.2-0.9,0.5-1.3,0.9c0.2-1.6,0.1-3.1-0.1-4.7c-0.6-0.6-0.9-1.3-1-2.1
		c-3.6-3.6-5-7.7-4.3-12.5c0.8-1.5,1.7-2.9,2.7-4.3c1.8-1.7,3.8-3.2,6-4.4c1.1-0.6,2.3-1.1,3.6-1.6c0.1,0.1,0.3,0.2,0.4,0.3
		c-2.5,2.1-5,4.2-7.2,6.5c-0.4,0.7-0.7,1.3-1,2c0.1,0.3,0.3,0.3,0.6,0C48.5,34.4,48.6,34.7,48.5,35.2z"/>
</g>
<g>
	<path class="st9" d="M52.2,25.2c0,0.4-0.2,0.6-0.6,0.6C51.7,25.5,51.9,25.3,52.2,25.2z"/>
</g>
<g>
	<path class="st10" d="M50.8,26.1c-0.1,0.4-0.4,0.6-0.9,0.6C50.2,26.4,50.4,26.2,50.8,26.1z"/>
</g>
<g>
	<path class="st11" d="M47.7,28.1c0,0.4-0.2,0.6-0.6,0.6C47.2,28.3,47.4,28.1,47.7,28.1z"/>
</g>
<g>
	<path class="st12" d="M45.1,30.6c0,0.4-0.2,0.6-0.6,0.6C44.6,30.9,44.8,30.7,45.1,30.6z"/>
</g>
<g>
	<path class="st13" d="M140.3,31.7c0.8,0,1.6,0.2,2.3,0.6C141.7,32.4,141,32.2,140.3,31.7z"/>
</g>
<g>
	<path class="st14" d="M196,31.7c2.6-0.3,5.3-0.4,8-0.1c1.9,0.4,3.6,1.2,5.1,2.4c-0.3,0.1-0.7,0.1-1,0.3c-1.6-0.7-3.3-1.3-5-1.6
		c-0.1-0.1-0.2-0.2-0.3-0.3c1.1-0.2,1.1-0.4,0-0.4c-0.4,0.1-0.8,0.2-1,0.6c-1-0.2-2-0.4-3-0.4c0.9-0.1,1.7-0.2,2.6-0.3
		C199.6,31.7,197.8,31.7,196,31.7z"/>
</g>
<g>
	<path class="st15" d="M140.3,31.7c0.7,0.4,1.4,0.6,2.3,0.6c4.9,1.8,7.2,5.4,7.1,10.7c0,7.8,0,15.5,0,23.3c-0.2,0.6-0.6,0.9-1.1,1.1
		c-1.6,0.2-3.2,0.2-4.8,0c-0.4-0.1-0.7-0.4-1-0.7c0-0.8-0.2-1.6-0.6-2.3c-3.7,3-7.9,4.2-12.6,3.4c-1.3-1.1-2.6-2.1-4-3
		c-0.4-0.1-0.8,0-1,0.4c-0.2-0.3-0.4-0.4-0.7-0.6c-1-1-1.7-2.3-2.1-3.7c-1-5,0.5-9,4.4-12.1c0.6-0.5,1.3-0.8,2-1
		c0.5,0.1,0.9-0.1,1.1-0.6c2.4-0.9,5-1.4,7.7-1.4c1.5,0,3,0,4.5,0c0.1-1.4,0-2.7-0.3-4c-0.3-1.7-1.2-2.9-2.8-3.6
		c-4.4-0.8-8.7-0.3-12.9,1.3c-1-0.3-1.4-0.9-1.3-2c0.1-0.7-0.1-1.3-0.6-1.7c-0.4-0.7-0.3-1.3,0.3-1.8
		C129.1,31.7,134.6,30.9,140.3,31.7z M136.9,51.6c1.4,0,2.8,0,4.3,0c0,2.4,0,4.7,0,7.1c-2.4,2-5.1,2.9-8.2,2.7
		c-2.2-0.7-3.3-2.2-3.1-4.5c0-2.7,1.3-4.3,4-4.8C134.8,51.9,135.9,51.8,136.9,51.6z"/>
</g>
<g>
	<path class="st16" d="M196,31.7c1.8,0,3.6,0,5.4,0.1c-0.9,0.1-1.7,0.2-2.6,0.3c1,0.1,2,0.2,3,0.4c0.2-0.3,0.6-0.5,1-0.6
		c1.1,0.1,1.1,0.2,0,0.4c0.1,0.1,0.2,0.2,0.3,0.3c1.7,0.3,3.4,0.8,5,1.6c0.3-0.1,0.7-0.2,1-0.3c0.2,0.4,0.5,0.7,0.9,0.9
		c0.7,0.3,1.2,0.9,1.4,1.7c0,0.4,0.2,0.7,0.6,0.9c0.5,0.9,0.8,1.8,1,2.8c0.2,8.9,0.2,17.8,0,26.7c-0.2,0.2-0.5,0.3-0.7,0.4
		c-1.7,0.2-3.4,0.2-5.1,0c-0.5-0.1-0.9-0.5-1-1c-0.1-0.8-0.2-1.5-0.3-2.3c-5.4,4.4-11.1,5.1-17.2,2.1c-3.3-2.9-4.4-6.6-3.6-10.9
		c1.4-4.8,4.6-7.7,9.5-8.7c3.4-0.7,6.8-1,10.2-1c0.1-1.7-0.2-3.5-0.7-5.1c-0.5-1-1.3-1.7-2.4-2.1c-4.5-0.7-8.8-0.3-13.1,1.3
		c-0.4,0-0.8-0.2-1-0.6c-0.4-1.3-0.7-2.6-1-4c0-0.4,0.2-0.8,0.6-1C190,32.9,193,32.1,196,31.7z M204.6,51.4c0.3,2.3,0.4,4.7,0.1,7.1
		c-2.6,2.5-5.7,3.4-9.2,2.7c-1.6-0.9-2.4-2.3-2.3-4.3c0-2.7,1.3-4.3,4-4.8C199.7,51.8,202.1,51.6,204.6,51.4z"/>
</g>
<g>
	<path class="st17" d="M43.1,33.2c0.1,0.5-0.1,0.9-0.6,1.1C42.6,33.8,42.8,33.5,43.1,33.2z"/>
</g>
<g>
	<path class="st18" d="M161.4,33.7c-0.1,0.7,0.1,1.3,0.6,1.7c1.2,3.3,2.2,6.7,3.1,10.2c-0.1,0.7,0.1,1.3,0.6,1.7
		c1.1,3.2,2.1,6.4,3,9.7c1.1-2.7,2-5.5,2.7-8.2c0.4,0.5,0.8,0.6,1.3,0.3c0-1.2,0-2.5,0-3.7c0.3-0.3,0.5-0.2,0.6,0.3
		c0.2-0.6,0-1.1-0.4-1.6c0.2-0.7,0.3-1.4,0.3-2.1c0.5-3.1,1.1-6.3,1.6-9.4c0.2-0.2,0.5-0.3,0.7-0.4c2.4-0.2,4.7-0.2,7.1,0
		c0.4,0.2,0.7,0.5,0.9,1c-0.4,2.2-0.9,4.4-1.4,6.5c-0.3-0.4-0.7-0.6-1.1-0.6c-0.3,2-0.8,4-1.3,6c-0.2,0.2-0.4,0.4-0.6,0.6
		c-0.3,2.1-0.8,4.2-1.4,6.3c-0.6,0.8-1,1.8-1,2.8c-0.1,0.6-0.4,1.1-0.9,1.6c0.3,0.1,0.6,0.2,0.9,0.1c-0.5,0.8-1,1.6-1.4,2.6
		c-0.3,0.8-0.3,1.6,0,2.6c-0.6,1.7-1.3,3.4-2.1,5.1c-0.3,0.3-0.6,0.6-1,0.7c-2.7,0.2-5.5,0.2-8.2,0c-0.3-0.1-0.5-0.2-0.7-0.4
		c-3.5-11.2-7-22.5-10.4-33.8c0-0.4,0.2-0.8,0.6-1c2.5-0.2,4.9-0.2,7.4,0C161.1,32.5,161.4,33,161.4,33.7z"/>
</g>
<g>
	<path class="st19" d="M161.4,33.7c0.4,0.5,0.5,1.1,0.6,1.7C161.5,35,161.3,34.4,161.4,33.7z"/>
</g>
<g>
	<path class="st20" d="M209.1,34c0.6,0,0.9,0.3,0.9,0.9C209.6,34.7,209.3,34.4,209.1,34z"/>
</g>
<g>
	<path class="st21" d="M29.5,34.3c0.1,0.6,0,1.2-0.3,1.7C29,35.4,29.1,34.9,29.5,34.3z"/>
</g>
<g>
	<path class="st22" d="M123.6,36c0.4,0.5,0.6,1,0.6,1.7C123.8,37.2,123.6,36.7,123.6,36z"/>
</g>
<g>
	<path class="st23" d="M213.1,37.7c0.4,0.1,0.6,0.4,0.6,0.9C213.3,38.4,213.1,38.1,213.1,37.7z"/>
</g>
<g>
	<path class="st24" d="M41.1,22.1c0,0.4,0,0.7,0.3,1c-1.1,1.2-2.4,2.4-3.7,3.4c-0.5,0.2-0.6,0.1-0.3-0.3c-1.5,1.8-3.2,3.6-5.3,5.5
		c-1.9,2.6-2.4,5.4-1.4,8.5c1.6,3.2,3.5,5.9,5.8,8.2c-0.1,0.5-0.1,1,0,1.4c-0.5-0.3-0.9-0.7-1.1-1.1c-0.1-0.3-0.3-0.5-0.6-0.6
		c-2.4-2.3-4.2-4.9-5.4-8c0.1-0.8,0-1.6-0.3-2.3c-0.4-0.7-0.4-1.3,0-2c0.3-0.5,0.4-1.1,0.3-1.7c0.4-1.5,1.1-2.8,2.1-4
		C34.6,27.3,37.7,24.6,41.1,22.1z"/>
</g>
<g>
	<path class="st25" d="M39.4,30.6c-3.7,3.2-4.8,7.2-3.6,11.9c2.1,3.9,4.3,7.7,6.7,11.4c0,0.4-0.2,0.7-0.6,0.9
		c-2-1.2-3.7-2.7-5.1-4.5c0.7-0.8,1.3-0.7,1.8,0.3c0-0.1,0.1-0.2,0.1-0.3c-1.6-2.1-2.9-4.3-4-6.7c-0.8-2.3-1-4.6-0.7-7
		c1.2-3.1,3.1-5.8,5.5-8c0.1,0,0.2,0.1,0.3,0.1c-0.5,0.4-0.9,0.9-1.1,1.4C38.9,30.5,39.1,30.6,39.4,30.6z"/>
</g>
<g>
	<path class="st26" d="M29.2,38c0.3,0.7,0.4,1.5,0.3,2.3c-0.2-0.6-0.4-1.2-0.6-1.8C29.1,38.3,29.1,38.2,29.2,38z"/>
</g>
<g>
	<path class="st27" d="M52.2,44c0.3,0.2,0.4,0.5,0.6,0.9C52.3,44.7,52.1,44.4,52.2,44z"/>
</g>
<g>
	<path class="st28" d="M141.2,42c0.3,1.3,0.4,2.6,0.3,4c-1.5,0-3,0-4.5,0c1.4-0.3,2.8-0.4,4.3-0.3C141.2,44.4,141.2,43.2,141.2,42z"
		/>
</g>
<g>
	<path class="st29" d="M48.8,38.6c1.1,1.8,2.3,3.6,3.4,5.4c-0.1,0.5,0.1,0.8,0.6,0.9c0.3,0.6,0.6,1.3,0.9,2
		c-0.2,0.1-0.3,0.3-0.4,0.6c-0.1-0.1-0.2-0.2-0.3-0.3c-0.1,0.9-0.2,1.7-0.3,2.6c-0.1-1.1-0.3-2.3-0.6-3.4c-1.1-1.7-2.3-3.4-3.4-5.1
		c-0.5-0.8-0.8-1.6-0.9-2.6C48.2,39.3,48.5,39.3,48.8,38.6z"/>
</g>
<g>
	<path class="st30" d="M165.1,45.7c0.4,0.5,0.5,1.1,0.6,1.7C165.2,46.9,165,46.4,165.1,45.7z"/>
</g>
<g>
	<path class="st31" d="M181.8,39.7c-1.6,7.5-3.9,14.8-6.8,21.9c-0.3-0.9-0.3-1.8,0-2.6c0.4-0.9,0.9-1.8,1.4-2.6
		c-0.3,0-0.6,0-0.9-0.1c0.5-0.4,0.7-0.9,0.9-1.6c0-1.1,0.4-2,1-2.8c0.6-2,1.1-4.1,1.4-6.3c0.2-0.2,0.4-0.4,0.6-0.6
		c0.5-2,0.9-4,1.3-6C181.2,39.1,181.6,39.3,181.8,39.7z"/>
</g>
<g>
	<path class="st32" d="M129.2,47.4c-0.2,0.5-0.6,0.6-1.1,0.6C128.4,47.6,128.8,47.4,129.2,47.4z"/>
</g>
<g>
	<path class="st33" d="M173,42c0,0.7-0.1,1.4-0.3,2.1c0.4,0.4,0.6,1,0.4,1.6c-0.1-0.5-0.3-0.6-0.6-0.3c0,1.2,0,2.5,0,3.7
		c-0.5,0.3-0.9,0.2-1.3-0.3C171.9,46.5,172.4,44.2,173,42z"/>
</g>
<g>
	<path class="st20" d="M34.9,48.2c0.3,0.1,0.5,0.3,0.6,0.6C35.1,48.8,34.9,48.6,34.9,48.2z"/>
</g>
<g>
	<path class="st34" d="M62.2,21.8c0.3,0.1,0.5,0.3,0.6,0.6c-0.2,0.4-0.5,0.7-0.9,1c-4.4,2.3-8.3,5.3-11.8,9
		c-0.6,0.9-1.1,1.9-1.6,2.8c0.1-0.4,0-0.8-0.3-1.1c-0.3,0.3-0.4,0.3-0.6,0c0.3-0.7,0.6-1.3,1-2c2.3-2.3,4.7-4.5,7.2-6.5
		c-0.1-0.1-0.3-0.2-0.4-0.3c-1.2,0.4-2.4,0.9-3.6,1.6c-2.2,1.2-4.2,2.7-6,4.4c-1,1.4-1.9,2.8-2.7,4.3c-0.8,4.8,0.7,8.9,4.3,12.5
		c0.1,0.8,0.4,1.6,1,2.1c0.3,1.6,0.3,3.1,0.1,4.7c0.4-0.4,0.8-0.7,1.3-0.9c0.4-1,1.1-1.4,2.3-1.1c-1.6,2.3-3.7,4.1-6.3,5.4
		c-0.3-0.2-0.6-0.4-0.9-0.7c0.7-1.1,1.4-2.2,2-3.3c0.4-0.6,0.6-1.3,0.6-2.1c0-0.8-0.2-1.5-0.6-2.1c-2-2.4-3.7-5.1-5-8
		c-1-2.6-0.9-5.2,0.4-7.7c0.5-0.2,0.6-0.6,0.6-1.1c0.3-0.8,0.7-1.5,1.4-2c0.4,0,0.6-0.2,0.6-0.6c0.6-0.8,1.2-1.4,2-2
		c0.4,0,0.6-0.2,0.6-0.6c0.8-0.5,1.5-0.9,2.3-1.4c0.5,0.1,0.8-0.1,0.9-0.6c0.3-0.2,0.5-0.3,0.9-0.3c0.4,0,0.6-0.2,0.6-0.6
		c2.6-1.4,5.3-2.5,8.2-3.1C61,22.1,61.6,22,62.2,21.8z"/>
</g>
<g>
	<path class="st35" d="M136.9,51.6c1.5-0.3,3-0.4,4.5-0.3c0.1,2.5,0,5-0.3,7.4c0-2.4,0-4.7,0-7.1C139.8,51.6,138.3,51.6,136.9,51.6z
		"/>
</g>
<g>
	<path class="st20" d="M52.8,51.6c0,0.5-0.2,0.8-0.6,1.1C52.1,52.2,52.3,51.9,52.8,51.6z"/>
</g>
<g>
	<path class="st36" d="M47.1,49.9c0.4,0.6,0.6,1.3,0.6,2.1c0,0.8-0.2,1.5-0.6,2.1C47.5,52.8,47.5,51.4,47.1,49.9z"/>
</g>
<g>
	<path class="st37" d="M75.5,55.6c-0.4-0.1-0.9-0.2-1.4-0.1c-0.5-0.1-0.9-0.5-1-1c-0.9,0.2-1.8,0.4-2.7,0.4c0.8,0.8,1.5,1.5,2.3,2.3
		c-0.3,0.4-0.3,0.8-0.3,1.3c-1.9-2.8-4.5-3.6-7.5-2.3c-1-0.5-1.1-1.1-0.4-1.8c3.3-1.7,6.6-1.7,9.9,0C74.9,54.7,75.2,55.1,75.5,55.6z
		"/>
</g>
<g>
	<path class="st15" d="M75.5,55.6c0.1,0.8,0.5,1.7,1,2.6c0.4,2.3,0.1,4.5-1,6.5c0.1,0.2,0.3,0.3,0.6,0.4c-0.3,0.1-0.6,0.4-0.7,0.7
		c-0.1-0.1-0.2-0.2-0.3-0.3c-0.1,0.4-0.2,0.7-0.1,1.1c-0.8,1.2-1.9,2.1-3.1,2.7C69,71,66,72.2,62.9,73c-1.3-0.4-1.3-1-0.1-1.8
		c2.6-1.3,4.9-2.8,7.1-4.7c0.6-0.3,1-0.8,1.1-1.4c1.5-2,1.9-4.1,1.4-6.5c-0.1-0.5,0-0.9,0.3-1.3c-0.8-0.8-1.5-1.5-2.3-2.3
		c0.9-0.1,1.8-0.2,2.7-0.4c0.1,0.5,0.5,0.9,1,1C74.6,55.5,75.1,55.5,75.5,55.6z"/>
</g>
<g>
	<path class="st38" d="M13.9,59.3c-0.1,0.4-0.4,0.6-0.9,0.6C13.2,59.5,13.5,59.3,13.9,59.3z"/>
</g>
<g>
	<path class="st39" d="M60.2,59.9c0.3-0.5,0.7-0.9,1.1-1.3c-0.5-0.1-1-0.2-1.4-0.4c0.5-0.3,1.1-0.3,1.7,0
		C61.5,59.1,61.1,59.7,60.2,59.9z"/>
</g>
<g>
	<path class="st40" d="M75.5,55.6c1.5,1.3,2.4,2.9,2.6,5c-0.3,2.4-1.4,4.5-3.1,6.1c0-0.4,0-0.8,0.1-1.1c0.1,0.1,0.2,0.2,0.3,0.3
		c0.1-0.3,0.4-0.6,0.7-0.7c-0.2-0.1-0.4-0.2-0.6-0.4c1.1-2,1.4-4.2,1-6.5C76,57.3,75.6,56.4,75.5,55.6z"/>
</g>
<g>
	<path class="st41" d="M59.9,58.2c0.4,0.2,0.9,0.4,1.4,0.4c-0.5,0.4-0.9,0.8-1.1,1.3c-1.6,1.2-3.4,1.8-5.3,1.7
		c-3.1,0.9-6.3,1.3-9.5,1.4c-1.8-0.1-3.5,0-5.1,0.3c-1.3,0.2-2.5,0.4-3.8,0.6c-5.7,0-11.6-0.5-17.5-1.3c-1.6-0.3-3.1-0.8-4.5-1.6
		c-0.8-1-0.7-1.8,0.3-2.6c0.4,0,0.7-0.2,0.9-0.6c4.8-2.5,9.9-3.8,15.4-3.8c0.7,0.4,0.7,0.8,0,1.3c-2.9,0.7-5.7,1.7-8.4,3.1
		c0,0.1-0.1,0.2-0.1,0.3c0.6,0.3,1.3,0.5,2,0.7C36.2,60.2,48.1,59.8,59.9,58.2z"/>
</g>
<g>
	<path class="st42" d="M40.3,63.3c1.7-0.3,3.4-0.4,5.1-0.3c-1.5,0.2-3,0.4-4.5,0.6C40.6,63.5,40.4,63.4,40.3,63.3z"/>
</g>
<g>
	<path class="st43" d="M71,65c-0.2,0.6-0.5,1.1-1.1,1.4C70,65.8,70.4,65.3,71,65z"/>
</g>
<g>
	<path class="st44" d="M123.8,64.7c0.3,0.1,0.5,0.3,0.7,0.6c0.2-0.4,0.6-0.6,1-0.4c1.4,0.9,2.7,1.9,4,3c-1.5-0.3-2.9-0.8-4.3-1.6
		C124.5,66,124,65.5,123.8,64.7z"/>
</g>
<g>
	<path class="st45" d="M26.6,67.8c9.3,1.6,18.6,1.5,27.9-0.6c0.3,0,0.6,0.1,0.9,0.1c1.3,0.9,2.5,1.8,3.7,2.8
		c-0.1,0.5-0.4,0.8-0.9,0.9c-8.7,2.5-17.5,3.3-26.4,2.6c-2.1-0.2-4.1-0.6-6-1.3c0.3-0.7,0-1-0.9-0.9c0-0.3,0-0.6,0-0.9
		c-1.4-0.1-2.5-0.7-3.1-2c1.2-0.4,2.4-1,3.6-2C26,66.9,26.4,67.3,26.6,67.8z"/>
</g>
<g>
	<path class="st46" d="M117.3,66.7c-0.3,2.3-1.2,4.4-2.6,6.3c0.3-2.1,0.8-4,1.4-5.7c0.1-0.2,0.2-0.4,0.3-0.6
		C116.7,67.1,117,67.1,117.3,66.7z"/>
</g>
<g>
	<path class="st47" d="M26.6,67.8c-0.2-0.6-0.6-1-1.3-1.1c-1.1,0.9-2.3,1.6-3.6,2c0.7,1.2,1.7,1.9,3.1,2c0,0.3,0,0.6,0,0.9
		c0.9-0.1,1.2,0.2,0.9,0.9c-2.1-0.3-3.6-1.4-4.5-3.3c1.2-2.2,3-3.6,5.5-4.1c0.4,0,0.7,0.3,0.7,0.7C27.1,66.4,26.8,67.1,26.6,67.8z"
		/>
</g>
<g>
	<path class="st48" d="M108.5,67.8c0.1,0.6,0,1.2-0.3,1.7c-0.6,0.9-1.1,1.9-1.6,2.8c-0.9,0.4-1.4,1-1.6,2c-0.8-0.1-1.4,0.2-2,0.7
		c0.5,0.4,0.7,0.9,0.6,1.4c0.5,0.1,1,0.3,1.4,0.6c0.2,0.5,0.4,1,0.9,1.3c1.5-0.3,2.9-0.8,4.3-1.6c-0.1-0.1-0.2-0.2-0.3-0.3
		c0.9-0.7,1.8-1.4,2.6-2.3c0.5-0.2,0.9-0.4,1.4-0.6c-0.1-0.1-0.2-0.2-0.3-0.3c0.3-0.6,0.7-0.7,1.1-0.4c-2.1,3.2-5,5.4-8.7,6.5
		c-1.7-1.2-3.1-2.7-4.1-4.5c1.7-1.6,3.5-3.2,5.3-4.8C107.6,69.3,108,68.6,108.5,67.8z"/>
</g>
<g>
	<path class="st49" d="M31.7,78.1c0.2,0.2,0.5,0.4,0.9,0.4c1.4,0.1,2.8,0.2,4.3,0.1c5,0.2,10-0.3,14.9-1.4c1.2,0.6,2.4,1.3,3.6,2
		c0.4,0.4,0.8,0.6,1.4,0.6c0.5,0.3,0.7,0.8,0.4,1.4c-4.6,1.9-9.3,3-14.1,3.3c-3.4,0.1-6.8-0.1-10.2-0.6c-1.8-0.3-3.5-0.8-5.1-1.6
		c-0.2-0.5-0.6-0.6-1.1-0.6c-2.7-1.3-2.9-2.9-0.9-5c1-0.6,2-1,3.1-1.3c0.4,0,0.7,0.2,0.9,0.6c-0.4,0.5-0.5,0.9-0.3,1.4
		C30.3,77.7,31,77.9,31.7,78.1z"/>
</g>
<g>
	<path class="st50" d="M31.7,78.1c1.8,0.1,3.5,0.3,5.1,0.6c-1.4,0-2.8,0-4.3-0.1C32.2,78.4,32,78.3,31.7,78.1z"/>
</g>
<g>
	<path class="st51" d="M55.3,79.2c0.6,0,1.1,0.2,1.4,0.6C56.2,79.8,55.7,79.6,55.3,79.2z"/>
</g>
<g>
	<path class="st52" d="M26.6,81.8c0.5-0.1,0.9,0.1,1.1,0.6C27.3,82.3,26.9,82.1,26.6,81.8z"/>
</g>
<g>
	<path class="st53" d="M8.2,86.8c-0.3,0.5-0.8,0.8-1.4,0.9C7.1,87.2,7.5,86.9,8.2,86.8z"/>
</g>
<g>
	<path class="st54" d="M5,89.1c0,0.9,0,1.7,0,2.6C4.3,90.8,4.3,89.9,5,89.1z"/>
</g>
<g>
	<path class="st55" d="M58.7,92c0.4-0.2,0.8-0.4,1.1-0.7c-0.1-0.1-0.2-0.2-0.3-0.3c1.5-0.3,3-0.7,4.4-1.3c0-0.1,0.1-0.2,0.1-0.3
		c-0.7-0.3-1.3-0.3-2,0c-0.6-0.1-0.7-0.3-0.3-0.7c-0.3-0.1-0.6-0.2-0.9-0.1c3-0.4,5.9-1.1,8.8-2.1c1.3-0.5,1.7-1.4,1.3-2.7
		c1.3-0.3,2.2,0.3,2.7,1.7c-0.4,1.1-1,2-2,2.7C67.7,90.2,63.3,91.5,58.7,92z"/>
</g>
<g>
	<path class="st56" d="M61,88.6c0.3,0,0.6,0,0.9,0.1c-0.4,0.4-0.3,0.6,0.3,0.7c0.7-0.3,1.3-0.3,2,0c0,0.1-0.1,0.2-0.1,0.3
		c-1.4,0.6-2.9,1-4.4,1.3c0.1,0.1,0.2,0.2,0.3,0.3c-0.4,0.3-0.8,0.5-1.1,0.7c-16.4,2.4-32.7,2.2-48.9-0.7c-1.2-0.2-2.3-0.8-3.1-1.6
		c0-0.9,0-1.7,0-2.6c0.4-0.7,1-1.2,1.7-1.4c0.6-0.1,1.1-0.4,1.4-0.9c3.9-2.1,8-2.8,12.2-2.1c0.4,0.4,0.4,0.8,0,1.1
		c-1.5,0.3-3,0.6-4.5,0.9c-1.5,0.4-2.8,1-4,2c2.2,1.1,4.6,1.7,7.1,2C34.1,90.1,47.6,90,61,88.6z"/>
</g>
<g>
	<path class="st57" d="M67.8,95.7c-0.5-0.5-1-0.9-1.7-1.3c0.3-0.1,0.6-0.2,0.9-0.3c-1.3,0-2.7,0.1-4,0.4c-0.6-0.2-1.1-0.4-1.7-0.6
		c4-0.9,8-2,11.9-3.3c1.4-0.7,2.6-1.5,3.8-2.4c0.2,0,0.4,0.1,0.6,0.3c0.2,0.5,0.2,0.9,0,1.4c-1.2,1.9-2.9,3.3-5,4.1
		C71.1,94.8,69.5,95.3,67.8,95.7z"/>
</g>
<g>
	<path class="st58" d="M19.8,95.1c0.4,0.2,0.7,0.5,0.9,0.9C20.1,96,19.8,95.7,19.8,95.1z"/>
</g>
<g>
	<path class="st59" d="M61.3,94c0.6,0.2,1.1,0.4,1.7,0.6c1.3-0.3,2.6-0.5,4-0.4c-0.3,0.1-0.6,0.2-0.9,0.3c0.7,0.4,1.2,0.8,1.7,1.3
		c-4.1,1-8.3,1.7-12.4,2.3c-7.1,0.3-14.2,0.3-21.2,0c-1.2-0.3-2.4-0.4-3.7-0.3C27.3,97.5,24,97,20.6,96c-0.2-0.4-0.5-0.7-0.9-0.9
		c0-0.3,0-0.6,0-0.9C33.5,95.9,47.3,95.8,61.3,94z"/>
</g>
<g>
	<path class="st60" d="M30.6,97.7c1.3-0.1,2.5,0,3.7,0.3c-0.3,0-0.5,0.1-0.7,0.3C32.6,98.1,31.6,97.9,30.6,97.7z"/>
</g>
</svg>
