<?xml version="1.0" encoding="utf-8"?>
<!-- Generator: Adobe Illustrator 27.3.1, SVG Export Plug-In . SVG Version: 6.00 Build 0)  -->
<svg version="1.1" id="Layer_1" xmlns="http://www.w3.org/2000/svg" xmlns:xlink="http://www.w3.org/1999/xlink" x="0px" y="0px"
	 viewBox="0 0 200 70" style="enable-background:new 0 0 200 70;" xml:space="preserve">
<style type="text/css">
	.st0{fill-rule:evenodd;clip-rule:evenodd;fill:#8C929D;}
	.st1{fill-rule:evenodd;clip-rule:evenodd;fill:#E24329;}
	.st2{fill-rule:evenodd;clip-rule:evenodd;fill:#FC6D26;}
	.st3{fill-rule:evenodd;clip-rule:evenodd;fill:#FCA326;}
</style>
<path class="st0" d="M139.3,19.1h-4.3l0,31.8h17.3V47h-13L139.3,19.1z M168.9,45.3c-1.4,1.4-3.3,2.2-5.3,2.2c-3.3,0-4.6-1.6-4.6-3.7
	c0-3.2,2.2-4.7,6.9-4.7c0.9,0,2.3,0.1,3,0.2V45.3z M164.4,26c-3.3,0-6.5,1.1-9.1,3.3l1.5,2.6c1.7-1,3.9-2,6.9-2
	c3.5,0,5.1,1.8,5.1,4.8v1.6c-0.7-0.1-2.1-0.2-3-0.2c-7.5,0-11.3,2.6-11.3,8.1c0,4.9,3,7.4,7.6,7.4c3.1,0,6-1.4,7-3.7l0.8,3.1h3V34.6
	C173,29.5,170.8,26,164.4,26L164.4,26z M186.8,47.7c-1.6,0-3-0.2-4.1-0.7V32.3c1.5-1.2,3.3-2.1,5.5-2.1c4.1,0,5.7,2.9,5.7,7.6
	C194,44.6,191.4,47.7,186.8,47.7 M188.6,26c-3.8,0-5.9,2.6-5.9,2.6v-4.1l0-5.4h-4.2l0,31.1c2.1,0.9,5,1.4,8.1,1.4
	c8,0,11.8-5.1,11.8-13.9C198.4,30.7,194.9,26,188.6,26 M92.9,22.5c3.8,0,6.2,1.2,7.8,2.5l1.8-3.2c-2.5-2.2-5.9-3.4-9.5-3.4
	c-9.1,0-15.5,5.5-15.5,16.7c0,11.7,6.9,16.3,14.7,16.3c3.9,0,7.3-0.9,9.5-1.8l-0.1-12.5v-3.9H90.1v3.9h7.5l0.1,9.5
	c-1,0.5-2.7,0.9-5,0.9c-6.3,0-10.5-4-10.5-12.3C82.1,26.7,86.5,22.6,92.9,22.5 M122.9,19.1h-4.2l0,5.3v18.5c0,5.2,2.2,8.6,8.6,8.6
	c0.9,0,1.7-0.1,2.6-0.2v-3.8c-0.6,0.1-1.3,0.1-1.9,0.1c-3.5,0-5.1-1.8-5.1-4.8V30.1h7v-3.5h-7L122.9,19.1z M108.2,50.9h4.2V26.6
	h-4.2L108.2,50.9z M108.2,23.3h4.2v-4.2h-4.2L108.2,23.3z"/>
<path class="st1" d="M36.7,67.4l13-39.9H23.8L36.7,67.4z"/>
<path class="st2" d="M36.7,67.4l-13-39.9H5.6L36.7,67.4z"/>
<path class="st3" d="M5.6,27.5L1.7,39.6c-0.4,1.1,0,2.3,1,3l34.1,24.8L5.6,27.5z"/>
<path class="st1" d="M5.6,27.5h18.2L16,3.5c-0.4-1.2-2.1-1.2-2.6,0L5.6,27.5z"/>
<path class="st2" d="M36.7,67.4l13-39.9h18.2L36.7,67.4z"/>
<path class="st3" d="M67.8,27.5l3.9,12.1c0.4,1.1,0,2.3-1,3L36.7,67.4L67.8,27.5z"/>
<path class="st1" d="M67.8,27.5H49.7l7.8-24c0.4-1.2,2.1-1.2,2.6,0L67.8,27.5z"/>
</svg>
