<?xml version="1.0" encoding="utf-8"?>
<!-- Generator: Adobe Illustrator 27.3.1, SVG Export Plug-In . SVG Version: 6.00 Build 0)  -->
<svg version="1.1" id="Layer_1" xmlns="http://www.w3.org/2000/svg" xmlns:xlink="http://www.w3.org/1999/xlink" x="0px" y="0px"
	 viewBox="0 0 1930 550" style="enable-background:new 0 0 1930 550;" xml:space="preserve">
<style type="text/css">
	.st0{opacity:0.997;fill-rule:evenodd;clip-rule:evenodd;fill:#404136;enable-background:new    ;}
	.st1{opacity:0.986;fill-rule:evenodd;clip-rule:evenodd;fill:#82CB29;enable-background:new    ;}
	.st2{opacity:0.996;fill-rule:evenodd;clip-rule:evenodd;fill:#404137;enable-background:new    ;}
	.st3{opacity:0.998;fill-rule:evenodd;clip-rule:evenodd;fill:#82CC29;enable-background:new    ;}
	.st4{opacity:0.966;fill-rule:evenodd;clip-rule:evenodd;fill:#80C829;enable-background:new    ;}
	.st5{opacity:0.976;fill-rule:evenodd;clip-rule:evenodd;fill:#80C82A;enable-background:new    ;}
	.st6{opacity:0.99;fill-rule:evenodd;clip-rule:evenodd;fill:#82CB29;enable-background:new    ;}
	.st7{opacity:0.996;fill-rule:evenodd;clip-rule:evenodd;fill:#82CB29;enable-background:new    ;}
</style>
<g>
	<path class="st0" d="M970.03,35.7c3.21-0.29,6.28,0.17,9.22,1.38c22.9,13.14,45.95,26.05,69.14,38.72
		c4.24,2.7,6.55,6.54,6.91,11.52c0.62,114.31,0.62,228.62,0,342.93c-0.23,3-1.15,5.77-2.77,8.3
		c-41.29,25.49-83.24,49.92-125.83,73.29c-3.07,0.61-6.15,0.61-9.22,0c-39.79-22.51-79.43-45.25-118.92-68.22
		c-4.2-2.05-7.12-5.28-8.76-9.68c-0.61-48.55-0.61-97.1,0-145.65c1.64-4.4,4.55-7.63,8.76-9.68
		c39.49-22.97,79.13-45.71,118.92-68.22c3.07-0.61,6.15-0.61,9.22,0c11.06,6.15,22.12,12.29,33.19,18.44
		c2.03,0.76,3.72,0.3,5.07-1.38c1.22-62.3,1.84-124.68,1.84-187.14C967.72,38.62,968.8,37.09,970.03,35.7z M919.33,311.33
		c3.7,0,7.08,1.08,10.14,3.23c11.83,6.91,23.66,13.83,35.49,20.74c0.61,17.21,0.61,34.42,0,51.62
		c-14.2,8.48-28.64,16.47-43.33,23.97c-12.61-6.54-25.06-13.45-37.34-20.74c-2.5-1.16-4.5-2.85-5.99-5.07
		c-0.9-16.68-0.59-33.27,0.92-49.78C892.75,327.44,906.12,319.45,919.33,311.33z"/>
</g>
<g>
	<path class="st1" d="M1628.24,204.4c6.61,0,12.76,1.69,18.44,5.07c35.03,20.28,70.06,40.56,105.09,60.84
		c7.92,3.93,12.68,10.23,14.29,18.9c0.62,45.17,0.62,90.34,0,135.51c-1.23,7.67-5.06,13.67-11.52,17.98
		c-38.72,22.12-77.44,44.25-116.15,66.37c-8.55,1.85-16.53,0.32-23.97-4.61c-11.68-7.07-23.35-14.13-35.03-21.2
		c-1.13-1.09-1.13-2.17,0-3.23c6.67-2.64,13.27-5.41,19.82-8.3c9.54,5,18.92,10.38,28.12,16.13c1.71,1.2,3.56,1.51,5.53,0.92
		c37.57-21.31,74.9-42.98,112.01-64.99c0.62-44.25,0.62-88.5,0-132.75c-36.95-21.78-73.98-43.44-111.08-64.99
		c-1.84-0.61-3.69-0.61-5.53,0c-37.1,21.55-74.14,43.21-111.08,64.99c-0.62,44.25-0.62,88.5,0,132.75
		c12.3,7.76,25.05,14.68,38.26,20.74c9.4,1.83,15.7-1.7,18.9-10.6c0.3-43.94,0.62-87.88,0.92-131.83c0.46-0.46,0.92-0.92,1.38-1.38
		c5.84-0.61,11.68-0.61,17.52,0c0.46,0.46,0.92,0.92,1.38,1.38c0.62,45.17,0.62,90.34,0,135.51c-2.78,19.07-13.85,28.6-33.19,28.58
		c-11.15-0.42-21.43-3.65-30.88-9.68c-9.22-5.53-18.44-11.06-27.66-16.59c-4.53-4.05-7.14-9.12-7.84-15.21
		c-0.62-45.17-0.62-90.34,0-135.51c0.98-6.2,3.9-11.27,8.76-15.21c36.87-21.51,73.75-43.02,110.62-64.53
		C1619.5,207.11,1623.79,205.42,1628.24,204.4z"/>
</g>
<g>
	<path class="st2" d="M79.52,475.42c0-63.61,0-127.22,0-190.82c1.46-3.66,3.92-6.58,7.37-8.76c38.56-21.89,76.97-44.02,115.23-66.37
		c5.21-3.45,10.74-4.06,16.59-1.84c41.25,23.47,82.27,47.28,123.07,71.44c1.33,1.64,2.25,3.48,2.77,5.53
		c0.61,63.61,0.61,127.22,0,190.82c-3.56,5.18-8.02,5.95-13.37,2.3c-24.04-13.63-47.86-27.61-71.44-41.94
		c-1.33-1.64-2.25-3.48-2.77-5.53c-0.03-31.69-0.65-63.34-1.84-94.95c-0.81-2.4-2.2-4.4-4.15-5.99
		c-11.22-6.69-22.59-13.14-34.11-19.36c-3.07-0.61-6.15-0.61-9.22,0c-12.67,6.41-24.81,13.63-36.41,21.66
		c-0.61,1.23-1.23,2.46-1.84,3.69c-1.2,31.61-1.81,63.27-1.84,94.95c-0.52,2.05-1.44,3.89-2.77,5.53
		c-24.82,14.95-49.86,29.54-75.13,43.79C85.16,480.7,81.78,479.32,79.52,475.42z"/>
</g>
<g>
	<path class="st3" d="M563.49,207.16c5.79-0.77,11.01,0.61,15.67,4.15c39.41,22.54,78.58,45.44,117.54,68.68
		c1.98,2.42,3.21,5.19,3.69,8.3c0.61,46.71,0.61,93.41,0,140.12c-0.76,5.68-3.68,9.83-8.76,12.45
		c-39.49,22.97-79.13,45.71-118.92,68.22c-1.9,0.29-3.74,0.75-5.53,1.38c-4.81-1.49-9.42-3.48-13.83-5.99
		c-37.03-21.74-74.21-43.25-111.54-64.53c-3.37-2.45-5.68-5.68-6.91-9.68c-0.61-47.94-0.61-95.87,0-143.81
		c0.43-1.61,1.05-3.15,1.84-4.61c3.27-2.97,6.81-5.58,10.6-7.84C486.21,251.84,524.93,229.57,563.49,207.16z"/>
</g>
<g>
	<path class="st2" d="M1271.48,208.08c6.09-0.84,11.62,0.55,16.59,4.15c38.41,22.43,76.82,44.86,115.23,67.3
		c2.78,2.64,4.47,5.87,5.07,9.68c0.62,11.98,0.62,23.97,0,35.95c-0.37,4.99-2.67,8.83-6.91,11.52
		c-23.97,13.83-47.94,27.66-71.9,41.48c-5.55,1.51-9.09-0.49-10.6-5.99c-0.3-12.6-0.62-25.2-0.92-37.8
		c-13.29-8.72-26.96-16.87-41.02-24.43c-2.28-0.65-4.42-0.34-6.45,0.92c-12.68,7.64-25.42,15.17-38.26,22.59
		c-1.04,8.54-1.5,17.14-1.38,25.81c-0.13,8.39,0.33,16.68,1.38,24.89c38.5,23.17,77.36,45.75,116.61,67.76
		c3.02,1.44,5.64,3.44,7.84,5.99c1.01,3.69,0.24,6.92-2.3,9.68c-23.81,12.98-47.47,26.19-70.98,39.64
		c-6.79,3.33-13.25,2.71-19.36-1.84c-39.33-22.12-78.35-44.71-117.08-67.76c-1.31-1.69-2.39-3.54-3.23-5.53
		c-0.62-48.55-0.62-97.1,0-145.65c1.54-3.54,3.84-6.46,6.91-8.76C1191.13,254.61,1231.38,231.41,1271.48,208.08z"/>
</g>
<g>
	<path class="st4" d="M1796.94,208.08c7.68,0,15.37,0,23.05,0c0,1.23,0,2.46,0,3.69c-3.07,0-6.15,0-9.22,0
		c0.16,8,0,15.99-0.46,23.97c-1.25,0.81-2.64,1.12-4.15,0.92c0-8.3,0-16.59,0-24.89c-3.07,0-6.15,0-9.22,0
		C1796.94,210.54,1796.94,209.31,1796.94,208.08z"/>
</g>
<g>
	<path class="st5" d="M1849.48,208.08c0,9.53,0,19.05,0,28.58c-1.23,0-2.46,0-3.69,0c0.16-7.07,0-14.14-0.46-21.2
		c-2.21,6.8-4.52,13.56-6.91,20.28c-1.43,0.88-2.96,1.18-4.61,0.92c-2.2-7.07-4.51-14.14-6.91-21.2c-0.46,7.06-0.62,14.13-0.46,21.2
		c-1.23,0-2.46,0-3.69,0c0-9.53,0-19.05,0-28.58c2.11-0.24,4.11,0.07,5.99,0.92c2.64,7,5.1,14.07,7.37,21.2
		c2.64-7,5.1-14.07,7.37-21.2C1845.37,208.15,1847.37,207.85,1849.48,208.08z"/>
</g>
<g>
	<path class="st6" d="M1655.89,296.58c13.28-0.34,26.19,1.65,38.72,5.99c15.15,7.39,22.36,19.52,21.66,36.41
		c-6.22,1.06-12.53,1.21-18.9,0.46c-2.06-4.06-4.06-8.21-5.99-12.45c-3.89-4.94-8.96-7.86-15.21-8.76
		c-10.81-1.87-21.56-1.57-32.27,0.92c-10.73,3.63-13.5,10.39-8.3,20.28c1.23,0.61,2.46,1.23,3.69,1.84
		c18.07,3.68,36.19,7.06,54.39,10.14c22.74,5.23,31.5,19.21,26.27,41.94c-2.33,7.59-6.78,13.59-13.37,17.98
		c-17.38,8.84-35.81,11.91-55.31,9.22c-14.53-0.74-26.97-6.12-37.34-16.13c-4.87-6.56-7.48-13.94-7.84-22.12
		c-0.19-2.31,0.41-4.31,1.84-5.99c6.25-0.85,12.39-0.54,18.44,0.92c2.64,14.92,11.54,22.61,26.73,23.05
		c11.16,0.99,22.23,0.37,33.19-1.84c9.61-2.77,13.44-9.06,11.52-18.9c-1.44-2.98-3.74-4.97-6.91-5.99
		c-14.21-3.74-28.65-6.19-43.33-7.37c-11-1.05-20.82-4.89-29.5-11.52c-8.51-10.1-10.51-21.47-5.99-34.11
		c5.99-12,15.67-19.22,29.04-21.66C1646.2,298.17,1651.12,297.41,1655.89,296.58z"/>
</g>
<g>
	<path class="st7" d="M1275.17,328.85c9.26,4.4,18.02,9.63,26.27,15.67c0.16,4.61,0.3,9.22,0.46,13.83
		c0.11,5.32-0.35,10.55-1.38,15.67c-7.96,4.97-16.1,9.58-24.43,13.83c-8.51-4.2-16.81-8.81-24.89-13.83
		c-1.08-10.13-1.23-20.27-0.46-30.42C1258.79,338.44,1266.93,333.52,1275.17,328.85z"/>
</g>
</svg>
