<?xml version="1.0" encoding="utf-8"?>
<!-- Generator: Adobe Illustrator 19.1.0, SVG Export Plug-In . SVG Version: 6.00 Build 0)  -->
<svg version="1.1" id="Layer_1" xmlns="http://www.w3.org/2000/svg" xmlns:xlink="http://www.w3.org/1999/xlink" x="0px" y="0px"
	 viewBox="0 0 102.4 84.1" style="enable-background:new 0 0 102.4 84.1;" xml:space="preserve">
<style type="text/css">
	.st0{fill:none;stroke:#5F7D7A;stroke-width:2.4;stroke-miterlimit:10;}
</style>
<g>
	<path class="st0" d="M44.5,75.2c0,4.3-3.4,7.7-7.7,7.7c-4.3,0-7.7-3.4-7.7-7.7c0-4.3,3.4-7.7,7.7-7.7C41.1,67.5,44.5,71,44.5,75.2"
		/>
	<circle class="st0" cx="36.8" cy="75.2" r="7.7"/>
	<path class="st0" d="M83.8,75.2c0,4.3-3.4,7.7-7.7,7.7c-4.3,0-7.7-3.4-7.7-7.7c0-4.3,3.4-7.7,7.7-7.7C80.3,67.5,83.8,71,83.8,75.2"
		/>
	<path class="st0" d="M35,48.1l-5.9,12h58.6 M0.6,1l16.2,10.2L35,48.1h51.6l4.2-11.5l9.9-27.2h-74l13.3,30.7h47.8 M83.8,75.2
		c0,4.3-3.4,7.7-7.7,7.7c-4.3,0-7.7-3.4-7.7-7.7c0-4.3,3.4-7.7,7.7-7.7C80.3,67.5,83.8,71,83.8,75.2z"/>
	<line class="st0" x1="35.4" y1="24.5" x2="95.1" y2="24.5"/>
	<path class="st0" d="M74.1,9.4v30.7 M53,11.6l0.1,28.5 M35.4,24.5h59.8"/>
</g>
</svg>
