<?xml version="1.0" encoding="utf-8"?>
<!-- Generator: Adobe Illustrator 19.1.0, SVG Export Plug-In . SVG Version: 6.00 Build 0)  -->
<svg version="1.1" id="Layer_1" xmlns="http://www.w3.org/2000/svg" xmlns:xlink="http://www.w3.org/1999/xlink" x="0px" y="0px"
	 viewBox="0 0 170 170" style="enable-background:new 0 0 170 170;" xml:space="preserve">
<style type="text/css">
	.st0{display:none;}
	.st1{display:inline;}
	.st2{display:inline;clip-path:url(#SVGID_2_);fill:#F2613C;}
	.st3{display:inline;clip-path:url(#SVGID_2_);fill:none;stroke:#FFFFFF;stroke-width:2.928;stroke-miterlimit:10;}
	.st4{clip-path:url(#SVGID_4_);fill:#F2613C;}
	.st5{clip-path:url(#SVGID_4_);fill:none;stroke:#FFFFFF;stroke-width:2.928;stroke-miterlimit:10;}
	.st6{fill:none;stroke:#FFFFFF;stroke-width:2.928;stroke-miterlimit:10;}
	.st7{clip-path:url(#SVGID_6_);fill:#E7EDEC;}
	.st8{clip-path:url(#SVGID_6_);fill:none;stroke:#FFFFFF;stroke-width:2.928;stroke-miterlimit:10;}
	.st9{clip-path:url(#SVGID_6_);fill:#F2613C;}
</style>
<g class="st0">
	<defs>
		<rect id="SVGID_1_" x="2.2" y="7.2" width="165.5" height="155.5"/>
	</defs>
	<clipPath id="SVGID_2_" class="st1">
		<use xlink:href="#SVGID_1_"  style="overflow:visible;"/>
	</clipPath>
	<path class="st2" d="M85,161.8c40.7,0,73.8-33,73.8-73.8c0-40.7-33-73.8-73.8-73.8S11.2,47.3,11.2,88
		C11.2,128.7,44.3,161.8,85,161.8"/>
	<circle class="st3" cx="84.1" cy="88" r="32"/>
	<path class="st3" d="M130.4,123.4V89.7V56.2c0,0-3-3.2-5.1,7.6c-1,5.1-2.3,29.5,5.1,25.9 M34.8,56.2c0,0-2.7,17,6.8,17
		c7.8,0,7.5-11.5,7.5-17 M41.6,56.2v67.3 M108.6,88.2c0,13.5-10.9,24.4-24.4,24.4c-13.5,0-24.4-10.9-24.4-24.4
		c0-13.5,10.9-24.4,24.4-24.4C97.7,63.8,108.6,74.7,108.6,88.2z"/>
</g>
<g>
	<g>
		<defs>
			<rect id="SVGID_3_" x="11.2" y="11.2" width="147.5" height="147.5"/>
		</defs>
		<clipPath id="SVGID_4_">
			<use xlink:href="#SVGID_3_"  style="overflow:visible;"/>
		</clipPath>
		<path class="st4" d="M85,158.8c40.7,0,73.8-33,73.8-73.8c0-40.7-33-73.8-73.8-73.8c-40.7,0-73.8,33-73.8,73.8
			C11.2,125.7,44.3,158.8,85,158.8"/>
		<path class="st4" d="M127.4,56.1c1.6,1.6,1.6,4.1,0,5.7c-1.6,1.6-4.1,1.6-5.7,0c-1.6-1.6-1.6-4.1,0-5.7
			C123.3,54.6,125.9,54.6,127.4,56.1"/>
		<path class="st5" d="M127.4,56.1c1.6,1.6,1.6,4.1,0,5.7c-1.6,1.6-4.1,1.6-5.7,0c-1.6-1.6-1.6-4.1,0-5.7
			C123.3,54.6,125.9,54.6,127.4,56.1"/>
		<circle class="st5" cx="124.6" cy="58.9" r="4"/>
		<path class="st4" d="M85.3,85.5c1.6,1.6,1.6,4.1,0,5.7c-1.6,1.6-4.1,1.6-5.7,0c-1.6-1.6-1.6-4.1,0-5.7C81.2,84,83.7,84,85.3,85.5"
			/>
		<path class="st5" d="M85.3,85.5c1.6,1.6,1.6,4.1,0,5.7c-1.6,1.6-4.1,1.6-5.7,0c-1.6-1.6-1.6-4.1,0-5.7C81.2,84,83.7,84,85.3,85.5"
			/>
		<circle class="st5" cx="82.4" cy="88.4" r="4"/>
		<path class="st4" d="M127,109.7c1.6,1.6,1.6,4.1,0,5.7c-1.6,1.6-4.1,1.6-5.7,0c-1.6-1.6-1.6-4.1,0-5.7
			C122.9,108.2,125.4,108.2,127,109.7"/>
		<path class="st5" d="M127,109.7c1.6,1.6,1.6,4.1,0,5.7c-1.6,1.6-4.1,1.6-5.7,0c-1.6-1.6-1.6-4.1,0-5.7
			C122.9,108.2,125.4,108.2,127,109.7"/>
		<circle class="st5" cx="124.2" cy="112.6" r="4"/>
		<path class="st4" d="M89.9,50.1c1.6,1.6,1.6,4.1,0,5.7c-1.6,1.6-4.1,1.6-5.7,0c-1.6-1.6-1.6-4.1,0-5.7
			C85.8,48.6,88.4,48.6,89.9,50.1"/>
		<path class="st5" d="M89.9,50.1c1.6,1.6,1.6,4.1,0,5.7c-1.6,1.6-4.1,1.6-5.7,0c-1.6-1.6-1.6-4.1,0-5.7
			C85.8,48.6,88.4,48.6,89.9,50.1"/>
		<circle class="st5" cx="87.1" cy="53" r="4"/>
	</g>
	<line class="st6" x1="43.7" y1="77.3" x2="81.1" y2="56.1"/>
	<line class="st6" x1="43.7" y1="77.3" x2="81.1" y2="56.1"/>
	<line class="st6" x1="77.5" y1="112.9" x2="81.2" y2="95.5"/>
	<line class="st6" x1="77.5" y1="112.9" x2="81.2" y2="95.5"/>
	<line class="st6" x1="89.4" y1="91.5" x2="116.6" y2="109.6"/>
	<line class="st6" x1="89.4" y1="91.5" x2="116.6" y2="109.6"/>
	<line class="st6" x1="82.5" y1="121" x2="115.6" y2="113.6"/>
	<line class="st6" x1="82.5" y1="121" x2="115.6" y2="113.6"/>
	<line class="st6" x1="88.2" y1="83.8" x2="118.8" y2="62.2"/>
	<line class="st6" x1="88.2" y1="83.8" x2="118.8" y2="62.2"/>
	<g>
		<defs>
			<rect id="SVGID_5_" x="11.2" y="11.2" width="147.5" height="147.5"/>
		</defs>
		<clipPath id="SVGID_6_">
			<use xlink:href="#SVGID_5_"  style="overflow:visible;"/>
		</clipPath>
		<path class="st7" d="M41.3,79.7c1.6,1.6,1.6,4.1,0,5.7c-1.6,1.6-4.1,1.6-5.7,0c-1.6-1.6-1.6-4.1,0-5.7
			C37.2,78.1,39.8,78.1,41.3,79.7"/>
		<path class="st8" d="M41.3,79.7c1.6,1.6,1.6,4.1,0,5.7c-1.6,1.6-4.1,1.6-5.7,0c-1.6-1.6-1.6-4.1,0-5.7
			C37.2,78.1,39.8,78.1,41.3,79.7"/>
		<path class="st9" d="M41.3,79.7c1.6,1.6,1.6,4.1,0,5.7c-1.6,1.6-4.1,1.6-5.7,0c-1.6-1.6-1.6-4.1,0-5.7
			C37.2,78.1,39.8,78.1,41.3,79.7"/>
		<circle class="st8" cx="38.5" cy="82.5" r="4"/>
		<path class="st9" d="M78.4,117.4c1.6,1.6,1.6,4.1,0,5.7c-1.6,1.6-4.1,1.6-5.7,0c-1.6-1.6-1.6-4.1,0-5.7
			C74.3,115.8,76.8,115.8,78.4,117.4"/>
		<path class="st8" d="M78.4,117.4c1.6,1.6,1.6,4.1,0,5.7c-1.6,1.6-4.1,1.6-5.7,0c-1.6-1.6-1.6-4.1,0-5.7
			C74.3,115.8,76.8,115.8,78.4,117.4"/>
		<path class="st8" d="M43.6,87.7l27,27 M78.4,117.4c1.6,1.6,1.6,4.1,0,5.7c-1.6,1.6-4.1,1.6-5.7,0c-1.6-1.6-1.6-4.1,0-5.7
			C74.3,115.8,76.8,115.8,78.4,117.4z"/>
	</g>
</g>
</svg>
