<?xml version="1.0" encoding="utf-8"?>
<!-- Generator: Adobe Illustrator 19.1.0, SVG Export Plug-In . SVG Version: 6.00 Build 0)  -->
<svg version="1.1" id="Layer_1" xmlns="http://www.w3.org/2000/svg" xmlns:xlink="http://www.w3.org/1999/xlink" x="0px" y="0px"
	 viewBox="0 0 170 170" style="enable-background:new 0 0 170 170;" xml:space="preserve">
<style type="text/css">
	.st0{display:none;}
	.st1{display:inline;}
	.st2{display:inline;clip-path:url(#SVGID_2_);fill:#F2613C;}
	.st3{display:inline;clip-path:url(#SVGID_2_);fill:none;stroke:#FFFFFF;stroke-width:2.928;stroke-miterlimit:10;}
	.st4{clip-path:url(#SVGID_4_);fill:#F2613C;}
	.st5{clip-path:url(#SVGID_4_);fill:none;stroke:#FFFFFF;stroke-width:2.928;stroke-miterlimit:10;}
	.st6{fill:none;stroke:#FFFFFF;stroke-width:2.928;stroke-miterlimit:10;}
</style>
<g class="st0">
	<defs>
		<rect id="SVGID_1_" x="2.2" y="7.2" width="165.5" height="155.5"/>
	</defs>
	<clipPath id="SVGID_2_" class="st1">
		<use xlink:href="#SVGID_1_"  style="overflow:visible;"/>
	</clipPath>
	<path class="st2" d="M85,161.8c40.7,0,73.8-33,73.8-73.8c0-40.7-33-73.8-73.8-73.8S11.2,47.3,11.2,88
		C11.2,128.7,44.3,161.8,85,161.8"/>
	<circle class="st3" cx="84.1" cy="88" r="32"/>
	<path class="st3" d="M130.4,123.4V89.7V56.2c0,0-3-3.2-5.1,7.6c-1,5.1-2.3,29.5,5.1,25.9 M34.8,56.2c0,0-2.7,17,6.8,17
		c7.8,0,7.5-11.5,7.5-17 M41.6,56.2v67.3 M108.6,88.2c0,13.5-10.9,24.4-24.4,24.4c-13.5,0-24.4-10.9-24.4-24.4
		c0-13.5,10.9-24.4,24.4-24.4C97.7,63.8,108.6,74.7,108.6,88.2z"/>
</g>
<g>
	<g>
		<defs>
			<rect id="SVGID_3_" x="11.2" y="11.2" width="147.5" height="147.5"/>
		</defs>
		<clipPath id="SVGID_4_">
			<use xlink:href="#SVGID_3_"  style="overflow:visible;"/>
		</clipPath>
		<path class="st4" d="M85,158.8c40.7,0,73.8-33,73.8-73.8c0-40.7-33-73.8-73.8-73.8c-40.7,0-73.8,33-73.8,73.8
			C11.2,125.7,44.3,158.8,85,158.8"/>
		<path class="st4" d="M76,118.8c0,3.6-2.9,6.6-6.6,6.6c-3.6,0-6.6-2.9-6.6-6.6s2.9-6.6,6.6-6.6C73,112.2,76,115.2,76,118.8"/>
		<path class="st5" d="M76,118.8c0,3.6-2.9,6.6-6.6,6.6c-3.6,0-6.6-2.9-6.6-6.6s2.9-6.6,6.6-6.6C73,112.2,76,115.2,76,118.8"/>
		<circle class="st5" cx="69.4" cy="118.8" r="6.6"/>
		<path class="st4" d="M109.4,118.8c0,3.6-2.9,6.6-6.6,6.6c-3.6,0-6.6-2.9-6.6-6.6s2.9-6.6,6.6-6.6
			C106.5,112.2,109.4,115.2,109.4,118.8"/>
		<path class="st5" d="M109.4,118.8c0,3.6-2.9,6.6-6.6,6.6c-3.6,0-6.6-2.9-6.6-6.6s2.9-6.6,6.6-6.6
			C106.5,112.2,109.4,115.2,109.4,118.8"/>
		<path class="st5" d="M67.9,95.7l-5,10.2h49.9 M38.6,55.6l13.8,8.6l15.5,31.4h43.9l3.6-9.8l8.4-23.1h-63L72,88.9h40.7 M109.4,118.8
			c0,3.6-2.9,6.6-6.6,6.6c-3.6,0-6.6-2.9-6.6-6.6s2.9-6.6,6.6-6.6C106.5,112.2,109.4,115.2,109.4,118.8z"/>
	</g>
	<line class="st6" x1="68.2" y1="75.6" x2="119.1" y2="75.6"/>
	<path class="st6" d="M101.1,62.8v26.1 M83.2,64.6l0.1,24.3 M68.2,75.6h50.9"/>
</g>
</svg>
