<?xml version="1.0" encoding="utf-8"?>
<!-- Generator: Adobe Illustrator 19.1.0, SVG Export Plug-In . SVG Version: 6.00 Build 0)  -->
<svg version="1.1" id="Layer_1" xmlns="http://www.w3.org/2000/svg" xmlns:xlink="http://www.w3.org/1999/xlink" x="0px" y="0px"
	 viewBox="0 0 170 170" style="enable-background:new 0 0 170 170;" xml:space="preserve">
<style type="text/css">
	.st0{display:none;}
	.st1{display:inline;}
	.st2{display:inline;clip-path:url(#SVGID_2_);fill:#F2613C;}
	.st3{display:inline;clip-path:url(#SVGID_2_);fill:none;stroke:#FFFFFF;stroke-width:2.928;stroke-miterlimit:10;}
	.st4{clip-path:url(#SVGID_4_);fill:#F2613C;}
	.st5{clip-path:url(#SVGID_4_);fill:none;stroke:#FFFFFF;stroke-width:2.928;stroke-miterlimit:10;}
</style>
<g class="st0">
	<defs>
		<rect id="SVGID_1_" x="2.2" y="7.2" width="165.5" height="155.5"/>
	</defs>
	<clipPath id="SVGID_2_" class="st1">
		<use xlink:href="#SVGID_1_"  style="overflow:visible;"/>
	</clipPath>
	<path class="st2" d="M85,161.8c40.7,0,73.8-33,73.8-73.8c0-40.7-33-73.8-73.8-73.8S11.2,47.3,11.2,88
		C11.2,128.7,44.3,161.8,85,161.8"/>
	<circle class="st3" cx="84.1" cy="88" r="32"/>
	<path class="st3" d="M130.4,123.4V89.7V56.2c0,0-3-3.2-5.1,7.6c-1,5.1-2.3,29.5,5.1,25.9 M34.8,56.2c0,0-2.7,17,6.8,17
		c7.8,0,7.5-11.5,7.5-17 M41.6,56.2v67.3 M108.6,88.2c0,13.5-10.9,24.4-24.4,24.4c-13.5,0-24.4-10.9-24.4-24.4
		c0-13.5,10.9-24.4,24.4-24.4C97.7,63.8,108.6,74.7,108.6,88.2z"/>
</g>
<g>
	<defs>
		<rect id="SVGID_3_" x="11.2" y="11.2" width="147.5" height="147.5"/>
	</defs>
	<clipPath id="SVGID_4_">
		<use xlink:href="#SVGID_3_"  style="overflow:visible;"/>
	</clipPath>
	<path class="st4" d="M85,158.8c40.7,0,73.8-33,73.8-73.8c0-40.7-33-73.8-73.8-73.8S11.2,44.3,11.2,85
		C11.2,125.7,44.3,158.8,85,158.8"/>
	<path class="st5" d="M68.1,85.1l18.3,10.6l-18.3,10.6V85.1z M117,76.6v30.8c0,4.7-3.9,8.6-8.6,8.6H44.3c-4.7,0-8.6-3.9-8.6-8.6
		V80.4c0-4.7,3.9-8.6,8.6-8.6h44.4 M87.3,67.9L87.3,67.9c-2.8,0-4.1-1.2-4.1-2.6c0-1.4,1.4-2.6,4.1-2.6 M137,60
		c2.4,0,4.3,1.9,4.3,4.3c0,2.4-1.9,4.3-4.3,4.3 M137,55.6c4.7,0,8.6,3.8,8.6,8.6c0,4.7-3.8,8.6-8.6,8.6 M93.3,71.8l-3.1,8.9l7.4,0.1
		l-2.6-9.1 M130.6,61.6h2.5c1.4,0,2.5,1.1,2.5,2.5c0,1.4-1.1,2.5-2.5,2.5h-2.5 M130.5,82c0.3,3.8,0-34.1,0-34.1s-23,10.9-27.8,10.9
		H88.4v13l14.4,0c4.8,0,27.8,10.9,27.8,10.9"/>
</g>
</svg>
