<?xml version="1.0" encoding="utf-8"?>
<!-- Generator: Adobe Illustrator 19.1.0, SVG Export Plug-In . SVG Version: 6.00 Build 0)  -->
<svg version="1.1" id="Layer_1" xmlns="http://www.w3.org/2000/svg" xmlns:xlink="http://www.w3.org/1999/xlink" x="0px" y="0px"
	 viewBox="-255 347 100 100" style="enable-background:new -255 347 100 100;" xml:space="preserve">
<style type="text/css">
	.st0{fill:#ED3985;}
	.st1{fill:#66B9B7;}
	.st2{fill:#F15B2A;stroke:#F15B2A;}
</style>
<g>
	<path class="st0" d="M-230.1,359.4c13.4-0.1,24.8,11.3,24.9,24.8c0.1,13.5-11.2,25-24.8,25.1c-13.4,0.1-24.9-11.3-25-24.7
		C-255.1,370.9-243.8,359.5-230.1,359.4z M-230,362.6c-12.2-0.1-21.7,9.4-21.8,21.5c-0.1,12.3,9.4,21.9,21.7,22
		c12.2,0,21.7-9.4,21.8-21.7C-208.3,372.2-217.8,362.6-230,362.6z"/>
	<path class="st1" d="M-158.2,420.3c0-7.4,0-14.7,0-22.1c-0.4,0-0.8,0-1.2,0c-7.8,0-15.5,0-23.3,0c-1.8,0-2.3-0.5-2.3-2.3
		c0-6.2,0-12.3,0-18.5c0-0.4,0-0.8,0-1.4c-2.2,0-4.3,0-6.4,0c-3.6,0-7.2,0-10.9,0c-1.3,0-2.1-0.6-2.1-1.6s0.8-1.6,2-1.6
		c9.4,0,18.8,0,28.3,0c0.6,0,1.3,0.3,1.7,0.6c5.5,4.7,11,9.6,16.4,14.3c0.7,0.6,1,1.2,1,2.1c0,10.5,0,21,0,31.5
		c0,1.7-0.5,2.2-2.2,2.2c-1.4,0-2.8,0-4.2,0c-1.1,0-1.8-0.7-1.8-1.6s0.7-1.6,1.8-1.6C-160.4,420.3-159.4,420.3-158.2,420.3z
		 M-181.8,394.9c7.9,0,15.7,0,23.6,0c0-1.4,0-2.7,0-4c0-0.6-0.2-1-0.7-1.4c-4.3-3.7-8.6-7.3-12.7-11.1c-2-1.9-4-2.7-6.6-2.3
		c-1.2,0.2-2.4,0-3.6,0C-181.8,382.4-181.8,388.6-181.8,394.9z"/>
	<path class="st2" d="M-237.9,426c0-4.5,4.1-8.5,8.6-8.5c4.4,0,8.4,4.1,8.4,8.5c0,4.5-4.1,8.6-8.6,8.5
		C-233.9,434.5-237.9,430.5-237.9,426z M-234.7,426c0,3.2,2.2,5.4,5.4,5.4c3.1,0,5.3-2.2,5.3-5.3c0-3.2-2.1-5.4-5.3-5.4
		S-234.7,422.8-234.7,426z"/>
	<path class="st2" d="M-179.9,426c0-4.5,4-8.5,8.4-8.5c4.6,0,8.6,4,8.6,8.6c0,4.5-4,8.5-8.5,8.5C-175.8,434.6-179.9,430.5-179.9,426
		z M-176.7,426c0,3.2,2.1,5.3,5.3,5.4c3.2,0,5.4-2.2,5.4-5.4c0-3.1-2.1-5.3-5.2-5.3C-174.5,420.7-176.7,422.8-176.7,426z"/>
	<path class="st1" d="M-200.3,420.3c6.1,0,12.1,0,18.2,0c0.1,0,0.3,0,0.4,0c1.2,0,1.9,0.6,1.9,1.6s-0.7,1.6-2,1.6c-2.7,0-5.3,0-8,0
		c-9.6,0-19.2,0-28.8,0c-0.2,0-0.5,0-0.7,0c-1,0-1.7-0.6-1.7-1.6s0.6-1.6,1.7-1.6c4.3,0,8.6,0,12.9,0
		C-204.3,420.3-202.3,420.3-200.3,420.3z"/>
	<path class="st1" d="M-242.6,420.3c1.1,0,2.1,0,3,0c1.1,0,1.8,0.7,1.8,1.6s-0.7,1.6-1.8,1.6c-1.5,0-2.9,0-4.4,0
		c-1.2,0-1.8-0.6-1.8-1.7c0-3.9,0-7.9,0-11.8c0-1.1,0.7-1.8,1.6-1.7c0.9,0,1.5,0.7,1.5,1.7c0,3,0,6,0,9
		C-242.6,419.3-242.6,419.7-242.6,420.3z"/>
	<path class="st0" d="M-234.3,391.5c1.7-1.7,3.3-3.3,4.9-4.9c3.9-3.9,7.7-7.7,11.6-11.6c0.2-0.2,0.5-0.5,0.7-0.7
		c0.7-0.4,1.4-0.4,2,0.2s0.7,1.3,0.2,2c-0.2,0.3-0.4,0.5-0.7,0.7c-5.4,5.4-10.7,10.7-16.1,16.1c-1.7,1.7-3.5,1.7-5.2,0
		c-2.6-2.6-5.2-5.2-7.7-7.7c-0.1-0.1-0.2-0.2-0.3-0.3c-0.8-0.9-0.9-1.8-0.2-2.5s1.6-0.6,2.5,0.2c2.5,2.5,5,5,7.5,7.5
		C-234.8,390.8-234.6,391.1-234.3,391.5z"/>
</g>
</svg>
