<?xml version="1.0" encoding="utf-8"?>
<!-- Generator: Adobe Illustrator 19.1.0, SVG Export Plug-In . SVG Version: 6.00 Build 0)  -->
<svg version="1.1" id="Layer_1" xmlns="http://www.w3.org/2000/svg" xmlns:xlink="http://www.w3.org/1999/xlink" x="0px" y="0px"
	 viewBox="-255 347 100 100" style="enable-background:new -255 347 100 100;" xml:space="preserve">
<style type="text/css">
	.st0{fill:#1DA9E1;}
	.st1{fill:#ED3985;}
	.st2{fill:#66B9B7;}
</style>
<g>
	<g>
		<g>
			<path class="st0" d="M-180.2,372.7l-21.3-20.3c-0.3-0.3-0.6-0.5-1.1-0.5h-39.9c-0.8,0-1.5,0.7-1.5,1.5V433c0,0.8,0.7,1.5,1.5,1.5
				h41.3c0.8,0,1.5-0.7,1.5-1.5s-0.7-1.5-1.5-1.5H-241V355h36.7v19.9c0,0.8,0.7,1.5,1.5,1.5h19.9v26c0,0.8,0.7,1.5,1.5,1.5
				s1.5-0.7,1.5-1.5v-28.6C-179.7,373.4-179.9,373-180.2,372.7z M-201.1,373.3v-16.4l17.2,16.5L-201.1,373.3L-201.1,373.3z"/>
		</g>
	</g>
	<g>
		<g>
			<path class="st1" d="M-192,408.5h-38.3v-4.1l7.7-9l8,8c0.4,0.4,0.9,0.5,1.4,0.4s0.9-0.5,1.1-1.1l3.8-12.6l5.8,7
				c0.4,0.4,0.8,0.6,1.4,0.5s1-0.4,1.2-0.8l7.6-15.3c0.4-0.7,0.1-1.7-0.7-2.1c-0.7-0.4-1.7-0.1-2.1,0.7l-6.6,13.2l-6.1-7.4
				c-0.4-0.5-0.9-0.6-1.4-0.5s-1,0.5-1.2,1.1l-3.9,12.9l-7.4-7.4c-0.3-0.3-0.7-0.5-1.2-0.5s-0.8,0.2-1.1,0.5l-6.5,7.6v-29.5
				c0-0.8-0.7-1.5-1.5-1.5s-1.5,0.7-1.5,1.5v38.3h-3.1c-0.8,0-1.5,0.7-1.5,1.5s0.7,1.5,1.5,1.5h3.1v3.1c0,0.8,0.7,1.5,1.5,1.5
				s1.5-0.7,1.5-1.5v-3.1h38.3c0.8,0,1.5-0.7,1.5-1.5S-191.1,408.5-192,408.5z"/>
		</g>
	</g>
	<g>
		<path class="st2" d="M-166.6,438.7l-9.3-9.3c1.3-1.8,2-4,2-6.3c0-3-1.2-5.7-3.2-7.7c-2.1-2.1-4.9-3.2-7.7-3.2c-0.2,0-0.5,0-0.6,0
			v3.2c0.2,0,0.4,0,0.6,0c2.1,0,4,0.8,5.5,2.3c1.4,1.4,2.3,3.4,2.3,5.5s-0.8,4-2.3,5.5s-3.4,2.3-5.5,2.3s-4.1-0.8-5.5-2.3
			c-0.4-0.5-0.9-1-1.3-1.6c-0.5,0.3-0.9,0.4-1.4,0.4c-1,0-1.8-0.5-2.3-1.3c0,0,0,0,0,0.1c0.5,1.7,1.4,3.3,2.8,4.7
			c2.1,2.1,4.9,3.2,7.7,3.2c2.3,0,4.5-0.7,6.3-2l9.3,9.4c0.4,0.4,0.9,0.5,1.4,0.5s1-0.2,1.3-0.5
			C-165.9,440.6-165.9,439.4-166.6,438.7z"/>
		<path class="st2" d="M-197.6,419.2c-0.7,0-1.3,0.5-1.3,1.3v4.1c0,0.7,0.5,1.3,1.3,1.3c0.7,0,1.3-0.5,1.3-1.3v-4.1
			C-196.4,419.8-197,419.2-197.6,419.2z"/>
		<path class="st2" d="M-207.1,419.2c-0.7,0-1.3,0.5-1.3,1.3v4.1c0,0.7,0.5,1.3,1.3,1.3s1.3-0.5,1.3-1.3v-4.1
			C-205.8,419.8-206.4,419.2-207.1,419.2z"/>
		<path class="st2" d="M-202.4,414.1c-0.7,0-1.3,0.5-1.3,1.3v9.3c0,0.7,0.5,1.3,1.3,1.3s1.3-0.5,1.3-1.3v-9.4
			C-201.1,414.6-201.7,414.1-202.4,414.1z"/>
		<path class="st2" d="M-188.3,425.9c0.7,0,1.3-0.5,1.3-1.3V412c0-0.7-0.5-1.3-1.3-1.3s-1.3,0.5-1.3,1.3v12.6
			C-189.5,425.3-189,425.9-188.3,425.9z"/>
		<path class="st2" d="M-192.9,425.9c0.7,0,1.3-0.5,1.3-1.3v-9.4c0-0.7-0.5-1.3-1.3-1.3s-1.3,0.5-1.3,1.3v9.3
			C-194.2,425.3-193.7,425.9-192.9,425.9z"/>
	</g>
</g>
</svg>
