<?xml version="1.0" encoding="utf-8"?>
<!-- Generator: Adobe Illustrator 19.1.0, SVG Export Plug-In . SVG Version: 6.00 Build 0)  -->
<svg version="1.1" id="Layer_1" xmlns="http://www.w3.org/2000/svg" xmlns:xlink="http://www.w3.org/1999/xlink" x="0px" y="0px"
	 viewBox="-255 347 100 100" style="enable-background:new -255 347 100 100;" xml:space="preserve">
<style type="text/css">
	.st0{fill:#ED3985;}
	.st1{fill:#5F7D7A;}
</style>
<g>
	<path class="st0" d="M-175,401.6v-29c0-0.4-0.1-0.6-0.3-1l0,0l-11.3-18.7c-0.4-0.5-1-0.9-1.6-0.9h-48.7c-0.6,0-1.3,0.4-1.6,0.9
		l-11.3,18.7l0,0c-0.2,0.4-0.3,0.6-0.3,1v52.5c0,1.1,0.8,1.9,1.9,1.9h47.7c2.4,8.6,10.4,15,19.8,15c11.3,0,20.6-9.3,20.6-20.6
		C-160,411.9-166.4,404-175,401.6z M-189.2,355.8l9,15h-21.4l-3-15H-189.2z M-216.6,355.8h8.2l3.1,15h-14.2L-216.6,355.8z
		 M-205,374.5v7.5h-15v-7.5H-205z M-235.8,355.8h15.4l-3,15h-21.4L-235.8,355.8z M-201.1,423.3h-45.1v-48.8h22.5v9.4
		c0,1.1,0.8,1.9,1.9,1.9h18.7c1.1,0,1.9-0.8,1.9-1.9v-9.4h22.5v26.4c-0.6-0.1-1.3-0.1-1.9-0.1c-11.3,0-20.6,9.3-20.6,20.6
		C-201.2,422-201.2,422.6-201.1,423.3z M-180.6,438.2c-9.3,0-16.9-7.6-16.9-16.9c0-9.4,7.6-16.9,16.9-16.9s16.9,7.6,16.9,16.9
		C-163.7,430.7-171.3,438.2-180.6,438.2z"/>
	<path class="st1" d="M-172.6,414.5l-11.8,11.8l-4.3-4.3c-0.7-0.7-1.9-0.7-2.6,0s-0.7,1.9,0,2.6l5.7,5.7c0.4,0.4,0.8,0.5,1.3,0.5
		c0.4,0,1-0.2,1.4-0.5l13.1-13.1c0.7-0.7,0.7-1.9,0-2.6C-170.6,413.6-171.9,413.6-172.6,414.5z"/>
</g>
</svg>
