<?xml version="1.0" encoding="utf-8"?>
<!-- Generator: Adobe Illustrator 19.1.0, SVG Export Plug-In . SVG Version: 6.00 Build 0)  -->
<svg version="1.1" id="Layer_1" xmlns="http://www.w3.org/2000/svg" xmlns:xlink="http://www.w3.org/1999/xlink" x="0px" y="0px"
	 viewBox="-279.4 347 100 100" style="enable-background:new -279.4 347 100 100;" xml:space="preserve">
<style type="text/css">
	.st0{fill:#FED208;}
	.st1{fill:#F15B2A;stroke:#F15B2A;}
	.st2{fill:#ED3985;}
</style>
<g>
	<g>
		<g>
			<path class="st0" d="M-213.9,397c-12.1,0-22,9.9-22,22s9.9,22,22,22s22-9.9,22-22S-201.8,397-213.9,397z M-213.9,438
				c-10.5,0-19.1-8.5-19.1-19s8.6-19.1,19.1-19.1s19,8.6,19,19.1S-203.4,438-213.9,438z"/>
		</g>
	</g>
	<g>
		<g>
			<path class="st1" d="M-211.8,419l6.3-6.3c0.6-0.6,0.6-1.5,0-2.1c-0.6-0.6-1.5-0.6-2.1,0l-6.3,6.3l-6.3-6.3
				c-0.6-0.6-1.5-0.6-2.1,0c-0.6,0.6-0.6,1.5,0,2.1l6.3,6.3l-6.3,6.3c-0.6,0.6-0.6,1.5,0,2.1c0.3,0.3,0.7,0.4,1,0.4
				c0.4,0,0.8-0.1,1-0.4l6.3-6.3l6.3,6.3c0.3,0.3,0.7,0.4,1,0.4c0.4,0,0.8-0.1,1-0.4c0.6-0.6,0.6-1.5,0-2.1L-211.8,419z"/>
		</g>
	</g>
	<g>
		<g>
			<path class="st2" d="M-234.4,433.6h-29.4v-10.2c0-0.8-0.7-1.5-1.5-1.5c-0.8,0-1.5,0.7-1.5,1.5v11.7c0,0.8,0.7,1.5,1.5,1.5h30.8
				c0.8,0,1.5-0.7,1.5-1.5C-233,434.3-233.6,433.6-234.4,433.6z"/>
		</g>
	</g>
	<g>
		<g>
			<path class="st1" d="M-265.2,416c-0.8,0-1.5,0.7-1.5,1.5s0.7,1.5,1.5,1.5l0,0c0.8,0,1.5-0.7,1.5-1.5
				C-263.8,416.7-264.4,416-265.2,416z"/>
		</g>
	</g>
	<g>
		<g>
			<path class="st2" d="M-205.5,376.9l-23.5-23.5c-0.3-0.3-0.6-0.4-1-0.4h-35.2c-0.8,0-1.5,0.7-1.5,1.5v57.2c0,0.8,0.7,1.5,1.5,1.5
				c0.8,0,1.5-0.7,1.5-1.5v-55.8h32.3v22c0,0.8,0.7,1.5,1.5,1.5h22v13.2c0,0.8,0.7,1.5,1.5,1.5s1.5-0.7,1.5-1.5v-14.7
				C-205.1,377.5-205.3,377.2-205.5,376.9z M-228.6,376.5V358l18.5,18.5H-228.6L-228.6,376.5z"/>
		</g>
	</g>
</g>
</svg>
