<?xml version="1.0" encoding="utf-8"?>
<!-- Generator: Adobe Illustrator 19.1.0, SVG Export Plug-In . SVG Version: 6.00 Build 0)  -->
<svg version="1.1" id="Layer_1" xmlns="http://www.w3.org/2000/svg" xmlns:xlink="http://www.w3.org/1999/xlink" x="0px" y="0px"
	 viewBox="-255 346.5 100 100" style="enable-background:new -255 346.5 100 100;" xml:space="preserve">
<style type="text/css">
	.st0{fill:#ED3985;}
	.st1{fill:#5F7D7A;}
	.st2{fill:#66B9B7;}
</style>
<g>
	<g>
		<g>
			<polygon class="st0" points="-238.8,362.1 -248.3,372.9 -251.9,369.3 -254.1,371.5 -248.2,377.5 -236.5,364.2 			"/>
		</g>
	</g>
	<g>
		<g>
			<rect x="-223.9" y="363.9" class="st0" width="36.7" height="3.1"/>
		</g>
	</g>
	<g>
		<g>
			<rect x="-223.9" y="373.3" class="st0" width="68.9" height="3.1"/>
		</g>
	</g>
	<g>
		<g>
			<rect x="-223.9" y="390" class="st1" width="36.7" height="3.1"/>
		</g>
	</g>
	<g>
		<g>
			<rect x="-223.9" y="399.4" class="st1" width="68.9" height="3.1"/>
		</g>
	</g>
	<g>
		<g>
			<path class="st1" d="M-246.6,387.7c-4.7,0-8.4,3.8-8.4,8.6c0,4.7,3.8,8.6,8.4,8.6c4.7,0,8.4-3.8,8.4-8.6
				C-238.1,391.5-241.9,387.7-246.6,387.7z M-246.6,401.7c-2.9,0-5.3-2.4-5.3-5.5s2.4-5.5,5.3-5.5c2.9,0,5.3,2.4,5.3,5.5
				S-243.6,401.7-246.6,401.7z"/>
		</g>
	</g>
	<g>
		<g>
			<g>
				<rect x="-223.9" y="416.2" class="st2" width="36.7" height="3.1"/>
			</g>
		</g>
		<g>
			<g>
				<rect x="-223.9" y="425.5" class="st2" width="68.9" height="3.1"/>
			</g>
		</g>
		<g>
			<g>
				<path class="st2" d="M-246.6,413.8c-4.7,0-8.4,3.8-8.4,8.6c0,4.8,3.8,8.6,8.4,8.6c4.7,0,8.4-3.8,8.4-8.6
					S-241.9,413.8-246.6,413.8z M-246.6,427.9c-2.9,0-5.3-2.4-5.3-5.5c0-3,2.4-5.5,5.3-5.5c2.9,0,5.3,2.4,5.3,5.5
					C-241.2,425.4-243.6,427.9-246.6,427.9z"/>
			</g>
		</g>
	</g>
</g>
</svg>
