<?xml version="1.0" encoding="utf-8"?>
<!-- Generator: Adobe Illustrator 21.1.0, SVG Export Plug-In . SVG Version: 6.00 Build 0)  -->
<svg version="1.1" id="Layer_1" xmlns="http://www.w3.org/2000/svg" xmlns:xlink="http://www.w3.org/1999/xlink" x="0px" y="0px"
	 viewBox="0 0 100 102.4" style="enable-background:new 0 0 100 102.4;" xml:space="preserve">
<style type="text/css">
	.st0{fill:#F05A28;stroke:#F05A28;}
	.st1{fill:#65B9B6;}
	.st2{fill:#5E7C79;}
	.st3{fill:#ED3684;}
	.st4{fill:#1AAAE2;}
</style>
<g>
	<path class="st0" d="M51,72.6c13,0,23.6-10.6,23.6-23.6V24.6C74.6,11.6,64,1,51,1S27.4,11.6,27.4,24.6V49
		C27.4,62.1,38,72.6,51,72.6z M30.9,24.6c0-11.1,9-20.1,20.1-20.1s20.1,9,20.1,20.1V49c0,11.1-9,20.1-20.1,20.1s-20.1-9-20.1-20.1
		V24.6z"/>
	<path class="st1" d="M57.1,80.3c14.4-2.9,25.3-15.6,25.3-30.8c0-1-0.8-1.7-1.7-1.7c-1,0-1.7,0.8-1.7,1.7c0,15.4-12.5,28-28,28
		s-28-12.5-28-28c0-1-0.8-1.7-1.7-1.7c-1,0-1.7,0.8-1.7,1.7c0,15.2,10.9,28,25.3,30.8v11.5c0,0.3,0.1,0.6,0.2,0.8l-9.4,9.4
		c-0.7,0.7-0.7,1.8,0,2.5c0.3,0.3,0.8,0.5,1.2,0.5s0.9-0.2,1.2-0.5l10.9-10.9h3.8l10.9,10.9c0.3,0.3,0.8,0.5,1.2,0.5
		s0.9-0.2,1.2-0.5c0.7-0.7,0.7-1.8,0-2.5l-9.4-9.4c0.1-0.2,0.2-0.5,0.2-0.8V80.3z M53.6,90.1h-5.2v-8.7h5.2V90.1z"/>
	<path class="st2" d="M41.4,23.7h19.3c1,0,1.7-0.8,1.7-1.7c0-1-0.8-1.7-1.7-1.7H41.4c-1,0-1.7,0.8-1.7,1.7
		C39.6,22.9,40.4,23.7,41.4,23.7z"/>
	<path class="st3" d="M41.4,34.2h19.3c1,0,1.7-0.8,1.7-1.7c0-1-0.8-1.7-1.7-1.7H41.4c-1,0-1.7,0.8-1.7,1.7
		C39.6,33.4,40.4,34.2,41.4,34.2z"/>
	<path class="st4" d="M41.4,44.7h19.3c1,0,1.7-0.8,1.7-1.7c0-1-0.8-1.7-1.7-1.7H41.4c-1,0-1.7,0.8-1.7,1.7
		C39.6,43.9,40.4,44.7,41.4,44.7z"/>
	<path class="st2" d="M41.4,55.2h19.3c1,0,1.7-0.8,1.7-1.7c0-1-0.8-1.7-1.7-1.7H41.4c-1,0-1.7,0.8-1.7,1.7
		C39.6,54.4,40.4,55.2,41.4,55.2z"/>
</g>
</svg>
