<?xml version="1.0" encoding="utf-8"?>
<!-- Generator: Adobe Illustrator 19.1.0, SVG Export Plug-In . SVG Version: 6.00 Build 0)  -->
<svg version="1.1" id="Layer_1" xmlns="http://www.w3.org/2000/svg" xmlns:xlink="http://www.w3.org/1999/xlink" x="0px" y="0px"
	 viewBox="0 0 170 170" style="enable-background:new 0 0 170 170;" xml:space="preserve">
<style type="text/css">
	.st0{display:none;}
	.st1{display:inline;}
	.st2{display:inline;clip-path:url(#SVGID_2_);fill:#F2613C;}
	.st3{display:inline;clip-path:url(#SVGID_2_);fill:none;stroke:#FFFFFF;stroke-width:2.928;stroke-miterlimit:10;}
	.st4{clip-path:url(#SVGID_4_);fill:#F2613C;}
	.st5{fill:none;stroke:#FFFFFF;stroke-width:2.928;stroke-miterlimit:10;}
	.st6{clip-path:url(#SVGID_6_);fill:none;stroke:#FFFFFF;stroke-width:2.44;stroke-miterlimit:10;}
</style>
<g class="st0">
	<defs>
		<rect id="SVGID_1_" x="2.2" y="7.2" width="165.5" height="155.5"/>
	</defs>
	<clipPath id="SVGID_2_" class="st1">
		<use xlink:href="#SVGID_1_"  style="overflow:visible;"/>
	</clipPath>
	<path class="st2" d="M85,161.8c40.7,0,73.8-33,73.8-73.8c0-40.7-33-73.8-73.8-73.8S11.2,47.3,11.2,88
		C11.2,128.7,44.3,161.8,85,161.8"/>
	<circle class="st3" cx="84.1" cy="88" r="32"/>
	<path class="st3" d="M130.4,123.4V89.7V56.2c0,0-3-3.2-5.1,7.6c-1,5.1-2.3,29.5,5.1,25.9 M34.8,56.2c0,0-2.7,17,6.8,17
		c7.8,0,7.5-11.5,7.5-17 M41.6,56.2v67.3 M108.6,88.2c0,13.5-10.9,24.4-24.4,24.4c-13.5,0-24.4-10.9-24.4-24.4
		c0-13.5,10.9-24.4,24.4-24.4C97.7,63.8,108.6,74.7,108.6,88.2z"/>
</g>
<g>
	<defs>
		<rect id="SVGID_3_" x="11.2" y="11.2" width="147.5" height="147.5"/>
	</defs>
	<clipPath id="SVGID_4_">
		<use xlink:href="#SVGID_3_"  style="overflow:visible;"/>
	</clipPath>
	<path class="st4" d="M85,158.8c40.7,0,73.8-33,73.8-73.8c0-40.7-33-73.8-73.8-73.8c-40.7,0-73.8,33-73.8,73.8
		C11.2,125.7,44.3,158.8,85,158.8"/>
</g>
<path class="st5" d="M98.1,72.9h28.3v48.7 M43.6,121.5V48.5h54.6v73.1"/>
<g>
	<defs>
		<rect id="SVGID_5_" x="11.2" y="11.2" width="147.5" height="147.5"/>
	</defs>
	<clipPath id="SVGID_6_">
		<use xlink:href="#SVGID_5_"  style="overflow:visible;"/>
	</clipPath>
	<path class="st6" d="M32.8,123.1h104.5 M89.9,109.1c0,0.7-0.6,1.3-1.3,1.3H77.3c-0.7,0-1.3-0.6-1.3-1.3v-4.5c0-0.7,0.6-1.3,1.3-1.3
		h11.4c0.7,0,1.3,0.6,1.3,1.3V109.1z M68.2,109.1c0,0.7-0.6,1.3-1.3,1.3H55.5c-0.7,0-1.3-0.6-1.3-1.3v-4.5c0-0.7,0.6-1.3,1.3-1.3
		h11.4c0.7,0,1.3,0.6,1.3,1.3V109.1z M120.1,105.9c0,0.7-0.6,1.3-1.3,1.3h-11.4c-0.7,0-1.3-0.6-1.3-1.3v-4.5c0-0.7,0.6-1.3,1.3-1.3
		h11.4c0.7,0,1.3,0.6,1.3,1.3V105.9z M120.1,88.8c0,0.7-0.6,1.3-1.3,1.3h-11.4c-0.7,0-1.3-0.6-1.3-1.3v-4.5c0-0.7,0.6-1.3,1.3-1.3
		h11.4c0.7,0,1.3,0.6,1.3,1.3V88.8z M89.9,89.5c0,0.7-0.6,1.3-1.3,1.3H77.3c-0.7,0-1.3-0.6-1.3-1.3v-4.5c0-0.7,0.6-1.3,1.3-1.3h11.4
		c0.7,0,1.3,0.6,1.3,1.3V89.5z M68.2,89.5c0,0.7-0.6,1.3-1.3,1.3H55.5c-0.7,0-1.3-0.6-1.3-1.3v-4.5c0-0.7,0.6-1.3,1.3-1.3h11.4
		c0.7,0,1.3,0.6,1.3,1.3V89.5z M89.9,71.2c0,0.7-0.6,1.3-1.3,1.3H77.3c-0.7,0-1.3-0.6-1.3-1.3v-4.5c0-0.7,0.6-1.3,1.3-1.3h11.4
		c0.7,0,1.3,0.6,1.3,1.3V71.2z M68.2,71.2c0,0.7-0.6,1.3-1.3,1.3H55.5c-0.7,0-1.3-0.6-1.3-1.3v-4.5c0-0.7,0.6-1.3,1.3-1.3h11.4
		c0.7,0,1.3,0.6,1.3,1.3V71.2z"/>
</g>
</svg>
