<?xml version="1.0" encoding="utf-8"?>
<!-- Generator: Adobe Illustrator 19.1.0, SVG Export Plug-In . SVG Version: 6.00 Build 0)  -->
<svg version="1.1" id="Layer_1" xmlns="http://www.w3.org/2000/svg" xmlns:xlink="http://www.w3.org/1999/xlink" x="0px" y="0px"
	 viewBox="0 0 85.6 62.1" style="enable-background:new 0 0 85.6 62.1;" xml:space="preserve">
<style type="text/css">
	.st0{fill:none;stroke:#F15B2A;stroke-width:2.4;stroke-miterlimit:10;}
	.st1{fill:none;stroke:#F15B2A;stroke-width:2;stroke-miterlimit:10;}
	.st2{fill:none;stroke:#ED3985;stroke-width:2;stroke-miterlimit:10;}
	.st3{fill:none;stroke:#5F7D7A;stroke-width:2;stroke-miterlimit:10;}
	.st4{fill:none;stroke:#66B9B7;stroke-width:2;stroke-miterlimit:10;}
</style>
<g>
	<path class="st0" d="M54.3,21.2h23.2v39.9 M9.6,61.1V1.2h44.7v59.9"/>
	<line class="st1" x1="0" y1="61.1" x2="85.6" y2="61.1"/>
	<path class="st2" d="M46.9,49.6c0,0.6-0.5,1-1,1h-9.4c-0.6,0-1-0.5-1-1v-3.7c0-0.6,0.5-1,1-1h9.4c0.6,0,1,0.5,1,1V49.6z"/>
	<path class="st2" d="M29.1,49.6c0,0.6-0.5,1-1,1h-9.4c-0.6,0-1-0.5-1-1v-3.7c0-0.6,0.5-1,1-1H28c0.6,0,1,0.5,1,1V49.6z"/>
	<path class="st2" d="M71.6,47c0,0.6-0.5,1-1,1h-9.4c-0.6,0-1-0.5-1-1v-3.7c0-0.6,0.5-1,1-1h9.4c0.6,0,1,0.5,1,1V47z"/>
	<path class="st3" d="M71.6,33c0,0.6-0.5,1-1,1h-9.4c-0.6,0-1-0.5-1-1v-3.7c0-0.6,0.5-1,1-1h9.4c0.6,0,1,0.5,1,1V33z"/>
	<path class="st3" d="M46.9,33.6c0,0.6-0.5,1-1,1h-9.4c-0.6,0-1-0.5-1-1v-3.7c0-0.6,0.5-1,1-1h9.4c0.6,0,1,0.5,1,1V33.6z"/>
	<path class="st3" d="M29.1,33.6c0,0.6-0.5,1-1,1h-9.4c-0.6,0-1-0.5-1-1v-3.7c0-0.6,0.5-1,1-1H28c0.6,0,1,0.5,1,1V33.6z"/>
	<path class="st4" d="M46.9,18.6c0,0.6-0.5,1-1,1h-9.4c-0.6,0-1-0.5-1-1v-3.7c0-0.6,0.5-1,1-1h9.4c0.6,0,1,0.5,1,1V18.6z"/>
	<path class="st4" d="M29.1,18.6c0,0.6-0.5,1-1,1h-9.4c-0.6,0-1-0.5-1-1v-3.7c0-0.6,0.5-1,1-1H28c0.6,0,1,0.5,1,1V18.6z"/>
</g>
</svg>
