<?xml version="1.0" encoding="utf-8"?>
<!-- Generator: Adobe Illustrator 19.1.0, SVG Export Plug-In . SVG Version: 6.00 Build 0)  -->
<svg version="1.1" id="Layer_1" xmlns="http://www.w3.org/2000/svg" xmlns:xlink="http://www.w3.org/1999/xlink" x="0px" y="0px"
	 viewBox="-255 347 100 100" style="enable-background:new -255 347 100 100;" xml:space="preserve">
<style type="text/css">
	.st0{fill:#1DA9E1;}
	.st1{fill:#ED3985;}
</style>
<g>
	<polygon class="st0" points="-184.4,414.7 -192.2,406.9 -196.6,411.3 -184.4,423.5 -168.4,407.5 -172.8,403.1 	"/>
	<path class="st1" d="M-166.9,389.9v-34.8H-255V411h46.4c0,0.4,0,0.8,0,1.2c0,14.8,12,26.8,26.8,26.8s26.8-12,26.8-26.8
		C-155,402.9-159.7,394.7-166.9,389.9z M-173.1,361.3v8.3h-75.7v-8.3H-173.1z M-248.8,404.8v-29h75.6v11c-2.7-0.9-5.6-1.4-8.7-1.4
		c-12.2,0-22.6,8.2-25.8,19.4H-248.8z M-181.8,432.8c-11.4,0-20.6-9.2-20.6-20.6s9.2-20.6,20.6-20.6c11.4,0,20.6,9.2,20.6,20.6
		S-170.5,432.8-181.8,432.8z"/>
</g>
</svg>
