<?xml version="1.0" encoding="utf-8"?>
<!-- Generator: Adobe Illustrator 19.1.0, SVG Export Plug-In . SVG Version: 6.00 Build 0)  -->
<svg version="1.1" id="Layer_1" xmlns="http://www.w3.org/2000/svg" xmlns:xlink="http://www.w3.org/1999/xlink" x="0px" y="0px"
	 viewBox="-254.6 347 100 100" style="enable-background:new -254.6 347 100 100;" xml:space="preserve">
<style type="text/css">
	.st0{fill:#5F7D7A;}
	.st1{fill:#F15B2A;stroke:#F15B2A;stroke-width:0.886;}
	.st2{fill:#66B9B7;}
	.st3{fill:#FED208;}
	.st4{fill:#1DA9E1;}
</style>
<g>
	<path class="st0" d="M-244.2,435.1c2.8-1.1,5.5-2.2,8.2-3.4c0.6-0.2,0.7-1.1,0.2-1.6c-0.7-0.7-1.2-1.3-1.9-2
		c-0.2-0.2-0.3-0.7-0.3-1c0-1.9,0-3.6,0-5.5c0-1.1,0.3-2.1,1.3-2.9c0.1-0.1,0.2-0.2,0.2-0.2c3.5-3,3.1-2.5,7.9-2.5
		c0.4,0,1,0.2,1.3,0.3c1.1,1,2.4,1.9,3.3,2.9c0.4,0.6,0.7,1.5,0.8,2.3c0.1,1.9,0.1,3.6,0,5.5c0,0.3-0.2,0.7-0.3,1.1
		c-0.4,0.6-1.1,1.1-1.5,1.7c-0.9,1-0.8,1.9,0.3,2.5c1.1,0.7,2.1,1.2,3.2,1.9c0.7,0.4,1.2,0.4,2,0.6c2.9,0.3,5.4-0.3,7.9-2
		c0.6-0.3,1.1-0.6,1.8-0.9c0.7-0.3,0.9-1.2,0.3-1.9c-0.1-0.1-0.2-0.2-0.2-0.3c-1.8-1.3-2.3-3.1-2-5.2c0.2-1,0-2,0-2.9
		c0-1.2,0.3-2.3,1.4-3.1c0.1-0.1,0.2-0.1,0.2-0.2c3.4-3.1,3.1-2.5,7.8-2.5c0.4,0,1.1,0.2,1.4,0.4c1.1,0.9,2.3,1.8,3.3,2.9
		c0.6,0.6,0.8,1.5,0.9,2.3c0.2,1.9,0.1,3.6,0,5.6c0,0.3-0.2,0.7-0.3,0.9c-0.6,0.7-1.1,1.2-1.8,2c-0.2,0.2-0.3,0.6-0.3,0.8
		c-0.2,0.7,0.1,1.2,0.8,1.4c0.2,0.1,0.2,0.1,0.3,0.2c2.5,2,5.2,2.7,8.3,2.2c0.3-0.1,0.9-0.1,1.2-0.3c1.7-0.7,3.3-1.5,5-2.3
		c0.8-0.3,1-1.2,0.3-2c-0.7-0.7-1.2-1.3-1.9-2c-0.2-0.2-0.3-0.7-0.3-1.1c-0.1-1.8,0-3.5,0-5.3c0-1.2,0.4-2.2,1.4-3.1
		c3.6-3.2,3.1-2.7,8.1-2.7c0.3,0,0.8,0.1,1.1,0.3c1.2,1.1,2.5,2,3.5,3.2c0.4,0.4,0.7,1.4,0.7,2.1c0.1,1.8,0.1,3.5,0,5.4
		c0,0.3-0.2,0.7-0.3,1.1c-0.6,0.7-1.1,1.2-1.7,1.9c-0.7,0.8-0.6,1.5,0.3,2c2.2,0.9,4.3,1.8,6.5,2.7c0.7,0.3,1.1,0.7,1,1.4
		c-0.1,0.2,0,0.6,0,1c-0.6,0-1.1,0-1.6,0c-0.1,0-0.2,0-0.3-0.1c-0.3-1.1-1.4-1-2.2-1.2c-1.9-0.9-4-1.6-6-2.4c-0.4-0.2-0.7-0.4-0.7-1
		c-0.2-2.1,0.2-4,2-5.4c0.3-0.2,0.4-0.9,0.4-1.2c0.1-1.2,0-2.7,0-3.9c0-0.7-0.2-1.2-0.8-1.7c-2.4-2-2.9-2.2-6-2
		c-0.2,0-0.3,0.1-0.6,0.2c-0.9,0.7-1.7,1.3-2.5,2.1c-0.2,0.2-0.3,0.7-0.3,1c0,1.5,0,3,0,4.5c0,0.3,0.2,0.6,0.3,0.8
		c0.1,0.1,0.2,0.2,0.2,0.2c1.9,1.3,2.3,3.2,1.9,5.2c-0.1,0.3-0.2,0.7-0.4,0.8c-2.3,1.2-4.7,2.4-7,3.5c-0.3,0.2-0.7,0.2-1,0.2
		c-1.9,0-3.5,0-5.4,0c-0.3,0-0.8-0.1-1.1-0.3c-1.9-1.1-3.6-2.2-5.6-3.3c-0.4-0.2-0.6-0.6-0.6-1.1c-0.3-2,0.3-3.6,1.9-5
		c0.6-0.3,0.7-1,0.7-1.6c-0.1-1.3,0.1-2.7-0.1-4c0-0.4-0.3-1.1-0.7-1.3c-2.5-2.2-2.9-2.3-6.1-2c-0.7,0.1-3.3,2.3-3.3,3
		c-0.1,1.7-0.1,3.3,0,5.1c0,0.3,0.3,0.7,0.7,0.9c1.5,1.2,2.1,2.8,1.9,4.8c-0.1,0.7-0.2,1.1-0.9,1.4c-2.2,1.1-4.3,2.1-6.5,3.3
		c-0.3,0.2-0.8,0.2-1.1,0.3c-1.8,0-3.4,0-5.3,0c-0.3,0-0.7-0.1-1.1-0.2c-1.9-1.1-3.8-2.2-5.6-3.4c-0.2-0.2-0.4-0.6-0.6-0.9
		c-0.3-2,0.2-3.8,1.9-5.1c0.4-0.4,0.6-0.9,0.6-1.4c0-1.2,0-2.7,0-3.9c0-0.7-0.2-1.2-0.7-1.5c0,0-0.1,0-0.1-0.1c-2.5-2-2.5-2-5.6-2
		c-0.2,0-0.3,0-0.4,0.1c-1.1,0.9-2,1.8-3,2.8c-0.2,0.2-0.2,0.6-0.2,0.9c0,1.3,0,2.8,0,4.2c0,0.3,0.3,0.8,0.4,1.2
		c0,0.1,0.1,0.1,0.1,0.1c2,2.3,2,2.3,1.9,5.4c0,0.4-0.2,0.7-0.7,0.8c-2.3,1-4.7,1.8-7,2.8c-1.1,0.6-2.5,0.6-3.6,0.7
		C-244.2,436.5-244.2,435.8-244.2,435.1z"/>
	<path class="st1" d="M-167,359.7c-24.9,0-49.6,0-74.5,0c0,14.9,0,30,0,45.1c4.5,0,9,0,13.6,0c0,0.7,0.1,1.4,0,2
		c0,0.2-0.4,0.3-0.7,0.3c-3.3,0-6.5,0-9.9,0c-1.8,0-3.4,0-5.4,0c0-16.6,0-33.2,0-49.9c26.3,0,52.7,0,79.1,0c0,16.6,0,33.2,0,49.8
		c-5.2,0-10.5,0-15.8,0c0-0.8,0-1.5,0-2.4c4.5,0,9.1,0,13.6,0C-167,389.7-167,374.8-167,359.7z"/>
	<path class="st2" d="M-190.9,394.7c2.2,0,4.2,0,6.4,0c0-0.2,0.1-0.4,0.1-0.7c0-2.4,0-4.8,0-7.2c0-0.3-0.2-0.8-0.3-1.1
		c-1.3-1.3-2.7-2.8-4.2-4.2c0.7-0.6,1.1-1.1,1.8-1.6c0.1,0.1,0.3,0.2,0.4,0.4c1.4,1.4,2.9,2.8,4.2,4.3c0.2,0.2,0.4,0.7,0.4,1.1
		c0,2.5,0,5.1,0,7.7c0,0.3,0,0.7,0,1c0.9,0,1.7,0,2.5,0c0,2.9,0,5.8,0,8.6c-0.7,0-1.5,0-2.3,0c0-2,0-4.1,0-6.1
		c-14.9,0-29.9,0-44.9,0c0,2,0,4.1,0,6.1c-0.9,0-1.6,0-2.3,0c0-2.9,0-5.6,0-8.6c0.7,0,1.5,0,2.3,0c0-0.7,0-1.1,0-1.7
		c0-2.3,0-4.7,0-7c0-0.2,0-0.7,0.2-0.8c1.7-1.8,3.3-3.4,5-5.1c0.6,0.6,1.1,1.1,1.7,1.8c-1.2,1.2-2.7,2.7-4,3.9
		c-0.3,0.4-0.6,0.8-0.6,1.3c0,2.5,0,5,0,7.5c2,0,4.2,0,6.3,0c0-0.3,0-0.6,0-0.8c0-3.2,0-6.4,0-9.6c0-1.9,0.8-3,2.5-3.8
		c1.9-0.8,3.6-1.5,5.5-2.3c1-0.4,1.1-1.1,0.3-2c-0.6-0.7-1.1-1.3-1.8-2c-0.2-0.2-0.3-0.6-0.3-0.9c0-2,0-3.8,0-5.6
		c0-1.1,0.3-2,1.2-2.8c0.1-0.1,0.2-0.2,0.3-0.3c3.3-2.9,3-2.5,7.5-2.5c0.9,0,1.7,0.3,2.3,1c0.7,0.6,1.3,1.1,2,1.8
		c1,0.8,1.4,1.9,1.4,3.1c0,1.9,0,3.5,0,5.4c0,0.3-0.2,0.7-0.3,0.9c-0.4,0.7-1.1,1.2-1.6,1.9c-0.9,1.1-0.8,1.8,0.3,2.3
		c1.7,0.9,3.3,1.8,5.1,2.7c0.4,0.2,0.9,0.6,1.3,0.8c0.9,0.7,1.3,1.5,1.3,2.7c-0.1,3.1,0,6.1,0,9.2
		C-190.9,394.1-190.9,394.2-190.9,394.7z M-199.5,385.2c-1.4-0.4-2.8-1.1-4.2-1.4c-0.3-0.2-1-0.2-1.3,0c-1.3,0.4-2.7,1-4.2,1.4
		c0-1.6,0-3,0-4.6c-1.9,0.8-3.6,1.5-5.4,2.3c-0.7,0.3-1,0.9-1,1.7c0,3.2,0,6.4,0,9.6c0,0.2,0,0.4,0.1,0.7c7.4,0,14.9,0,22.3,0
		c0-0.2,0.1-0.3,0.1-0.4c0-3.2,0-6.3,0-9.5c0-0.7-0.2-1.1-0.8-1.2c-1.7-0.9-3.3-1.7-5.1-2.5c-0.2-0.1-0.2-0.1-0.4-0.1
		c0,0.7,0,1.4,0,2C-199.4,383.6-199.4,384.3-199.5,385.2z M-201.9,381.8c0.1-1.2,0.2-2.3,0.2-3.3c-0.3-2.1,0.4-3.8,2-5.1
		c0.3-0.2,0.4-0.8,0.4-1.2c0.1-1.1,0-2.1,0-3.2c0.1-1.2-0.2-2.2-1.3-2.9c-0.3-0.2-0.7-0.7-1.1-1c-0.4-0.2-1-0.4-1.5-0.6
		c-3.1-0.1-3.1-0.1-5.5,2c-0.6,0.4-0.8,1-0.8,1.6c0,1.4,0,2.8,0,4.2c0,0.3,0.2,0.7,0.3,0.9c2,1.5,2.5,3.5,2.1,6
		c-0.1,0.6,0,1.1,0,1.8c0,0.2,0.1,0.4,0.1,0.9C-205.2,380.7-203.6,380.9-201.9,381.8z"/>
	<path class="st3" d="M-182.9,415.9c-0.8-0.1-1.5-0.2-2.4-0.2c0.3-4.2,0.7-8.2,1-12.4c0.8,0.1,1.5,0.1,2.4,0.2
		C-182.4,407.8-182.7,411.9-182.9,415.9z"/>
	<path class="st3" d="M-226.6,403.6c0.8-0.1,1.5-0.2,2.4-0.2c0.3,4.1,0.7,8.2,1,12.3c-0.8,0.1-1.5,0.2-2.4,0.2
		C-225.9,411.8-226.3,407.8-226.6,403.6z"/>
	<path class="st4" d="M-190.5,405.8c0-0.8,0-1.5,0-2.3c0.8,0,1.5,0,2.3,0c0,0.8,0,1.5,0,2.3C-189,405.8-189.7,405.8-190.5,405.8z"/>
	<path class="st4" d="M-195.5,405.8c0-0.8,0-1.5,0-2.3c0.8,0,1.5,0,2.3,0c0,0.8,0,1.5,0,2.3C-194,405.8-194.7,405.8-195.5,405.8z"/>
	<path class="st4" d="M-218.1,403.5c0,0.8,0,1.5,0,2.3c-0.7,0-1.4,0-2.2,0c0-0.7,0-1.5,0-2.3C-219.6,403.5-219,403.5-218.1,403.5z"
		/>
	<path class="st4" d="M-213.2,406c-0.7,0-1.4,0-2.2,0c0-0.8,0-1.5,0-2.3c0.7,0,1.4,0,2.2,0C-213.2,404.4-213.2,405.1-213.2,406z"/>
	<path class="st4" d="M-208.2,403.5c0,0.8,0,1.5,0,2.3c-0.7,0-1.4,0-2.2,0c0-0.7,0-1.5,0-2.3C-209.7,403.5-209,403.5-208.2,403.5z"
		/>
	<path class="st4" d="M-203.1,405.8c-0.8,0-1.4,0-2.2,0c0-0.8,0-1.5,0-2.3c0.8,0,1.5,0,2.2,0C-203.1,404.4-203.1,405.1-203.1,405.8z
		"/>
	<path class="st4" d="M-198.2,403.5c0,0.8,0,1.5,0,2.3c-0.2,0-0.3,0.1-0.3,0.1c-2,0.1-2.3-0.2-1.9-2.4
		C-199.7,403.5-198.9,403.5-198.2,403.5z"/>
</g>
</svg>
