<?xml version="1.0" encoding="utf-8"?>
<!-- Generator: Adobe Illustrator 19.1.0, SVG Export Plug-In . SVG Version: 6.00 Build 0)  -->
<svg version="1.1" id="Layer_1" xmlns="http://www.w3.org/2000/svg" xmlns:xlink="http://www.w3.org/1999/xlink" x="0px" y="0px"
	 viewBox="-255 347 100 100" style="enable-background:new -255 347 100 100;" xml:space="preserve">
<style type="text/css">
	.st0{fill:#ED3985;}
	.st1{fill:#5F7D7A;}
	.st2{fill:#3F6DB5;}
</style>
<g>
	<g>
		<g>
			<path class="st0" d="M-205,376c-11.6,0-21,9.5-21,21s9.4,21,21,21s21-9.4,21-21S-193.4,376-205,376z M-187.1,395.5h-9
				c-0.2-2.3-0.5-4.4-1.2-6.4c2.2-0.9,4.1-2.2,5.9-3.7C-188.9,388.1-187.4,391.6-187.1,395.5z M-193.4,383.2c-1.4,1.3-3.1,2.3-4.8,3
				c-1.2-2.9-2.5-5.2-3.6-6.9C-198.7,379.9-195.8,381.3-193.4,383.2z M-210.9,395.5c0.1-1.9,0.5-3.8,1-5.5c1.6,0.4,3.2,0.6,4.9,0.6
				s3.3-0.3,4.9-0.6c0.5,1.7,0.9,3.6,1,5.5H-210.9z M-199.1,398.5c-0.2,2.4-0.7,4.8-1.4,6.9c-1.4-0.4-3-0.5-4.5-0.5
				s-3.1,0.2-4.5,0.5c-0.7-2.1-1.3-4.4-1.4-6.9H-199.1z M-205,380c1.1,1.5,2.6,4.1,4,7.1c-2.6,0.6-5.2,0.6-7.8,0
				C-207.6,384-206.1,381.4-205,380z M-208.1,379.3c-1.1,1.7-2.5,4.1-3.6,6.9c-1.7-0.7-3.3-1.7-4.8-3
				C-214.2,381.3-211.3,379.9-208.1,379.3z M-218.7,385.4c1.8,1.6,3.8,2.9,5.9,3.7c-0.6,2-1,4.1-1.2,6.4h-9
				C-222.6,391.6-221.1,388.1-218.7,385.4z M-222.9,398.5h9c0.2,2.8,0.8,5.4,1.6,7.7c-2,0.8-3.9,1.8-5.6,3.2
				C-220.8,406.5-222.6,402.8-222.9,398.5z M-215.6,411.5c1.3-1,2.8-1.8,4.4-2.4c1,2.3,2.2,4.2,3.1,5.7
				C-210.9,414.2-213.5,413.1-215.6,411.5z M-205,414c-0.9-1.3-2.2-3.2-3.3-5.8c2.2-0.5,4.5-0.5,6.7,0
				C-202.8,410.8-204.1,412.8-205,414z M-201.9,414.7c0.9-1.4,2.1-3.3,3.1-5.7c1.5,0.5,3,1.4,4.4,2.4
				C-196.5,413.1-199.1,414.2-201.9,414.7z M-192,409.5c-1.7-1.4-3.6-2.4-5.6-3.2c0.8-2.3,1.4-4.9,1.6-7.7h9
				C-187.4,402.8-189.3,406.5-192,409.5z"/>
		</g>
	</g>
	<g>
		<g>
			<path class="st1" d="M-169,388c0-2.8-2-5.1-4.6-5.9c-0.6-16.7-14.5-30.1-31.4-30.1s-30.8,13.4-31.4,30.1
				c-2.6,0.7-4.6,3.1-4.6,5.9c-4.9,0-9,4-9,9s4.1,9,9,9c0,3.3,2.7,6,6,6s6-2.7,6-6v-18c0-2.8-1.9-5-4.4-5.8
				c0.5-15.1,13-27.3,28.3-27.3s27.8,12.1,28.4,27.3c-2.5,0.7-4.4,3-4.4,5.8v18c0,2.8,1.9,5.1,4.5,5.8v18.2c0,2.5-2,4.5-4.5,4.5
				h-15.2c-0.6-2.6-3-4.5-5.8-4.5h-6c-3.3,0-6,2.7-6,6s2.7,6,6,6h6c2.8,0,5.1-1.9,5.8-4.5h15.2c4.1,0,7.5-3.3,7.5-7.5v-18.3
				c2.6-0.6,4.5-3,4.5-5.8c4.9,0,9-4,9-9S-164.1,388-169,388z M-241,403c-3.3,0-6-2.7-6-6s2.7-6,6-6V403z M-232,388v18
				c0,1.6-1.4,3-3,3s-3-1.4-3-3v-1.5v-14.9V388c0-1.6,1.4-3,3-3S-232,386.4-232,388z M-202,439h-6c-1.6,0-3-1.4-3-3s1.3-3,3-3h6
				c1.6,0,3,1.4,3,3C-199,437.7-200.3,439-202,439z M-172,389.5v15v1.4c0,1.6-1.4,3-3,3c-1.6,0-3-1.4-3-3v-18c0-1.6,1.3-3,3-3
				c1.6,0,3,1.4,3,3V389.5z M-169,403V391c3.3,0,6,2.7,6,6S-165.7,403-169,403z"/>
		</g>
	</g>
	<g>
		<g>
			<rect x="-206.5" y="395.5" class="st2" width="3" height="3"/>
		</g>
	</g>
	<g>
		<g>
			<rect x="-206.5" y="395.5" class="st2" width="3" height="3"/>
		</g>
	</g>
	<g>
		<g>
			<rect x="-206.5" y="395.5" class="st2" width="3" height="3"/>
		</g>
	</g>
	<g>
		<g>
			<rect x="-206.5" y="395.5" class="st2" width="3" height="3"/>
		</g>
	</g>
</g>
</svg>
