<?xml version="1.0" encoding="utf-8"?>
<!-- Generator: Adobe Illustrator 19.1.0, SVG Export Plug-In . SVG Version: 6.00 Build 0)  -->
<svg version="1.1" id="Layer_1" xmlns="http://www.w3.org/2000/svg" xmlns:xlink="http://www.w3.org/1999/xlink" x="0px" y="0px"
	 viewBox="-255 347 100 100" style="enable-background:new -255 347 100 100;" xml:space="preserve">
<style type="text/css">
	.st0{fill:#5F7D7A;}
	.st1{fill:#66B9B7;}
	.st2{fill:#FED208;}
	.st3{fill:#ED3985;}
</style>
<g>
	<path class="st0" d="M-223.1,395.2c0-1.1-0.8-1.9-1.9-1.9s-1.9,0.8-1.9,1.9c0,4.8,5.3,11.4,5.9,12.1c0.4,0.4,0.9,0.6,1.4,0.6
		c0.4,0,0.8-0.2,1.2-0.4c0.8-0.6,0.9-1.8,0.3-2.6C-220.1,402.7-223.1,397.9-223.1,395.2z"/>
	<path class="st1" d="M-184.9,393.5c-1.1,0-1.9,0.8-1.9,1.9c0,2.7-3.1,7.4-5.1,9.8c-0.6,0.8-0.5,2,0.3,2.6c0.4,0.3,0.7,0.4,1.2,0.4
		c0.5,0,1.1-0.3,1.4-0.6c0.6-0.7,5.9-7.3,5.9-12.1C-183,394.3-183.8,393.5-184.9,393.5z"/>
	<path class="st2" d="M-205,393.5c-1.1,0-1.9,0.8-1.9,1.9v10.9c0,1.1,0.8,1.9,1.9,1.9s1.9-0.8,1.9-1.9v-11
		C-203.1,394.3-203.9,393.5-205,393.5z"/>
	<path class="st3" d="M-184.9,364.3c-1.2,0-2.2,0.2-3.5,0.4c-4-4.7-9.9-7.7-16.6-7.7c-6.7,0-12.6,2.9-16.6,7.7
		c-1.2-0.3-2.3-0.4-3.5-0.4c-11,0-20,9-20,20c0,7.6,4.3,14.4,11,17.8v27.4c0,2,0.8,3.8,2.1,5.3c1.4,1.4,3.3,2.1,5.3,2.1h43.4
		c4.1,0,7.5-3.4,7.5-7.5V402c6.7-3.5,10.9-10.2,10.9-17.8C-164.9,373.3-173.9,364.3-184.9,364.3z M-179.5,429.7c0,2-1.7,3.7-3.7,3.7
		h-43.4c-1.1,0-2-0.4-2.7-1.2c-0.7-0.7-1.2-1.7-1.2-2.7v-7.1h51V429.7z M-178.3,399.3c-0.1,0-0.2,0.1-0.3,0.2
		c-0.3,0.2-0.4,0.4-0.5,0.5c-0.2,0.3-0.3,0.4-0.3,0.7c0,0.1,0,0.3,0,0.4v17.8h-51v-17.8c0-0.1,0-0.3,0-0.4c0-0.3-0.2-0.5-0.4-0.7
		c-0.2-0.3-0.4-0.4-0.5-0.5c-0.1-0.1-0.2-0.1-0.4-0.2c-5.9-2.6-9.8-8.5-9.8-15c0-9.1,7.4-16.4,16.4-16.4c0.4,0,0.7,0.1,1.2,0.1
		c-1.9,3.2-2.9,6.9-2.9,10.8c0,1.1,0.8,1.9,1.9,1.9c1.1,0,1.9-0.8,1.9-1.9c-0.1-10,8.1-18.2,18.1-18.2c10,0,18.2,8.2,18.2,18.2
		c0,1.1,0.8,1.9,1.9,1.9c1.1,0,1.9-0.8,1.9-1.9c0-3.9-1.1-7.7-2.9-10.8c0.4,0,0.7-0.1,1.2-0.1c9.1,0,16.4,7.4,16.4,16.4
		C-168.5,390.9-172.3,396.7-178.3,399.3z"/>
</g>
</svg>
