<?xml version="1.0" encoding="utf-8"?>
<!-- Generator: Adobe Illustrator 19.1.0, SVG Export Plug-In . SVG Version: 6.00 Build 0)  -->
<svg version="1.1" id="Layer_1" xmlns="http://www.w3.org/2000/svg" xmlns:xlink="http://www.w3.org/1999/xlink" x="0px" y="0px"
	 viewBox="-255 347.1 100 100" style="enable-background:new -255 347.1 100 100;" xml:space="preserve">
<style type="text/css">
	.st0{fill:#1DA9E1;}
	.st1{fill:#F15B2A;stroke:#F15B2A;stroke-width:0.8841;}
	.st2{fill:#ED3985;}
	.st3{fill:#66B9B7;}
</style>
<g>
	<g>
		<path class="st0" d="M-173.7,407c8-5.7,12.9-14.8,12.9-24.3c0-16.8-14.8-30.5-32.9-30.5c-10.6,0-20.6,4.8-26.7,12.9h-27.4
			c-0.8,0-1.4,0.6-1.4,1.4v59.9c0,0.8,0.6,1.4,1.4,1.4h10.7v13c0,0.5,0.4,1.1,0.9,1.3c0.2,0.1,0.4,0.1,0.5,0.1c0.4,0,0.7-0.2,1-0.4
			l14.3-14h25.6c0.8,0,1.4-0.6,1.4-1.4v-13c2.7,0,5.3-0.4,7.9-1l14.4,5.4c0.2,0.1,0.4,0.1,0.5,0.1c0.4,0,0.8-0.2,1.1-0.4
			c0.4-0.4,0.4-1.1,0.2-1.6L-173.7,407z M-196.2,424.8h-24.8c-0.4,0-0.7,0.2-1,0.4l-12.4,12v-11.1c0-0.8-0.6-1.4-1.4-1.4h-10.7
			v-56.9h24c-1.7,2.9-2.9,6-3.6,9.3h-11.2c-0.8,0-1.4,0.6-1.4,1.4v4.5c0,0.8,0.6,1.4,1.4,1.4h10.8c0.2,2.7,0.7,5.2,1.6,7.8h-12.4
			c-0.8,0-1.4,0.6-1.4,1.4v4.5c0,0.8,0.6,1.4,1.4,1.4h16.2c2.1,3,4.9,5.7,8,7.8h-24.1c-0.8,0-1.4,0.6-1.4,1.4v4.5
			c0,0.8,0.6,1.4,1.4,1.4h31.8c0.8,0,1.4-0.6,1.4-1.4v-1.7c2.5,0.8,5.1,1.2,7.8,1.4V424.8L-196.2,424.8z M-226.3,380
			c-0.1,0.5-0.1,1.1-0.1,1.7h-9.4V380C-235.8,380-226.3,380-226.3,380z M-223.7,395.1c0.3,0.6,0.5,1.1,0.9,1.7h-13v-1.7H-223.7z
			 M-207.9,410.2c0.4,0.2,0.7,0.4,1.1,0.4v1.2h-29v-1.7H-207.9z M-184.8,409.5c-0.3-0.1-0.5-0.1-0.9-0.1c-2.6,0.6-5.2,1-8,1
			c-0.4,0-0.7,0-1.1,0l0,0c-3.5-0.1-6.9-0.8-10.2-2c-0.7-0.3-1.4-0.5-2.1-0.9c-5-2.3-9.1-5.7-12-10.1l0,0l0,0l0,0
			c-0.9-1.3-1.8-2.8-2.4-4.3l0,0l0,0l0,0c-1.4-3.2-2.1-6.5-2.2-10.1l0,0l0,0v-0.1c0-0.1,0-0.2,0-0.3c0-1.3,0.1-2.7,0.3-4l0,0
			c0.6-4.2,2.2-8,4.8-11.5c5.7-7.6,14.9-12.2,24.9-12.2c16.5,0,30,12.5,30,27.8c0,8.9-4.7,17.4-12.6,22.6c-0.6,0.4-0.8,1.1-0.5,1.9
			l3.4,6.6L-184.8,409.5z"/>
	</g>
	<g>
		<g>
			<path class="st1" d="M-196.2,373.7c-3.1,0-5.6,2.5-5.6,5.6c0,3.1,2.5,5.6,5.6,5.6s5.6-2.5,5.6-5.6
				C-190.6,376.3-193.1,373.7-196.2,373.7z M-196.2,382.1c-1.5,0-2.7-1.2-2.7-2.7c0-1.5,1.2-2.7,2.7-2.7s2.7,1.2,2.7,2.7
				C-193.4,380.9-194.7,382.1-196.2,382.1z"/>
		</g>
	</g>
	<g>
		<g>
			<path class="st2" d="M-181,373.7c-3.1,0-5.6,2.5-5.6,5.6c0,3.1,2.5,5.6,5.6,5.6s5.6-2.5,5.6-5.6
				C-175.5,376.3-177.9,373.7-181,373.7z M-181,382.1c-1.5,0-2.7-1.2-2.7-2.7c0-1.5,1.2-2.7,2.7-2.7s2.7,1.2,2.7,2.7
				C-178.3,380.9-179.5,382.1-181,382.1z"/>
		</g>
	</g>
	<g>
		<g>
			<path class="st3" d="M-211.3,373.7c-3.1,0-5.6,2.5-5.6,5.6c0,3.1,2.5,5.6,5.6,5.6c3.1,0,5.6-2.5,5.6-5.6
				S-208.2,373.7-211.3,373.7z M-211.3,382.1c-1.5,0-2.7-1.2-2.7-2.7c0-1.5,1.2-2.7,2.7-2.7s2.7,1.2,2.7,2.7
				C-208.5,380.9-209.8,382.1-211.3,382.1z"/>
		</g>
	</g>
</g>
</svg>
