<?xml version="1.0" encoding="utf-8"?>
<!-- Generator: Adobe Illustrator 19.1.0, SVG Export Plug-In . SVG Version: 6.00 Build 0)  -->
<svg version="1.1" id="Layer_1" xmlns="http://www.w3.org/2000/svg" xmlns:xlink="http://www.w3.org/1999/xlink" x="0px" y="0px"
	 viewBox="-255 347.1 100 100" style="enable-background:new -255 347.1 100 100;" xml:space="preserve">
<style type="text/css">
	.st0{fill:#ED3985;}
	.st1{fill:#5F7D7A;}
	.st2{fill:#66B9B7;}
	.st3{fill:#FED208;}
	.st4{fill:#1DA9E1;}
</style>
<g>
	<path class="st0" d="M-173.8,405.5c-1.3,1-2.4,2-3.6,2.9c-0.5,0.3-1.1,0.5-1.7,0.7c-1.6,0.4-2.7-0.3-3.2-1.9
		c-0.2-0.5-0.3-1-0.5-1.7c-0.7,0.6-1.2,1.2-1.8,1.6c-1.2,0.7-2.5,1.6-3.8,1.9c-1.9,0.5-3.3-0.9-3-2.9c0.2-1.4,0.6-2.8,1.1-4.2
		c0.3-1.1,0.8-2.1,1.1-3.1c0.1-0.3-0.1-0.6-0.2-1c-0.3,0.1-0.7,0.1-0.9,0.2c-1.4,1.4-2.9,2.7-4,4.4c-0.7,1.1-0.6,2.7-0.8,4
		c-0.2,1.9-0.1,1.9-1.9,2.3c-0.5,0.1-1.1,0.2-1.8,0.4c-0.1-1.3-0.2-2.4-0.3-3.7c-1.1,0.9-2.1,1.7-3.2,2.5c-1.6,1.1-3.3,1.5-5.2,1.2
		c-2.1-0.3-3.4-1.7-3.9-3.8c-1,0.8-1.9,1.6-2.8,2.4c-1.1,0.8-2.3,1.4-3.7,1.5c-1.7,0.1-2.6-0.7-3.3-2.1c-0.8-1.8-0.9-3.6-0.7-5.5
		c0.5-4.5,1.5-8.8,3.7-12.8c0-0.1,0-0.2,0-0.3c-0.1,0-0.1-0.1-0.2-0.1c-0.8,1.3-1.8,2.4-2.4,3.8c-1.3,2.8-2.4,5.7-3.8,8.5
		c-1.1,2.3-2.2,4.5-3.5,6.6c-1.1,1.8-2.5,2.3-4.4,1.8c0.2-1.6,0.5-3.1,0.6-4.7c0.2-2.4,0.2-4.9,0.3-7.3c0.1-2.8,0.3-5.6,1.2-8.2
		c0.1-0.2,0.1-0.4,0.1-0.5c-0.1,0-0.2-0.1-0.2-0.1c-0.5,1.2-1.2,2.4-1.6,3.7c-0.8,2.7-1.5,5.4-2.3,8.1c-0.6,1.8-1.3,3.6-2.2,5.3
		c-0.7,1.5-1.9,2.6-3.4,3.4c-1.7,0.9-3.5,0.6-4.7-0.6c-0.9-0.9-0.9-1.9,0-2.9c0.5-0.5,1-0.9,1.5-1.3c0.6-0.4,1-0.3,1.1,0.4
		c0.1,0.5,0.2,1.1,0.3,1.6c0.3,1.1,1.3,1.5,2.2,0.8c0.7-0.5,1.3-1.2,1.8-1.9c1.6-2.4,2.3-5.1,3-7.8c0.6-2.3,1.2-4.7,2-7
		c0.6-1.5,1.6-2.9,2.5-4.3c0.3-0.5,2.8-1,3.3-0.7c0.2,0.1,0.3,0.5,0.3,0.7c-0.1,3.6-0.1,7.2-0.3,10.9c-0.1,2.3-0.5,4.5-0.7,6.8
		c0,0.3-0.1,0.6,0,1c0.5-0.9,0.9-1.9,1.4-2.8c1.4-3.1,2.6-6.3,4-9.4c1-2.2,2.5-4.2,4.1-6c1.4-1.4,3-1.1,4.9-1.3
		c-0.2,0.5-0.3,0.8-0.4,1.2c-2,4.6-3,9.5-3.7,14.5c-0.2,1.2-0.1,2.4,0.1,3.6c0.3,1.8,1.8,2.5,3.3,1.4c1.3-0.9,2.3-2,2.7-3.8
		c0.8-3.4,2.7-6.1,6.4-7c0.6-0.1,1.2-0.2,1.7-0.1c1.1,0.1,2.1,0.5,2.5,1.6c0.5,1.1,0.5,2.4-0.4,3.3c-0.9,0.9-2,1.7-3.1,2.3
		c-1.1,0.6-2.3,0.9-3.5,1.4c0.2,1.3,0.7,2.3,1.8,2.9c1.3,0.6,2.6,0.5,3.7-0.3c1-0.7,1.9-1.6,2.8-2.4c0.2-0.2,0.2-0.5,0.3-0.8
		c0.6-2.1,1.3-4.2,1.9-6.3c0.2-0.7,0.6-1.1,1.4-1.2c1-0.1,2-0.4,3-0.6c-0.6,1.8-1.1,3.4-1.7,5.1c0.1,0,0.1,0,0.2,0.1
		c0.9-0.9,1.8-1.8,2.7-2.6c0.9-0.8,1.8-1.5,2.8-2.1c0.8-0.5,1.9-0.7,2.7,0c0.9,0.7,1,1.8,0.7,2.8c-0.6,2.1-1.3,4.1-2,6.2
		c-0.2,0.8-0.8,1.6,0.1,2.2c0.7,0.5,1.4-0.1,2-0.6c1.3-1.1,2.5-2.2,2.8-4.1c0.3-1.9,1-3.7,1.6-5.6c0.1-0.2,0.4-0.5,0.6-0.5
		c1.2-0.3,2.5-0.5,3.9-0.7c-0.5,1.5-1,2.9-1.4,4.4c-0.5,1.7-0.9,3.4-1.3,5.1c-0.1,0.5-0.1,1,0.1,1.4c0.2,0.9,1,1.2,1.7,0.7
		c1.6-0.9,2.6-2.2,3.2-3.9c0.7-2.1,1.3-4.2,2-6.2c0.1-0.3,0.5-0.7,0.9-0.8c1.2-0.3,2.4-0.5,3.7-0.8c-0.6,2.1-1.2,4.1-1.8,6
		c-0.3,1-0.6,2.1-0.8,3.1c-0.1,0.4-0.1,0.8,0,1.3c0.2,1,0.8,1.3,1.7,0.9c0.6-0.3,1.2-0.8,1.7-1.2c0.5-0.4,0.9-0.8,1.5-1.3
		c0.2,1,0.2,1.8-0.7,2.5c-0.9,0.7-1.8,1.5-2.7,2.2c-0.4,0.3-0.9,0.6-1.3,0.8c-2.1,0.9-3.7,0-4.1-2.3
		C-173.7,406.2-173.7,405.8-173.8,405.5z M-207.5,402.2c1-0.5,1.9-0.9,2.6-1.4c1-0.7,1.6-1.7,1.6-3c0-0.7,0-1.6-0.8-1.7
		c-0.6-0.1-1.3,0.3-1.8,0.7C-207.2,398.2-207.6,399.9-207.5,402.2z"/>
	<path class="st1" d="M-164.7,410.9c0,0.6,0,1,0,1.6c-26.8,0-53.5,0-80.4,0c0-0.5,0-1,0-1.6C-218.3,410.9-191.5,410.9-164.7,410.9z"
		/>
	<path class="st2" d="M-245.1,383.1c0-0.6,0-1.1,0-1.6c26.8,0,53.5,0,80.3,0c0,0.5,0,1,0,1.6C-191.5,383.1-218.2,383.1-245.1,383.1z
		"/>
	<path class="st2" d="M-205,378.6c0-0.5,0-1,0-1.6c13.5,0,26.8,0,40.3,0c0,0.5,0,1,0,1.6C-178.1,378.6-191.6,378.6-205,378.6z"/>
	<path class="st1" d="M-204.8,415.7c0,0.6,0,1,0,1.6c-13.4,0-26.8,0-40.3,0c0-0.5,0-1,0-1.6C-231.7,415.7-218.3,415.7-204.8,415.7z"
		/>
	<path class="st3" d="M-250.3,381.5c0.6,0,1.1,0,1.7,0c0,9.8,0,19.5,0,29.2c-1.5,0.4-1.7,0.3-1.7-1.2c0-9,0-17.9,0-26.9
		C-250.3,382.4-250.3,382-250.3,381.5z"/>
	<path class="st4" d="M-161.3,383.2c0.5,0,1,0,1.6,0c0,9.7,0,19.5,0,29.3c-0.5,0-1,0-1.6,0C-161.3,402.8-161.3,393.1-161.3,383.2z"
		/>
	<path class="st2" d="M-184.8,373.9c0-0.6,0-1,0-1.6c6.7,0,13.4,0,20.1,0c0,0.5,0,1,0,1.6C-171.4,373.9-178.1,373.9-184.8,373.9z"/>
	<path class="st1" d="M-245.1,420.4c6.7,0,13.3,0,20,0c0,0.5,0,1,0,1.6c-6.7,0-13.3,0-20,0C-245.1,421.5-245.1,421-245.1,420.4z"/>
	<path class="st3" d="M-253.4,396.1c-0.6,0-1,0-1.6,0c0-4.8,0-9.6,0-14.5c0.5,0,1,0,1.6,0C-253.4,386.4-253.4,391.2-253.4,396.1z"/>
	<path class="st4" d="M-156.6,398c0.5,0,1,0,1.6,0c0,4.8,0,9.6,0,14.5c-0.5,0-1,0-1.6,0C-156.6,407.7-156.6,402.9-156.6,398z"/>
</g>
</svg>
