<?xml version="1.0" encoding="utf-8"?>
<!-- Generator: Adobe Illustrator 19.1.0, SVG Export Plug-In . SVG Version: 6.00 Build 0)  -->
<svg version="1.1" id="Layer_1" xmlns="http://www.w3.org/2000/svg" xmlns:xlink="http://www.w3.org/1999/xlink" x="0px" y="0px"
	 viewBox="-254.5 346.8 100 100" style="enable-background:new -254.5 346.8 100 100;" xml:space="preserve">
<style type="text/css">
	.st0{fill:#F15B2A;stroke:#F15B2A;stroke-width:0.7992;}
	.st1{fill:#66B9B7;}
	.st2{fill:#5F7D7A;}
	.st3{fill:#1DA9E1;}
</style>
<g>
	<path class="st0" d="M-169.6,430.5c0,0.7-0.6,1.3-1.3,1.3c-0.7,0-1.3-0.6-1.3-1.3v-41.2h-26.1c-0.4,0-0.7-0.2-1-0.4l-4.6-4.6H-242
		v20.9v29h37.5h37.5V393c0-0.7,0.6-1.3,1.3-1.3s1.3,0.6,1.3,1.3v42.4l0,0c0,0.7-0.6,1.3-1.3,1.3h-38.8h-38.7l0,0
		c-0.7,0-1.3-0.6-1.3-1.3v-30.3v-22.1l0,0c0-0.7,0.6-1.3,1.3-1.3h40l0,0c0.3,0,0.6,0.2,0.9,0.4l4.6,4.6h26.9l0,0
		c0.7,0,1.3,0.6,1.3,1.3L-169.6,430.5L-169.6,430.5z"/>
	<path class="st1" d="M-239.5,378c0,0.7-0.6,1.3-1.3,1.3s-1.3-0.6-1.3-1.3v-20c0-0.7,0.6-1.3,1.3-1.3l0,0h47.4
		c0.7,0,1.3,0.6,1.3,1.3l0,0V383c0,0.7-0.6,1.3-1.3,1.3s-1.3-0.6-1.3-1.3v-23.7h-44.8V378z"/>
	<path class="st1" d="M-230.8,366.8c-0.7,0-1.3-0.6-1.3-1.3s0.6-1.3,1.3-1.3h27.5c0.7,0,1.3,0.6,1.3,1.3s-0.6,1.3-1.3,1.3H-230.8z"
		/>
	<path class="st2" d="M-178.3,366.8c-0.7,0-1.3-0.6-1.3-1.3s0.6-1.3,1.3-1.3h5c0.7,0,1.3,0.6,1.3,1.3l0,0v17.4
		c0,0.7-0.6,1.3-1.3,1.3s-1.3-0.6-1.3-1.3v-16.1H-178.3z"/>
	<path class="st1" d="M-230.8,376.8c-0.7,0-1.3-0.6-1.3-1.3c0-0.7,0.6-1.3,1.3-1.3h27.5c0.7,0,1.3,0.6,1.3,1.3
		c0,0.7-0.6,1.3-1.3,1.3H-230.8z"/>
	<path class="st3" d="M-188.3,364.3c-0.7,0-1.3-0.6-1.3-1.3c0-0.7,0.6-1.3,1.3-1.3h5c0.7,0,1.3,0.6,1.3,1.3l0,0v20
		c0,0.7-0.6,1.3-1.3,1.3c-0.7,0-1.3-0.6-1.3-1.3v-18.7H-188.3z"/>
</g>
</svg>
