<?xml version="1.0" encoding="utf-8"?>
<!-- Generator: Adobe Illustrator 19.1.0, SVG Export Plug-In . SVG Version: 6.00 Build 0)  -->
<svg version="1.1" id="Layer_1" xmlns="http://www.w3.org/2000/svg" xmlns:xlink="http://www.w3.org/1999/xlink" x="0px" y="0px"
	 viewBox="-254.5 346.5 100 100" style="enable-background:new -254.5 346.5 100 100;" xml:space="preserve">
<style type="text/css">
	.st0{fill:#F15B2A;stroke:#F15B2A;stroke-width:0.9021;}
	.st1{fill:#5F7D7A;}
</style>
<g>
	<path class="st0" d="M-160.7,415.4l-3.6-0.9l1.9-3.2c0.5-0.7,0.4-1.7-0.3-2.3l-4.1-4.1v-40.3c0-8.7-20.8-13.2-41.3-13.2
		s-41.3,4.5-41.3,13.2v56.4c0,8.7,20.8,13.2,41.3,13.2c3.9,0,7.8-0.2,11.5-0.5l4.6,4.6c0.6,0.6,1.5,0.7,2.3,0.3l3.2-1.9l0.9,3.6
		c0.2,0.8,1,1.4,1.8,1.4h7.5c0.9,0,1.6-0.6,1.8-1.4l0.9-3.6l3.2,1.9c0.7,0.5,1.7,0.4,2.3-0.3l5.3-5.3c0.6-0.6,0.7-1.5,0.3-2.3
		l-1.9-3.2l3.6-0.9c0.8-0.2,1.4-1,1.4-1.8v-7.5C-159.3,416.3-159.9,415.5-160.7,415.4z M-208.2,355.2c23,0,37.6,5.5,37.6,9.4
		s-14.6,9.4-37.6,9.4s-37.5-5.6-37.5-9.4S-231.1,355.2-208.2,355.2z M-245.7,370.3c6.9,4.9,22.3,7.3,37.6,7.3s30.7-2.5,37.6-7.3v13
		c0,3.8-14.6,9.4-37.6,9.4s-37.6-5.5-37.6-9.4V370.3z M-245.7,389.2c6.9,4.9,22.3,7.3,37.6,7.3s30.7-2.5,37.6-7.3v14.3l-2.9,1.7
		l-0.9-3.6c-0.2-0.8-1-1.4-1.8-1.4h-7.5c-0.9,0-1.6,0.6-1.8,1.4l-0.9,3.6l-3.2-1.9c-0.7-0.5-1.7-0.4-2.3,0.3l-5.3,5.3
		c-0.6,0.6-0.7,1.5-0.3,2.3c-3.3,0.2-7.6,0.3-10.6,0.3c-23.2,0.1-37.8-5.5-37.8-9.3V389.2L-245.7,389.2z M-197.1,429.8
		c-3.7,0.4-7.4,0.5-11.1,0.5c-22.9,0-37.5-5.6-37.5-9.4v-13c6.9,4.9,22.3,7.3,37.6,7.3c2.9,0,6.9-0.1,10.2-0.3l-1.3,0.4
		c-0.8,0.2-1.4,1-1.4,1.8v7.5c0,0.9,0.6,1.6,1.4,1.8l3.6,0.9L-197.1,429.8z M-163.1,423.2l-3.2,0.8c-0.6,0.2-1.1,0.6-1.4,1.2
		c-0.2,0.5-0.4,1-0.5,1.4c-0.3,0.5-0.3,1.3,0.1,1.8l1.7,2.9l-3.3,3.2l-2.9-1.7c-0.5-0.4-1.2-0.4-1.8-0.1c-0.5,0.2-0.9,0.4-1.4,0.5
		c-0.6,0.2-1.1,0.7-1.2,1.4l-0.8,3.2h-4.5l-0.8-3.2c-0.2-0.6-0.6-1.1-1.2-1.4c-0.5-0.2-1-0.4-1.4-0.5c-0.5-0.3-1.3-0.3-1.8,0.1
		l-2.9,1.7l-3.2-3.2l1.7-2.9c0.4-0.5,0.4-1.2,0.1-1.8c-0.2-0.5-0.4-0.9-0.5-1.4c-0.2-0.6-0.7-1.1-1.4-1.2l-3.2-0.8v-4.5l3.2-0.8
		c0.6-0.2,1.1-0.6,1.4-1.2c0.2-0.5,0.4-1,0.5-1.4c0.3-0.5,0.3-1.3-0.1-1.8l-1.7-2.9l3.2-3.2l2.9,1.7c0.5,0.4,1.2,0.4,1.8,0.1
		c0.5-0.2,0.9-0.4,1.4-0.5c0.6-0.2,1.1-0.7,1.2-1.4l0.8-3.2h4.6l0.8,3.2c0.2,0.6,0.6,1.1,1.2,1.4c0.5,0.2,1,0.4,1.4,0.5
		c0.5,0.3,1.3,0.3,1.8-0.1l2.9-1.7l3.2,3.2l-1.7,2.9c-0.4,0.5-0.4,1.2-0.1,1.8c0.2,0.5,0.4,0.9,0.5,1.4c0.2,0.6,0.7,1.1,1.4,1.2
		l3.2,0.8v4.6H-163.1z"/>
	<path class="st1" d="M-180,411.6c-5.1,0-9.4,4.2-9.4,9.4s4.2,9.4,9.4,9.4c5.1,0,9.4-4.2,9.4-9.4
		C-170.6,415.7-174.8,411.6-180,411.6z M-180,426.5c-3.1,0-5.6-2.5-5.6-5.6s2.5-5.6,5.6-5.6c3.1,0,5.6,2.5,5.6,5.6
		C-174.4,424-176.9,426.5-180,426.5z"/>
</g>
</svg>
