<?xml version="1.0" encoding="utf-8"?>
<!-- Generator: Adobe Illustrator 19.1.0, SVG Export Plug-In . SVG Version: 6.00 Build 0)  -->
<svg version="1.1" id="Layer_1" xmlns="http://www.w3.org/2000/svg" xmlns:xlink="http://www.w3.org/1999/xlink" x="0px" y="0px"
	 viewBox="-255 347.5 100 100" style="enable-background:new -255 347.5 100 100;" xml:space="preserve">
<style type="text/css">
	.st0{fill:#FED208;}
	.st1{fill:#ED3985;}
	.st2{fill:#5F7D7A;}
</style>
<g>
	<path class="st0" d="M-155.2,429.3c-15.5,0-30.9,0-46.4,0c-0.4,0-0.8,0-1.4,0c0-0.4,0-0.7,0-1c0-3.9,0-7.9,0-11.8
		c0-3.9,1.7-6.9,5.1-8.8c3.2-1.9,6.4-3.8,9.6-5.6c0.5-0.3,0.8-0.6,0.7-1.2c0-0.2,0-0.5,0-0.7c0.1-1.8-0.1-3.4-1.3-5
		c-1.3-1.6-1.6-3.7-1.6-5.8c0-3.7,0-7.5,0-11.2c0-4.3,3-7.2,7.3-7.2c1.3,0,2.7,0,4,0c2.3,0,2.6-0.2,3-2.4c2.7-0.8,6,0.6,7.2,3.2
		c0.7,1.4,1.1,3,1.2,4.6c0.2,4.4,0.1,8.7,0.1,13.1c0,2.4-0.7,4.7-2,6.7c-0.3,0.5-0.5,1.2-0.6,1.9c-0.1,1,0,2,0,2.9
		c0,0.6,0.2,0.9,0.7,1.2c3.2,1.9,6.3,3.8,9.5,5.6c2.6,1.5,4.3,3.7,4.9,6.7c0,0.1,0.1,0.2,0.2,0.2
		C-155.2,419.5-155.2,424.4-155.2,429.3z M-187.1,404.9c-3.4,2-6.7,3.9-9.9,5.8c-1.6,1-2.6,2.5-2.8,4.4c-0.2,2.1-0.1,4.2-0.1,6.3
		c0,1.5,0,3,0,4.6c2,0,4,0,6,0c0-1.7,0-3.4,0-5.1c1.1,0,2.1,0,3.1,0c0,1.7,0,3.4,0,5.1c3.4,0,6.7,0,10,0c0-0.2,0.1-0.3,0.1-0.4
		c0-4.1,0-8.2,0-12.3c0-0.3-0.1-0.6-0.3-0.8C-183.3,410.3-185.6,408-187.1,404.9z M-171,404.9c-1.3,3.2-3.7,5.4-6,7.6
		c-0.3,0.2-0.4,0.7-0.4,1.1c0,3.9,0,7.8,0,11.7c0,0.2,0,0.5,0.1,0.8c3.4,0,6.8,0,10.3,0c0-1.7,0-3.5,0-5.2c1.1,0,2.1,0,3.1,0
		c0,1.8,0,3.5,0,5.1c2,0,3.8,0,5.7,0c0-3.6,0.1-7.1,0-10.6c0-1.8-0.9-3.5-2.5-4.4C-164.1,408.9-167.5,407-171,404.9z M-183.3,384
		c-0.7,0.6-1.2,1.4-2,1.8c-2.1,1-2.1,2.6-1.9,4.5c0.3,3.5,2.7,6.6,6.1,7.4c3.5,0.9,7.1-0.5,9.1-3.6c1.1-1.7,1.3-3.5,1.3-5.4
		c0-1.8-0.7-2.6-2.5-2.7c-1.3-0.1-2.7,0-4,0c-2.2,0.1-4.2-0.1-5.7-2C-183.2,384-183.2,384-183.3,384z M-187.2,383.4
		c0.8-0.9,1.4-1.6,1.9-2.3c0.9-1.3,2.1-1.4,2.9,0c0.6,0.9,1.4,1.5,2.5,1.7c0.8,0.1,1.7,0.1,2.5,0.2c2.2,0,4.3,0,6.4,0
		c0-2.4,0.1-5.1,0-7.8c0-0.7-0.3-1.5-0.8-2.1c-0.5-0.6-1.2-0.9-1.9-1.3c-0.1-0.1-0.6,0.1-0.6,0.2c-0.8,1.8-2.5,2-4.1,2
		c-1.7,0.1-3.5,0-5.2,0c-1.7,0-3.3,1.2-3.5,2.8C-187.3,379-187.2,381-187.2,383.4z M-184.4,399.6c0,1.3-0.3,2.5,0.1,3.5
		c1.1,2.8,3.1,4.9,5.2,6.9c4.4-3.6,6.3-7,5.4-10.4C-177.2,401.4-180.8,401.5-184.4,399.6z"/>
	<path class="st1" d="M-228.1,368.5c4.2-0.6,7.3,1.6,8.1,5.9c0.1,0.7,0.2,1.4,0.2,2.1c0,4.1,0,8.1,0,12.2c0,2.4-0.6,4.7-1.9,6.7
		c-0.2,0.3-0.3,0.8-0.3,1.2c0,1.2,0,2.4,0,3.6c0,0.7,0.2,1.1,0.8,1.4c3.3,1.9,6.6,3.9,9.9,5.9c3.1,1.9,4.7,4.6,4.7,8.2
		c0,4.3,0,8.5,0,12.8c0,0.3,0,0.5,0,0.8c-0.4,0-0.8,0-1.1,0c-5.9,0-11.8,0-17.8,0c-0.7,0-1.1,0.2-1.5,0.7c-1.2,1.3-2.5,2.6-3.8,4
		c-1.3-1.4-2.6-2.7-3.8-4.1c-0.4-0.5-0.9-0.6-1.5-0.6c-5.8,0-11.6,0-17.5,0c-0.4,0-0.8,0-1.4,0c0-0.4,0-0.7,0-1c0-4.1,0-8.2,0-12.3
		c0-3.8,1.7-6.8,5-8.7c3.3-2,6.6-3.9,9.9-5.8c0.6-0.3,0.8-0.7,0.7-1.3c0-0.3,0-0.5,0-0.8c0.1-1.9,0-3.7-1.2-5.3
		c-1-1.4-1.3-3.3-1.3-5c0-3.6,0-7.3,0-10.9c0-4.4,2.9-7.2,7.3-7.3c1.3,0,2.6,0,3.9,0C-228.6,370.9-228.3,370.6-228.1,368.5z
		 M-217.4,421.6c1.1,0,2.1,0,3.2,0c0,1.6,0,3,0,4.5c1.5,0,2.9,0,4.4,0c0-0.3,0-0.5,0-0.8c0-3.2,0-6.4,0-9.7c0-2.4-1.1-4.3-3.2-5.5
		c-1.8-1.1-3.7-2.2-5.5-3.3c-0.3-0.2-0.5-0.3-0.9-0.5c-1.7,2.8-3.3,5.6-5,8.4c-0.9-0.7-1.6-1.3-2.4-1.9c-0.4,0.6,0.8,11.7,1.4,13.2
		c2.6,0,5.2,0,7.9,0C-217.4,424.6-217.4,423.1-217.4,421.6z M-237.5,414.7c-1.7-2.8-3.3-5.6-4.9-8.3c-2,1.2-3.9,2.3-5.9,3.4
		c-2.4,1.4-3.6,3.5-3.6,6.2c0,3.1,0,6.1,0,9.2c0,0.3,0,0.6,0.1,0.8c1.6,0,3.2,0,4.9,0c0-1.5,0-3,0-4.5c1.1,0,2,0,3.1,0
		c0,1.5,0,3,0,4.5c2.7,0,5.2,0,7.8,0c0.5-4,1.1-8,1.6-12c0.1-0.4-0.1-0.9-0.2-1.5C-235.8,413.4-236.6,414-237.5,414.7z
		 M-235.1,383.1c-1.2,1-2.4,1.9-3.5,2.8c-0.1,0.1-0.2,0.4-0.2,0.6c0,1.3,0,2.6,0.1,3.9c0.5,3.8,3.6,6.7,7.4,6.9
		c3.7,0.2,7.2-2.2,8-5.9c0.3-1.5,0.2-3,0.4-4.5c0.1-0.7-0.3-1.2-0.9-1.4s-1.2-0.3-1.8-0.3c-1.1,0-2.2,0.1-3.3,0.1
		c-2.2,0.1-4.4,0-5.9-2C-234.9,383.1-235,383.1-235.1,383.1z M-222.9,382.1c0-2,0.1-4.2,0-6.4c0-0.9-0.4-1.8-0.8-2.6
		c-0.3-0.5-0.9-0.9-1.4-1.2c-0.6-0.3-1-0.2-1.3,0.5c-0.1,0.3-0.5,0.7-0.8,0.8c-1,0.3-2,0.7-3.1,0.8c-1.6,0.1-3.3,0-4.9,0
		c-1.9,0.1-3.3,1.3-3.5,3.1c-0.2,1.6,0,3.2,0,5.1c0.7-0.8,1.3-1.4,1.7-2.1c0.8-1.2,2.1-1.3,2.8-0.1c0.8,1.3,2,1.9,3.4,1.9
		C-228.2,382-225.6,382-222.9,382.1z M-225.2,398.7c-3.8,2.1-7.4,2.1-11.2,0.1c0,0.8,0,1.4,0,2c0,0.4,0.1,0.8,0.3,1
		c1.6,1.5,3.3,2.9,5.1,4.3c1.8-1.6,3.6-3.1,5.4-4.7c0.2-0.1,0.3-0.4,0.3-0.7C-225.1,400.3-225.2,399.6-225.2,398.7z M-231.6,415.3
		c-0.5,3.8-1,7.4-1.4,11.1c0,0.3,0,0.6,0.1,0.8c0.6,0.8,1.3,1.5,2,2.1c1.9-1.3,2.9-2.8,2-5c0-0.1,0-0.1,0-0.2
		c-0.4-3-0.8-5.9-1.2-8.9C-230.6,415.3-231.1,415.3-231.6,415.3z M-223.4,403.9c-1.6,1.3-3.1,2.6-4.7,4c1,0.8,1.8,1.4,2.8,2.2
		c1.1-1.8,2.1-3.6,3.2-5.4C-222.5,404.4-222.9,404.2-223.4,403.9z M-233.9,407.9c-1.3-1.1-2.5-2.1-3.6-3.1c-1-0.9-1.2-0.9-2.2,0.2
		c1,1.7,2,3.4,3,5.1C-235.7,409.3-234.8,408.6-233.9,407.9z M-230.9,409.2c-0.4,0.9-1.7,0.9-1.2,2c0.2,0.4,0.8,0.9,1.3,0.9
		c0.4,0,1.3-0.7,1.2-0.9C-229.9,410.6-230.4,410-230.9,409.2z"/>
	<path class="st2" d="M-212.9,376.8c-1,0-1.9,0-2.8,0c-1.3,0-1.9-0.6-1.9-1.8c0-4.1,0-8.1,0-12.2c0-1.2,0.6-1.8,1.7-1.8
		c6.1,0,12.3,0,18.4,0c1.1,0,1.7,0.6,1.7,1.7c0,4.1,0,8.3,0,12.4c0,1.1-0.6,1.7-1.8,1.7c-2.2,0-4.4,0-6.5,0c-0.7,0-1.1,0.2-1.6,0.7
		c-1.4,1.6-2.8,3.1-4.2,4.6c-0.5,0.6-1.1,1-2,0.7c-0.9-0.3-1.1-1-1.1-1.9C-212.9,379.6-212.9,378.2-212.9,376.8z M-209.8,377.3
		c0.5-0.5,0.8-0.8,1-1.1c1.4-2.1,3.3-2.9,5.8-2.6c1.3,0.2,2.7,0,4,0c0-3.3,0-6.4,0-9.5c-5.2,0-10.4,0-15.5,0c0,3.2,0,6.3,0,9.5
		c1.1,0,2.1,0,3.1,0c0.9,0,1.5,0.6,1.5,1.5C-209.8,375.8-209.8,376.4-209.8,377.3z"/>
</g>
</svg>
