<?xml version="1.0" encoding="utf-8"?>
<!-- Generator: Adobe Illustrator 19.1.0, SVG Export Plug-In . SVG Version: 6.00 Build 0)  -->
<svg version="1.1" id="Layer_1" xmlns="http://www.w3.org/2000/svg" xmlns:xlink="http://www.w3.org/1999/xlink" x="0px" y="0px"
	 viewBox="-274.5 346.8 100 100" style="enable-background:new -274.5 346.8 100 100;" xml:space="preserve">
<style type="text/css">
	.st0{fill:#F15B2A;stroke:#F15B2A;stroke-width:0.7992;}
	.st1{fill:#66B9B7;}
</style>
<g>
	<path class="st0" d="M-192.5,426.6c0-2.7-2.2-5-5-5h-12.3c-0.7,0-1.3,0.6-1.3,1.3c0,0.7,0.6,1.3,1.3,1.3h12.2
		c1.4,0,2.4,1.1,2.4,2.4c0,0.2,0,0.5-0.1,0.7c-0.7-0.4-1.5-0.6-2.3-0.6h-16.6c0.4-0.7,0.6-1.6,0.6-2.4c0-1.4-0.5-2.6-1.4-3.5
		l-14.1-14.1c-2.1-2.1-5.9-3.7-8.8-3.7h-17.3c-0.7,0-1.3,0.6-1.3,1.3c0,0.7,0.6,1.3,1.3,1.3h17.3c2.2,0,5.4,1.4,7,2.9l14.1,14.1
		c0.5,0.5,0.7,1,0.7,1.8c0,0.6-0.2,1.3-0.7,1.8c-1,1-2.5,1-3.4,0l-11.3-11.5c-0.5-0.5-1.3-0.5-1.8,0c-0.5,0.5-0.5,1.3,0,1.8
		l11.4,11.4c1,1,2.2,1.4,3.4,1.4h0.1h20.9c1.4,0,2.4,1.1,2.4,2.4c0,1.4-1.1,2.4-2.4,2.4H-221c-0.6,0-1.7-0.2-2.2-0.6l-23.7-14.6
		c0,0,0,0-0.1,0c-1-0.6-2.5-0.9-3.5-0.9h-4.6c-0.7,0-1.3,0.6-1.3,1.3c0,0.7,0.6,1.3,1.3,1.3h4.6c0.6,0,1.7,0.2,2.2,0.6l23.8,14.7
		c0,0,0,0,0.1,0c1,0.6,2.5,1,3.5,1h23.4c2.7,0,5-2.2,5-5c0-1-0.2-1.8-0.7-2.6C-192.8,428.4-192.5,427.5-192.5,426.6z"/>
	<path class="st1" d="M-252,373.5c0.2,0,0.4-0.1,0.6-0.2l0.8-0.4v26.3c0,0.7,0.6,1.3,1.3,1.3s1.3-0.6,1.3-1.3v-27.5l25.2-12.2
		l25.2,12.2v44.8H-211v-32.6c0-0.7-0.6-1.3-1.3-1.3h-21.3c-0.7,0-1.3,0.6-1.3,1.3v16c0,0.7,0.6,1.3,1.3,1.3s1.3-0.6,1.3-1.3v-14.7
		h18.8v32.6c0,0.7,0.6,1.3,1.3,1.3h15.7c0.7,0,1.3-0.6,1.3-1.3v-44.9l0.8,0.4c0.6,0.3,1.4,0.1,1.7-0.6c0.3-0.6,0.1-1.4-0.6-1.7
		l-15.1-7.4V358c0-0.7-0.6-1.3-1.3-1.3s-1.3,0.6-1.3,1.3v4.4l-11.3-5.5c-0.3-0.2-0.8-0.2-1.1,0l-29.1,14.1c-0.6,0.3-0.9,1-0.6,1.7
		C-253,373.1-252.5,373.5-252,373.5z"/>
</g>
</svg>
