<?xml version="1.0" encoding="utf-8"?>
<!-- Generator: Adobe Illustrator 19.1.0, SVG Export Plug-In . SVG Version: 6.00 Build 0)  -->
<svg version="1.1" id="Layer_1" xmlns="http://www.w3.org/2000/svg" xmlns:xlink="http://www.w3.org/1999/xlink" x="0px" y="0px"
	 viewBox="-246.6 347.1 100 100" style="enable-background:new -246.6 347.1 100 100;" xml:space="preserve">
<style type="text/css">
	.st0{fill:none;stroke:#F15B2A;stroke-width:1.9199;}
	.st1{fill:none;stroke:#66B9B7;stroke-width:1.9199;}
	.st2{fill:none;stroke:#1DA9E1;stroke-width:1.9199;}
	.st3{fill:none;stroke:#5F7D7A;stroke-width:1.9199;}
	.st4{fill:none;stroke:#ED3985;stroke-width:1.9199;}
	.st5{fill:none;stroke:#FED208;stroke-width:1.9199;}
	.st6{fill:none;stroke:#231F20;stroke-width:2.0897;}
</style>
<g>
	<path class="st0" d="M-241.1,369.8c0,0,7.7,7.3,29.6,7.3c20.2,0,28.2-7.3,28.2-7.3"/>
	<path class="st0" d="M-183.8,370.5c0,0-7.7-7.3-29.6-7.3c-20.2,0.1-28.2,7.3-28.2,7.3"/>
	<path class="st1" d="M-241.1,380.5c0,0,7.7,7.3,29.6,7.3c20.2,0,28.2-7.3,28.2-7.3"/>
	<path class="st2" d="M-241.1,401.9c0,0,7.7,7.3,29.6,7.3c20.2,0,28.2-7.3,28.2-7.3"/>
	<path class="st3" d="M-241.6,423.8c0,0,7.7,7.3,29.6,7.3c20.2,0,28.2-7.3,28.2-7.3"/>
	<path class="st4" d="M-241.1,390.9c0,0,7.7,7.3,29.6,7.3c20.2,0,28.2-7.3,28.2-7.3"/>
	<path class="st5" d="M-241.6,412.8c0,0,7.7,7.3,29.6,7.3c20.2,0,28.2-7.3,28.2-7.3"/>
	<line class="st6" x1="-166.9" y1="399.9" x2="-166.9" y2="430.6"/>
	<line class="st6" x1="-182.3" y1="415.3" x2="-151.6" y2="415.3"/>
</g>
</svg>
