<?xml version="1.0" encoding="utf-8"?>
<!-- Generator: Adobe Illustrator 19.1.0, SVG Export Plug-In . SVG Version: 6.00 Build 0)  -->
<svg version="1.1" id="Layer_1" xmlns="http://www.w3.org/2000/svg" xmlns:xlink="http://www.w3.org/1999/xlink" x="0px" y="0px"
	 viewBox="-265.5 347 100 100" style="enable-background:new -265.5 347 100 100;" xml:space="preserve">
<style type="text/css">
	.st0{fill:#ED3985;}
	.st1{fill:#66B9B7;}
	.st2{fill:#5F7D7A;}
	.st3{fill:#FED208;}
</style>
<g>
	<path class="st0" d="M-194.6,368.1c-3.7,0-6.9-0.1-10.1,0c-2,0.1-2.8-0.5-2.7-2.6c0.1-3.3,0-6.6,0-10c-15.1,0-29.9,0-44.8,0
		c0,27.6,0,55.2,0,83c19.1,0,38.2,0,57.6,0c0-2.4-0.1-4.8,0.1-7.3c0.1-0.7,0.9-1.4,1.3-2.2c0.5,0.7,1.5,1.4,1.6,2.2
		c0.2,2.6,0,5.1,0.1,7.7c0.1,2.2-0.9,2.9-3,2.9c-16.1-0.1-32.3,0-48.4,0c-3.3,0-6.6-0.1-10,0c-1.8,0-2.5-0.7-2.5-2.6
		c0-28.2,0-56.4,0-84.6c0-1.7,0.6-2.5,2.4-2.5c15.5,0,30.9,0,46.5,0.1c0.9,0,1.9,0.5,2.5,1.2c3.9,3.8,7.7,7.5,11.4,11.4
		c0.6,0.7,1.2,1.8,1.2,2.8c0.1,6.8,0.1,13.6,0.1,20.4c0,1.2,0,2.4-1.6,2.4c-1.7,0-1.4-1.4-1.4-2.5c0-5.6,0-11.2,0-16.9
		C-194.6,370.2-194.6,369.3-194.6,368.1z M-198.1,364.9c-2-2-4.1-4.2-6.1-6.2c0,1.8,0,3.9,0,6.2
		C-201.9,364.9-199.7,364.9-198.1,364.9z"/>
	<path class="st0" d="M-204.3,422.6c-5.6,0-11,0-16.6,0c-1.2,0-2.5-0.1-2.5,1.5c0,1.5,1.3,1.6,2.5,1.6c11.1,0,22.2,0,33.4,0
		c1.2,0,2.5-0.2,2.3-1.6c-0.1-0.5-1.4-1.3-2.3-1.3C-193.1,422.6-198.7,422.6-204.3,422.6z"/>
	<path class="st0" d="M-228.2,364.9c2,0,3.9,0.1,5.9-0.1c0.7-0.1,1.3-0.9,2-1.3c-0.6-0.5-1.3-1.6-1.9-1.6c-4-0.2-8.1-0.2-12,0
		c-0.6,0-1.3,1-1.9,1.5c0.6,0.5,1.2,1.4,1.9,1.5C-232.3,365.1-230.2,364.9-228.2,364.9z"/>
	<path class="st0" d="M-228.3,371.4c2,0,3.9,0.1,5.9-0.1c0.7-0.1,1.3-0.9,2-1.3c-0.6-0.5-1.3-1.6-1.9-1.6c-4-0.2-8.1-0.2-12,0
		c-0.6,0-1.3,1-1.9,1.4c0.7,0.5,1.3,1.4,2.1,1.5C-232.2,371.4-230.2,371.4-228.3,371.4z"/>
	<path class="st0" d="M-242.7,364.9L-242.7,364.9c0.4,0,0.8,0.2,1.1,0c0.7-0.4,1.4-1,2.1-1.4c-0.6-0.5-1.3-1.3-2-1.6
		c-0.9-0.3-2-0.3-2.9,0c-0.5,0.2-1.4,1.1-1.3,1.4c0.1,0.6,0.9,1.2,1.5,1.6C-243.9,365.1-243.3,364.9-242.7,364.9z"/>
	<path class="st0" d="M-242.8,371.4L-242.8,371.4c0.4,0,1,0.2,1.3,0c0.7-0.4,1.3-0.9,2-1.3c-0.6-0.5-1.2-1.3-1.9-1.6
		c-0.8-0.3-1.9-0.3-2.7,0c-0.7,0.3-1.2,1.1-1.8,1.6c0.5,0.4,1.1,1.1,1.7,1.4C-243.8,371.4-243.3,371.4-242.8,371.4z"/>
	<path class="st1" d="M-204.3,416.1c1.3,0,2.2,0,3.3,0c0-5.6,0-11.1,0-16.7c0.1-6.4-1.1-5.6,5.7-5.6c3.8,0,3.8,0,3.8,3.8
		c0,5.4,0,10.8,0,16.1c0,0.7,0.1,1.4,0.1,2.3c1.1,0,1.9,0,3.1,0c0-0.8,0-1.6,0-2.3c0-11,0.1-22.2,0-33.2c0-2.1,0.7-3,2.8-2.8
		c1.3,0.1,2.7,0.1,4.1,0c2.2-0.2,2.8,0.8,2.8,2.9c-0.1,10.9,0,21.8,0,32.7c0,0.8,0,1.6,0,2.3c0.3,0.2,0.4,0.4,0.4,0.4
		c1.2,0.2,2.8-0.1,2.7,1.6c-0.1,1.9-1.8,1.5-3,1.5c-17.1,0-34.3,0-51.4,0c-2.8,0-3-0.3-3-3c0-12.9,0-25.7,0-38.7
		c0-0.6-0.2-1.3,0.1-1.8c0.4-0.5,1-1.2,1.6-1.3c0.4-0.1,1.1,0.7,1.3,1.3c0.3,0.5,0.1,1.2,0.1,1.8c0,11.5,0,23,0,34.5
		c0,1.2,0,2.4,0,3.8c1.2,0,2.1,0,3.4,0c0-3.2,0-6.5,0-9.7c0-2.9,0.2-3,2.9-3c7.7,0.1,6.4-1,6.5,6.5c0,2.1,0,4,0,6.3
		c1.2,0,2.1,0,3.4,0c0-0.9,0-1.7,0-2.6c0-7.8,0.1-15.6,0-23.4c0-2,0.7-2.7,2.7-2.6c8.2,0.2,6.7-1,6.8,6.6
		C-204.2,401.4-204.3,408.7-204.3,416.1z M-181.9,416.1c0-11.8,0-23.4,0-35.1c-1.1,0-2,0-3,0c0,11.7,0,23.4,0,35.1
		C-183.9,416.1-183,416.1-181.9,416.1z M-210.6,390.6c0,8.5,0,16.9,0,25.4c1.2,0,2.2,0,3.1,0c0-8.6,0-16.9,0-25.4
		C-208.5,390.6-209.5,390.6-210.6,390.6z M-197.8,416c1.3,0,2.2,0,3,0c0-6.5,0-12.6,0-19c-1.1,0-2,0-3,0
		C-197.8,403.5-197.8,409.6-197.8,416z M-223.4,416.1c1.2,0,2.2,0,3.1,0c0-3.2,0-6.3,0-9.4c-1.2,0-2.2,0-3.1,0
		C-223.4,409.9-223.4,412.9-223.4,416.1z"/>
	<path class="st2" d="M-204.3,422.6c5.6,0,11.2-0.1,16.8,0.1c0.8,0,2.2,0.8,2.3,1.3c0.2,1.5-1.2,1.6-2.3,1.6c-11.1,0-22.2,0-33.4,0
		c-1.2,0-2.5-0.1-2.5-1.6s1.3-1.5,2.5-1.5C-215.4,422.6-209.8,422.6-204.3,422.6z"/>
	<path class="st3" d="M-228.2,364.9c-2.1,0-4.1,0.1-6.1-0.1c-0.6-0.1-1.3-1-1.9-1.5c0.6-0.5,1.3-1.5,1.9-1.5c4-0.2,8.1-0.2,12,0
		c0.6,0,1.3,1.1,1.9,1.6c-0.6,0.4-1.3,1.3-2,1.3C-224.2,365.1-226.2,364.9-228.2,364.9z"/>
	<path class="st2" d="M-228.3,371.4c-2,0-3.9,0.2-5.9-0.1c-0.7-0.1-1.3-1-2.1-1.5c0.6-0.5,1.3-1.4,1.9-1.4c4-0.2,8.1-0.2,12,0
		c0.6,0,1.3,1.1,1.9,1.6c-0.6,0.4-1.3,1.3-2,1.3C-224.2,371.4-226.3,371.4-228.3,371.4z"/>
	<path class="st3" d="M-242.7,364.9c-0.5,0-1.2,0.2-1.5,0c-0.6-0.4-1.3-1-1.5-1.6c-0.1-0.4,0.8-1.3,1.3-1.4c0.9-0.3,2-0.3,2.9,0
		c0.7,0.3,1.3,1,2,1.6c-0.7,0.5-1.3,1.1-2.1,1.4C-241.9,365.1-242.4,364.9-242.7,364.9L-242.7,364.9z"/>
	<path class="st2" d="M-242.8,371.4c-0.4,0-1,0.2-1.3,0c-0.6-0.4-1.2-0.9-1.7-1.4c0.5-0.5,1.1-1.3,1.8-1.6c0.8-0.3,1.9-0.3,2.7,0
		c0.7,0.3,1.3,1.1,1.9,1.6c-0.6,0.4-1.3,1-2,1.3C-241.8,371.4-242.4,371.4-242.8,371.4L-242.8,371.4z"/>
</g>
</svg>
