<?xml version="1.0" encoding="utf-8"?>
<!-- Generator: Adobe Illustrator 19.1.0, SVG Export Plug-In . SVG Version: 6.00 Build 0)  -->
<svg version="1.1" id="Layer_1" xmlns="http://www.w3.org/2000/svg" xmlns:xlink="http://www.w3.org/1999/xlink" x="0px" y="0px"
	 viewBox="0 0 100 100" style="enable-background:new 0 0 100 100;" xml:space="preserve">
<style type="text/css">
	.st0{fill:#66B9B7;}
</style>
<g>
	<path class="st0" d="M100,45.1V42c0-8.6-7-15.6-15.6-15.6h-6c0-0.4,0.1-0.8,0.1-1.2c0-7-5.7-12.7-12.7-12.7c-2.7,0-5.2,0.9-7.3,2.3
		C55.2,6.1,46.8,0,36.9,0C24.1,0,13.7,10.4,13.7,23.2c0,1.1,0.1,2.2,0.3,3.3C6.1,27.4,0,34,0,42v3.1C0,53.3,6.4,60,14.5,60.6V73H0
		v19.3h12.8v4.6H6.3v3.1h16.1v-3.1h-6.5v-4.6h12.8V73H17.6V60.7h30.9V73H35.7v19.3h12.8v4.6h-6.5v3.1h16.1v-3.1h-6.5v-4.6h12.8V73
		H51.6V60.7h32.8V73h-13v19.3h12.8v4.6h-6.5v3.1h16.1v-3.1h-6.5v-4.6H100V73H87.5V60.4C94.6,59,100,52.6,100,45.1z M25.5,76.2v13
		H3.1v-13H25.5z M61.2,76.2v13H38.8v-13H61.2z M96.9,76.2v13H74.5v-13H96.9z M84.4,57.6H15.6C8.7,57.6,3.1,52,3.1,45.1V42
		c0-6.3,4.8-11.6,11.1-12.3l3.2-0.4L17,26.1c-0.2-1.1-0.2-2-0.2-2.9c0-11.1,9-20.1,20.1-20.1c8.3,0,15.7,5,18.7,12.8l1.4,3.7
		l3.3-2.3c1.6-1.1,3.5-1.7,5.5-1.7c5.3,0,9.6,4.3,9.6,9.6c0,0.1,0,0.2,0,0.3c0,0.2-0.1,0.4-0.1,0.5L75,29.5h3.4h6
		c6.9,0,12.5,5.6,12.5,12.5v3.1C96.9,52,91.3,57.6,84.4,57.6z"/>
</g>
</svg>
