<?xml version="1.0" encoding="utf-8"?>
<!-- Generator: Adobe Illustrator 19.1.0, SVG Export Plug-In . SVG Version: 6.00 Build 0)  -->
<svg version="1.1" id="Layer_1" xmlns="http://www.w3.org/2000/svg" xmlns:xlink="http://www.w3.org/1999/xlink" x="0px" y="0px"
	 viewBox="-254.8 347.3 100 100" style="enable-background:new -254.8 347.3 100 100;" xml:space="preserve">
<style type="text/css">
	.st0{fill:#5F7D7A;}
	.st1{fill:#1DA9E1;}
	.st2{fill:#66B9B7;}
	.st3{fill:#F15B2A;stroke:#F15B2A;stroke-width:0.999;}
</style>
<g>
	<g>
		<g>
			<path class="st0" d="M-165.1,363.8h-50c-5.7,0-10.4,4.7-10.4,10.4v12.5c0,1.1,0.9,2.1,2.1,2.1c1.2,0,2.1-0.9,2.1-2.1v-12.5
				c0-3.4,2.8-6.2,6.2-6.2h50c3.4,0,6.2,2.8,6.2,6.2v25c0,3.4-2.8,6.2-6.2,6.2h-37.5c-1.1,0-2.1,0.9-2.1,2.1c0,1.1,0.9,2.1,2.1,2.1
				h37.5c5.7,0,10.4-4.7,10.4-10.4v-25C-154.8,368.5-159.4,363.8-165.1,363.8z"/>
		</g>
	</g>
	<g>
		<g>
			<path class="st1" d="M-175.5,393c0-1.2,0.5-2.3,1.4-3.1c0.4-0.4,0.7-1,0.7-1.5s-0.3-1.2-0.7-1.5c-1.5-1.4-3.5-2.2-5.6-2.2
				c-4.6,0-8.3,3.7-8.3,8.3c0,4.6,3.7,8.3,8.3,8.3c2,0,4-0.8,5.6-2.2c0.4-0.4,0.7-1,0.7-1.5c0-0.5-0.3-1.2-0.7-1.5
				C-175,395.2-175.5,394.1-175.5,393z M-178.6,397c-2.5,0.7-5.2-1.4-5.2-4c0-2.3,1.9-4.2,4.2-4.2c0.4,0,0.7,0,1.1,0.1
				c-0.7,1.2-1.1,2.6-1.1,4C-179.7,394.4-179.3,395.8-178.6,397z"/>
		</g>
	</g>
	<g>
		<g>
			<path class="st1" d="M-171.4,384.6c-4.6,0-8.3,3.7-8.3,8.3c0,4.6,3.7,8.3,8.3,8.3c4.6,0,8.3-3.7,8.3-8.3
				C-163,388.4-166.8,384.6-171.4,384.6z M-171.4,397.1c-2.3,0-4.2-1.9-4.2-4.2s1.9-4.2,4.2-4.2s4.2,1.9,4.2,4.2
				C-167.2,395.3-169.1,397.1-171.4,397.1z"/>
		</g>
	</g>
	<g>
		<g>
			<path class="st2" d="M-206.8,376.3h-4.2c-1.1,0-2.1,0.9-2.1,2.1c0,1.2,0.9,2.1,2.1,2.1h4.2c1.1,0,2.1-0.9,2.1-2.1
				C-204.7,377.2-205.6,376.3-206.8,376.3z"/>
		</g>
	</g>
	<g>
		<g>
			<path class="st3" d="M-194.3,376.3h-4.2c-1.1,0-2.1,0.9-2.1,2.1c0,1.2,0.9,2.1,2.1,2.1h4.2c1.1,0,2.1-0.9,2.1-2.1
				C-192.2,377.2-193.1,376.3-194.3,376.3z"/>
		</g>
	</g>
	<g>
		<g>
			<path class="st1" d="M-181.8,376.3h-4.2c-1.2,0-2.1,0.9-2.1,2.1c0,1.2,0.9,2.1,2.1,2.1h4.2c1.1,0,2.1-0.9,2.1-2.1
				C-179.7,377.2-180.6,376.3-181.8,376.3z"/>
		</g>
	</g>
	<g>
		<g>
			<path class="st0" d="M-169.3,376.3h-4.2c-1.2,0-2.1,0.9-2.1,2.1c0,1.2,0.9,2.1,2.1,2.1h4.2c1.1,0,2.1-0.9,2.1-2.1
				C-167.2,377.2-168.1,376.3-169.3,376.3z"/>
		</g>
	</g>
	<g>
		<g>
			<path class="st3" d="M-179.8,415.3c-0.3-0.9-1.1-1.5-2-1.5h-12.7l-9.4,0.7c-3.8,0.6-7.1-2.4-7.1-6.2c0-1.4,0.5-2.8,1.3-4l6.6-9
				c1.8-2.7,1.5-6.4-0.9-8.8c-2.6-2.6-7.2-2.6-9.8,0l-10.5,10.6c-5.6,0.3-10.5,3.5-13,8.6c-0.1,0.1-0.1,0.3-0.1,0.4l-4.6,17.5
				c-0.2,0.6-0.1,1.2,0.3,1.7c0.3,0.5,0.8,0.8,1.4,0.9l26.8,4.1c0.9,0.3,2.3,0.4,4,0.4c3.2,0,9.9-0.6,12.4-2.8l16.5-10.2
				C-179.9,417.1-179.5,416.2-179.8,415.3z M-199.6,424.4c-0.1,0.1-0.3,0.2-0.4,0.3c-0.8,0.8-5.3,1.8-9.7,1.8
				c-1.8,0-2.7-0.2-3.1-0.3l-24.8-3.8l4-15c2-3.8,5.8-6.1,10.1-6.1c0.6,0,1.1-0.2,1.5-0.6l11.1-11.1c1-1,2.9-1,3.9,0
				c0.9,0.9,1.1,2.4,0.4,3.4l-6.5,8.9c-1.4,1.9-2.1,4.1-2.1,6.5c0,5.7,4.7,10.4,10.4,10.4c0.5,0,1,0,1.4-0.1l9.1-0.7h5.2
				L-199.6,424.4z"/>
		</g>
	</g>
	<g>
		<g>
			<path class="st3" d="M-234.5,401.8c-3.7-3.4-15.6-4.5-18-4.7c-0.6,0-1.1,0.2-1.6,0.5c-0.4,0.4-0.7,0.9-0.7,1.5v29.2
				c0,1.2,0.9,2.1,2.1,2.1c5.7,0,13.2-4.3,13.5-4.4c0.5-0.3,0.8-0.7,1-1.2c0.1-0.4,3.3-10.5,4.3-21.3
				C-233.8,402.9-234.1,402.3-234.5,401.8z M-241.9,422.8c-1.9,1-5.5,2.7-8.7,3.3v-24.6c4.5,0.5,10,1.5,12.4,2.9
				C-239,412.6-241.1,420.3-241.9,422.8z"/>
		</g>
	</g>
</g>
</svg>
