<?xml version="1.0" encoding="utf-8"?>
<!-- Generator: Adobe Illustrator 19.1.0, SVG Export Plug-In . SVG Version: 6.00 Build 0)  -->
<svg version="1.1" id="Layer_1" xmlns="http://www.w3.org/2000/svg" xmlns:xlink="http://www.w3.org/1999/xlink" x="0px" y="0px"
	 viewBox="-254.5 341.5 100 110" style="enable-background:new -254.5 341.5 100 110;" xml:space="preserve">
<style type="text/css">
	.st0{fill:#F15B2A;stroke:#F15B2A;stroke-width:0.75;}
	.st1{fill:#5F7D7A;}
</style>
<g>
	<path class="st0" d="M-218.2,351.5c12.9,0,25.8,0,38.6,0c1.1,0.5,1.3,1.4,1.3,2.5c0,7.5,0,15.1,0,22.6c0,0.4,0,0.7,0,1.1
		c0.4,0,0.7,0,1,0c2.3,0,4.7,0.1,7.1,0c2.9-0.1,3.3,0.7,3.3,3.2c-0.1,13.1,0,26.3,0,39.4c0,1-0.3,1.6-1,2.3
		c-5.8,5.8-11.6,11.6-17.4,17.3c-0.5,0.5-1.2,1.1-1.7,1.6c-17.8,0-35.7,0-53.6,0c-1-0.5-1.3-1.4-1.3-2.5c0.1-5.7,0-11.4,0-17.1
		c0-7.6,0-15.4,0-23c0-0.6,0.1-1.4,0.6-1.7c2-2.2,4.2-4.2,6.3-6.2c0.5-0.5,0.6-0.8,0.6-1.4c0-6.8,0-13.6,0-20.4
		c0-1.9,0.6-2.5,2.6-2.5c1.6,0,3.2,0,4.9,0c0-1.8,0-3.5,0-5.2c0-1.7,0.7-2.3,2.3-2.3c1.2,0,2.3,0,3.5,0c0.5,0,1,0,1.7,0
		c0-1.7,0.1-3.4,0-5C-219.6,352.9-219.2,352-218.2,351.5z M-189.6,437.7c0-12.5,0-24.9,0-37.4c-16.3,0-32.4,0-48.6,0
		c0,12.5,0,24.9,0,37.4C-222,437.7-205.8,437.7-189.6,437.7z M-197.1,396.4c0-8.8,0-17.5,0-26.1c-11.3,0-22.4,0-33.6,0
		c0,8.8,0,17.4,0,26.1C-219.4,396.4-208.3,396.4-197.1,396.4z M-185.8,434.8c0.1,0.1,0.2,0.1,0.3,0.1c0.2-0.2,0.4-0.5,0.6-0.8
		c4.5-4.5,9-9,13.5-13.4c0.4-0.5,0.6-0.8,0.6-1.4c0-11.4,0-22.8,0-34.3c0-0.2,0-0.5-0.1-0.8c-0.3,0.3-0.5,0.5-0.8,0.7
		c-4.3,4.3-8.5,8.6-12.8,12.7c-1.1,1-1.5,2.1-1.5,3.6c0.1,10.9,0,21.8,0,32.5C-185.8,434.1-185.8,434.4-185.8,434.8z M-185.8,393.6
		c0.1,0,0.1,0.1,0.2,0.1c1.1-1.1,2.3-2.3,3.3-3.4c0.1-0.1,0.2-0.4,0.3-0.7c0-0.5-0.1-0.9-0.1-1.4c0-10.6,0-21.2,0-31.9
		c0-0.4,0-0.7,0-1c-11.3,0-22.5,0-33.7,0c0,1.3,0,2.5,0,3.8c0.3,0,0.5,0,0.8,0c4.6,0,9.2,0,13.8,0c4.4,0,8.9,0,13.3,0
		c1.4,0,2.1,0.7,2.2,2.1c0,0.2,0,0.4,0,0.6c0,10.2,0,20.4,0,30.7C-185.8,392.8-185.8,393.2-185.8,393.6z M-189.6,396.4
		c0-11.3,0-22.4,0-33.7c-11.3,0-22.4,0-33.6,0c0,1.3,0,2.4,0,3.7c0.4,0,0.7,0,1.1,0c8.8,0,17.6,0,26.3,0c1.9,0,2.6,0.6,2.6,2.6
		c0,8.9,0,17.6,0,26.5c0,0.3,0,0.6,0,1C-192,396.4-190.9,396.4-189.6,396.4z M-178.2,381.6c0,1.6,0,3.1,0,4.3
		c1.4-1.4,2.9-2.9,4.4-4.3C-175.2,381.6-176.7,381.6-178.2,381.6z"/>
	<path class="st1" d="M-217,416.4c-2.4,0-4.8,0-7.3,0c-1.7,0-2.8-1-2.8-2.5s1.1-2.5,2.8-2.5c4.8,0,9.5,0,14.3,0c1.8,0,2.9,1,2.9,2.5
		s-1.1,2.4-2.9,2.5C-212.3,416.5-214.6,416.4-217,416.4z"/>
</g>
</svg>
