<?xml version="1.0" encoding="utf-8"?>
<!-- Generator: Adobe Illustrator 19.1.0, SVG Export Plug-In . SVG Version: 6.00 Build 0)  -->
<svg version="1.1" id="Layer_1" xmlns="http://www.w3.org/2000/svg" xmlns:xlink="http://www.w3.org/1999/xlink" x="0px" y="0px"
	 viewBox="-254.5 346.5 100 100" style="enable-background:new -254.5 346.5 100 100;" xml:space="preserve">
<style type="text/css">
	.st0{fill:#F15B2A;stroke:#F15B2A;stroke-width:0.9;}
	.st1{fill:#FED208;}
	.st2{fill:#5F7D7A;}
	.st3{fill:#66B9B7;}
</style>
<g>
	<path class="st0" d="M-182.2,378.1c-2.3,0-4.4,0.4-6.5,1V358h-17.8l1.4-6.5h-27.6l1.3,6.5h-17.9v83.5h60.7v-18.7
		c2.1,0.6,4.2,1,6.5,1c12.6,0,22.8-10.4,22.8-22.8C-159.5,388.5-169.6,378.1-182.2,378.1z M-209.9,355.4l-1.9,9.2h-14.5l-1.8-9.2
		H-209.9z M-192.6,437.6h-53v-75.8h14.9l1.3,6.5h20.9l1.4-6.5h14.8v18.8c-5,2.6-9,6.9-11,12.2h-36.9v3.8h35.8
		c-0.3,1.4-0.4,2.8-0.4,4.2c0,2.4,0.4,4.9,1.2,7.1h-36.7v3.9h38.3c2.2,4,5.6,7.3,9.6,9.4V437.6L-192.6,437.6z M-182.2,419.6
		c-10.5,0-19-8.6-19-19c0-10.3,8.6-19,19-19c10.5,0,19,8.6,19,19C-163.2,411-171.7,419.6-182.2,419.6L-182.2,419.6z"/>
	<polygon class="st1" points="-171.2,392.5 -185.9,407.2 -191.9,401.3 -194.5,404 -185.9,412.6 -168.5,395.1 	"/>
	<rect x="-240.5" y="378" class="st2" width="42.9" height="3.9"/>
	<rect x="-240.5" y="423" class="st3" width="42.9" height="3.9"/>
</g>
</svg>
