<?xml version="1.0" encoding="utf-8"?>
<!-- Generator: Adobe Illustrator 19.1.0, SVG Export Plug-In . SVG Version: 6.00 Build 0)  -->
<svg version="1.1" id="Layer_1" xmlns="http://www.w3.org/2000/svg" xmlns:xlink="http://www.w3.org/1999/xlink" x="0px" y="0px"
	 viewBox="-290.5 347.4 100 100" style="enable-background:new -290.5 347.4 100 100;" xml:space="preserve">
<style type="text/css">
	.st0{fill:#1DA9E1;}
	.st1{fill:#5F7D7A;}
	.st2{fill:#F15B2A;stroke:#F15B2A;stroke-width:1.4;}
	.st3{fill:#ED3985;}
	.st4{fill:#FED208;}
</style>
<g>
	<path class="st0" d="M-275.5,442.2h70v-89.6h-70V442.2z M-272.7,355.4h64.4v84h-64.4V355.4z"/>
	<path class="st1" d="M-256.2,359.2h-12.2v8.4h12L-256.2,359.2L-256.2,359.2z M-259.1,364.6h-6.6v-2.8h6.6V364.6z"/>
	<path class="st1" d="M-253.5,367.4h41V359h-41V367.4z M-250.7,361.8h35.6v2.8h-35.6V361.8z"/>
	<path class="st2" d="M-216.7,371.2h-47.6c-2.4,0-4.2,1.8-4.2,4.2V410c0,2.4,1.8,4.2,4.2,4.2h19h9.7h19c2.4,0,4.2-1.8,4.2-4.2v-34.4
		C-212.4,373.2-214.3,371.2-216.7,371.2z M-238.4,391.2v20.2h-4.1v-20.2l-8.8,9l-2.8-2.8l13.7-14l13.7,14l-2.8,2.8L-238.4,391.2z
		 M-215.2,410c0,0.8-0.6,1.4-1.4,1.4h-18.9v-13.3l5.9,6.2l6.9-6.7l-17.6-18.1l-17.8,18.1l6.9,6.7l5.9-6.2v13.3h-18.9
		c-0.8,0-1.4-0.6-1.4-1.4v-34.4c0-0.8,0.6-1.4,1.4-1.4h47.6c0.8,0,1.4,0.6,1.4,1.4V410H-215.2z"/>
	<rect x="-266.5" y="419.4" class="st3" width="52.2" height="2.8"/>
	<rect x="-266.5" y="425.4" class="st3" width="52.2" height="2.8"/>
	<rect x="-266.5" y="431.3" class="st4" width="52.2" height="2.8"/>
</g>
</svg>
