<?xml version="1.0" encoding="utf-8"?>
<!-- Generator: Adobe Illustrator 19.1.0, SVG Export Plug-In . SVG Version: 6.00 Build 0)  -->
<svg version="1.1" id="Layer_1" xmlns="http://www.w3.org/2000/svg" xmlns:xlink="http://www.w3.org/1999/xlink" x="0px" y="0px"
	 viewBox="-255 346.5 100 100" style="enable-background:new -255 346.5 100 100;" xml:space="preserve">
<style type="text/css">
	.st0{fill:#66B9B7;}
	.st1{fill:#F15B2A;stroke:#F15B2A;stroke-width:1.0009;}
	.st2{fill:#1DA9E1;}
	.st3{fill:#ED3985;}
	.st4{fill:#5F7D7A;}
</style>
<g>
	<path class="st0" d="M-238.1,443.8c-4.5-2.7-8.9-5.5-13.5-7.9c-2.6-1.4-3.5-3-3.4-5.9c0.2-4.7,0.1-9.4,0-14.1c0-1.4,0.5-2.3,1.7-3
		c4.7-2.6,9.3-5.3,13.9-8c1.1-0.7,2-0.6,3.1,0c4.4,2.6,9,5.1,13.4,7.8c1,0.6,1.8,0.6,2.9,0c4.4-2.6,8.8-5.1,13.2-7.7
		c1.2-0.7,2.2-0.8,3.4,0c4.4,2.6,8.8,5.1,13.2,7.7c1,0.6,1.8,0.7,2.9,0c4.4-2.6,8.8-5.1,13.2-7.7c1.2-0.7,2.2-0.8,3.4,0
		c4.5,2.7,9.1,5.4,13.8,7.9c1.2,0.7,1.8,1.5,1.8,3c-0.1,5.4-0.1,10.7,0,16.1c0,1.5-0.5,2.3-1.8,3c-4.5,2.5-9,5.1-13.4,7.7
		c-0.5,0.3-1,0.8-1.5,1.2c-0.3,0-0.5,0-0.8,0c-5.1-3-10.2-6-15.4-9c-0.4-0.2-1.1-0.2-1.4,0c-5.1,3-10.3,6-15.4,9c-0.3,0-0.5,0-0.8,0
		c-0.5-0.4-1-0.9-1.5-1.2c-3-1.7-6.1-3.2-8.9-5.2c-3.8-2.9-7-3-10.9-0.1c-3.3,2.5-7,4.3-10.6,6.5
		C-237.6,443.8-237.9,443.8-238.1,443.8z M-253.3,423.6c0,2.5,0.1,4.9,0,7.4c-0.1,1.3,0.5,2,1.6,2.6c4.2,2.4,8.4,4.8,12.6,7.3
		c1,0.6,1.8,0.7,2.9,0.1c4.2-2.5,8.5-4.9,12.7-7.4c0.7-0.4,1.4-1.6,1.4-2.5c0.2-3,0-6,0.1-8.9c0-0.7,0.5-1.5,0.7-2.2
		c0.3,0.8,0.8,1.5,0.8,2.3c0.1,2.8,0.1,5.7,0,8.5c0,1.4,0.4,2.3,1.7,3c4,2.2,8,4.5,11.9,6.9c1.4,0.9,2.5,0.9,4,0
		c4.4-2.6,8.8-5.1,13.2-7.7c0.9-0.6,1.5-0.6,2.5,0c4.5,2.7,9.1,5.2,13.6,7.9c1.1,0.7,2,0.7,3.1,0c4.2-2.5,8.3-4.9,12.6-7.2
		c1.2-0.6,1.5-1.5,1.5-2.7c0-4.8,0-9.5,0-14.3c0-1.3-0.4-2.1-1.5-2.7c-4.3-2.4-8.5-4.9-12.8-7.3c-0.6-0.4-1.8-0.4-2.5,0
		c-4.4,2.4-8.8,4.9-13.1,7.5c-0.6,0.4-1.2,1.4-1.2,2.1c-0.1,3.2,0,6.5-0.1,9.7c0,0.5-0.5,1.1-0.7,1.6c-0.3-0.5-0.9-1.1-0.9-1.6
		c-0.1-3.2-0.1-6.4,0-9.5c0-1.2-0.4-1.9-1.4-2.5c-4.3-2.4-8.5-4.8-12.7-7.4c-1.1-0.7-1.9-0.5-2.9,0.1c-4.5,2.7-9.1,5.2-13.5,7.9
		c-1,0.6-1.7,0.6-2.7,0c-4.5-2.7-9.1-5.2-13.5-7.9c-1-0.6-1.9-0.7-2.9,0c-4.2,2.5-8.5,5-12.7,7.3c-1.1,0.6-1.5,1.4-1.5,2.7
		C-253.3,419-253.3,421.3-253.3,423.6z"/>
	<path class="st1" d="M-206.1,351.3c-5.1,1.9-10.1,3.7-14.9,5.6c-0.5,0.2-0.8,1.4-0.8,2.1c0,15.4,0,30.8-0.1,46.1c0,1,0.8,2.5-1,3
		c-0.3-1-0.8-2-0.8-3c0-15.8,0-31.6-0.1-47.3c0-1.6,0.5-2.3,2-2.8c5.1-1.8,10-3.7,15.1-5.5c0.9-0.3,2.1-0.3,3,0
		c5.1,1.8,10.2,3.7,15.3,5.6c1.2,0.4,1.7,1,1.7,2.4c0,16.2,0,32.5-0.1,48.7c0,0.6-0.5,1.3-0.8,1.9c-0.3-0.6-0.8-1.3-0.8-1.9
		c0-15.6-0.1-31.2,0-46.7c0-1.9-0.6-2.7-2.3-3.2c-3.9-1.3-7.7-2.8-11.6-4.2c-0.6-0.2-1.2-0.4-2-0.7c0,1,0,1.8,0,2.6
		c0,14.9,0,29.8,0,44.7c0,0.5,0.1,1.1,0,1.6c-0.1,0.4-0.5,0.8-0.8,1.1c-0.3-0.4-0.8-0.7-1-1.2c-0.2-0.5,0-1,0-1.6
		c0-14.9,0-29.8,0-44.7C-206.1,353.2-206.1,352.4-206.1,351.3z"/>
	<path class="st1" d="M-213.4,361.4c1.5-0.7,2.7-1.3,4-1.8c0.3-0.1,0.8,0.1,1,0.4c0.2,0.2,0.1,0.7,0,0.9
		C-208.7,362-211.9,362.5-213.4,361.4z"/>
	<path class="st1" d="M-197,375.4c-0.3,0.5-0.4,0.8-0.5,0.8c-1-0.1-2-0.2-2.9-0.5c-0.6-0.2-1-0.8-1.5-1.3l0.1-0.3
		c0.6-0.1,1.2-0.3,1.8-0.1C-199,374.3-198.1,374.9-197,375.4z"/>
	<path class="st1" d="M-201.2,359.5c1.2,0.5,2.3,1,3.4,1.6c0.2,0.1,0.3,0.7,0.2,0.8c-0.3,0.3-0.8,0.7-1.1,0.6
		c-1.1-0.3-2.1-0.8-3.1-1.2c-0.2-0.1-0.4-0.7-0.3-1C-202,360-201.6,359.8-201.2,359.5z"/>
	<path class="st1" d="M-193.8,362.6c1.2,0.6,2.3,1.1,3.4,1.7c0.1,0-0.3,0.9-0.5,1.4c-1.2-0.5-2.4-0.9-3.6-1.4
		c-0.2-0.1-0.2-0.7-0.1-1.1C-194.5,362.9-194,362.8-193.8,362.6z"/>
	<path class="st1" d="M-219.3,379.9c-0.3-0.2-0.8-0.4-0.9-0.8c-0.1-0.3,0.2-0.9,0.6-1c0.9-0.5,1.8-0.9,2.7-1.1
		c0.4-0.1,0.9,0.3,1.3,0.5c-0.2,0.4-0.3,0.9-0.6,1.1C-217.2,379.1-218.2,379.4-219.3,379.9z"/>
	<path class="st1" d="M-207.7,388.6c-0.9,0.6-1.4,1-2,1.2c-0.9,0.3-1.8,0.3-2.7,0.5c0-0.4-0.2-1.1-0.1-1.1c1.2-0.6,2.4-1.1,3.6-1.5
		C-208.8,387.6-208.4,388.1-207.7,388.6z"/>
	<path class="st1" d="M-219.3,393.8c-0.3-0.2-0.8-0.4-0.9-0.8c-0.1-0.3,0.2-0.9,0.6-1c0.9-0.5,1.8-0.9,2.7-1.1
		c0.4-0.1,0.9,0.3,1.3,0.5c-0.2,0.4-0.3,0.9-0.6,1.1C-217.2,393-218.2,393.3-219.3,393.8z"/>
	<path class="st1" d="M-215.4,363.9c-1.1,0.6-1.9,1.1-2.7,1.4c-0.7,0.2-1.5,0.1-2.2,0.2c0-0.4-0.1-1,0-1c1.2-0.6,2.5-1.1,3.8-1.5
		C-216.4,362.9-216.1,363.3-215.4,363.9z"/>
	<path class="st1" d="M-201.2,387.5c1.2,0.5,2.3,0.9,3.3,1.5c0.2,0.1,0.4,0.7,0.3,1c-0.1,0.3-0.7,0.7-0.9,0.6
		c-1.1-0.4-2.2-0.8-3.3-1.4c-0.2-0.1-0.4-0.7-0.3-1C-202,387.9-201.5,387.8-201.2,387.5z"/>
	<path class="st1" d="M-193.7,390.7c1.2,0.5,2.3,0.9,3.3,1.5c0.2,0.1,0.4,0.7,0.3,1c-0.1,0.3-0.7,0.6-0.9,0.5
		c-1.1-0.4-2.2-0.8-3.3-1.3c-0.2-0.1-0.3-0.7-0.2-1C-194.5,391-194,390.9-193.7,390.7z"/>
	<path class="st1" d="M-209.1,373.5c0.4,0.2,0.9,0.4,1,0.7c0.1,0.3-0.1,0.9-0.3,1c-1,0.5-2.1,1-3.2,1.3c-0.2,0.1-0.8-0.2-0.9-0.5
		c-0.1-0.2,0-0.9,0.3-1C-211.3,374.4-210.2,374-209.1,373.5z"/>
	<path class="st1" d="M-193.5,376.7c1.1,0.5,2.2,0.9,3.2,1.5c0.2,0.1,0.3,0.7,0.2,1c-0.1,0.3-0.7,0.6-0.9,0.5
		c-1.1-0.4-2.2-0.8-3.2-1.3c-0.2-0.1-0.3-0.7-0.2-1C-194.3,377-193.8,376.9-193.5,376.7z"/>
	<path class="st2" d="M-199.1,416.8c0,3.8-2.6,6.7-6.1,6.7c-3.3,0-6-3-6-6.6s2.9-6.9,6.1-6.8C-201.8,410.1-199.1,413.1-199.1,416.8z
		 M-201,416.8c0-2.6-2-4.9-4.3-4.8c-2.2,0.1-4.1,2.3-4.1,4.8c0,2.7,1.9,4.8,4.3,4.8C-202.8,421.5-201,419.4-201,416.8z"/>
	<path class="st3" d="M-232.5,416.7c0,3.9-2.5,6.8-6,6.7c-3.3,0-6-2.9-6-6.6s2.7-6.8,6.1-6.8C-235.1,410.1-232.5,413-232.5,416.7z
		 M-242.6,416.8c0,2.6,1.8,4.7,4,4.8c2.3,0,4.3-2.1,4.3-4.8c0-2.5-1.9-4.8-4.1-4.8C-240.6,411.9-242.6,414.1-242.6,416.8z"/>
	<path class="st4" d="M-166.2,416.9c0,3.8-2.8,6.7-6.2,6.6c-3.3-0.1-6-3.1-5.9-6.7c0.1-3.6,2.8-6.7,6-6.7
		C-168.9,410-166.1,413.1-166.2,416.9z M-176.4,416.8c0,2.6,1.8,4.7,4,4.8c2.3,0.1,4.3-2.1,4.3-4.7s-2-4.9-4.3-4.9
		C-174.4,412-176.3,414.2-176.4,416.8z"/>
	<path class="st3" d="M-249.5,430.2c0-3.9,1.3-5.2,5.3-5.3c0.9,0,1.7-0.3,2.6-0.5c0.5-0.1,1-0.1,1.5-0.2c-0.1,0.6,0.1,1.4-0.3,1.8
		c-0.4,0.4-1.1,0.5-1.8,0.6c-0.8,0.1-1.6,0-2.4,0.1c-2.5,0.2-3.1,0.9-3.1,3.4c0,0.3,0.1,0.7,0,1c-0.3,0.7-0.6,1.4-0.9,2
		c-0.3-0.7-0.6-1.4-0.9-2.2C-249.6,430.7-249.5,430.4-249.5,430.2z"/>
	<path class="st2" d="M-216.6,430.4c0.4-4.3,1.5-5.4,5.7-5.5c0.9,0,1.7-0.4,2.6-0.6c0.4-0.1,0.9-0.1,1.4-0.2c0,0.5,0.3,1.2,0,1.5
		c-0.4,0.5-1,0.8-1.6,1c-0.8,0.2-1.7,0-2.6,0.1c-2.7,0.2-3.2,0.8-3.3,3.5c0,1,0.7,2.5-0.9,2.7C-215.6,433-216.2,431.3-216.6,430.4z"
		/>
	<path class="st3" d="M-227,430.2c-0.4,0.9-0.9,2.6-1.2,2.6c-1.8-0.2-1-1.8-1-2.8c-0.1-2.5-0.5-3-2.9-3.2c-1-0.1-2,0.1-2.9-0.1
		c-0.6-0.1-1.1-0.8-1.5-1.3c-0.1-0.2,0.2-0.8,0.4-1.2c0.5,0.2,1,0.4,1.5,0.5c0.8,0.2,1.5,0.3,2.3,0.3
		C-228.7,425-227.4,426.2-227,430.2z"/>
	<path class="st4" d="M-160.8,430.2c-0.4,0.9-0.9,2.6-1.2,2.6c-1.7-0.2-1-1.7-1-2.7c-0.1-2.6-0.6-3.2-3.2-3.4
		c-0.9-0.1-1.9,0.1-2.8-0.1c-0.5-0.1-1-0.7-1.3-1.2c-0.2-0.3,0.2-0.8,0.3-1.2c0.5,0.2,1,0.4,1.5,0.5c0.8,0.1,1.5,0.3,2.3,0.3
		C-162.4,425-161.2,426.2-160.8,430.2z"/>
	<path class="st2" d="M-194,430.2c0,0.1,0,0.3,0,0.4c-0.3,0.8-0.6,1.5-1,2.3c-0.3-0.7-0.9-1.5-0.9-2.2c-0.1-3.4-0.7-4-4.1-4
		c-0.8,0-1.6,0.1-2.4-0.2c-0.4-0.1-0.8-0.8-1-1.3c-0.1-0.3,0.2-1,0.3-1c0.4,0,0.9,0.2,1.4,0.3c0.8,0.2,1.6,0.4,2.4,0.4
		C-195.4,425-194,426.4-194,430.2z"/>
	<path class="st4" d="M-183.2,430.1c0-3.9,1.2-5.1,5.2-5.2c1,0,1.9-0.6,2.9-0.7c0.4,0,0.9,0.5,1.4,0.8c-0.5,0.5-0.9,1.3-1.5,1.5
		c-0.7,0.3-1.6,0.1-2.4,0.1c-3.2,0.1-3.9,0.8-3.9,4c0,0.3,0.1,0.7,0,1c-0.2,0.5-0.6,0.9-0.9,1.4c-0.3-0.5-0.6-0.9-0.8-1.4
		C-183.3,431.2-183.2,430.6-183.2,430.1z"/>
	<path class="st3" d="M-243.2,433.5c-0.7,0.7-1.1,1.2-1.5,1.6c-0.3-0.6-0.9-1.1-0.9-1.7s0.5-1.1,0.8-1.7
		C-244.3,432.3-243.9,432.8-243.2,433.5z"/>
	<path class="st4" d="M-177.1,433.4c-0.5,0.7-0.9,1.2-1.3,1.7c-0.3-0.5-1-1.1-1-1.6c0-0.6,0.6-1.2,0.9-1.8
		C-178,432.3-177.6,432.7-177.1,433.4z"/>
	<path class="st2" d="M-197.3,433.3c-0.8,0.7-1.2,1.1-1.7,1.5c-0.3-0.5-0.8-1-0.8-1.5s0.5-1,0.8-1.5
		C-198.5,432.2-198.1,432.7-197.3,433.3z"/>
	<path class="st3" d="M-230.9,433.4c-0.5,0.6-0.8,1.1-1.2,1.5c-0.4-0.5-1-1-1-1.6c0-0.5,0.7-1,1-1.5
		C-231.8,432.3-231.4,432.7-230.9,433.4z"/>
	<path class="st4" d="M-164.5,433.3c-0.6,0.7-1,1.2-1.4,1.6c-0.3-0.5-0.9-1-0.9-1.6c0-0.5,0.5-1,0.8-1.5
		C-165.6,432.3-165.1,432.7-164.5,433.3z"/>
	<path class="st2" d="M-212.8,433.2c0.6-0.6,1-1,1.4-1.5c0.3,0.6,0.7,1.2,0.7,1.7c0,0.5-0.6,1.1-0.9,1.6
		C-211.9,434.6-212.3,434-212.8,433.2z"/>
</g>
</svg>
