<?xml version="1.0" encoding="utf-8"?>
<!-- Generator: Adobe Illustrator 19.1.0, SVG Export Plug-In . SVG Version: 6.00 Build 0)  -->
<svg version="1.1" id="Layer_1" xmlns="http://www.w3.org/2000/svg" xmlns:xlink="http://www.w3.org/1999/xlink" x="0px" y="0px"
	 viewBox="-255 347.3 100 100" style="enable-background:new -255 347.3 100 100;" xml:space="preserve">
<style type="text/css">
	.st0{fill:#5F7D7A;}
	.st1{fill:#FED208;}
	.st2{fill:#F15B2A;stroke:#F15B2A;stroke-width:0.9352;}
</style>
<g>
	<path class="st0" d="M-174.4,394.2c-7.8,1.7-15.1,3.4-22.4,5c-0.4,0.1-0.7,0.2-1.1,0.3c-2.4,0.5-2.4,0.5-2.9,3
		c-0.4,2.2-2.2,3.8-4.7,3.8c-2.2,0.1-4.6,0.1-6.9,0c-2.6-0.1-4.7-2.2-4.7-4.8c0-1.3-0.6-1.6-1.6-1.9c-7.8-1.7-15.4-3.4-23.2-5.1
		c-0.5-0.1-0.9-0.1-1.6-0.2c0,1.8,0,3.4,0,5c0,7.2,0.1,14.5,0,21.7c-0.1,4.1,2.1,7.3,7.2,7.2c11.7,0,23.4,0,35.2,0
		c2.9,0,5.7,0,8.6,0c1.2,0,2.1,0.5,2.1,1.7c0.1,1.3-0.7,2-2,2.1c-0.3,0-0.5,0-0.7,0c-14.7,0-29.3,0-44,0c-5.1,0-8.9-3.1-10.1-7.9
		c0.1-0.5,0-1.1,0-1.7c0-12.3,0-24.9,0-37.2c0-5.5,4.2-9.7,9.7-9.7c15.4-0.1,30.8,0,46.2,0c3.7,0,7.3,0,11,0c4.7,0,9.1,3.8,9.4,8.5
		c0.3,5,0.3,10,0.3,15c0,1.2-0.5,2.2-2,2.2s-1.9-1-2-2.2C-174.4,397.5-174.4,395.9-174.4,394.2z M-200.9,396
		c0.7-0.1,1.2-0.1,1.7-0.3c6.7-1.5,13.5-3,20.2-4.5c4.9-1.1,4.9-1.1,4.6-6.2c-0.3-3.8-2.6-6.1-6.4-6.1c-5.1,0-10.4,0-15.5,0
		c-13.6,0-27.1,0-40.8,0c-3.4,0-6,2.2-6.3,5.4c-0.1,1.4,0.1,2.9-0.1,4.3c-0.1,1.3,0.5,1.7,1.5,2c3.2,0.7,6.4,1.4,9.6,2.2
		c5,1.1,9.9,2.2,15,3.3c0.1-0.6,0.1-0.9,0.2-1.3c0.2-2.9,2.2-4.8,5.1-5c2.2-0.1,4.3-0.1,6.4,0c2.6,0.1,4.6,1.8,4.8,4
		C-200.8,394.5-200.9,395.1-200.9,396z M-204.6,398c0-0.8-0.1-1.7,0-2.5c0.1-1.3-0.5-2-1.9-2c-1.7,0-3.4,0-5.1,0
		c-1.3,0-1.9,0.6-1.9,1.9c0,1,0,2.1,0,3c0,4.6-0.5,4.2,4.2,4.1C-204,402.5-204.6,403.2-204.6,398z"/>
	<path class="st1" d="M-182.1,415.2c-1.3-4.2-0.5-7.5,2.5-9.6c2.6-2,6.1-2,8.8,0c3,2.1,3.7,5.1,2.4,9.6c3.7,1.8,5.3,4.9,5.4,8.9
		c0,1.4,0.1,2.9-0.1,4.3c-0.4,2.4-1.7,3.8-4.1,3.8c-5.3,0.1-10.6,0.1-16,0c-2.6-0.1-4.1-1.9-4.2-4.5c0-1.3,0-2.5,0-3.8
		C-187.4,419.8-185.6,417-182.1,415.2z M-170.2,417.5c-3.5,2.5-6.7,2.2-9.8,0c-0.6,0.7-1.3,1.1-1.6,1.8c-0.7,1.3-1.5,2.5-1.9,3.8
		c-0.4,1.3,0,2.6-0.1,3.9c0,1,0.5,1.3,1.3,1.3c4.7,0,9.4,0,14,0c1,0,1.4-0.4,1.4-1.3c0-3.2,0.5-6.5-2.8-8.6
		C-169.8,418.2-169.8,418-170.2,417.5z M-171.4,411.7c0-2.2-1.6-3.8-3.6-3.8c-2.2-0.1-3.9,1.6-4,3.7c-0.1,2.1,1.8,3.9,3.8,3.9
		C-173,415.4-171.4,413.8-171.4,411.7z"/>
	<path class="st2" d="M-193.2,371.8c0.1,1.3-0.5,2.2-1.8,2.2c-1.3,0-1.9-0.7-2.1-2.1c-0.5-3.7-2.8-5.9-6.4-5.9
		c-3.8,0-7.7-0.1-11.4,0c-3,0-5.2,2-5.9,4.9c-0.1,0.5-0.3,0.8-0.3,1.3c-0.1,1.3-0.8,1.9-2,1.8c-1.3-0.1-1.8-1-1.8-2.2
		c0.2-4.2,3.4-8.1,7.5-9c1.3-0.4,2.9-0.4,4.3-0.4c3.6-0.1,7-0.1,10.6,0C-197.6,362.4-193.1,367-193.2,371.8z"/>
</g>
</svg>
