<?xml version="1.0" encoding="utf-8"?>
<!-- Generator: Adobe Illustrator 19.1.0, SVG Export Plug-In . SVG Version: 6.00 Build 0)  -->
<svg version="1.1" id="Layer_1" xmlns="http://www.w3.org/2000/svg" xmlns:xlink="http://www.w3.org/1999/xlink" x="0px" y="0px"
	 viewBox="-255 346.8 100 100" style="enable-background:new -255 346.8 100 100;" xml:space="preserve">
<style type="text/css">
	.st0{fill:#66B9B7;}
	.st1{fill:#5F7D7A;}
	.st2{fill:#F15B2A;}
</style>
<g>
	<path class="st0" d="M-246,420.7h82c2.1,0,3.8-1.7,3.8-3.8v-47.6c0.1-2.1-1.7-3.8-3.8-3.8h-82c-2.1,0-3.9,1.7-3.9,3.8v47.6
		C-249.9,419-248.1,420.7-246,420.7z M-246,369.3h82v47.6h-82V369.3z"/>
	<path class="st1" d="M-156,423.1h-98c-0.4,0-0.7,0.2-0.9,0.6s-0.1,0.8,0.1,1.2c0.4,0.6,1.1,1.7,16.5,2.5c8.7,0.4,20.4,0.7,32.7,0.7
		c11.1,0,47.6-0.2,50.2-3c0.3-0.3,0.4-0.6,0.3-1C-155,423.4-155.5,423.1-156,423.1z"/>
	<path class="st2" d="M-173,381.4c-1.7,0-3,1.3-3,3c0,0.4,0.1,0.7,0.2,1l-6.6,8c-0.2,0-0.4-0.1-0.6-0.1c-0.7,0-1.3,0.2-1.8,0.6
		l-7.5-3.8c-0.2-1.5-1.4-2.6-3-2.6c-1.7,0-3,1.3-3,3c0,0.2,0,0.4,0.1,0.6l-7.3,6.6c-0.5-0.1-0.9-0.2-1.3-0.2c-0.4,0-0.9,0.1-1.3,0.3
		l-9.1-8.3c0-0.2,0.1-0.3,0.1-0.5c0-1.7-1.3-3-3-3c-1.2,0-2.2,0.7-2.7,1.7l-11.6,0.9c-0.5-0.8-1.5-1.4-2.5-1.4c-1.7,0-3,1.3-3,3
		c0,1.7,1.3,3,3,3c1.2,0,2.2-0.7,2.7-1.7l11.6-0.9c0.5,0.9,1.5,1.4,2.5,1.4c0.4,0,0.8-0.1,1.1-0.2l9.2,8.4c0,0.1,0,0.2,0,0.4
		c0,1.7,1.3,3,3,3s3-1.3,3-3c0-0.2,0-0.3,0-0.5l7.4-6.7c0.3,0.1,0.7,0.2,1.1,0.2c0.7,0,1.4-0.3,1.9-0.7l7.5,3.8
		c0.2,1.5,1.4,2.7,3,2.7c1.7,0,3-1.3,3-3c0-0.4-0.1-0.7-0.2-1l6.6-8c0.2,0,0.4,0.1,0.6,0.1c1.7,0,3-1.3,3-3
		C-170,382.7-171.4,381.4-173,381.4z M-237,391.8c-0.9,0-1.6-0.7-1.6-1.6s0.7-1.6,1.6-1.6c0.9,0,1.6,0.7,1.6,1.6
		S-236.1,391.8-237,391.8z M-220.1,390.6c-0.9,0-1.6-0.7-1.6-1.6c0-0.9,0.7-1.6,1.6-1.6c0.9,0,1.6,0.7,1.6,1.6
		C-218.6,389.9-219.3,390.6-220.1,390.6z M-206.9,402.1c-0.9,0-1.6-0.7-1.6-1.6c0-0.9,0.7-1.6,1.6-1.6c0.9,0,1.6,0.7,1.6,1.6
		C-205.3,401.4-206,402.1-206.9,402.1z M-195.4,392.1c-0.9,0-1.6-0.7-1.6-1.6c0-0.9,0.7-1.6,1.6-1.6c0.9,0,1.6,0.7,1.6,1.6
		C-193.8,391.4-194.6,392.1-195.4,392.1z M-183.1,397.9c-0.9,0-1.6-0.7-1.6-1.6s0.7-1.6,1.6-1.6c0.9,0,1.6,0.7,1.6,1.6
		S-182.2,397.9-183.1,397.9z M-173,385.9c-0.9,0-1.6-0.7-1.6-1.6s0.7-1.6,1.6-1.6c0.9,0,1.6,0.7,1.6,1.6S-172.2,385.9-173,385.9z"/>
</g>
</svg>
