<?xml version="1.0" encoding="utf-8"?>
<!-- Generator: Adobe Illustrator 27.3.1, SVG Export Plug-In . SVG Version: 6.00 Build 0)  -->
<svg version="1.1" id="Layer_1" xmlns="http://www.w3.org/2000/svg" xmlns:xlink="http://www.w3.org/1999/xlink" x="0px" y="0px"
	 viewBox="0 0 512 512" style="enable-background:new 0 0 512 512;" xml:space="preserve">
<style type="text/css">
	.st0{fill:#5F7D7A;}
	.st1{fill:#1DA9E1;}
	.st2{fill:#ED3985;}
	.st3{fill:#F96332;}
</style>
<g transform="translate(0.000000,512.000000) scale(0.100000,-0.100000)">
	<path class="st0" d="M634.4,4515.4c-36.6-11.1-73.9-44.5-92.2-81.9c-15.9-33.4-16.7-45.3-16.7-340.9c0-298,0.8-306.8,16.7-327.4
		c11.9-15.1,23.8-20.7,42.9-20.7s31,5.6,42.9,20.7c14.3,18.3,16.7,32.6,16.7,95.4v74.7H2560h1915.2V2721
		c0-933.8-2.4-1216.7-9.5-1223.8c-6.4-6.4-44.5-9.5-119.2-9.5h-109.7v80.3c0,89-4.8,104.1-38.9,117.6c-19.1,7.9-27,7.9-46.9-2.4
		c-12.7-6.4-25.4-18.3-28.6-24.6c-2.4-7.2-4.8-186.8-4.8-398.1V875.7h-155h-155l-0.8,62c0,77.9-11.9,111.3-46.1,134.3L3733,1091
		l-324.2-2.4l-324.2-2.4l-25.4-26.2c-25.4-25.4-26.2-27.8-28.6-104.9l-3.2-79.5h-154.2h-154.2v866.2v866.2h699.3h699.3v-360v-360.8
		l18.3-16.7c26.2-24.6,63.6-23,85,4c15.9,20.7,16.7,25.4,14.3,396.6c-2.4,364.8-3.2,375.9-19.1,397.3c-8.7,11.9-26.2,29.4-38.1,38.1
		c-21.5,16.7-28.6,16.7-751,19.1l-728.7,1.6l-35-18.3c-67.5-35.8-63.6,3.2-63.6-647.7v-573.8l-155.8,1.6l-155,2.4l-22.3,55.6
		c-30.2,74.7-76.3,152.6-112.8,189.1c-37.4,38.1-69.9,39.7-116.8,5.6c-18.3-12.7-35-23.8-37.4-23.8c-2.4,0-26.2,17.5-53.2,39.7
		c-58.8,47.7-149.4,95.4-224.9,119.2c-85.8,27-239.2,31-333.8,8.7c-128.7-31-261.5-109.7-340.9-202.6
		c-38.9-46.1-89.8-126.4-107.3-169.3l-10.3-26.2H796.6c-93,0-135.9,3.2-142.3,9.5c-7.2,7.2-9.5,245.6-9.5,1026
		c0,635-3.2,1021.2-7.9,1029.9c-4,7.9-17.5,19.1-31,23.8c-19.1,7.9-27,7.9-46.9-2.4c-12.7-6.4-25.4-18.3-28.6-24.6
		c-2.4-7.2-4.8-472.8-4.8-1033.9c0-1107.8-2.4-1050.6,42.1-1099.1c36.6-39.7,70.7-48.5,200.3-48.5h119.2v-108.9
		c0.8-186.8,50.9-319.5,170.1-449c85.8-93,175.6-148.6,300.4-186c60.4-18.3,84.2-21.5,177.2-21.5s116.8,3.2,177.2,21.5
		c89.8,27,165.3,65.2,228.1,115.2c50.9,41.3,62,42.9,86.6,13.5c13.5-15.9,49.3-23,74.7-13.5c28.6,11.1,102.5,103.3,139.9,174.8
		c61.2,119.2,90.6,261.5,81.9,396.6l-3.2,57.2h139.9h139.9v-263.8c0-250.3,0.8-266.2,15.9-290.9c8.7-14.3,27-32.6,41.3-41.3
		c24.6-15.1,40.5-15.9,230.5-15.9h205l25.4,23c26.2,23,26.2,23.8,28.6,107.3l3.2,84.2l267-1.6l267.8-2.4l4-79.5
		c7.9-135.1-0.8-131.1,263-131.1c189.1,0,201.1,0.8,227.3,16.7c14.3,9.5,33.4,30.2,42.1,47.7c15.1,28.6,15.9,47.7,15.9,289.3v258.3
		h117.6c126.4,0,161.3,8.7,197.9,48.5c44.5,49.3,42.1-48.5,42.1,1531.4v1453.5l-18.3,35c-10.3,19.1-34.2,46.1-52.5,58.8l-34.2,23.8
		l-1916,1.6C1518.9,4521.7,646.4,4519.4,634.4,4515.4z M4462.5,4391.4c11.1-10.3,12.7-37.4,12.7-174.8v-162.1H2560H644.8v162.1
		c0,137.5,1.6,164.5,12.7,174.8c11.1,11.1,194.7,12.7,1902.5,12.7S4451.4,4402.5,4462.5,4391.4z M1708.1,1755.4
		c61.2-21.5,121.6-54.8,167.7-92.2l26.2-21.5l-200.3-150.2c-220.1-165.3-232.8-178.8-211.4-228.1c6.4-16.7,85.8-95.4,209.8-209
		c109.7-100.1,197.9-186,197.1-190.7c-3.2-13.5-78.7-67.5-128.7-91.4c-27-12.7-71.5-29.4-99.3-37.4c-68.3-18.3-200.3-17.5-269.4,0.8
		c-241.6,66-409.3,295.6-395,541.2c11.9,198.7,119.2,362.4,295.6,449c96.2,47.7,135.1,55.6,250.3,53.2
		C1633.4,1776.9,1659.6,1772.9,1708.1,1755.4z M2140.4,1537.7c46.1-97.7,62.8-171.7,62.8-280.5c0-67.5-4-108.1-15.9-154.2
		c-19.1-71.5-62-163.7-95.4-203.4l-22.3-27l-219.3,205c-121.6,112.8-220.1,205.8-220.1,208.2c0,1.6,102.5,80.3,228.1,174
		C2118.9,1656.1,2087.9,1647.3,2140.4,1537.7z"/>
	<path class="st0" d="M903.1,4283.3c-38.9-20.7-46.1-54.8-19.1-89l15.9-20.7h1072h1072l15.9,20.7c27,34.2,20.7,68.3-15.9,86.6
		c-19.1,10.3-166.1,11.9-1073.6,11.9C1224.9,4292.1,914.2,4289.7,903.1,4283.3z"/>
	<path class="st1" d="M3690.9,4284.9c-35.8-15.1-45.3-68.3-18.3-95.4c11.9-11.9,26.2-15.9,55.6-15.9s43.7,4,55.6,15.9
		c19.9,19.9,20.7,56.4,1.6,79.5C3770.3,4288.1,3718.7,4296.8,3690.9,4284.9z"/>
	<path class="st2" d="M3914.2,4283.3c-17.5-7.9-35-37.4-35-57.2c0-5.6,7.2-19.9,16.7-31.8c13.5-17.5,22.3-20.7,54.8-20.7
		c48.5,0,73.9,19.1,73.9,55.6C4024.6,4278.6,3964.2,4308,3914.2,4283.3z"/>
	<path class="st3" d="M4149.4,4287.3c-25.4-9.5-39.7-29.4-39.7-55.6c0-38.9,23-58,70.7-58c33.4,0,42.1,3.2,55.6,20.7
		c27,34.2,20.7,68.3-15.9,86.6C4197.9,4292.9,4170.9,4295.3,4149.4,4287.3z"/>
	<path class="st1" d="M1499.1,3820.8c-155.8-25.4-294-96.2-402.9-205.8c-251.9-255.1-282.9-646.9-73.9-940.1
		c19.1-27,45.3-52.4,57.2-58c16.7-6.4,161.3-8.7,546-7.2l522.9,2.4l33.4,38.1c61.2,69.1,120,194.7,143.8,309.9
		c15.9,71.5,15.1,213.8-0.8,289.3c-57.2,278.1-273.4,497.5-554.7,562.6C1697,3828.8,1573,3833.5,1499.1,3820.8z M1767.7,3689.7
		c263.8-67.5,450.6-310.7,450.6-584.1c0-128.7-29.4-232.8-93-332.2l-30.2-46.1H2022h-73.9v70.7c0,135.9-27.8,212.2-104.9,289.3
		l-46.1,46.1l19.1,29.4c29.4,45.3,38.1,85,35,147c-4.8,93-49.3,160.5-135.1,205.8c-50.1,26.2-153.4,26.2-208.2-0.8
		c-134.3-66-179.6-228.1-99.3-354.4c12.7-19.9,19.9-35.8,16.7-35.8c-16.7,0-93-89-115.2-135.1c-23.8-48.5-25.4-57.2-27.8-156.6
		l-3.2-105.7h-74.7h-73.9l-24.6,36.6c-81.1,116.8-118.4,286.9-95.4,429.9C1068.4,3555.4,1411.7,3780.3,1767.7,3689.7z
		 M1669.9,3403.6c83.4-43.7,86.6-166.1,6.4-215.4c-35.8-21.5-95.4-21.5-131.1,0.8c-54.8,34.2-74.7,115.2-39.7,166.9
		C1545.2,3415.5,1611.9,3434.6,1669.9,3403.6z M1698.5,3045.2c38.1-14.3,78.7-53.2,102.5-97c20.7-37.4,23-51.7,26.2-131.1l4-89.8
		h-216.2h-215.4v85.8c0,73.1,3.2,90.6,19.1,124.8c19.9,42.1,57.2,81.1,96.2,101.7C1542.8,3054.7,1664.4,3057.9,1698.5,3045.2z"/>
	<path class="st2" d="M2749.9,3808.9l-23-23v-413.2c0-273.4,3.2-420.4,8.7-437.1c18.3-51.7-14.3-49.3,637.3-49.3h591.3l16.7,18.3
		c23,24.6,22.3,57.2-2.4,81.1l-19.1,19.9h-557.1h-556.3V3131v125.6l154.2,111.3c143,104.9,155,111.3,172.4,102.5
		c28.6-15.1,79.5-21.5,108.1-12.7c24.6,7.2,27,5.6,71.5-45.3l46.9-53.2l-11.1-34.2c-38.9-118.4,76.3-237.6,200.3-207.4
		c79.5,19.1,141.5,108.9,127.9,184.4c-4.8,26.2-3.2,27.8,68.3,85l73.9,58l34.2-8.7c74.7-20.7,139.9-1.6,184.4,50.9
		c91.4,111.3,14.3,273.4-130.3,273.4c-102.5,0-176.4-85-169.3-193.9c2.4-30.2,0.8-31.8-66.8-85.8l-69.1-54.8l-38.1,12.7
		c-26.2,8.7-50.9,11.9-77.9,7.9l-40.5-4.8l-45.3,51.7c-41.3,46.1-45.3,54-36.6,69.1c4.8,10.3,7.9,39.7,5.6,71.5
		c-2.4,46.1-6.4,58.8-27,84.2c-33.4,41.3-69.1,64.4-111.3,70.7c-104.1,15.1-198.7-69.1-193.1-173.2l2.4-41.3l-110.5-81.9
		c-61.2-44.5-113.6-81.1-116.8-81.9c-4,0-6.4,87.4-6.4,193.9v194.7l-20.7,15.9C2796.8,3837.5,2777.7,3835.9,2749.9,3808.9z
		 M3273.6,3660.3c25.4-17.5,23.8-62-2.4-79.5c-48.5-31.8-101.7,34.2-59.6,76.3C3230.7,3676.2,3249.8,3677,3273.6,3660.3z
		 M3987.3,3621.4c16.7-25.4,8.7-57.2-16.7-69.1c-27.8-12.7-56.4-2.4-67.5,25.4c-7.9,19.9-7.9,27,3.2,43.7
		C3924.5,3649.2,3969,3649.2,3987.3,3621.4z M3587.5,3305.9c13.5-18.3,15.1-24.6,7.2-42.1c-14.3-30.2-43.7-41.3-68.3-24.6
		c-30.2,19.1-35,49.3-11.9,73.1C3538.3,3337.6,3566.1,3334.5,3587.5,3305.9z"/>
	<path class="st1" d="M1077.1,2430.1l-27-27v-159.7c0-180.4,4.8-200.3,51.7-220.1c40.5-16.7,976.7-16.7,1017.2,0
		c51.7,22.3,55.6,36.6,55.6,212.2c0,121.6-2.4,160.5-11.9,177.2c-23.8,45.3-11.1,44.5-557.1,44.5h-501.5L1077.1,2430.1z
		 M2057.8,2237l-2.4-101.7l-442.6-2.4l-443.4-1.6v103.3v103.3h445h445.8L2057.8,2237z"/>
	<path class="st3" d="M2984.4,2422.2l-27-27v-147.8c0-157.4,4-177.2,38.9-201.1c19.1-12.7,52.4-14.3,390.2-16.7
		c203.4-1.6,384.6,0,403.7,2.4c21.5,3.2,43.7,13.5,59.6,27.8l25.4,22.3l2.4,145.4c3.2,155.8-1.6,178.8-36.6,205.8
		c-19.1,15.1-34.2,15.9-424.4,15.9h-405.3L2984.4,2422.2z M3760,2238.6v-91.4h-341.7h-341.7v91.4v91.4h341.7H3760V2238.6z"/>
	<path class="st3" d="M2978,1852.4c-26.2-20.7-28.6-62.8-4.8-86.6c13.5-13.5,26.2-15.9,95.4-15.9c74.7,0,81.9,1.6,99.3,19.9
		c11.1,10.3,19.9,28.6,19.9,39.7s-8.7,29.4-19.9,39.7c-17.5,18.3-25.4,19.9-93.8,19.9C3010.6,1869,2996.3,1866.7,2978,1852.4z"/>
	<path class="st3" d="M3317.3,1859.5c-38.1-18.3-40.5-81.9-3.2-100.9c10.3-5.6,106.5-8.7,271-8.7h255.1l19.1,19.9
		c11.1,10.3,19.9,28.6,19.9,39.7s-8.7,29.4-19.9,39.7l-19.1,19.9l-252.7-0.8C3427.8,1868.2,3328.5,1865.1,3317.3,1859.5z"/>
	<path class="st3" d="M2978.8,1598.8c-27-21.5-29.4-63.6-5.6-87.4c13.5-13.5,26.2-15.9,95.4-15.9c74.7,0,81.9,1.6,99.3,19.9
		c23.8,23,25.4,50.9,4.8,76.3c-13.5,17.5-22.3,19.1-93.8,21.5C3009,1615.5,2998.7,1614.7,2978.8,1598.8z"/>
	<path class="st3" d="M3317.3,1605.2c-38.1-18.3-40.5-81.9-3.2-100.9c10.3-5.6,107.3-8.7,274.2-8.7h258.3l15.9,20.7
		c22.3,27.8,20.7,54.8-3.2,78.7l-19.1,19.9l-252.7-0.8C3427.8,1613.9,3328.5,1610.8,3317.3,1605.2z"/>
	<path class="st3" d="M2978.8,1344.5c-27-21.5-29.4-63.6-5.6-87.4c13.5-13.5,26.2-15.9,95.4-15.9c74.7,0,81.9,1.6,99.3,19.9
		c23.8,23,25.4,50.9,4.8,76.3c-13.5,17.5-22.3,19.1-93.8,21.5C3009,1361.2,2998.7,1360.4,2978.8,1344.5z"/>
	<path class="st3" d="M3317.3,1350.9c-38.1-18.3-40.5-81.9-3.2-100.9c10.3-5.6,107.3-8.7,274.2-8.7h258.3l15.9,20.7
		c22.3,27.8,20.7,54.8-3.2,78.7l-19.1,19.9l-252.7-0.8C3427.8,1359.6,3328.5,1356.5,3317.3,1350.9z"/>
</g>
</svg>
