<?xml version="1.0" encoding="utf-8"?>
<!-- Generator: Adobe Illustrator 19.1.0, SVG Export Plug-In . SVG Version: 6.00 Build 0)  -->
<svg version="1.1" id="Layer_1" xmlns="http://www.w3.org/2000/svg" xmlns:xlink="http://www.w3.org/1999/xlink" x="0px" y="0px"
	 viewBox="-220 312 170 170" style="enable-background:new -220 312 170 170;" xml:space="preserve">
<style type="text/css">
	.st0{display:none;}
	.st1{display:inline;}
	.st2{clip-path:url(#SVGID_2_);fill:#F2613C;}
	.st3{clip-path:url(#SVGID_4_);fill:none;stroke:#FFFFFF;stroke-width:2.928;stroke-miterlimit:10;}
	.st4{clip-path:url(#SVGID_6_);fill:none;stroke:#FFFFFF;stroke-width:2.928;stroke-miterlimit:10;}
	.st5{clip-path:url(#SVGID_8_);fill:#F2613C;}
	.st6{fill:none;stroke:#FFFFFF;stroke-width:2.928;stroke-miterlimit:10;}
	.st7{fill:#F0613C;}
	.st8{fill:#FFFFFF;}
	.st9{fill:none;stroke:#F0613C;stroke-width:0.8971;stroke-miterlimit:10;}
</style>
<g class="st0">
	<g class="st1">
		<defs>
			<rect id="SVGID_1_" x="-217.8" y="319.2" width="165.5" height="155.5"/>
		</defs>
		<clipPath id="SVGID_2_">
			<use xlink:href="#SVGID_1_"  style="overflow:visible;"/>
		</clipPath>
		<path class="st2" d="M-135,473.8c40.7,0,73.8-33,73.8-73.8c0-40.7-33-73.8-73.8-73.8s-73.8,33.1-73.8,73.8S-175.7,473.8-135,473.8
			"/>
	</g>
	<g class="st1">
		<defs>
			<rect id="SVGID_3_" x="-217.8" y="319.2" width="165.5" height="155.5"/>
		</defs>
		<clipPath id="SVGID_4_">
			<use xlink:href="#SVGID_3_"  style="overflow:visible;"/>
		</clipPath>
		<circle class="st3" cx="-135.9" cy="400" r="32"/>
	</g>
	<g class="st1">
		<defs>
			<rect id="SVGID_5_" x="-217.8" y="319.2" width="165.5" height="155.5"/>
		</defs>
		<clipPath id="SVGID_6_">
			<use xlink:href="#SVGID_5_"  style="overflow:visible;"/>
		</clipPath>
		<path class="st4" d="M-89.6,435.4v-33.7v-33.5c0,0-3-3.2-5.1,7.6c-1,5.1-2.3,29.5,5.1,25.9 M-185.2,368.2c0,0-2.7,17,6.8,17
			c7.8,0,7.5-11.5,7.5-17 M-178.4,368.2v67.3 M-111.4,400.2c0,13.5-10.9,24.4-24.4,24.4s-24.4-10.9-24.4-24.4s10.9-24.4,24.4-24.4
			S-111.4,386.7-111.4,400.2z"/>
	</g>
</g>
<g>
	<g>
		<defs>
			<rect id="SVGID_7_" x="-208.8" y="323.2" width="147.5" height="147.5"/>
		</defs>
		<clipPath id="SVGID_8_">
			<use xlink:href="#SVGID_7_"  style="overflow:visible;"/>
		</clipPath>
		<path class="st5" d="M-135,470.8c40.7,0,73.8-33,73.8-73.8c0-40.7-33-73.8-73.8-73.8c-40.7,0-73.8,33-73.8,73.8
			C-208.8,437.7-175.7,470.8-135,470.8"/>
	</g>
</g>
<path class="st6" d="M-98.7,429.4h6.7l-0.3,13.8h-89.1v-6.1h3.9h15.1h56l0.6-7.6h7.3l0.3-17.8l-2.9-1.6l-3.8-2.1l-62.5-35.1
	l-7.3,5.4l-6.7-3.7v-9.5l8.1-14.3l13.7,8.1l-2.8,5.6l73.7,42.2l-4.5,7.8l-5-3 M-116.9,428l-32.2-22.7 M-157.9,428.1l32.3-23.6
	 M-130.3,393.5l17.1,44.3 M-142.3,388.2l-19.4,49.1 M-176.4,377.1V437h1.2"/>
<g>
	<path class="st7" d="M-135,470.8c40.7,0,73.7-33,73.7-73.8s-33-73.8-73.7-73.8s-73.8,33-73.8,73.8S-175.7,470.8-135,470.8"/>
	<path class="st8" d="M-167.2,401.1c-1.5,4-0.8,10.1-0.8,16.2c0,11.2-0.8,19.1,6.9,21.8c3.4,1.2,8.6,0.6,13.1,0.6h27.5
		c4.6,0,9.8,0.3,12.7-1.2c6.5-3.3,5.6-10.8,5.6-21.2c0-5.2,0.8-12.2-0.6-16.2c-0.8-2.3-3.7-4.9-5.6-5.8c-2.9-1.3-7.8-1-11.8-1h-12.9
		c-8.4,0-18.4-0.9-26,0.2C-162.8,395.1-165.7,397.2-167.2,401.1 M-114.8,361.3c-1.9-7.9-11.7-12.7-21.8-12.1
		c-8.3,0.4-15.7,4.5-18.1,10.4c-3,7.2,0.2,19.9-1,30.8h41.2C-115.3,380.5-112.9,369-114.8,361.3 M-138.3,345.1h6.5
		c10.1,1.6,19.3,6.2,21.2,16c0.9,4.4,0.2,9.7,0.2,14.6v14.6c5.6,1.5,10.4,4.4,11.9,10.8c0.9,3.8,0.4,9.6,0.4,14.8
		c0,7.4,0.9,14.9-1.3,19.6c-2.2,4.7-6.7,7.2-11.4,8.1h-48.5c-5.2-1-9.3-3.8-11.4-8.3c-2.1-4.4-1.3-11.6-1.3-18.5
		c0-4.8-0.4-9.9,0-13.9c0.8-7.8,6.7-11.1,12.3-12.9c0.7-9.7-0.9-18.9,0-27.7C-158.6,352.3-148.2,346.2-138.3,345.1"/>
	<path class="st9" d="M-167.2,401.1c-1.5,4-0.8,10.1-0.8,16.2c0,11.2-0.8,19.1,6.9,21.8c3.4,1.2,8.6,0.6,13.1,0.6h27.5
		c4.6,0,9.8,0.3,12.7-1.2c6.5-3.3,5.6-10.8,5.6-21.2c0-5.2,0.8-12.2-0.6-16.2c-0.8-2.3-3.7-4.9-5.6-5.8c-2.9-1.3-7.8-1-11.8-1h-12.9
		c-8.4,0-18.4-0.9-26,0.2C-162.8,395.1-165.7,397.2-167.2,401.1z M-114.8,361.3c-1.9-7.9-11.7-12.7-21.8-12.1
		c-8.3,0.4-15.7,4.5-18.1,10.4c-3,7.2,0.2,19.9-1,30.8h41.2C-115.3,380.5-112.9,369-114.8,361.3z M-138.3,345.1h6.5
		c10.1,1.6,19.3,6.2,21.2,16c0.9,4.4,0.2,9.7,0.2,14.6v14.6c5.6,1.5,10.4,4.4,11.9,10.8c0.9,3.8,0.4,9.6,0.4,14.8
		c0,7.4,0.9,14.9-1.3,19.6c-2.2,4.7-6.7,7.2-11.4,8.1h-48.5c-5.2-1-9.3-3.8-11.4-8.3c-2.1-4.4-1.3-11.6-1.3-18.5
		c0-4.8-0.4-9.9,0-13.9c0.8-7.8,6.7-11.1,12.3-12.9c0.7-9.7-0.9-18.9,0-27.7C-158.6,352.3-148.2,346.2-138.3,345.1z"/>
	<path class="st8" d="M-130.9,416c0.3-1.3,1.6-2.1,1.9-3.3c2.7-9.2-12.9-10.9-12.1-1.3c0.2,2.1,1.7,2.7,2.1,4.8
		c0.7,3.5-1.4,9.2,1.9,11c1,0.3,3.4,0.3,4.4,0C-129.6,425.2-131.8,420-130.9,416 M-136.2,400.8c6.1-0.7,12.5,4.4,11.4,11.9
		c-0.3,1.8-1.6,2.8-1.9,4.4c-0.5,2.4,0.2,4.7,0,6.7c-0.3,3.1-2,6.2-4.4,7.1c-1.7,0.7-5.7,0.8-7.5,0.2c-2.4-0.8-4.3-4.3-4.6-7.3
		c-0.2-2.1,0.3-4.8,0-6.5c-0.3-1.7-1.6-2.6-1.9-4.6C-146.1,406.5-142.1,401.4-136.2,400.8"/>
	<path class="st9" d="M-130.9,416c0.3-1.3,1.6-2.1,1.9-3.3c2.7-9.2-12.9-10.9-12.1-1.3c0.2,2.1,1.7,2.7,2.1,4.8
		c0.7,3.5-1.4,9.2,1.9,11c1,0.3,3.4,0.3,4.4,0C-129.6,425.2-131.8,420-130.9,416z M-136.2,400.8c6.1-0.7,12.5,4.4,11.4,11.9
		c-0.3,1.8-1.6,2.8-1.9,4.4c-0.5,2.4,0.2,4.7,0,6.7c-0.3,3.1-2,6.2-4.4,7.1c-1.7,0.7-5.7,0.8-7.5,0.2c-2.4-0.8-4.3-4.3-4.6-7.3
		c-0.2-2.1,0.3-4.8,0-6.5c-0.3-1.7-1.6-2.6-1.9-4.6C-146.1,406.5-142.1,401.4-136.2,400.8z"/>
</g>
</svg>
