<?xml version="1.0" encoding="UTF-8"?>
<!DOCTYPE svg PUBLIC "-//W3C//DTD SVG 1.1//EN" "http://www.w3.org/Graphics/SVG/1.1/DTD/svg11.dtd">
<svg xmlns="http://www.w3.org/2000/svg" version="1.1" width="512px" height="125px" style="shape-rendering:geometricPrecision; text-rendering:geometricPrecision; image-rendering:optimizeQuality; fill-rule:evenodd; clip-rule:evenodd" xmlns:xlink="http://www.w3.org/1999/xlink">
<g><path style="opacity:0.971" fill="#00a71b" d="M -0.5,-0.5 C 36.1667,-0.5 72.8333,-0.5 109.5,-0.5C 109.392,1.7834 108.559,3.7834 107,5.5C 97.7112,17.9112 88.5445,30.4112 79.5,43C 78.1667,43.6667 76.8333,43.6667 75.5,43C 72.3526,38.6856 68.686,34.8523 64.5,31.5C 62.0077,34.1631 59.6744,36.9964 57.5,40C 64.3333,46.8333 71.1667,53.6667 78,60.5C 91.0186,46.3157 103.852,31.9823 116.5,17.5C 117.325,16.6143 118.325,16.281 119.5,16.5C 119.5,52.5 119.5,88.5 119.5,124.5C 79.5,124.5 39.5,124.5 -0.5,124.5C -0.5,82.8333 -0.5,41.1667 -0.5,-0.5 Z M 30.5,57.5 C 37.3219,57.6314 43.6552,59.4647 49.5,63C 50.0239,66.2617 48.8573,69.095 46,71.5C 40.4201,67.5633 34.2534,66.0633 27.5,67C 23.8956,68.3339 22.729,70.8339 24,74.5C 31.4611,77.2482 38.9611,80.0816 46.5,83C 52.115,87.131 53.9483,92.631 52,99.5C 50.0982,104.4 46.5982,107.567 41.5,109C 34.3894,111.128 27.3894,110.794 20.5,108C 17.2738,106.894 14.6071,105.061 12.5,102.5C 13.8109,99.8646 15.4776,97.5313 17.5,95.5C 25.1051,101.955 33.2717,102.955 42,98.5C 42.7581,96.2305 42.5914,94.0639 41.5,92C 34.5597,89.5143 27.5597,87.1809 20.5,85C 13.0743,79.5798 11.5743,72.7465 16,64.5C 20.2202,60.638 25.0536,58.3047 30.5,57.5 Z M 72.5,71.5 C 88.4743,70.1411 96.4743,77.4745 96.5,93.5C 87.1667,93.5 77.8333,93.5 68.5,93.5C 69.6039,99.6022 73.2706,102.936 79.5,103.5C 83.0277,103.118 86.361,102.118 89.5,100.5C 94.3092,103.35 94.3092,105.85 89.5,108C 72.6479,113.576 62.3146,107.743 58.5,90.5C 59.553,81.3543 64.2196,75.021 72.5,71.5 Z"/></g>
<g><path style="opacity:0.965" fill="#00a61c" d="M 251.5,24.5 C 253.5,24.5 255.5,24.5 257.5,24.5C 257.5,48.1667 257.5,71.8333 257.5,95.5C 255.5,95.5 253.5,95.5 251.5,95.5C 251.5,71.8333 251.5,48.1667 251.5,24.5 Z"/></g>
<g><path style="opacity:0.882" fill="#00a71b" d="M 165.5,29.5 C 173.259,29.2683 180.925,29.9349 188.5,31.5C 188.5,33.5 188.5,35.5 188.5,37.5C 181.901,36.0108 175.235,35.5108 168.5,36C 158.448,38.9347 155.614,45.1014 160,54.5C 166.378,58.2964 173.211,61.1297 180.5,63C 191.564,68.5214 194.73,77.0214 190,88.5C 187.072,92.381 183.239,94.881 178.5,96C 168.748,96.8624 159.082,96.3624 149.5,94.5C 149.5,92.5 149.5,90.5 149.5,88.5C 158.088,90.245 166.754,90.745 175.5,90C 183.087,87.9975 185.92,83.1642 184,75.5C 183.215,73.714 182.049,72.214 180.5,71C 173.281,67.8134 165.948,64.8134 158.5,62C 150.115,55.4764 148.282,47.3097 153,37.5C 156.586,33.7136 160.753,31.0469 165.5,29.5 Z"/></g>
<g><path style="opacity:0.819" fill="#00a71b" d="M 374.5,30.5 C 381.004,30.1377 382.671,32.6377 379.5,38C 372.683,38.8606 371.016,36.3606 374.5,30.5 Z"/></g>
<g><path style="opacity:0.864" fill="#00a71b" d="M 216.5,47.5 C 234.04,47.2182 241.54,55.8849 239,73.5C 228.582,74.4866 218.082,74.8199 207.5,74.5C 207.293,81.593 210.293,86.7597 216.5,90C 223.609,90.8255 230.609,90.3255 237.5,88.5C 237.5,90.5 237.5,92.5 237.5,94.5C 208.76,101.592 196.927,90.5923 202,61.5C 204.774,54.5569 209.607,49.8903 216.5,47.5 Z M 216.5,53.5 C 228.042,52.3751 233.376,57.7084 232.5,69.5C 224.167,69.5 215.833,69.5 207.5,69.5C 207.442,62.2669 210.442,56.9335 216.5,53.5 Z"/></g>
<g><path style="opacity:0.872" fill="#00a71c" d="M 286.5,47.5 C 297.84,46.0705 305.007,50.7372 308,61.5C 308.499,65.8206 308.666,70.1539 308.5,74.5C 297.813,74.168 287.146,74.5013 276.5,75.5C 277.011,82.3757 280.344,87.209 286.5,90C 293.277,90.7992 299.943,90.2992 306.5,88.5C 307.138,90.46 307.138,92.2933 306.5,94C 277.153,101.547 265.653,90.3802 272,60.5C 274.584,53.4871 279.417,49.1538 286.5,47.5 Z M 285.5,53.5 C 297.541,51.8704 303.207,57.2037 302.5,69.5C 294.167,69.5 285.833,69.5 277.5,69.5C 277.01,62.4791 279.677,57.1458 285.5,53.5 Z"/></g>
<g><path style="opacity:0.869" fill="#00a71b" d="M 340.5,47.5 C 344.514,47.3345 348.514,47.5012 352.5,48C 355,49.1667 356.833,51 358,53.5C 359.447,67.4271 359.947,81.4271 359.5,95.5C 357.167,95.5 354.833,95.5 352.5,95.5C 352.667,83.1622 352.5,70.8288 352,58.5C 350.471,55.0662 347.804,53.3996 344,53.5C 338.512,54.1603 333.345,55.827 328.5,58.5C 327.501,70.8153 327.168,83.1487 327.5,95.5C 325.167,95.5 322.833,95.5 320.5,95.5C 320.5,79.8333 320.5,64.1667 320.5,48.5C 322.5,48.5 324.5,48.5 326.5,48.5C 326.34,50.1992 326.506,51.8659 327,53.5C 331.516,51.321 336.016,49.321 340.5,47.5 Z"/></g>
<g><path style="opacity:0.864" fill="#00a71b" d="M 511.5,54.5 C 511.5,68.1667 511.5,81.8333 511.5,95.5C 509.5,95.5 507.5,95.5 505.5,95.5C 505.667,83.8286 505.5,72.1619 505,60.5C 504.5,55.6652 501.833,53.3318 497,53.5C 492.238,54.0477 487.904,55.7144 484,58.5C 483.5,70.8288 483.333,83.1622 483.5,95.5C 481.167,95.5 478.833,95.5 476.5,95.5C 476.667,83.1622 476.5,70.8288 476,58.5C 474.677,55.0028 472.177,53.3361 468.5,53.5C 463.784,54.1828 459.451,55.8494 455.5,58.5C 454.501,70.8153 454.168,83.1487 454.5,95.5C 452.167,95.5 449.833,95.5 447.5,95.5C 447.5,79.8333 447.5,64.1667 447.5,48.5C 449.5,48.5 451.5,48.5 453.5,48.5C 453.5,49.8333 453.5,51.1667 453.5,52.5C 457.578,51.2981 461.578,49.7981 465.5,48C 472.569,45.9651 478.236,47.7984 482.5,53.5C 490.561,47.2628 499.227,46.0961 508.5,50C 509.399,51.6516 510.399,53.1516 511.5,54.5 Z"/></g>
<g><path style="opacity:0.825" fill="#00a71c" d="M 373.5,48.5 C 375.833,48.5 378.167,48.5 380.5,48.5C 380.5,64.1667 380.5,79.8333 380.5,95.5C 378.167,95.5 375.833,95.5 373.5,95.5C 373.5,79.8333 373.5,64.1667 373.5,48.5 Z"/></g>
<g><path style="opacity:0.847" fill="#00a71c" d="M 394.5,48.5 C 396.833,48.5 399.167,48.5 401.5,48.5C 401.333,61.1711 401.5,73.8377 402,86.5C 403.529,89.516 406.029,90.8494 409.5,90.5C 415.192,89.9877 420.525,88.3211 425.5,85.5C 426.499,73.1847 426.832,60.8513 426.5,48.5C 428.833,48.5 431.167,48.5 433.5,48.5C 433.5,64.1667 433.5,79.8333 433.5,95.5C 431.5,95.5 429.5,95.5 427.5,95.5C 427.785,93.712 427.452,92.0453 426.5,90.5C 418.853,95.5511 410.52,97.3845 401.5,96C 399.061,95.2261 397.227,93.7261 396,91.5C 394.551,77.2391 394.051,62.9058 394.5,48.5 Z"/></g>
<g><path style="opacity:0.877" fill="#01a71c" d="M 73.5,78.5 C 81.2151,76.3983 86.2151,79.0649 88.5,86.5C 81.8665,87.4967 75.1998,87.83 68.5,87.5C 68.9002,83.6909 70.5669,80.6909 73.5,78.5 Z"/></g>
</svg>
