<?xml version="1.0" encoding="utf-8"?>
<!-- Generator: Adobe Illustrator 19.1.0, SVG Export Plug-In . SVG Version: 6.00 Build 0)  -->
<svg version="1.1" id="Layer_1" xmlns="http://www.w3.org/2000/svg" xmlns:xlink="http://www.w3.org/1999/xlink" x="0px" y="0px"
	 viewBox="0 0 102.4 82.4" style="enable-background:new 0 0 102.4 82.4;" xml:space="preserve">
<style type="text/css">
	.st0{fill:none;stroke:#1DA9E1;stroke-width:2.4;stroke-miterlimit:10;}
	.st1{fill:none;stroke:#5F7D7A;stroke-width:2.4;stroke-miterlimit:10;}
	.st2{fill:none;stroke:#ED3985;stroke-width:2.4;stroke-miterlimit:10;}
	.st3{fill:none;stroke:#FED208;stroke-width:2.4;stroke-miterlimit:10;}
	.st4{fill:none;stroke:#F15B2A;stroke-width:2.4;stroke-miterlimit:10;}
	.st5{fill:#FED208;stroke:#FED208;stroke-width:2.4;stroke-miterlimit:10;}
</style>
<g>
	<path class="st0" d="M100,8.8c1.7,1.7,1.7,4.4,0,6c-1.7,1.7-4.4,1.7-6,0c-1.7-1.7-1.7-4.4,0-6C95.6,7.1,98.3,7.1,100,8.8"/>
	<circle class="st1" cx="96.9" cy="11.8" r="4.3"/>
	<path class="st0" d="M55.2,40c1.7,1.7,1.7,4.4,0,6c-1.7,1.7-4.4,1.7-6,0c-1.7-1.7-1.7-4.4,0-6C50.8,38.4,53.5,38.4,55.2,40"/>
	<circle class="st2" cx="52.1" cy="43.1" r="4.3"/>
	<path class="st3" d="M99.5,65.8c1.7,1.7,1.7,4.4,0,6c-1.7,1.7-4.4,1.7-6,0c-1.7-1.7-1.7-4.4,0-6C95.1,64.1,97.8,64.1,99.5,65.8"/>
	<path class="st4" d="M60.1,2.4c1.7,1.7,1.7,4.4,0,6c-1.7,1.7-4.4,1.7-6,0c-1.7-1.7-1.7-4.4,0-6C55.8,0.8,58.5,0.8,60.1,2.4"/>
	<circle class="st4" cx="57.1" cy="5.5" r="4.3"/>
	<line class="st4" x1="11" y1="31.3" x2="50.7" y2="8.8"/>
	<line class="st4" x1="11" y1="31.3" x2="50.7" y2="8.8"/>
	<line class="st0" x1="46.9" y1="69.1" x2="50.8" y2="50.7"/>
	<line class="st2" x1="46.9" y1="69.1" x2="50.8" y2="50.7"/>
	<line class="st0" x1="59.5" y1="46.4" x2="88.5" y2="65.6"/>
	<line class="st5" x1="59.5" y1="46.4" x2="88.5" y2="65.6"/>
	<line class="st0" x1="52.2" y1="77.7" x2="87.4" y2="69.9"/>
	<line class="st0" x1="52.2" y1="77.7" x2="87.4" y2="69.9"/>
	<line class="st0" x1="58.3" y1="38.2" x2="90.7" y2="15.2"/>
	<line class="st1" x1="58.3" y1="38.2" x2="90.7" y2="15.2"/>
	<path class="st0" d="M8.5,33.8c1.7,1.7,1.7,4.4,0,6c-1.7,1.7-4.4,1.7-6,0c-1.7-1.7-1.7-4.4,0-6C4.1,32.2,6.8,32.2,8.5,33.8"/>
	<path class="st0" d="M47.9,73.9c1.7,1.7,1.7,4.4,0,6c-1.7,1.7-4.4,1.7-6,0c-1.7-1.7-1.7-4.4,0-6C43.5,72.2,46.2,72.2,47.9,73.9"/>
	<g>
		<circle class="st0" cx="5.5" cy="36.8" r="4.3"/>
		<path class="st0" d="M10.9,42.3L39.6,71 M47.9,73.9c1.7,1.7,1.7,4.4,0,6c-1.7,1.7-4.4,1.7-6,0c-1.7-1.7-1.7-4.4,0-6
			C43.5,72.2,46.2,72.2,47.9,73.9z"/>
	</g>
</g>
</svg>
