<?xml version="1.0" encoding="utf-8"?>
<!-- Generator: Adobe Illustrator 27.3.1, SVG Export Plug-In . SVG Version: 6.00 Build 0)  -->
<svg version="1.1" id="Layer_1" xmlns="http://www.w3.org/2000/svg" xmlns:xlink="http://www.w3.org/1999/xlink" x="0px" y="0px"
	 viewBox="0 0 1100 350" style="enable-background:new 0 0 1100 350;" xml:space="preserve">
<style type="text/css">
	.st0{opacity:0.983;fill-rule:evenodd;clip-rule:evenodd;fill:#FEBE00;enable-background:new    ;}
	.st1{opacity:0.953;fill-rule:evenodd;clip-rule:evenodd;fill:#090909;enable-background:new    ;}
	.st2{opacity:0.979;fill-rule:evenodd;clip-rule:evenodd;fill:#090909;enable-background:new    ;}
	.st3{opacity:0.173;fill-rule:evenodd;clip-rule:evenodd;fill:#D6560C;enable-background:new    ;}
	.st4{opacity:0.998;fill-rule:evenodd;clip-rule:evenodd;fill:#C51514;enable-background:new    ;}
	.st5{opacity:0.972;fill-rule:evenodd;clip-rule:evenodd;fill:#0A0A09;enable-background:new    ;}
	.st6{opacity:0.971;fill-rule:evenodd;clip-rule:evenodd;fill:#0B0A09;enable-background:new    ;}
</style>
<g>
	<path class="st0" d="M942.5,42.5c37.3-2.34,71.3,6.82,102,27.5c7.33,6,14.67,12,22,18c0.95,0.72,1.12,1.55,0.5,2.5
		c-6.36,6.03-12.69,12.03-19,18c-31.99-32.06-70.49-44.9-115.5-38.5c-47.32,11.97-75.32,41.97-84,90c-0.96,55.3,25.04,91.97,78,110
		c30.8,8.26,60.13,4.92,88-10c16.99-11.14,28.82-26.31,35.5-45.5c1.1-4.55,2.26-9.05,3.5-13.5c-26-0.5-52-0.67-78-0.5
		c0-8.67,0-17.33,0-26c35.33-0.17,70.67,0,106,0.5c1.89,37.66-10.78,69.66-38,96c-24.46,20.13-52.63,29.63-84.5,28.5
		c-57.77-0.21-100.11-25.54-127-76c-21.89-58.21-10.39-108.38,34.5-150.5C888.65,55,913.98,44.83,942.5,42.5z"/>
</g>
<g>
	<path class="st1" d="M516.5,45.5c8.33,0,16.67,0,25,0c0,22,0,44,0,66c12.33,0,24.67,0,37,0c0,7.33,0,14.67,0,22
		c-12.33,0-24.67,0-37,0c0,53.33,0,106.67,0,160c-8.33,0-16.67,0-25,0c0-53.33,0-106.67,0-160c-10.33,0-20.67,0-31,0
		c0-7.33,0-14.67,0-22c10.33,0,20.67,0,31,0C516.5,89.5,516.5,67.5,516.5,45.5z"/>
</g>
<g>
	<path class="st2" d="M30.5,48.5c45,0,90,0,135,0c0,8.33,0,16.67,0,25c-18,0-36,0-54,0c0,73.33,0,146.67,0,220c-9,0-18,0-27,0
		c0-73.33,0-146.67,0-220c-18,0-36,0-54,0C30.5,65.17,30.5,56.83,30.5,48.5z"/>
</g>
<g>
	<path class="st3" d="M598.5,49.5c0,81,0,162,0,243c8.67,0,17.33,0,26,0c-0.67,0.77-1.51,1.43-2.5,2c-7.76-0.53-15.59-0.86-23.5-1
		C597.17,212,597.17,130.67,598.5,49.5z"/>
</g>
<g>
	<path class="st4" d="M624.5,292.5c-8.67,0-17.33,0-26,0c0-81,0-162,0-243c2.64-1.48,5.14-1.15,7.5,1
		c53.09,61.35,106.09,122.68,159,184c0.5-62,0.67-124,0.5-186c8.33,0,16.67,0,25,0c0.33,81.67,0,163.34-1,245
		c-1.22,0.5-2.38,0.83-3.5,1c-2.32-1.82-4.48-3.82-6.5-6c-51.59-59.38-103.09-118.38-154.5-177
		C624.5,171.83,624.33,232.17,624.5,292.5z"/>
</g>
<g>
	<path class="st5" d="M252.5,107.5c43.5-2.94,75.33,14.73,95.5,53c5.84,14.06,8.67,28.73,8.5,44c-53.67,0-107.33,0-161,0
		c0.33,34.47,16.67,57.3,49,68.5c38.88,6.64,67.72-7.19,86.5-41.5c5.71,4.18,11.87,7.51,18.5,10c0.81,2.45,0.31,4.79-1.5,7
		c-22.75,37.73-56.25,53.9-100.5,48.5c-43.39-9.28-68.89-35.78-76.5-79.5c-4.68-39.36,8.82-71.19,40.5-95.5
		c6.39-3.86,13.05-7.19,20-10C238.56,110.13,245.56,108.63,252.5,107.5z M258.5,129.5c26.22-0.14,47.05,10.19,62.5,31
		c3.66,6.99,6.49,14.33,8.5,22c-44,1.33-88,1.33-132,0C206.21,151.39,226.54,133.73,258.5,129.5z"/>
</g>
<g>
	<path class="st6" d="M415.5,107.5c22.98-0.34,42.32,7.83,58,24.5c-4.46,5.79-9.62,10.96-15.5,15.5
		c-6.95-5.61-14.45-10.44-22.5-14.5c-15.87-6.14-28.7-2.31-38.5,11.5c-2.68,8.85-1.68,17.18,3,25c10.98,10.57,23.48,18.73,37.5,24.5
		c11.73,6.4,21.56,14.9,29.5,25.5c12.69,29.57,5.86,53.41-20.5,71.5c-24.1,10.27-47.1,8.27-69-6c-4.82-3.65-9.15-7.82-13-12.5
		c4.68-6.18,9.85-11.85,15.5-17c9.82,11.5,22.32,18.16,37.5,20c16.89-1.19,27.73-9.85,32.5-26c0.63-7.77-1.37-14.77-6-21
		c-2.87-3.2-6.04-6.04-9.5-8.5c-10.17-5.92-20.51-11.59-31-17c-29.28-16.93-37.45-41.1-24.5-72.5
		C387.95,117.39,400.12,109.72,415.5,107.5z"/>
</g>
</svg>
