<?xml version="1.0" encoding="utf-8"?>
<!-- Generator: Adobe Illustrator 27.3.1, SVG Export Plug-In . SVG Version: 6.00 Build 0)  -->
<svg version="1.1" id="Layer_1" xmlns="http://www.w3.org/2000/svg" xmlns:xlink="http://www.w3.org/1999/xlink" x="0px" y="0px"
	 viewBox="0 0 256 196" style="enable-background:new 0 0 256 196;" xml:space="preserve">
<style type="text/css">
	.st0{fill:#5F7D7A;}
	.st1{fill:#FA6333;}
	.st2{fill:#ED3985;}
</style>
<g transform="translate(0.000000,196.000000) scale(0.100000,-0.100000)">
	<path class="st0" d="M356.6,1666.5c-24.8-27.8-4.4-138.8,43.8-233.7c31.4-62.1,126.3-152.6,193.5-184.8
		c59.9-28.5,146.1-48.9,204.5-48.9c59.2,0,145.3,20.4,204.5,49.7c68.6,32.9,160.7,122,195.7,189.1c27,51.1,52.6,143.1,52.6,188.4
		c0,58.4,27.8,54.8-454.2,54.8C380,1681.1,369.8,1681.1,356.6,1666.5z M1205.3,1619.9c0-4-4.8-24.7-11.1-47.1
		c-35.9-134-153.1-251.2-287.9-286.4c-60.6-15.2-154.8-15.2-215.4,0c-110.1,28.7-208.2,110.1-258.4,214.5
		c-17.6,35.1-33.5,78.2-36.7,94.9l-4.8,29.5h407.6C1021.8,1625.5,1205.3,1623.1,1205.3,1619.9z"/>
	<path class="st1" d="M1322.1,1667.9c-11.7-12.4-12.4-58.4-12.4-514.1c0-475.4,0.7-501,13.1-511.9c7.3-7.3,20.4-12.4,29.2-12.4
		c11.7,0,123.4,127.1,437.4,497.3c232.2,273.1,422.8,503.2,424.3,511.2c1.5,8.8-2.9,21.2-10.2,29.2c-11.7,13.1-27.8,13.9-441.1,13.9
		C1356.4,1681.1,1333,1680.3,1322.1,1667.9z M2104.5,1621.4c0-4.7-685.6-814.9-716.6-847.4l-18.5-19.4v435.7v434.9H1737
		C1938.9,1625.2,2104.5,1623.7,2104.5,1621.4z"/>
	<path class="st2" d="M771.4,833.2C539.2,560.1,348.6,330,347.1,322c-1.5-8.8,2.9-21.2,10.2-29.2c11.7-13.1,27.8-13.9,441.1-13.9
		c406,0,429.4,0.7,440.4,13.1c11.7,12.4,12.4,58.4,12.4,514.1c0,475.4-0.7,501-13.1,511.9c-7.3,7.3-20.4,12.4-29.2,12.4
		C1197.9,1330.5,1083.3,1200.5,771.4,833.2z M1187.7,788.2V347.6H813.2c-206.1,0-373,3.1-371.4,6.2c3.1,8.6,739.6,874.9,742.8,874.9
		C1186.1,1228.9,1187.7,1030.5,1187.7,788.2z"/>
	<path class="st0" d="M1663.8,749.2c-184.8-39.4-334.5-205.9-351.3-390c-8.8-87.6-50.4-80.3,449.9-80.3s458.6-7.3,450.6,78.9
		c-10.2,103.7-51.1,188.4-132.2,268.7c-45.3,45.3-72.3,65.7-113.9,85.4C1869.8,758,1766.8,770.4,1663.8,749.2z M1870.7,684.4
		c110.7-28.9,209.4-110.7,259.9-215.8c17.7-35.3,33.7-78.7,36.9-94.7l4.8-30.5h-410c-224.7,0-409.1,2.4-409.1,6.4
		c0,3.2,4.8,24.1,11.2,46.6c35.3,131.6,148.4,247.1,280.8,284.9C1707,698.9,1808.9,700.4,1870.7,684.4z"/>
</g>
</svg>
