<?xml version="1.0" encoding="utf-8"?>
<!-- Generator: Adobe Illustrator 26.3.1, SVG Export Plug-In . SVG Version: 6.00 Build 0)  -->
<svg version="1.1" id="Layer_1" xmlns="http://www.w3.org/2000/svg" xmlns:xlink="http://www.w3.org/1999/xlink" x="0px" y="0px"
	 viewBox="0 0 120 120" style="enable-background:new 0 0 120 120;" xml:space="preserve">
<style type="text/css">
	.st0{clip-path:url(#SVGID_00000183937481362481874580000011403809722544852624_);fill:#1BABE2;}
	.st1{clip-path:url(#SVGID_00000116220782449550852630000001466284080525853106_);fill:#1BABE2;}
	.st2{clip-path:url(#SVGID_00000181775993776771008950000012029678253741005496_);fill:#1BABE2;}
	.st3{clip-path:url(#SVGID_00000009583486748035819360000018160265927343649931_);fill:#1BABE2;}
	.st4{clip-path:url(#SVGID_00000065050980465850374610000007451224585140469128_);fill:#1BABE2;}
	.st5{clip-path:url(#SVGID_00000040547606952104606630000000064479966581978267_);fill:#1BABE2;}
	.st6{clip-path:url(#SVGID_00000104670883630606164730000017477104034644993181_);fill:#1BABE2;}
	.st7{clip-path:url(#SVGID_00000153687927867983673780000014456040407217289383_);fill:#1BABE2;}
	.st8{clip-path:url(#SVGID_00000037683284369602470520000015058222165005123459_);fill:#1BABE2;}
	.st9{clip-path:url(#SVGID_00000062910562429249058980000009340753659641120658_);fill:#1BABE2;}
	.st10{clip-path:url(#SVGID_00000092417877447738257930000010472953998594543767_);fill:#1BABE2;}
	.st11{clip-path:url(#SVGID_00000151520431507540333570000016733809165168379795_);fill:#1BABE2;}
	.st12{clip-path:url(#SVGID_00000055668682541110310800000000050258084391366574_);fill:#1BABE2;}
	.st13{clip-path:url(#SVGID_00000152979563134971926400000015115373701761153932_);fill:#1BABE2;}
	.st14{clip-path:url(#SVGID_00000033348248048978278600000003744164474605323419_);fill:#1BABE2;}
	.st15{clip-path:url(#SVGID_00000055686828042155477060000012860224517527408565_);fill:#1BABE2;}
	.st16{clip-path:url(#SVGID_00000107587285339071573170000006969231719851014017_);fill:#1BABE2;}
	.st17{clip-path:url(#SVGID_00000019668289735155495960000006734572406915441070_);fill:#1BABE2;}
	.st18{clip-path:url(#SVGID_00000103247670275816605940000013282643928767718047_);fill:#1BABE2;}
</style>
<g>
	<g>
		<defs>
			<rect id="SVGID_1_" x="18.5" y="15" width="83" height="90"/>
		</defs>
		<clipPath id="SVGID_00000096748425230995311730000017090219635335084716_">
			<use xlink:href="#SVGID_1_"  style="overflow:visible;"/>
		</clipPath>
		<path style="clip-path:url(#SVGID_00000096748425230995311730000017090219635335084716_);fill:#1BABE2;" d="M48.3,60H29.9
			c-0.6,0-1.2,0.6-1.2,1.4c0,0.8,0.6,1.2,1.4,1.2h18.4c0.8,0,1.4-0.6,1.4-1.2C49.8,60.6,49.2,60,48.3,60"/>
	</g>
	<g>
		<defs>
			<rect id="SVGID_00000004533187140153165430000000069498687282466985_" x="18.5" y="15" width="83" height="90"/>
		</defs>
		<clipPath id="SVGID_00000070812737086414112270000010232505181416534449_">
			<use xlink:href="#SVGID_00000004533187140153165430000000069498687282466985_"  style="overflow:visible;"/>
		</clipPath>
		<path style="clip-path:url(#SVGID_00000070812737086414112270000010232505181416534449_);fill:#1BABE2;" d="M48.3,71.7H29.9
			c-0.8,0-1.4,0.6-1.4,1.2c0,0.8,0.6,1.2,1.4,1.2h18.4c0.8,0,1.4-0.6,1.4-1.2C49.8,72.1,49.2,71.7,48.3,71.7"/>
	</g>
	<g>
		<defs>
			<rect id="SVGID_00000073001833310594562260000018045725262491277226_" x="18.5" y="15" width="83" height="90"/>
		</defs>
		<clipPath id="SVGID_00000100353476274072109030000017390502018860609441_">
			<use xlink:href="#SVGID_00000073001833310594562260000018045725262491277226_"  style="overflow:visible;"/>
		</clipPath>
		<path style="clip-path:url(#SVGID_00000100353476274072109030000017390502018860609441_);fill:#1BABE2;" d="M48.3,83.1H29.9
			c-0.8,0-1.4,0.6-1.4,1.2c0,0.8,0.6,1.2,1.4,1.2h18.4c0.8,0,1.4-0.6,1.4-1.2S49.2,83.1,48.3,83.1"/>
	</g>
	<g>
		<defs>
			<rect id="SVGID_00000101803337005537484140000001648654451726273471_" x="18.5" y="15" width="83" height="90"/>
		</defs>
		<clipPath id="SVGID_00000085226779945149666660000013912357031114283924_">
			<use xlink:href="#SVGID_00000101803337005537484140000001648654451726273471_"  style="overflow:visible;"/>
		</clipPath>
		<path style="clip-path:url(#SVGID_00000085226779945149666660000013912357031114283924_);fill:#1BABE2;" d="M63.7,70h2.9
			c0.8,0,1.4-0.6,1.4-1.2c0-0.8-0.6-1.2-1.4-1.2h-2.9c-0.8,0-1.4,0.6-1.4,1.2C62.2,69.4,62.9,70,63.7,70"/>
	</g>
	<g>
		<defs>
			<rect id="SVGID_00000136394691184838350160000012948479104915196328_" x="18.5" y="15" width="83" height="90"/>
		</defs>
		<clipPath id="SVGID_00000085964304526833139170000012589369376339575701_">
			<use xlink:href="#SVGID_00000136394691184838350160000012948479104915196328_"  style="overflow:visible;"/>
		</clipPath>
		<path style="clip-path:url(#SVGID_00000085964304526833139170000012589369376339575701_);fill:#1BABE2;" d="M75.3,67.4h-2.9
			c-0.8,0-1.4,0.6-1.4,1.2c0,0.8,0.6,1.2,1.4,1.2h2.9c0.8,0,1.4-0.6,1.4-1.2S76.2,67.4,75.3,67.4"/>
	</g>
	<g>
		<defs>
			<rect id="SVGID_00000121243718808472883310000003350085322784821384_" x="18.5" y="15" width="83" height="90"/>
		</defs>
		<clipPath id="SVGID_00000100371415516703501930000016498809365007290014_">
			<use xlink:href="#SVGID_00000121243718808472883310000003350085322784821384_"  style="overflow:visible;"/>
		</clipPath>
		<path style="clip-path:url(#SVGID_00000100371415516703501930000016498809365007290014_);fill:#1BABE2;" d="M84.1,67.4h-2.9
			c-0.8,0-1.4,0.6-1.4,1.2c0,0.8,0.6,1.2,1.4,1.2h2.9c0.8,0,1.4-0.6,1.4-1.2S85,67.4,84.1,67.4"/>
	</g>
	<g>
		<defs>
			<rect id="SVGID_00000035504625831963994760000017832639815693080983_" x="18.5" y="15" width="83" height="90"/>
		</defs>
		<clipPath id="SVGID_00000120522754185682283840000006254581912973450390_">
			<use xlink:href="#SVGID_00000035504625831963994760000017832639815693080983_"  style="overflow:visible;"/>
		</clipPath>
		<path style="clip-path:url(#SVGID_00000120522754185682283840000006254581912973450390_);fill:#1BABE2;" d="M92.9,67.4h-2.9
			c-0.8,0-1.4,0.6-1.4,1.2c0,0.8,0.6,1.2,1.4,1.2h2.9c0.8,0,1.4-0.6,1.4-1.2C94.4,68,93.8,67.4,92.9,67.4"/>
	</g>
	<g>
		<defs>
			<rect id="SVGID_00000010287332841876444970000003006678240320216501_" x="18.5" y="15" width="83" height="90"/>
		</defs>
		<clipPath id="SVGID_00000118372425380701090790000002548990031695636100_">
			<use xlink:href="#SVGID_00000010287332841876444970000003006678240320216501_"  style="overflow:visible;"/>
		</clipPath>
		<path style="clip-path:url(#SVGID_00000118372425380701090790000002548990031695636100_);fill:#1BABE2;" d="M63.7,76.8h2.9
			c0.8,0,1.4-0.6,1.4-1.2c0-0.8-0.6-1.2-1.4-1.2h-2.9c-0.8,0-1.4,0.6-1.4,1.2C62.2,76.2,62.9,76.8,63.7,76.8"/>
	</g>
	<g>
		<defs>
			<rect id="SVGID_00000036956947227258649910000006088102492148494721_" x="18.5" y="15" width="83" height="90"/>
		</defs>
		<clipPath id="SVGID_00000044178931758038784310000018444928940779724432_">
			<use xlink:href="#SVGID_00000036956947227258649910000006088102492148494721_"  style="overflow:visible;"/>
		</clipPath>
		<path style="clip-path:url(#SVGID_00000044178931758038784310000018444928940779724432_);fill:#1BABE2;" d="M75.3,74.1h-2.9
			c-0.8,0-1.4,0.6-1.4,1.2c0,0.8,0.6,1.2,1.4,1.2h2.9c0.8,0,1.4-0.6,1.4-1.2C76.8,74.7,76.2,74.1,75.3,74.1"/>
	</g>
	<g>
		<defs>
			<rect id="SVGID_00000089560693446549169580000001240769279693773479_" x="18.5" y="15" width="83" height="90"/>
		</defs>
		<clipPath id="SVGID_00000117642483193955306940000008415716265202038667_">
			<use xlink:href="#SVGID_00000089560693446549169580000001240769279693773479_"  style="overflow:visible;"/>
		</clipPath>
		<path style="clip-path:url(#SVGID_00000117642483193955306940000008415716265202038667_);fill:#1BABE2;" d="M84.1,74.1h-2.9
			c-0.8,0-1.4,0.6-1.4,1.2c0,0.8,0.6,1.2,1.4,1.2h2.9c0.8,0,1.4-0.6,1.4-1.2C85.6,74.7,85,74.1,84.1,74.1"/>
	</g>
	<g>
		<defs>
			<rect id="SVGID_00000130621238724483015070000008237823887157561528_" x="18.5" y="15" width="83" height="90"/>
		</defs>
		<clipPath id="SVGID_00000119098503731314765160000015849579211871794844_">
			<use xlink:href="#SVGID_00000130621238724483015070000008237823887157561528_"  style="overflow:visible;"/>
		</clipPath>
		<path style="clip-path:url(#SVGID_00000119098503731314765160000015849579211871794844_);fill:#1BABE2;" d="M92.9,74.1h-2.9
			c-0.8,0-1.4,0.6-1.4,1.2c0,0.8,0.6,1.2,1.4,1.2h2.9c0.8,0,1.4-0.6,1.4-1.2C94.4,74.7,93.8,74.1,92.9,74.1"/>
	</g>
	<g>
		<defs>
			<rect id="SVGID_00000176029924393407955620000001144031986298649020_" x="18.5" y="15" width="83" height="90"/>
		</defs>
		<clipPath id="SVGID_00000019654883270301303980000014292177922769662389_">
			<use xlink:href="#SVGID_00000176029924393407955620000001144031986298649020_"  style="overflow:visible;"/>
		</clipPath>
		<path style="clip-path:url(#SVGID_00000019654883270301303980000014292177922769662389_);fill:#1BABE2;" d="M63.7,83.7h2.9
			c0.8,0,1.4-0.6,1.4-1.2c0-0.8-0.6-1.2-1.4-1.2h-2.9c-0.8,0-1.4,0.6-1.4,1.2S62.9,83.7,63.7,83.7"/>
	</g>
	<g>
		<defs>
			<rect id="SVGID_00000154411354518363343840000017518763996842579608_" x="18.5" y="15" width="83" height="90"/>
		</defs>
		<clipPath id="SVGID_00000081619173777930955240000009287111268513120420_">
			<use xlink:href="#SVGID_00000154411354518363343840000017518763996842579608_"  style="overflow:visible;"/>
		</clipPath>
		<path style="clip-path:url(#SVGID_00000081619173777930955240000009287111268513120420_);fill:#1BABE2;" d="M75.3,81.1h-2.9
			c-0.8,0-1.4,0.6-1.4,1.2c0,0.8,0.6,1.2,1.4,1.2h2.9c0.8,0,1.4-0.6,1.4-1.2C76.8,81.7,76.2,81.1,75.3,81.1"/>
	</g>
	<g>
		<defs>
			<rect id="SVGID_00000098195567604408935290000012364354792161764019_" x="18.5" y="15" width="83" height="90"/>
		</defs>
		<clipPath id="SVGID_00000025434841959775499840000012822078716429443754_">
			<use xlink:href="#SVGID_00000098195567604408935290000012364354792161764019_"  style="overflow:visible;"/>
		</clipPath>
		<path style="clip-path:url(#SVGID_00000025434841959775499840000012822078716429443754_);fill:#1BABE2;" d="M84.1,81.1h-2.9
			c-0.8,0-1.4,0.6-1.4,1.2c0,0.8,0.6,1.2,1.4,1.2h2.9c0.8,0,1.4-0.6,1.4-1.2C85.6,81.7,85,81.1,84.1,81.1"/>
	</g>
	<g>
		<defs>
			<rect id="SVGID_00000071559745842805224820000012443433736625429895_" x="18.5" y="15" width="83" height="90"/>
		</defs>
		<clipPath id="SVGID_00000106856040310274699570000009823709004415399841_">
			<use xlink:href="#SVGID_00000071559745842805224820000012443433736625429895_"  style="overflow:visible;"/>
		</clipPath>
		<path style="clip-path:url(#SVGID_00000106856040310274699570000009823709004415399841_);fill:#1BABE2;" d="M92.9,81.1h-2.9
			c-0.8,0-1.4,0.6-1.4,1.2c0,0.8,0.6,1.2,1.4,1.2h2.9c0.8,0,1.4-0.6,1.4-1.2C94.4,81.7,93.8,81.1,92.9,81.1"/>
	</g>
	<g>
		<defs>
			<rect id="SVGID_00000077289376316060724650000013836183725900490173_" x="18.5" y="15" width="83" height="90"/>
		</defs>
		<clipPath id="SVGID_00000137852455764717850600000009054570536611158712_">
			<use xlink:href="#SVGID_00000077289376316060724650000013836183725900490173_"  style="overflow:visible;"/>
		</clipPath>
		<path style="clip-path:url(#SVGID_00000137852455764717850600000009054570536611158712_);fill:#1BABE2;" d="M35,35
			c-0.6-0.4-0.8-1.4-0.6-2.5c0.2-1,0.8-2.2,2.2-2.7l0,0v6.1C36.1,35.7,35.5,35.5,35,35 M39.3,40c0.2,0,0.4,0.2,0.6,0.2
			c3.1,1,2.9,3.5,2.7,4.3c-0.2,1.4-1.4,3.1-3.3,3.7V40z M33,46.9c-0.6-0.4-1.4-0.2-1.8,0.4c-0.4,0.6-0.2,1.4,0.4,1.8
			c2,1.2,3.3,1.6,5.1,1.6v1.8c0,0.8,0.6,1.2,1.4,1.2s1.4-0.6,1.4-1.2v-1.8c3.5-0.6,5.5-3.3,5.9-5.9c0.6-3.3-1.2-5.9-4.5-7.2
			c-0.6-0.2-1-0.4-1.4-0.6v-7.2c1.2,0.2,2,0.8,2.2,1c0.6,0.4,1.4,0.4,1.8,0c0.4-0.6,0.4-1.4,0-1.8c0,0-1.6-1.4-4.1-1.6v-1.8
			c0-0.8-0.6-1.2-1.4-1.2s-1.4,0.6-1.4,1.2v1.6c-0.2,0-0.6,0.2-0.8,0.2c-2,0.6-3.7,2.5-4.1,4.7c-0.4,2,0.2,3.9,1.8,5.1
			c0.8,0.6,1.8,1.2,3.3,1.8v9.2C35.2,48.1,34.4,47.9,33,46.9"/>
	</g>
	<g>
		<defs>
			<rect id="SVGID_00000023975310595290530030000014151102770457500331_" x="18.5" y="15" width="83" height="90"/>
		</defs>
		<clipPath id="SVGID_00000183930726331843181780000007933232613305614722_">
			<use xlink:href="#SVGID_00000023975310595290530030000014151102770457500331_"  style="overflow:visible;"/>
		</clipPath>
		<path style="clip-path:url(#SVGID_00000183930726331843181780000007933232613305614722_);fill:#1BABE2;" d="M75.1,19.5
			c1,1,10.2,9.8,11.7,11.2h-9.6c-1.2,0-2-0.8-2-2V19.5z M90.1,97.2c-0.8,0-1.4,0.6-1.4,1.2v1c0,1.6-1.2,2.9-2.9,2.9H24.2
			c-1.6,0-2.9-1.2-2.9-2.9v-79c0-1.6,1.2-2.9,2.9-2.9h47.7c0.2,0,0.2,0,0.4,0v11c0,2.7,2.2,4.7,4.9,4.7h11.5c0,0.2,0,0.2,0,0.4v6.3
			c0,0.8,0.6,1.2,1.4,1.2s1.4-0.6,1.4-1.2v-6.3c0-1.4-0.8-3.1-1.6-3.9c-0.6-0.6-13.7-13.3-13.7-13.3l0,0l0,0l0,0l0,0
			c-1.2-1-2.7-1.6-4.3-1.6H24.2c-3.3,0-5.7,2.5-5.7,5.5v79c0,3.1,2.5,5.5,5.7,5.5h61.6c3.1,0,5.7-2.5,5.7-5.5v-1
			C91.3,97.8,90.7,97.2,90.1,97.2"/>
	</g>
	<g>
		<defs>
			<rect id="SVGID_00000040561479653413969180000000602921123842123701_" x="18.5" y="15" width="83" height="90"/>
		</defs>
		<clipPath id="SVGID_00000018955384232785406740000009413204013500662152_">
			<use xlink:href="#SVGID_00000040561479653413969180000000602921123842123701_"  style="overflow:visible;"/>
		</clipPath>
		<path style="clip-path:url(#SVGID_00000018955384232785406740000009413204013500662152_);fill:#1BABE2;" d="M96.6,44.9H59.8
			c-2.7,0-4.7,2-4.7,4.5v4.5c0,0.8,0.6,1.2,1.4,1.2s1.4-0.6,1.4-1.2v-4.5c0-1,0.8-1.8,2-1.8h36.8c1,0,2,0.8,2,1.8V89
			c0,1-0.8,1.8-2,1.8H60c-1,0-2-0.8-2-1.8V60c0-0.8-0.6-1.2-1.4-1.2c-0.8,0-1.4,0.6-1.4,1.2v29c0,2.5,2,4.5,4.7,4.5h36.8
			c2.7,0,4.7-2,4.7-4.5V49.6C101.5,46.9,99.3,44.9,96.6,44.9"/>
	</g>
	<g>
		<defs>
			<rect id="SVGID_00000118392644525516145590000001039798462039950001_" x="18.5" y="15" width="83" height="90"/>
		</defs>
		<clipPath id="SVGID_00000012448393036230958000000001924512350050370729_">
			<use xlink:href="#SVGID_00000118392644525516145590000001039798462039950001_"  style="overflow:visible;"/>
		</clipPath>
		<path style="clip-path:url(#SVGID_00000012448393036230958000000001924512350050370729_);fill:#1BABE2;" d="M91.5,60H64.9v-6.1
			h26.6V60z M94.4,53.7c0-1.2-1-2.3-2.5-2.3H64.7c-1.4,0-2.5,1-2.5,2.3v6.7c0,1.2,1,2.2,2.5,2.2h27.2c1.2,0,2.5-1,2.5-2.2
			C94.4,60.4,94.4,53.7,94.4,53.7z"/>
	</g>
</g>
</svg>
