<?xml version="1.0" encoding="utf-8"?>
<!-- Generator: Adobe Illustrator 19.1.0, SVG Export Plug-In . SVG Version: 6.00 Build 0)  -->
<svg version="1.1" id="Layer_1" xmlns="http://www.w3.org/2000/svg" xmlns:xlink="http://www.w3.org/1999/xlink" x="0px" y="0px"
	 viewBox="0 0 102.4 65" style="enable-background:new 0 0 102.4 65;" xml:space="preserve">
<style type="text/css">
	.st0{fill:none;stroke:#F15B2A;stroke-width:2.4;stroke-miterlimit:10;}
</style>
<g>
	<path class="st0" d="M30.7,35.7l16.6,9.6l-16.6,9.6V35.7z M75.2,27.9v28c0,4.3-3.5,7.8-7.8,7.8H9c-4.3,0-7.8-3.5-7.8-7.8V31.4
		c0-4.3,3.5-7.8,7.8-7.8h40.4 M48.2,20L48.2,20c-2.5,0-3.8-1.1-3.8-2.4c0-1.3,1.3-2.4,3.8-2.4 M93.4,12.8c2.2,0,3.9,1.7,3.9,3.9
		c0,2.2-1.7,3.9-3.9,3.9 M93.4,8.8c4.3,0,7.8,3.5,7.8,7.8c0,4.3-3.5,7.8-7.8,7.8 M53.6,23.6l-2.8,8.1l6.8,0.1l-2.4-8.3 M87.6,14.3
		h2.3c1.3,0,2.3,1,2.3,2.3s-1,2.3-2.3,2.3h-2.3 M87.5,32.9c0.2,3.4,0-31,0-31s-20.9,9.9-25.3,9.9h-13v11.8l13.1,0
		c4.4,0,25.3,9.9,25.3,9.9"/>
</g>
</svg>
