<?xml version="1.0" encoding="utf-8"?>
<!-- Generator: Adobe Illustrator 23.0.5, SVG Export Plug-In . SVG Version: 6.00 Build 0)  -->
<svg version="1.1" id="Layer_1" xmlns="http://www.w3.org/2000/svg" xmlns:xlink="http://www.w3.org/1999/xlink" x="0px" y="0px"
	 viewBox="0 0 120 120" style="enable-background:new 0 0 120 120;" xml:space="preserve">
<style type="text/css">
	.st0{fill:none;stroke:#5F7D7A;stroke-width:3;stroke-miterlimit:10;}
	.st1{fill:none;stroke:#1DA9E1;stroke-width:3;stroke-miterlimit:10;}
	.st2{fill:none;stroke:#ED3985;stroke-width:3;stroke-miterlimit:10;}
	.st3{fill:none;stroke:#F96332;stroke-width:3;stroke-miterlimit:10;}
	.st4{fill:none;stroke:#66B9B7;stroke-width:3;stroke-miterlimit:10;}
</style>
<g>
	<path class="st0" d="M41.12,72.43h-13c0,0-17.34-6.07-12.14-21.67c0,0,2.6-10.4,17.34-10.4c0,0,0.43-15.17,12.57-20.37
		c0,0,15.61-7.8,26.88,5.2l3.47,4.33c0,0,12.14,0.87,11.27,11.27c0,0,11.27-2.6,17.34,12.14c0,0,1.73,10.4-6.07,16.47
		c0,0-4.33,3.47-13,3.47H53.69"/>
	<polyline class="st1" points="28.54,82.4 41.55,82.4 41.18,61.26 	"/>
	<line class="st2" x1="53.75" y1="61.41" x2="53.69" y2="82.4"/>
	<line class="st3" x1="66.94" y1="61.41" x2="66.69" y2="77.2"/>
	<line class="st0" x1="66.69" y1="81.53" x2="66.69" y2="83.27"/>
	<line class="st3" x1="66.78" y1="87.64" x2="66.69" y2="92.8"/>
	<line class="st4" x1="79.2" y1="61.1" x2="79.2" y2="63.74"/>
	<polyline class="st4" points="79.2,67.31 78.83,87.6 91.83,87.6 	"/>
	<circle class="st1" cx="23.78" cy="82.83" r="4.77"/>
	<circle class="st4" cx="96.6" cy="87.17" r="4.77"/>
	<circle class="st3" cx="67.12" cy="97.57" r="4.77"/>
	<circle class="st2" cx="53.25" cy="87.17" r="4.77"/>
	<line class="st0" x1="46.32" y1="72.43" x2="48.92" y2="72.43"/>
</g>
</svg>
