<?xml version="1.0" encoding="utf-8"?>
<!-- Generator: Adobe Illustrator 19.1.0, SVG Export Plug-In . SVG Version: 6.00 Build 0)  -->
<svg version="1.1" id="Layer_1" xmlns="http://www.w3.org/2000/svg" xmlns:xlink="http://www.w3.org/1999/xlink" x="0px" y="0px"
	 viewBox="0 0 103 72.4" style="enable-background:new 0 0 103 72.4;" xml:space="preserve">
<style type="text/css">
	.st0{fill:none;stroke:#F15B2A;stroke-width:3;stroke-miterlimit:10;}
</style>
<g>
	<circle class="st0" cx="53.3" cy="34.9" r="33.2"/>
	<path class="st0" d="M101.5,72.4V37.1V2c0,0-3.2-3.3-5.4,8c-1.1,5.4-2.4,30.9,5.4,27.1 M1.9,2c0,0-2.9,17.8,7,17.8
		c8.1,0,7.8-12.1,7.8-17.8 M8.9,2v70.4 M78.8,35.5c0,14.1-11.4,25.6-25.5,25.6c-14.1,0-25.5-11.5-25.5-25.6S39.3,9.9,53.4,9.9
		C67.4,9.9,78.8,21.4,78.8,35.5z"/>
</g>
</svg>
