<?xml version="1.0" encoding="utf-8"?>
<!-- Generator: Adobe Illustrator 23.0.5, SVG Export Plug-In . SVG Version: 6.00 Build 0)  -->
<svg version="1.1" id="Layer_1" xmlns="http://www.w3.org/2000/svg" xmlns:xlink="http://www.w3.org/1999/xlink" x="0px" y="0px"
	 viewBox="0 0 120 120" style="enable-background:new 0 0 120 120;" xml:space="preserve">
<style type="text/css">
	.st0{display:none;}
	.st1{display:inline;fill:none;stroke:#5F7D7A;stroke-width:3;stroke-miterlimit:10;}
	.st2{display:inline;fill:none;stroke:#1DA9E1;stroke-width:3;stroke-miterlimit:10;}
	.st3{display:inline;fill:none;stroke:#ED3985;stroke-width:3;stroke-miterlimit:10;}
	.st4{display:inline;fill:none;stroke:#F96332;stroke-width:3;stroke-miterlimit:10;}
	.st5{display:inline;fill:none;stroke:#66B9B7;stroke-width:3;stroke-miterlimit:10;}
	.st6{display:none;fill:none;stroke:#5F7D7A;stroke-width:3;stroke-miterlimit:10;}
	.st7{display:none;fill:none;stroke:#1DA9E1;stroke-width:3;stroke-miterlimit:10;}
	.st8{display:none;fill:none;stroke:#ED3985;stroke-width:3;stroke-miterlimit:10;}
	.st9{display:none;fill:none;stroke:#66B9B7;stroke-width:3;stroke-miterlimit:10;}
	.st10{display:none;fill:none;stroke:#F96332;stroke-width:3;}
	.st11{display:inline;fill:#0B80E0;}
	.st12{display:inline;fill:none;stroke:#F96332;stroke-width:3;}
	.st13{fill:none;stroke:#F96332;stroke-width:3;}
	.st14{fill:none;stroke:#1DA9E1;stroke-width:3;stroke-miterlimit:10;}
	.st15{display:inline;fill:#F96332;}
	.st16{display:inline;fill:#1DA9E1;}
	.st17{display:inline;fill:none;stroke:#F96332;stroke-width:3;stroke-linecap:round;stroke-linejoin:round;stroke-miterlimit:10;}
	.st18{display:inline;fill:none;stroke:#1DA9E1;stroke-width:3;stroke-linecap:round;stroke-linejoin:round;stroke-miterlimit:10;}
	.st19{display:inline;}
	.st20{fill:none;stroke:#F96332;stroke-width:3;stroke-linecap:round;stroke-linejoin:round;stroke-miterlimit:10;}
	.st21{fill:none;stroke:#ED3985;stroke-width:3;stroke-linecap:round;stroke-linejoin:round;stroke-miterlimit:10;}
	.st22{fill:none;stroke:#1DA9E1;stroke-width:3;stroke-linecap:round;stroke-linejoin:round;stroke-miterlimit:10;}
	.st23{fill:none;stroke:#5F7D7A;stroke-width:3;stroke-linecap:round;stroke-linejoin:round;stroke-miterlimit:10;}
	.st24{display:inline;fill:none;stroke:#5F7D7A;stroke-width:3;stroke-linecap:round;stroke-linejoin:round;stroke-miterlimit:10;}
</style>
<g class="st0">
	<path class="st1" d="M41.12,72.43h-13c0,0-17.34-6.07-12.14-21.67c0,0,2.6-10.4,17.34-10.4c0,0,0.43-15.17,12.57-20.37
		c0,0,15.61-7.8,26.88,5.2l3.47,4.33c0,0,12.14,0.87,11.27,11.27c0,0,11.27-2.6,17.34,12.14c0,0,1.73,10.4-6.07,16.47
		c0,0-4.33,3.47-13,3.47H53.69"/>
	<polyline class="st2" points="28.54,82.4 41.55,82.4 41.18,61.26 	"/>
	<line class="st3" x1="53.75" y1="61.41" x2="53.69" y2="82.4"/>
	<line class="st4" x1="66.94" y1="61.41" x2="66.69" y2="77.2"/>
	<line class="st1" x1="66.69" y1="81.53" x2="66.69" y2="83.27"/>
	<line class="st4" x1="66.78" y1="87.64" x2="66.69" y2="92.8"/>
	<line class="st5" x1="79.2" y1="61.1" x2="79.2" y2="63.74"/>
	<polyline class="st5" points="79.2,67.31 78.83,87.6 91.83,87.6 	"/>
	<circle class="st2" cx="23.78" cy="82.83" r="4.77"/>
	<circle class="st5" cx="96.6" cy="87.17" r="4.77"/>
	<circle class="st4" cx="67.12" cy="97.57" r="4.77"/>
	<circle class="st3" cx="53.25" cy="87.17" r="4.77"/>
	<line class="st1" x1="46.32" y1="72.43" x2="48.92" y2="72.43"/>
</g>
<g class="st0">
	<rect x="-135" y="15" class="st1" width="90" height="90"/>
	<line class="st2" x1="-114.2" y1="38.22" x2="-65.8" y2="38.22"/>
	<line class="st3" x1="-114.2" y1="57.61" x2="-65.8" y2="57.61"/>
	<line class="st2" x1="-114.2" y1="41" x2="-65.8" y2="41"/>
	<line class="st3" x1="-114.2" y1="60.39" x2="-65.8" y2="60.39"/>
	<line class="st4" x1="-114.2" y1="79.78" x2="-65.8" y2="79.78"/>
	<line class="st4" x1="-114.2" y1="82.56" x2="-65.8" y2="82.56"/>
</g>
<path class="st6" d="M-174.06-49.45h44l22,21v68c0,0-1,6-7,7h-58c0,0-7-1-7-8l1-81C-179.06-42.45-180.06-47.45-174.06-49.45z"/>
<path class="st6" d="M-129.56-49.95v15c0,0,0,6,6,7h15"/>
<line class="st7" x1="-147.06" y1="-15.45" x2="-120.06" y2="-15.45"/>
<line class="st8" x1="-168.56" y1="-3.95" x2="-119.56" y2="-3.95"/>
<line class="st9" x1="-168.56" y1="9.05" x2="-119.56" y2="9.05"/>
<path class="st10" d="M-167.56-19.95l4.93,0.45c0.38,0.03,0.77,0.02,1.14-0.08c2.39-0.63,3.49-1.99,4-3.12
	c0.55-1.21,0.33-2.65-0.53-3.66c-1.22-1.43-3.13-1.88-4.21-2.03c-0.64-0.08-1.16-0.48-1.73-0.77c-3.59-1.79-1.61-5.74-0.07-6.75
	c0.56-0.37,1.23-0.55,1.9-0.55h6.09"/>
<line class="st10" x1="-161.56" y1="-40.95" x2="-161.56" y2="-37.45"/>
<line class="st10" x1="-161.56" y1="-18.95" x2="-161.56" y2="-15.95"/>
<path class="st10" d="M-77.73,142.65h-97c0,0,0-9,2-11c0,0,11-9,17-12l2-3l-1-6l-6-10l-2-3v-5l1-3l2-2l-1-2c0,0-1-15,9-18
	c0,0,13-4,19,1c0,0,3-13,14-14c0,0,13-3,21,6c0,0,2,5,2,11v7c0,0,4,7,1,13l-3,4l-6,10c0,0-4,9,4,13c0,0,17,7,19,10c0,0,3,5,4,8
	L-77.73,142.65z"/>
<path class="st10" d="M-151.23,140.65c-1-7,3-12,3-12c3-5,19-12,19-12l2-2l1-3l1-3l-1-4l-5-10c-3-3-3-12-3-12l1-4l1-2l-0.25-8.73"/>
<g class="st0">
	<path class="st11" d="M26.07,92.33c3.06-0.84,8.34-4.32,8.34-12.16c0-7.02-2.29-10.12-3.52-11.78l-0.15-0.21
		c-0.01-0.02-0.03-0.04-0.04-0.05c-0.1-0.29-0.39-1.49,0.23-4.05c0.24-0.99,0.1-2.14-0.33-3.07c-0.92-2.02-2.64-5.79-1.44-8.63
		c2-4.86,2.84-5.23,5.09-6.21c0.22-0.09,0.43-0.21,0.63-0.33c0.56-0.36,2.86-1.22,5.22-1.22c1.14,0,2.08,0.21,2.84,0.59
		c0.19-0.78,0.43-1.57,0.76-2.36c0.28-0.7,0.57-1.29,0.86-1.91c-1.41-0.62-2.95-0.88-4.45-0.88c-3.3,0-6.42,1.14-7.67,1.93
		c-3.65,1.59-5.18,3.06-7.48,8.65c-2,4.69,0.38,9.79,1.55,12.35c-1.43,5.85,0.56,7.87,0.56,7.87c1.04,1.42,2.79,3.47,2.79,9.3
		c0,6.64-5.11,7.8-5.11,7.8c-4.15,1.45-9.68,4.53-9.68,13.65c0,0,0,2.28,2.28,2.28l10.16,0c0.55-1.69,1.27-3.22,2.14-4.56l-9.86,0
		C20.47,95,23.16,93.37,26.07,92.33"/>
	<path class="st3" d="M87.7,82.13c0,0-8.83-2.11-8.83-11.33c0-8.1,3.63-10.95,5.03-12.92c0,0,2.88-2.52,0.95-10.66
		c3.21-4.46,4.26-11.72,0.33-20.68c-2.19-5.24-4.13-8.11-7.08-9.77c-2.16-1.23-4.62-1.68-7.01-1.68c-4.45,0-8.67,1.58-10.36,2.68
		c-4.93,2.21-8.24,4.25-11.35,12.01c-2.7,6.52,0.51,13.6,2.09,17.16c-1.93,8.13,0.75,10.93,0.75,10.93
		c1.4,1.97,5.03,4.82,5.03,12.92c0,9.22-8.83,11.33-8.83,11.33c-5.6,2.02-17.3,5.88-17.3,19.18c0,0,0,2.46,2.46,2.46h68.96
		c2.46,0,2.46-2.46,2.46-2.46C105,88.02,93.3,84.15,87.7,82.13"/>
</g>
<g class="st0">
	<line class="st12" x1="72.67" y1="64.29" x2="92.67" y2="82.62"/>
	<line class="st12" x1="62.84" y1="73.62" x2="83.84" y2="93.62"/>
	<path class="st12" d="M78,17.45l-31.17,4l-3.5,0.33c-1.5-3.67-5.67-1.5-5.67-1.5l-23.5,22.67c-3.67,3.17-0.33,7-0.33,7l10,11.5
		L25,64.79l2.17-0.17c4.67-4.67,7.83-0.67,7.83-0.67c3.33,1.33,2.33,5.67,2.33,5.67h1.5c2.83-2.33,6.67-4.17,8.33-0.5
		c1.67,3.67,0,8,0,8c7.33,0.83,7.83,7,7.83,7l14.67,14c5.67,6.67,10,2.83,10,2.83c2.67-1.17,4.17-7.33,4.17-7.33l1.67,1.67
		c7.17,4.83,10.5-1,10.5-1c3.17-5-3.33-11.67-3.33-11.67c5.5,1.33,7.83-1.83,7.83-1.83c2.67-3.33,0.17-7.83,0.17-7.83l-4.5-5.33
		l0.17-1.67l6.83-9.67l4.83-9.83c1.17-3.67-0.33-5.33-0.33-5.33l-26.33-25.5L78,17.45z"/>
	<path class="st12" d="M96.17,67.62l-33.5-32.5c0,0-7.67-0.67-14-0.33c-6.33,0.33-7.5-3.83-7.5-3.83c-2.17-5.17,2.17-9.17,2.17-9.17
		"/>
	<path class="st12" d="M27.17,64.62c-2.83,2.33-4.33,3-3,8.5s9.49,1,9.49,1c-4,2.67-1.66,8.34-1.66,8.34c3.67,5,8.17,1.17,8.17,1.17
		c-3.5,10.5,7.5,9.17,7.5,9.17c-2.67,5.67,7,9.33,7,9.33c6.33,5.33,9.83,1.83,9.83,1.83c2.17-1.5,3.5-7.33,3.5-7.33"/>
	<line class="st12" x1="37.34" y1="69.62" x2="33" y2="74.79"/>
	<line class="st12" x1="47.17" y1="77.12" x2="40.17" y2="83.62"/>
	<line class="st12" x1="55.9" y1="84.17" x2="47.44" y2="92.57"/>
	<path class="st12" d="M52,100.62c4.83,0.17,6.67-3.17,6.67-3.17c2.17-2,2.33-7.33,2.33-7.33"/>
</g>
<g>
	<path class="st13" d="M66.25,85.75c0-11.6,9.4-21,21-21c0.95,0,1.89,0.09,2.81,0.21l0.69-0.71l12-11v-22l-18-18h-23l-50,51l40,40
		l14.79-15.17C66.37,87.99,66.25,86.89,66.25,85.75z"/>
	<circle class="st14" cx="87.25" cy="85.75" r="21"/>
	<circle class="st14" cx="80.75" cy="33.25" r="5.5"/>
	<polyline class="st14" points="78.25,84.75 86.25,91.75 97.25,76.75 	"/>
</g>
<g class="st0">
	<path class="st15" d="M103.45,40.84L82.37,19.73c-1.01-1.01-2.35-1.57-3.78-1.57c-1.13,0-2.22,0.36-3.13,1.01l-0.58,0.33
		l-27.12,3.73c-0.62,0.02-1.22,0.12-1.8,0.28l-0.95-0.89c-0.04-0.04-0.08-0.07-0.12-0.11c-0.97-0.83-2.2-1.29-3.48-1.29
		c-1.43,0-2.77,0.56-3.78,1.57L16.55,43.91c-1.88,1.89-2.08,4.91-0.46,7.02c0.06,0.07,0.11,0.14,0.18,0.21l9.04,10.09
		c0.29,1.22,0.69,2.48,1.2,3.77c-2.19,2.64-2.06,6.58,0.42,9.05c0,0,0.01,0.01,0.01,0.01l0.03,0.03c1.24,1.24,2.88,1.93,4.63,1.96
		c-0.03,0.27-0.06,0.54-0.06,0.82c0,1.79,0.7,3.48,1.96,4.75l0.03,0.03c0,0,0.01,0.01,0.01,0.01c1.27,1.27,2.96,1.97,4.76,1.97
		c0.21,0,0.41-0.01,0.62-0.03c0.02,0.02,0.04,0.05,0.06,0.07c0,0.09-0.01,0.18-0.01,0.27c0,1.79,0.7,3.48,1.96,4.75l0.03,0.03
		c0,0,0.01,0.01,0.01,0.01c1.27,1.27,2.96,1.97,4.76,1.97c0,0,0.01,0,0.01,0l0.64,0.64c0.07,1.68,0.76,3.26,1.96,4.46
		c0.01,0.01,0.02,0.02,0.02,0.02l0.02,0.02c1.2,1.19,2.77,1.87,4.44,1.94l1.77,1.77c1.45,1.45,3.38,2.25,5.44,2.25
		c2.37,0,4.57-1.06,6.04-2.92c0.8-1.01,1.3-2.17,1.52-3.37l1.11,1.11c1.47,1.47,3.5,2.32,5.58,2.32c1.71,0,3.39-0.58,4.71-1.63
		c1.48-1.17,2.46-2.83,2.8-4.66c1.42,1.22,3.26,1.91,5.13,1.91c1.71,0,3.38-0.58,4.71-1.63c1.72-1.36,2.78-3.4,2.91-5.59
		c0.12-2.03-0.57-4.03-1.91-5.54c1.24-0.22,2.41-0.74,3.39-1.51c1.72-1.36,2.78-3.4,2.91-5.59c0.13-2.19-0.69-4.34-2.23-5.89
		l-2.86-2.86c0.1-0.1,0.2-0.21,0.3-0.33c5.35-6.82,8.23-11.89,9.3-16.38c0.08-0.15,0.16-0.3,0.22-0.46l0.59-1.49
		C105.48,45.26,105.18,42.58,103.45,40.84z M31.73,72.43c-0.79,0-1.58-0.3-2.19-0.91l-0.03-0.03c-1.21-1.21-1.21-3.17,0-4.38
		l2.42-2.42c0.6-0.6,1.4-0.91,2.19-0.91s1.59,0.3,2.19,0.91l0.03,0.03c1.21,1.21,1.21,3.17,0,4.38l-2.42,2.42
		C33.31,72.13,32.52,72.43,31.73,72.43z M40.51,79.1c-0.6,0.6-1.4,0.91-2.19,0.91c-0.79,0-1.58-0.3-2.19-0.91l-0.03-0.03
		c-1.21-1.21-1.21-3.17,0-4.38l5.73-5.73c0.61-0.6,1.4-0.91,2.19-0.91s1.58,0.3,2.19,0.91L46.24,69c1.21,1.21,1.21,3.17,0,4.38
		L40.51,79.1z M47.94,86.18c-0.6,0.6-1.4,0.91-2.19,0.91s-1.59-0.3-2.19-0.91l-0.03-0.03c-1.21-1.21-1.21-3.17,0-4.38l3.71-3.71
		c0.6-0.6,1.4-0.91,2.19-0.91c0.79,0,1.58,0.3,2.19,0.91l0.03,0.03c1.21,1.21,1.21,3.17,0,4.38L47.94,86.18z M53.15,94.19
		c-0.79,0-1.58-0.3-2.19-0.91l-0.03-0.03c-1.21-1.21-1.21-3.17,0-4.38l1.69-1.69c0.6-0.6,1.4-0.91,2.19-0.91
		c0.79,0,1.58,0.3,2.19,0.91l0.03,0.03c1.21,1.21,1.21,3.17,0,4.38l-1.69,1.69C54.74,93.89,53.95,94.19,53.15,94.19z M63.25,96.66
		c-0.81,1.03-2,1.54-3.19,1.54c-1.04,0-2.08-0.39-2.87-1.18l-0.31-0.31c0.37-0.25,0.71-0.53,1.03-0.85l1.69-1.69
		c1.19-1.19,1.83-2.71,1.95-4.27l1.3,1.3C64.31,92.66,64.54,95.03,63.25,96.66z M101.02,45.65l-0.72,1.83
		c-0.16,0.2-0.26,0.44-0.32,0.69c-1.02,4.7-4.63,10.09-8.68,15.25c-5.15-5.15-28.31-28.32-28.31-28.32L48.05,34.9
		c-2.21,0-4.01-1.81-4.01-4.01c0-2.21,1.81-4.01,4.01-4.01l28.02-3.85c0,0,0.01,0,0.01,0l1.41-0.8c0.32-0.28,0.72-0.41,1.11-0.41
		c0.44,0,0.87,0.17,1.21,0.5l21.08,21.11C101.48,44.02,101.54,44.97,101.02,45.65z"/>
	<path class="st16" d="M94.15,71.41c1.69,1.69,1.57,4.53-0.36,6.05c-0.72,0.57-1.59,0.84-2.46,0.84c-1.09,0-2.19-0.43-3.01-1.25
		l-14.7-14.7c-0.38-0.38-0.88-0.57-1.38-0.57c-0.5,0-1,0.19-1.38,0.57l0,0c-0.77,0.77-0.77,2.03,0,2.8l18.9,18.9
		c1.69,1.69,1.57,4.53-0.36,6.05c-0.72,0.57-1.59,0.84-2.46,0.84c-1.09,0-2.19-0.43-3.01-1.25L65.13,70.89
		c-0.39-0.39-0.89-0.58-1.4-0.58c-0.51,0-1.01,0.19-1.4,0.58c-0.76,0.76-0.76,2,0,2.76l14.79,14.79c1.69,1.69,1.57,4.53-0.36,6.05
		c-0.72,0.57-1.59,0.84-2.46,0.84c-1.09,0-2.19-0.43-3.01-1.25L56.02,78.81c-0.27-1.2-0.86-2.35-1.8-3.28l-0.03-0.03
		c-1.06-1.05-2.4-1.71-3.85-1.9c0.29-0.76,0.45-1.57,0.45-2.4c0-1.8-0.7-3.49-1.97-4.76c0,0-0.01-0.01-0.01-0.01l-0.03-0.03
		c-1.27-1.27-2.96-1.97-4.75-1.97c-1.19,0-2.33,0.31-3.33,0.89c-0.29-1.18-0.88-2.26-1.76-3.14l-0.02-0.02
		c-0.01-0.01-0.02-0.02-0.02-0.02c-1.27-1.27-2.96-1.97-4.76-1.97c-1.8,0-3.49,0.7-4.76,1.97l-0.01,0.01
		c-0.23-0.73-0.43-1.45-0.59-2.17c-0.05-0.25-0.16-0.48-0.32-0.69l-9.46-10.56c-0.52-0.68-0.46-1.63,0.14-2.24L40.2,25.37
		c0.33-0.33,0.77-0.5,1.21-0.5c0.39,0,0.79,0.14,1.11,0.41l0.17,0.16c-1.41,1.39-2.29,3.32-2.29,5.45c0,4.21,3.42,7.63,7.62,7.65
		l13.43,0.17L94.15,71.41z"/>
</g>
<g class="st0">
	<polyline class="st17" points="36.05,81.6 15,61.07 35.05,42.88 	"/>
	<polyline class="st17" points="83.95,80.43 105,59.89 84.95,41.7 	"/>
	<line class="st18" x1="50.77" y1="98.29" x2="69.3" y2="21.71"/>
</g>
<g class="st0">
	<path class="st1" d="M31.18,96.5c1.67-9.29-2.33-14.82-2.33-14.82C21.99,66.2,20,46.29,20,46.29C21.33,23.95,41.45,14,41.45,14
		c16.59-7.3,30.52-1.77,30.52-1.77c8.86,3.52,14.38,11.72,14.38,11.72c5.31,5.53,5.75,18.58,5.75,18.58
		c0.22,3.98,0.44,6.41,0.44,6.41l5.97,13.27c3.98,5.31-1.33,8.18-1.33,8.18l-3.98,1.77c-3.32,0.44-2.87,4.2-2.87,4.2l0,10.62
		c0.22,7.08-7.3,7.96-7.3,7.96l-7.3,0.01c-8.4-0.22-7.95,5.09-7.95,5.09l-0.01,4.2c0.22,5.97-3.98,5.53-3.98,5.53H29.07L31.18,96.5z
		"/>
	<polyline class="st3" points="52.94,37.59 52.96,24.62 49.2,26.61 	"/>
	<polyline class="st5" points="32.74,56.66 32.9,43.27 28.43,45.26 	"/>
	<polyline class="st2" points="42.47,56.24 42.62,42.84 38.16,44.83 	"/>
	<polyline class="st3" points="66.09,56.24 66.23,42.84 62.18,44.83 	"/>
	<polyline class="st2" points="53.15,74.87 53.31,61.48 48.84,63.47 	"/>
	<polyline class="st4" points="62.89,74.87 63.05,61.48 58.58,63.47 	"/>
	<path class="st2" d="M37.07,34.03c1.32,4.51,6.86,2.71,6.84-0.1c-0.01-1.35,0.16-4.46-0.21-5.77c-1.37-4.91-6.97-2.68-6.83,0
		C36.94,29.62,36.66,32.62,37.07,34.03z"/>
	<path class="st4" d="M49.64,52.05c1.32,4.51,6.86,2.71,6.84-0.1c-0.01-1.35,0.16-4.46-0.21-5.77c-1.37-4.91-6.97-2.68-6.83,0
		C49.51,47.64,49.22,50.64,49.64,52.05z"/>
	<path class="st4" d="M37.07,70.6c1.32,4.51,6.86,2.71,6.84-0.1c-0.01-1.35,0.16-4.46-0.21-5.77c-1.37-4.91-6.97-2.68-6.83,0
		C36.94,66.19,36.66,69.19,37.07,70.6z"/>
	<path class="st4" d="M73.72,52.05c1.32,4.51,6.86,2.71,6.84-0.1c-0.01-1.35,0.16-4.46-0.21-5.77c-1.37-4.91-6.97-2.68-6.83,0
		C73.59,47.64,73.31,50.64,73.72,52.05z"/>
	<path class="st3" d="M70.17,71.19c1.32,4.51,6.86,2.71,6.84-0.1c-0.01-1.35,0.16-4.46-0.21-5.77c-1.37-4.91-6.97-2.68-6.83,0
		C70.04,66.79,69.76,69.78,70.17,71.19z"/>
	<polyline class="st2" points="77.04,38.01 76.49,24.62 72.73,26.61 	"/>
	<path class="st5" d="M60.6,34.03c1.32,4.51,6.86,2.71,6.84-0.1c-0.01-1.35,0.16-4.46-0.21-5.77c-1.37-4.91-6.97-2.68-6.83,0
		C60.47,29.62,60.19,32.62,60.6,34.03z"/>
</g>
<g class="st0">
	<g class="st19">
		<rect x="26.94" y="93.43" class="st20" width="17.06" height="17.93"/>
		<line class="st20" x1="57.18" y1="101.99" x2="93.06" y2="101.99"/>
	</g>
	<g class="st19">
		<rect x="26.94" y="68.18" class="st21" width="17.06" height="17.93"/>
		<line class="st21" x1="57.18" y1="76.74" x2="93.06" y2="76.74"/>
	</g>
	<g class="st19">
		<rect x="26.94" y="42.93" class="st22" width="17.06" height="17.93"/>
		<line class="st22" x1="57.18" y1="51.49" x2="93.06" y2="51.49"/>
	</g>
	<g class="st19">
		<rect x="26.94" y="17.68" class="st23" width="17.06" height="17.93"/>
		<line class="st23" x1="57.18" y1="26.24" x2="93.06" y2="26.24"/>
	</g>
	<polyline class="st24" points="31.57,23.01 36.44,30.38 50.82,8.63 	"/>
</g>
</svg>
