<?xml version="1.0" encoding="utf-8"?>
<!-- Generator: Adobe Illustrator 19.1.0, SVG Export Plug-In . SVG Version: 6.00 Build 0)  -->
<svg version="1.1" id="Layer_1" xmlns="http://www.w3.org/2000/svg" xmlns:xlink="http://www.w3.org/1999/xlink" x="0px" y="0px"
	 viewBox="0 0 106.7 100" style="enable-background:new 0 0 106.7 100;" xml:space="preserve">
<style type="text/css">
	.st0{fill:#ED3985;}
	.st1{fill:#66B9B7;}
	.st2{fill:#1DA9E1;}
</style>
<g>
	<path class="st0" d="M0,44.6c0.3-1.4,0.5-2.9,1-4.2c3-8.2,8.9-12.8,17.6-13.8c0.6-0.1,1.1-0.1,1.7-0.1c0.3-1.6,0.5-3.2,0.9-4.8
		c2.4-9.4,8.1-16.1,17.1-19.6c11.2-4.4,23-1.6,31.2,7.1c1.2,1.3,2.1,2.8,3.2,4.1c0.3,0.3,0.7,0.7,1.1,0.7
		c6.1,0.7,11.4,5.8,12.3,11.9c0.1,0.7,0.5,0.6,1,0.6c3.7,0.1,7.2,1.2,10.3,3.1c11,6.8,12.5,22.8,2.9,31.5c-4.1,3.7-8.9,5.4-14.3,5.4
		c-3,0-6,0-9.1,0c0,4.6,0,9.2,0,13.8c0.3,0,0.5,0.1,0.7,0.1c3.5,0,7,0,10.5,0c0.6,0,0.9-0.1,1.1-0.7c1.2-3.1,4.4-4.8,7.6-4.1
		c3,0.6,5.3,3.5,5.2,6.6c-0.1,3.2-2.4,5.9-5.6,6.5c-3.1,0.5-6.1-1.3-7.3-4.3c-0.1-0.2-0.2-0.4-0.3-0.6c-5.1,0-10.2,0-15.4,0
		c0-5.7,0-11.4,0-17.1c-3.7,0-7.2,0-10.9,0c0,1.5,0,2.9,0,4.4c-1.1,0-2.1,0-3.3,0c0-1.5,0-2.9,0-4.4c-4,0-7.9,0-12,0
		c0,0.3-0.1,0.6-0.1,0.9c0,2.5,0,5.1,0,7.6c0,0.6,0.2,0.9,0.8,1.1c2.8,1.1,4.4,3.6,4.2,6.5c-0.1,2.7-2,5.1-4.6,5.9
		c-3.4,1.1-7-0.7-8.2-4c-1.2-3.4,0.4-7.1,3.8-8.4c0.7-0.3,0.8-0.6,0.8-1.3c0-7.3,0-14.5,0-21.8c0-0.4,0-0.8,0-1.3c1.1,0,2.1,0,3.2,0
		c0,3.7,0,7.5,0,11.3c4.1,0,8,0,12,0c0-3.8,0-7.5,0-11.3c1.1,0,2.1,0,3.2,0c0,3.8,0,7.5,0,11.3c3.7,0,7.2,0,10.9,0
		c0-1.4,0-2.8,0-4.2c1.1,0,2.1,0,3.3,0c0,1.4,0,2.8,0,4.2c4,0,7.8,0,11.7,0c0.7,0,1.4-0.2,2.2-0.4c7.6-1.9,12.8-8.6,12.8-16.3
		c0-7.8-5.3-14.4-13-16.3c-1.3-0.3-2.7-0.4-4.1-0.5c-1-0.1-2.1,0-3.3,0c0-0.7,0-1.4,0-2.1c-0.2-5.6-4.7-10.2-10.2-10.4
		c-1.2-0.1-1.9-0.5-2.5-1.5C64.9,6.6,55,2,44.5,3.7C33.8,5.4,25.4,14,24,24.8c-0.2,1.6-0.3,3.2-0.4,5c-1.1,0-2.3,0-3.5,0
		c-5.7,0.1-10.3,2.4-13.7,7c-7.4,9.9-1.1,24.9,11.2,26.3c4,0.5,8.1,0.1,12.3,0.1c0-3.6,0-7.3,0-11.2c1.1,0,2.1,0,3.2,0
		c0,8.8,0,17.6,0,26.6c-0.4,0-0.7,0-1.1,0c-4.5,0-9,0-13.4,0c-0.6,0-0.9,0.1-1.1,0.8c-1.2,3.1-4.6,4.8-7.8,4
		c-3.3-0.8-5.4-3.9-4.9-7.4c0.4-3.1,3.3-5.6,6.5-5.6c2.7,0,5.2,1.7,6.2,4.3c0.1,0.3,0.5,0.7,0.7,0.7c3.9,0,7.7,0,11.6,0
		c0-2.9,0-5.7,0-8.6c-0.4,0-0.8-0.1-1.2-0.1c-3.3,0-6.5,0.1-9.8-0.1C9.5,66,1.7,58.9,0.2,49.6c-0.1-0.3-0.2-0.7-0.2-1
		C0,47.2,0,45.9,0,44.6z M14.6,76.9c0-1.9-1.5-3.4-3.3-3.4c-1.8,0-3.4,1.5-3.4,3.4c0,1.8,1.5,3.3,3.3,3.3
		C13.2,80.3,14.6,78.8,14.6,76.9z M45.7,79.1c-1.9,0-3.4,1.6-3.4,3.4c0,1.8,1.6,3.4,3.4,3.3c1.8,0,3.3-1.5,3.3-3.4
		C49.1,80.6,47.6,79.1,45.7,79.1z M95.5,85.5c1.8,0,3.3-1.5,3.3-3.3c0-1.8-1.5-3.4-3.4-3.4c-1.9,0-3.3,1.5-3.3,3.4
		C92.1,84.1,93.6,85.5,95.5,85.5z"/>
	<path class="st1" d="M59.4,82.2c1.1,0,2.1,0,3.2,0c0,1.3,0,2.6,0,3.8c0,0.6,0.2,0.9,0.8,1.2c3,1.1,4.7,4.4,4.1,7.5
		c-0.6,3-3.4,5.3-6.5,5.3c-3.1,0-5.9-2.3-6.5-5.4c-0.6-3,1.1-6.3,4.1-7.4c0.7-0.3,0.9-0.6,0.8-1.3C59.3,84.7,59.4,83.5,59.4,82.2z
		 M60.9,96.7c1.9,0,3.4-1.5,3.4-3.3c0-1.8-1.5-3.4-3.4-3.4c-1.9,0-3.4,1.5-3.4,3.4C57.6,95.2,59.1,96.7,60.9,96.7z"/>
	<path class="st1" d="M40.2,63.4c0,1,0,2,0,3.2c-0.9,0-1.8,0-2.8,0c-0.2,0-0.5-0.4-0.5-0.6c-0.1-0.8,0-1.7,0-2.6
		C38,63.4,39,63.4,40.2,63.4z"/>
	<path class="st1" d="M76.7,55.2c-1.1,0-2.1,0-3.1,0c0-1.1,0-2.1,0-3.2c1,0,2,0,3.1,0C76.7,53,76.7,54,76.7,55.2z"/>
	<path class="st2" d="M62.5,75.1c0,1,0,2,0,3.1c-1,0-2.1,0-3.1,0c0-1,0-2,0-3.1C60.4,75.1,61.5,75.1,62.5,75.1z"/>
</g>
</svg>
