<?xml version="1.0" encoding="utf-8"?>
<!-- Generator: Adobe Illustrator 21.1.0, SVG Export Plug-In . SVG Version: 6.00 Build 0)  -->
<svg version="1.1" id="Layer_1" xmlns="http://www.w3.org/2000/svg" xmlns:xlink="http://www.w3.org/1999/xlink" x="0px" y="0px"
	 viewBox="0 0 100 102.4" style="enable-background:new 0 0 100 102.4;" xml:space="preserve">
<style type="text/css">
	.st0{fill:#ED3684;}
	.st1{fill:#5E7C79;}
</style>
<g>
	<g id="XMLID_679_">
		<path id="XMLID_867_" class="st0" d="M89.9,102.4H2.7c-1.5,0-2.7-1.2-2.7-2.7V12.5C0,11,1.2,9.8,2.7,9.8h23.9
			c1.5,0,2.7,1.2,2.7,2.7s-1.2,2.7-2.7,2.7H5.5V97h81.7V77.2c0-1.5,1.2-2.7,2.7-2.7c1.5,0,2.7,1.2,2.7,2.7v22.5
			C92.6,101.2,91.4,102.4,89.9,102.4z"/>
	</g>
	<g id="XMLID_680_">
		<g id="XMLID_677_">
			<path id="XMLID_864_" class="st1" d="M42.5,76.6c-0.7,0-1.4-0.3-1.9-0.8L24.1,59.4c-1.1-1.1-1.1-2.8,0-3.9L78.9,0.8
				c1.1-1.1,2.8-1.1,3.9,0l16.5,16.5c1.1,1.1,1.1,2.8,0,3.9L44.5,75.9C43.9,76.4,43.2,76.6,42.5,76.6z M29.9,57.5l12.6,12.6
				l50.9-50.9L80.8,6.5L29.9,57.5z"/>
		</g>
		<g id="XMLID_678_">
			<path id="XMLID_863_" class="st1" d="M19,83.7c-0.7,0-1.4-0.3-1.9-0.8c-0.7-0.7-1-1.7-0.7-2.7l7-23.5c0.4-1.4,1.9-2.3,3.4-1.8
				c1.4,0.4,2.3,1.9,1.8,3.4l-5.6,18.6l18.6-5.6c1.4-0.4,3,0.4,3.4,1.8c0.4,1.4-0.4,3-1.8,3.4l-23.5,7C19.5,83.6,19.3,83.7,19,83.7z
				"/>
		</g>
	</g>
</g>
</svg>
