<?xml version="1.0" encoding="utf-8"?>
<!-- Generator: Adobe Illustrator 19.1.0, SVG Export Plug-In . SVG Version: 6.00 Build 0)  -->
<svg version="1.1" id="Layer_1" xmlns="http://www.w3.org/2000/svg" xmlns:xlink="http://www.w3.org/1999/xlink" x="0px" y="0px"
	 viewBox="0 0 111 110.1" style="enable-background:new 0 0 111 110.1;" xml:space="preserve">
<style type="text/css">
	.st0{fill:#F15B2A;stroke:#F15B2A;}
	.st1{fill:#66B9B7;}
	.st2{fill:#ED3985;}
	.st3{fill:#1DA9E1;}
	.st4{fill:#FED208;}
	.st5{fill:#5F7D7A;}
</style>
<g>
	<path class="st0" d="M55.5,0.5c-30.4,0-55,24.4-55,54.6c0,30.1,24.6,54.6,55,54.6c30.4,0,55-24.4,55-54.6
		C110.5,24.9,85.9,0.5,55.5,0.5z M55.8,106.2c-28.6,0-51.9-23-51.9-51.5c0-28.4,23.2-51.5,51.9-51.5s51.9,23,51.9,51.5
		C107.7,83.2,84.4,106.2,55.8,106.2z"/>
	<rect x="30.2" y="30.7" class="st1" width="30.5" height="3.3"/>
	<rect x="50.7" y="37.1" class="st0" width="30.5" height="3.3"/>
	<rect x="29.9" y="44.1" class="st2" width="30.5" height="3.3"/>
	<rect x="50.6" y="50.6" class="st3" width="30.5" height="3.3"/>
	<rect x="29.9" y="57.6" class="st4" width="30.5" height="3.3"/>
	<rect x="50" y="64.3" class="st5" width="30.5" height="3.3"/>
	<rect x="30.1" y="71.3" class="st0" width="30.5" height="3.3"/>
	<rect x="50.3" y="77.9" class="st1" width="30.5" height="3.3"/>
</g>
</svg>
