<?xml version="1.0" encoding="utf-8"?>
<!-- Generator: Adobe Illustrator 19.1.0, SVG Export Plug-In . SVG Version: 6.00 Build 0)  -->
<svg version="1.1" id="Layer_1" xmlns="http://www.w3.org/2000/svg" xmlns:xlink="http://www.w3.org/1999/xlink" x="0px" y="0px"
	 viewBox="-253.1 347 100 100" style="enable-background:new -253.1 347 100 100;" xml:space="preserve">
<style type="text/css">
	.st0{fill:#ED3985;}
	.st1{fill:#66B9B7;}
	.st2{fill:#5F7D7A;}
	.st3{fill:#FED208;}
	.st4{fill:#F15B2A;stroke:#F15B2A;stroke-width:0.9;}
</style>
<g>
	<path class="st0" d="M-209.3,415.1c0,9,0,17.2,0,25.4c0,1-0.2,1.4-1.3,1.5c-1.4,0-1.4-0.6-1.4-1.7c0-5.9,0-11.6,0-17.5
		c-0.3,0-0.5-0.1-0.5,0c-2.8,3.6-6.4,4.5-10.8,4.1c-3.3-0.3-6.7,0-10-0.1c-3.2,0-5.3-2.1-5.3-5c0-2.9,2.1-4.9,5.1-5
		c2.3,0,4.7-0.3,6.9,0.1c3.7,0.4,6.3-1.1,8.6-3.8c2.6-3,5.5-5.8,8.3-8.6c1.8-1.9,4-2.8,6.8-2.7c2.1,0.1,4,0,6.1,0
		c4.9,0.1,8.6,3.8,8.6,8.5c0.1,9.8,0,19.6,0,29.4c0,1,0.4,2-1.4,2c-1.7,0-1.3-1.1-1.3-2c0-9.2,0-18.3,0-27.4c0-6.4-1.4-7.5-7.9-7.8
		c-5-0.3-8.9,0.9-11.9,5c-0.3,0.4-0.7,0.6-1,1c-5.2,7.1-11.9,10.9-21.1,9.2c-1.7-0.4-3.1,0.5-3,2.3c0.1,1.7,1.4,2.2,3,2.1
		c4.1-0.1,8.1-0.1,12.2,0c1.7,0,3-0.6,4.1-1.8C-214.2,420.1-212,417.9-209.3,415.1z"/>
	<path class="st1" d="M-199.7,378.6c-6.3,0-11.2,4.7-11.2,10.9c-0.1,6.5,4.7,11.3,11,11.3c6.3,0,11.2-4.7,11.2-10.9
		C-188.6,383.6-193.3,378.7-199.7,378.6z M-199.9,398.4c-4.9,0-8.6-3.9-8.6-8.9c0.1-4.9,3.9-8.5,8.8-8.5s8.6,3.9,8.6,8.9
		C-191.2,394.8-194.9,398.5-199.9,398.4z"/>
	<path class="st2" d="M-188.7,363.2c3.7,0,7.4,0,11.1,0c1,0,2.2-0.1,2.2,1.4c0,1.5-1.2,1.3-2.2,1.3c-7.6,0-15.1,0-22.8,0
		c-1,0-2.2,0.1-2.2-1.3c0-1.5,1.2-1.4,2.2-1.4C-196.5,363.2-192.6,363.2-188.7,363.2z"/>
	<path class="st2" d="M-174.8,408.1c-3.2,0-6.5,0-9.7,0c-1,0-1.9-0.1-1.9-1.4s0.9-1.4,1.9-1.4c6.5,0,13,0,19.4,0
		c1,0,1.9,0.1,1.9,1.4s-0.9,1.4-1.9,1.4C-168.4,408.1-171.5,408.1-174.8,408.1z"/>
	<path class="st2" d="M-180.9,402.5c-2.3,0-4.4,0-6.7,0c-1,0-1.6-0.3-1.7-1.4c0-1.1,0.7-1.4,1.6-1.4c4.4,0,8.8,0,13.3,0
		c1,0,1.6,0.3,1.7,1.3c0,1.1-0.7,1.4-1.6,1.4C-176.5,402.5-178.6,402.5-180.9,402.5z"/>
	<path class="st2" d="M-196,372c-1.5,0-3.2,0-4.7,0c-1,0-1.9-0.2-1.9-1.4c0-1.1,0.8-1.4,1.7-1.4c3.3,0,6.7,0,10,0
		c1,0,1.6,0.4,1.6,1.4c0,1.1-0.8,1.4-1.7,1.4C-192.7,372-194.3,372-196,372z"/>
	<path class="st2" d="M-180.7,372c-1.4,0-3,0-4.4,0c-1,0-1.9-0.2-1.9-1.4c0-1.1,0.8-1.4,1.7-1.4c3.1,0,6.1,0,9.2,0
		c1,0,1.9,0.2,1.9,1.4c-0.1,1.3-1,1.4-2,1.4C-177.7,372-179.3,372-180.7,372z"/>
	<path class="st2" d="M-181.2,388.1c1.4,0,3,0,4.4,0c0.9,0,1.4,0.5,1.4,1.4c0,0.9-0.5,1.4-1.4,1.4c-3,0-5.9,0-8.8,0
		c-0.9,0-1.3-0.5-1.3-1.4c0-0.9,0.5-1.4,1.4-1.4C-184.1,388.1-182.6,388.1-181.2,388.1z"/>
	<path class="st2" d="M-180.5,414.2c-1.4,0-3,0-4.4,0c-1,0-1.6-0.5-1.5-1.5c0.1-0.9,0.6-1.3,1.5-1.3c2.9,0,5.8,0,8.6,0
		c1,0,1.6,0.5,1.5,1.5c-0.1,0.9-0.6,1.3-1.5,1.3C-177.7,414.2-179.1,414.2-180.5,414.2z"/>
	<path class="st2" d="M-171.4,385.3c-1.2,0-2.4,0-3.6,0c-0.9,0-1.4-0.4-1.4-1.3c0-0.9,0.5-1.4,1.4-1.4c2.4,0,4.8,0,7.2,0
		c0.9,0,1.4,0.4,1.4,1.4c0,0.9-0.5,1.3-1.4,1.3C-169.1,385.3-170.3,385.3-171.4,385.3z"/>
	<path class="st2" d="M-168.2,390.9c-1.1,0-2.3,0-3.3,0c-1,0-1.6-0.4-1.6-1.4c0-0.9,0.5-1.4,1.4-1.4c2.4,0,4.8,0,7.2,0
		c0.9,0,1.3,0.5,1.3,1.4s-0.5,1.4-1.4,1.4C-165.8,390.9-167,390.9-168.2,390.9z"/>
	<path class="st2" d="M-167.5,411.4c1.1,0,2.3,0,3.3,0c1,0,1.6,0.4,1.6,1.4c0,0.9-0.5,1.4-1.4,1.4c-2.4,0-4.8,0-7.2,0
		c-0.9,0-1.4-0.5-1.4-1.4s0.5-1.4,1.4-1.4C-169.9,411.4-168.7,411.4-167.5,411.4z"/>
	<path class="st2" d="M-170.9,419.8c-1.2,0-2.4,0-3.6,0c-0.9,0-1.3-0.5-1.3-1.3c0-0.9,0.5-1.4,1.3-1.4c2.4,0,4.8,0,7.2,0
		c0.9,0,1.4,0.5,1.4,1.4c0,0.9-0.5,1.3-1.4,1.3C-168.6,419.8-169.7,419.8-170.9,419.8z"/>
	<path class="st2" d="M-182.2,417c0.9,0,1.8,0,2.8,0c0.9,0,1.4,0.5,1.4,1.3c0,0.9-0.5,1.4-1.4,1.4c-1.6,0-3.3,0-4.9,0
		c-1,0-1.9-0.2-1.9-1.4c0-1.3,1-1.4,2-1.4C-183.8,417-183.1,417-182.2,417L-182.2,417z"/>
	<path class="st2" d="M-182.3,385.3c-0.4,0-0.7,0-1.1,0c-1.1,0-2.4,0.3-2.4-1.4c0-1.7,1.4-1.4,2.5-1.4c0.8,0,1.6,0,2.5,0
		c1.1,0,2.2-0.1,2.2,1.4s-1.2,1.3-2.3,1.3C-181.4,385.3-181.9,385.3-182.3,385.3z"/>
	<path class="st2" d="M-166.7,399.8c0.5,0,1.1,0,1.6,0c1.1,0,1.9,0.3,1.8,1.5c-0.1,1.1-0.8,1.3-1.7,1.3c-1.2,0-2.4,0-3.6,0
		c-1.1,0-1.9-0.3-1.8-1.5c0.1-1.1,0.8-1.3,1.7-1.3C-167.9,399.8-167.3,399.8-166.7,399.8z"/>
	<path class="st3" d="M-157.6,368.6c0-2-0.5-3.5-2-4.9c-3.6-3.3-7.1-6.8-10.6-10.2c-1.2-1-2.3-1.5-4-1.5c-9.6,0-19.3,0-28.9,0
		c-3.5,0-5.7,2.2-5.7,5.8c0,5.8,0,11.4,0,17.2c0,0.9-0.4,2.1,1.4,2.1c1.7,0,1.4-1,1.4-2c0-5.5,0-10.9,0-16.4c0-2.4,1-3.9,3.6-3.9
		c9,0,17.9,0,26.9,0c1.9,0,2.7,1,2.8,2.7c0.1,1,0.1,2.1,0,3.1c-0.1,2.8,1.4,4.7,3.7,5.9c1.6,0.9,3.4,0.5,5.2,0.5
		c2.3,0.1,3.3,0.8,3.3,3.3c-0.1,16.4,0,32.8,0,49.1c0,3.3-0.9,4.2-4.3,4.2c-6.5,0-13,0-19.4,0c-0.9,0-2.3-0.7-2.3,1.3
		c-0.1,2,1.3,1.4,2.3,1.4c6.8,0,13.7,0,20.5,0c4,0,6.1-2.1,6.1-6.1c0-8.5,0-17,0-25.6C-157.6,386.1-157.7,377.4-157.6,368.6z
		 M-169.6,358.5c1.9,1.9,3.7,3.7,5.5,5.5C-169,364.8-170.2,363.5-169.6,358.5z"/>
	<path class="st4" d="M-218.2,390.2c0-3.8-2.7-6.5-6.5-6.5c-5.8-0.1-11.6-0.1-17.5,0c-3.9,0-6.6,2.7-6.6,6.7c0,5.8-0.1,11.4,0,17.2
		c0,4,2.7,6.6,6.6,6.7c2.9,0.1,5.8,0,8.6,0s5.8,0,8.6,0c4-0.1,6.7-2.7,6.8-6.6C-218.1,401.9-218.1,396-218.2,390.2z M-220.9,407.3
		c-0.1,2.9-1.3,4.1-4.1,4.1c-5.7,0.1-11.3,0.1-16.9,0c-2.6,0-4-1.4-4-4c0-5.7,0-11.3,0-16.9c0-2.5,1.3-4,4-4c5.8,0,11.4-0.1,17.2,0
		c2.4,0,3.8,1.4,3.8,3.9c0.1,2.9,0,5.8,0,8.6C-220.9,401.7-220.9,404.5-220.9,407.3z"/>
</g>
</svg>
